<svg width="512" height="512" viewBox="0 0 512 512" fill="none" xmlns="http://www.w3.org/2000/svg">
<path d="M267.574 363.928C260.51 370.992 252.741 375.936 244.265 378.762C235.789 381.587 225.9 383 214.599 383C198.353 383 185.757 380.175 176.81 374.524C167.863 368.637 162.33 358.748 160.211 344.856L154.914 309.537C152.559 293.055 149.263 280.576 145.025 272.1C141.022 263.623 134.901 259.385 126.66 259.385H110.768V340.618C110.768 349.565 111.356 356.04 112.534 360.043C113.946 364.046 116.301 366.753 119.597 368.166C122.893 369.579 128.308 370.521 135.843 370.992V378.055C122.187 377.349 102.527 376.996 76.8637 376.996C48.3749 376.996 27.4203 377.349 14 378.055V370.992C21.5342 370.521 26.9494 369.579 30.2457 368.166C33.7773 366.753 36.1318 364.046 37.309 360.043C38.4862 356.04 39.0748 349.565 39.0748 340.618V165.438C39.0748 156.49 38.3685 150.015 36.9558 146.012C35.7786 142.01 33.5419 139.302 30.2457 137.889C26.9494 136.476 21.5342 135.535 14 135.064V128C27.4203 128.706 47.6686 129.06 74.7447 129.06L115.359 128.706C120.068 128.471 125.483 128.353 131.605 128.353C167.392 128.353 193.997 133.416 211.42 143.54C229.079 153.665 237.908 169.087 237.908 189.807C237.908 207.467 231.315 222.536 218.13 235.015C204.945 247.494 182.814 255.147 151.735 257.972C175.75 259.62 193.88 264.212 206.123 271.747C218.366 279.046 225.9 289.877 228.725 304.24L236.142 340.971C237.79 349.683 239.791 355.687 242.146 358.983C244.5 362.28 247.796 363.928 252.034 363.928C256.272 363.928 259.922 362.397 262.983 359.337L267.574 363.928ZM129.839 135.064C124.423 135.064 120.303 135.888 117.478 137.536C114.888 139.184 113.122 142.127 112.18 146.366C111.239 150.604 110.768 156.961 110.768 165.438V252.321H120.303C137.02 252.321 148.439 247.259 154.56 237.134C160.682 226.774 163.743 212.294 163.743 193.693C163.743 174.385 161.035 159.787 155.62 149.897C150.44 140.008 141.846 135.064 129.839 135.064Z" fill="#FFF"/>
<path d="M471.806 129.06C482.872 129.06 491.937 128.706 499 128V135.064C492.878 138.125 486.639 143.658 480.282 151.663C474.161 159.669 468.628 170.618 463.683 184.51L394.816 378.055C387.282 377.584 381.042 377.349 376.098 377.349C371.389 377.349 365.268 377.584 357.733 378.055L265.204 157.668C262.143 150.133 258.729 144.6 254.962 141.068C251.43 137.301 247.898 135.299 244.367 135.064V128C261.319 128.706 282.744 129.06 308.643 129.06C335.484 129.06 355.261 128.706 367.975 128V135.064C359.028 135.535 352.671 136.594 348.904 138.242C345.137 139.891 343.253 143.187 343.253 148.132C343.253 152.134 344.666 157.668 347.491 164.731L408.589 315.188L442.846 219.122C450.616 197.46 454.501 180.036 454.501 166.85C454.501 146.366 444.848 135.77 425.541 135.064V128C443.2 128.706 458.621 129.06 471.806 129.06Z" fill="#FFF"/>
</svg>
