<svg width="24" height="24" viewBox="0 0 24 24" fill="none" xmlns="http://www.w3.org/2000/svg">
<path d="M4 9.65625V21.6094C4 21.8251 4.17488 22 4.39062 22H16.1094C16.3251 22 16.5 21.8251 16.5 21.6094V18.6275L20.023 17.9347C20.2346 17.8931 20.3725 17.6878 20.3309 17.4761L18.0699 5.97754C18.0499 5.87586 17.9904 5.78633 17.9043 5.72855C17.8183 5.67082 17.7129 5.64961 17.6112 5.66961L12.2031 6.73305V5.07555C12.8763 4.90164 13.375 4.28922 13.375 3.5625C13.375 2.70094 12.6741 2 11.8125 2C10.9509 2 10.25 2.70094 10.25 3.5625C10.25 4.28922 10.7487 4.90164 11.4219 5.07555V6.88668L6.11262 7.93066C6.01094 7.95066 5.92141 8.0102 5.86367 8.09621C5.8059 8.18223 5.78473 8.28766 5.80469 8.3893L5.97703 9.26562H4.39062C4.17488 9.26562 4 9.44051 4 9.65625ZM11.4219 7.68289V8.875C11.4219 9.09074 11.5968 9.26562 11.8125 9.26562C12.0282 9.26562 12.2031 9.09074 12.2031 8.875V7.52926L17.3786 6.51156L19.4889 17.2435C19.0227 17.3352 9.19391 19.2679 8.75695 19.3538L6.64664 8.62188L11.4219 7.68289ZM4.78125 10.0469H6.13066L8.06578 19.8879C8.10746 20.0998 8.31293 20.2373 8.52441 20.1958L15.7188 18.7811V21.2188H4.78125V10.0469Z" fill="black"/>
<path d="M10.0649 15.8823C9.85318 15.9239 9.71529 16.1293 9.75693 16.341C9.79861 16.5529 10.0041 16.6905 10.2156 16.6489L17.1148 15.2923C17.3265 15.2507 17.4643 15.0453 17.4227 14.8337C17.3811 14.622 17.1755 14.4841 16.9641 14.5257L10.0649 15.8823Z" fill="black"/>
<path d="M9.31077 12.049L16.2097 10.6924C16.4214 10.6508 16.5592 10.4455 16.5176 10.2338C16.476 10.0221 16.2705 9.88426 16.059 9.92586L9.16006 11.2825C8.94838 11.3241 8.81053 11.5294 8.85213 11.7411C8.89377 11.953 9.09924 12.0906 9.31077 12.049Z" fill="black"/>
<path d="M9.6127 13.5823C9.40102 13.6239 9.26317 13.8292 9.30477 14.0409C9.34645 14.2528 9.55192 14.3904 9.7634 14.3488L16.6625 12.9922C16.8741 12.9506 17.012 12.7453 16.9704 12.5336C16.9288 12.3219 16.7232 12.184 16.5118 12.2257L9.6127 13.5823Z" fill="black"/>
</svg>
