<svg width="342" height="342" fill="none" xmlns="http://www.w3.org/2000/svg"><path d="M170.965 342c94.422 0 170.965-76.559 170.965-171 0-94.44-76.543-171-170.965-171C76.544 0 0 76.56 0 171c0 94.441 76.544 171 170.965 171Z" fill="#1D1D1B"/><path d="M170.965 338.28c-44.672 0-86.668-17.394-118.261-48.994C21.11 257.686 3.719 215.682 3.719 171c0-44.681 17.391-86.685 48.985-118.285C84.297 21.115 126.293 3.72 170.965 3.72c44.673 0 86.668 17.395 118.262 48.995 31.593 31.6 48.984 73.604 48.984 118.285 0 44.682-17.391 86.686-48.984 118.286-31.594 31.6-73.589 48.994-118.262 48.994Z" fill="#C03F13"/><path d="M170.965 334.58c-43.692 0-84.747-17.006-115.646-47.911S7.418 214.7 7.418 171 24.421 86.236 55.319 55.33c30.9-30.904 71.954-47.91 115.646-47.91 43.692 0 84.747 17.006 115.646 47.91 30.898 30.906 47.901 71.97 47.901 115.67s-17.003 84.764-47.901 115.669c-30.899 30.885-71.975 47.911-115.646 47.911Z" fill="#1D1D1B"/><path d="M170.966 330.86c-42.69 0-82.826-16.638-113.03-46.827-30.184-30.19-46.818-70.334-46.818-113.053 0-42.699 16.634-82.843 46.818-113.033 30.183-30.19 70.319-46.828 113.03-46.828 42.71 0 82.826 16.638 113.03 46.828 30.183 30.19 46.818 70.334 46.818 113.033s-16.635 82.842-46.818 113.032c-30.204 30.231-70.34 46.848-113.03 46.848Z" fill="#C03F13"/><path d="M170.964 327.161c-41.709 0-80.905-16.25-110.394-45.745C31.082 251.921 14.835 212.697 14.835 171c0-41.718 16.247-80.921 45.735-110.416 29.469-29.495 68.685-45.745 110.394-45.745s80.905 16.25 110.394 45.745c29.488 29.495 45.735 68.719 45.735 110.416 0 41.718-16.247 80.921-45.735 110.416-29.489 29.495-68.705 45.745-110.394 45.745Z" fill="#1D1D1B"/><path d="M170.965 319.741c-39.727 0-77.063-15.473-105.162-43.557C37.704 248.099 22.255 210.735 22.255 171s15.47-77.079 43.548-105.184C93.882 37.732 131.238 22.26 170.965 22.26c39.727 0 77.063 15.473 105.162 43.557 28.079 28.085 43.549 65.449 43.549 105.184s-15.47 77.079-43.549 105.184c-28.099 28.084-65.455 43.557-105.162 43.557Z" fill="#CDC6BE"/><g clip-path="url(#a)"><path d="M144.787 69.935c-.274-1.088-.292-.886-.423-.755-1.023 1.457.66 2.492.202 2.177-.927-.607-1.326-1.279-.797-2.308.53-1.017.72-.202.22-1.451-.588-1.32-1.029-2.23-1.201-.821-.155 1.362.297 1.737.28 1.838.005.012 0 .018-.018.024.012-.006.018-.018.018-.024-.036-.072-.506-.286-.702-1.54-.113-.732-.672 4.918 2.45 7.512.643.481.405.701.5-1.844.042-1.196.083-1.624.095-1.737-.024.155-.178.69-.624-1.07Z" fill="#FFBD99"/><path d="M159.77 156.354c-4.36.197-2.861-.499-4.771 3.284 4.17-.756 3.736-.464 3.748-.732.035-1.249-.108-2.29 1.023-2.552Z" fill="#934842"/><path d="M148.195 291.173c-3.569-2.695-3.224-2.231-3.861-1.88-5.716 3.95-7.863 2.493-3.033 3.73 3.111.797 7.941-.339 8.208-.28.006-.386-1.011-1.314-1.314-1.57ZM141.955 285.165c-9.778-3.89-15.28-5.882-21.044-14.287-1.196-1.748-.583-2.397-1.79-2.397-4.676 0-1.583 5.092 1.433 12.122 1.493 3.516 8.083 8.643 11.081 9.148 1.374.113 4.009-1.522 9.63-3.17.339-.214.214-.779.69-1.416Zm-15.548-.023c-3.147-2.57-9.083-12.235-.987-2.189 2.539 3.14 4.877 5.377.987 2.189Zm-1.82-4.194c-1.101-1.481-2.718-3.342 4.711 4.164.737.791-3.284-2.248-4.711-4.164Zm1.297-.945c-.006-.006 0-.012.005-.012h.006c9.428 6.662 7.221 6.745-.011.012Z" fill="#AFA29C"/><path d="M154.47 44.52c-.179-1.434 3.432.023 4.134 3.366.607 2.89-.559 3.033 1.189 3.319 1.44.25 2.784.25 3.593.148 2.629-.398 2.373.316 2.891-3.182.267-2.617-.571-4.93-1.523-6.049-.44.03-.178-.154.369 1.136 1.588 3.765-.863 6.454-.886 6.507 2.004-4.473-2.403-9.517-3.641-10.153-1.1-.393-.773-.208-1.522-.327 3.372 4.538 3.908 9.57 3.592 9.445.179.072-.535-1.403-1.505-3.711-2.968-1.713-5.668-5.098-11.354-1.303 1.772-.511 3.491-.595 4.663.803Zm3.825-.441c-.072 0 1.046.78 1.588 1.874.678 1.38.713 3.116.357 4.21-.036.102.053-.296-.072-1.343-.702-4.319-2.266-4.741-1.873-4.741Z" fill="#C67E59"/><path d="M124.646 248.823c.298 4.128-.41 3.717.595 3.271.119-.03-.654-3.973-.595-3.271Z" fill="#336977"/><path d="M122.535 183.953c1.106-1.195 1.124-1.088.333-.797-1.071.488-.863.482-.815.524.452.41.274.499.482.273Z" fill="#FFBD99"/><path d="M124.765 185.333c1.975.119 4.069 1.874 4.89 3.563 2.278-3.563 1.927-2.748 1.582-3.093-.708-.547-2.504-3.497-5.669-3.099-.999.137-.386-.261-2.248 1.785-1.838 2.034-.999.684 1.445.844Z" fill="#FF8DD9"/><path d="M121.5 202.476c3.688-5.122 2.409-4.705 5.769-9.993.905-1.422 1.511-.952-.279-5.139-.143-.327.125-.232-.88-.69-1.535-.583-2.017-.601-4.259.636-6.769 3.712-5.752 1.678-6.204 4.021-.91 4.467-1.499 3.022.97 4.527 2.29 1.385 1.647 1.332 1.968 1.427 1.345-1.969 3.373-.416 1.904 1.808-.583.887-1.077.22-.863-.119 1.011-1.54.476-2.486-.493-1.088-.221.315-.149-.387.725 2.129.191.226 1.22-.922 1.267-.975 1.44-2.017 1.077-2.475-.196-4.265-1.838-2.308-4.033-2.332-2.873-2.332 2.082 0 2.236 1.832 2.617-.493-.006-.226.018-.559-.648-1.095-.744-.535 1.136.095.993 1.148-.226 1.576-.868.994-.053 1.582 0 .054 2.593.869 4.128-2.325.868-2.266-.78-4.176-1.273-4.158-.494.232.208-.607 1.064.345 3.403 3.819-.809 7.096-2.516 7.138 2.237 2.456-.279 6.715-2.319 6.715-.542 0-.684-.369-1.19-1.612-.559-1.243.065-1.338-3.349-2.843-1.011-.446-.404-.44-.654 1.796-.071.637-.107 1.957-.119 2.487-.03 1.326-.315.695 2.01 1.124 5.241.922 4.069 1.201 4.753.244ZM116.551 204.974c.202.66 1.463-.185 3.111-.542.517-.107.101.072-1.505-.291-2.468-.541-2.135-.874-1.606.833Z" fill="#FFBD99"/><path d="M131.528 253.111c-2.456-.178-3.806.119-6.043.934.22.41.262.274 1.808 2.242.887 1.131 1.981 2.796 5.865 4.182.482.178.399.244.292-.196a2119.98 2119.98 0 0 1-1.922-7.162Z" fill="#20444C"/><path d="M160.573 62.631c1.618-.607 5.668-5.912 7.946-1.963-2.141-.327-2.444.428-3.973 1.095 2.825-.19 4.181.588 4.223.368.333-1.183.256-1.005.202-1.005-.577 0-.22-2.32-.886-6.055-.839-4.705.738-1.487-5.674-2.248-3.623-.423-4.783-1.553-6.93-1.904-3.45-.553-7.447.928-7.227 4.717.274 1.654 1.053 2.332.565 3.07-3.015 4.496-2.153 3.67-1.302 3.592.708-.066 2.742-4.866 7.506-.482.625.113 1.237.226 1.838.446 1.029.387 3.319-.345 3.712.369Zm.255-1.166c1.493-1.647 3.058-2.385 3.111-2.385-.047 0-3.438 2.873-3.111 2.385Zm1.089-1.642c-.571.56-1.208 1.047-1.856 1.511-1.184.595 6.353-5.876 1.856-1.51Z" fill="#FFBD99"/><path d="M178.875 287.89c-1.053 3.527-1.583.981.398 2.956 1.796 1.802 1.297 1.933 1.773 1.219.452-.678.44-.458.261-.993-.38-.845-2.117-3.04-2.432-3.182ZM150.051 290.168c.005-.078-4.747-5.312-4.331-4.146.363 1.065.75 3.307-.321 2.956 5.514 2.129 4.58 3.206 4.652 1.19Z" fill="#7C332F"/><path d="M150.824 173.877c8.589 4.658 13.436 11.284 9.743 6.24-1.279-1.743-4.289-5.086-2.725-5.127.036-.203.53-3.813 1.202-7.685.904-6.775 1.38-3.456-3.224-5.116-1.16-.416-1.303-.707-1.172-.672.607.101.97.738 4.628.577.696-.041.476.25.761-1.612-1.029-.125.53-.666-5.21.333-2.147.363 3.099-2.331-9.523 10.719-12.461 12.848-18.748 25.814-22.311 31.126-4.806 7.138-3.539 2.73 2.076 45.699.815 6.222-1.113 2.552 5.073 2.706 3.117.089 4.783 1.154 6.032 1.249 2.415.167 4.455 1.91 6.096 3.42 1.577 1.44-.142.833-.404-7.447 2.468 7.566-.613.292 1.856-24.19 1.838-18.225 5.734-14.936-6.115.821-4.514 6.001-5.514 4.484-5.323 4.484 1.778-.356 4.342-5.055 5.573-7.078 7.958-13.062 11.022-13.728 2.57-7.328-1.94 1.457-2.273 1.725-2.177 1.606-.054.036 7.096-8.845 12.651-14.703 5.942-6.264 7.84-7.096 10.921-10.969.041.036-21.384 15.9-21.503 15.257-.005.006-.017.012-.023.018.006-.006.018-.012.023-.018-.029-.149 1.035-1.136 3.7-3.36 20.806-17.351 21.288-12.652 19.944-15.4-3.967-8.208 3.527 2.213-13.139-13.55Zm-12.033 60.058c9.439-27.647 4.199-10.112.577-.262-.898 2.445-1.862 4.866-2.623 7.358-.078.16.226-1.737 2.046-7.096Zm-17.41-25.089c0-.018.006-.024.018-.024-.006 0-.012.006-.018.024-.042.488 3.408 8.577 5.859 32.119 0 2.969-6.103-31.102-5.859-32.119Zm26.713-4.877c-.274 0-5.259 6.287-11.593 9.32-4.604 2.195-6.394-.012-6.305.036 4.092 2.98 16.083-9.356 17.898-9.356Zm-17.256-9.88c-1.118 1.677-2.456 3.914-2.337 3.682 5.65-10.844 17.778-22.734 17.826-22.734-.059 0-13.484 16.042-15.489 19.052Zm11.968.993c7.054-4.503 15.631-8.22 19.902-8.22.006 0 .006.006 0 .012-13.585 6.822-19.95 8.244-19.902 8.208Z" fill="#336977"/><path d="M143.192 281.68c-3.586-1.475-2.403-1.85-4.247-3.254-.458-.357-.594-.553-1.011-1.189-1.035-1.589-.684-.869-1.992-.869-8.238 0-12.991-5.383-12.943-5.436-3.022-2.766-4.283-2.921-1.113.446 6.781 7.233 13.806 9.689 20.111 13.698.856-1.237 2.54-1.059 3.325.119.154.256.749.173 1.683.863 2.474 1.855 3.04 4.276 3.051 3.67-.713-4.366.042-3.819-1.754-6.543-.768-1.166-1.511-2.314-1.963-3.42-.28 1.974-1.558 2.557-3.147 1.915Z" fill="#7C332F"/><path d="M166.996 48.278c-.571 2.052-1.142 2.748-1.029 2.736 5.722-.928 3.551-8.844-.452-8.934-.565-.017 2.588 2.22 1.481 6.198Z" fill="#C67E59"/><path d="M138.125 259.155c-.869-.339-2.308-.774-3.147-.577-.321.077.018-.203.643 2.783.809 3.878.82 5.651.916 6.008 1.701 6.221.065 3.182 3.89 1.636.559-.232 1.707-.238.684-.066-.756.238-2.326 1.285-3.302 2.474-.285.393-.113.06-.023 1.261.047.607-.048.56.16.411 3.117-2.118 5.526.726 4.985.279-.869-.713-3.23-.933-5.104.268.024 1.951-.16 1.689-.053 1.814.154.208 2.694-2.438 4.615.69-.565-.488-1.189-1.059-2.278-.975-2.694.499-2.028.612-1.677 1.076 1.523 1.963 3.979 4.812 6.507 4.705 1.868-.755.393-3.473-1.059-8.535-3.188-11.147-.642-10.986-5.757-13.252Z" fill="#304149"/><path d="M142.978 261.914c.827-.125.91.256.042-1.891-1.332-2.956-.863-1.505-.042 1.891Z" fill="#336977"/><path d="M156.1 65.754c.404-.298.642-.256.672-1.797.012-.892.327-.559-.054-.755-2.123-1.023-6.257-1.243-8.41-.018.023 3.45.612 5.175 5.519 4.681 1.416-.214 1.815-.458 2.255-1.267.232-.422.666-.957-1.154.262-.381.107 1.017-.993 1.172-1.106Zm-1.85-.91c-.226.475-4.705.214-4.592-.018.16-.137 2.177-1.487 2.54-1.606 1.784-.571 3.913 1.499 3.86 1.546-.41.31-.565.143-1.808.078Z" fill="#FFBD99"/><path d="M156.814 100.02c-.589.328-.726-.202-1.975-.202-3.623 0-.143 5.693.166 6.674.863-.529 2.439-.535 3.129-.387.024-.327.327-2.421.143-6.37-.607-.202-1.148-.446-1.148.018l-.006-.012c.047.006-.262.25-.309.279Z" fill="#CE1111"/><path d="M156.296 99.02c.392-.546.922-.832 1.588-.772.416.035 5.52 2.391 5.835 2.67 1.868 1.684 1.202-15.132-.196-13.716 1.302 5.65-8.673 10.623-7.233 11.385-2.611-.31-4.61-.946-6.882-2.623-1.85-1.356-.636-2.26-1.588-1.077-.28.375-.185.107-.44 3.212-.387 4.419.529 5.252 2.474 9.172 1.315 2.778-.19-10.023 6.442-8.25Zm8.178-6.197c.102 1.945-.047 3.7-.071 3.617-1.386-7.12-.333-11.552.071-3.617Zm-1.201.666c.583 2.302.416 4.455.381 4.325-.548-2.534-.435-4.533-.381-4.325Z" fill="#FF8DD9"/><path d="M163.767 102.709c.202-.69.19.053-3.873 3.884 3.795-4.973 4.539-3.926 3.266-4.556-1.445-.69-3.343-.458-3.682-.536.071 6.894-1.184 3.403.922 6.609 1.428 2.153.625 2.486 2.379-2.255-.678.53-1.368.97-2.123 1.345 2.694-2.516 1.992-.69 3.111-4.491ZM150.586 108.77c3.551 7.399 1.879 5.722 3.86-.357.523-1.606.369-.309-.28-1.653-1.112-2.362-.666-2.558-.927-2.154-.304.482-.964 1.357-1.565 2.285-.648.987-1.041 1.832-1.088 1.879Z" fill="#FF8DD9"/><path d="M151.52 84.674c-2.076-8.666-.631-4.58 1.13-.018.499 1.184.594 1.493 1.427 1.898.898.327 3.747.957 5.746 1.082-.517-.059 1.178-.392 2.016-.707 2.98-1.386 1.832-2.737 3.361-7.798.077 4.532-.262 4.806.416 1.35 2.921-15.21 3.355-11.86-.011-11.884-1.47-.03-3.355-.19-4.093-1.446-1.124-1.95.964 4.093.976 4.14-3.099-3.813-2.237-7.5-2.046-7.786-.203-.16.101-.196-.994-.196-2.98 0-.809-.19-2.093 2.909-.518 1.255-.916 2.016-2.213 2.39-2.29.66-6.24.292-7.126-1.463-.975-1.945-.517-3.866-.714-3.83-1.148.113.875 6.882-1.219 5.8 1.309 8.011.428 7.41 3.087 11.675 1.457 2.35 2.361 3.95 2.35 3.884Zm4.585-4.657c-.053-.024 1.244-.892 2.409-.892 1.154 0 2.552.827 2.493.856-1.791.458-3.01.696-4.902.036Zm8.078-9.267c-.012 0-.018.042-.018.119.184.434 1.428 2.219 1.095 6.876 0 .577-1.077-5.93-1.095-6.876-.036-.077-.036-.12.018-.12Zm-.97 8.404c-1.154-1.35-1.017-2.599-.957-2.54 1.398 1.024 1.005 2.594.957 2.54Zm-.826-7.774c-.054 0-.119 1.886-1.583 2.558-1.225.571-1.772.34-1.719.303.423-.22 2.32-2.86 3.302-2.86Zm-2.909 4.545c-.821.696-1.404-.91-.101-.952.053 0-.036.012-.268.523-.125.464.417.375.369.429Zm-1.219-5.27c-.006 0-.012-.006-.006-.012.725-.446 1.873-.785.006.012Zm-.589-.101c-.006 0-.012-.006-.006-.012 1.172-.827 2.272-.994.006.012Zm.357-.69c-.054.035-.946.583-.881.523.583-.648 2.736-1.755.881-.523Zm-1.267 3.2c.648-.886 1.641-.672 2.224.214.024.047-.684-.066-1.35-.16-.571-.06-.928 0-.874-.054Zm-.208-2.255s.006 0 0 0c.006-.005.011 0 .011.006-.22 2.784-.808 1.737-.011-.006Zm-1.767 5.812c-.369 2.23-1.439.803 2.73.458 3.617-.298 5.187 1.296 4.973 1.225-.934-.5-4.455.47-8.5.083-.214.238-.857.821-.857.762.125-1.797 1.654-2.635 1.654-2.528Zm-4.848-1.993c-.071.107.482-1.22 1.285-2.153 1.291-1.493 2.938-2.736 2.992-2.736-.054 0-3.319 3.598-4.277 4.89Zm-1.1.286c1.13-3.141 4.134-5.61 4.098-5.562-3.093 3.926-3.902 5.193-4.098 5.562-.018.041-.036.083-.048.124-.012.03-.035.036.048-.124Z" fill="#FFBD99"/><path d="m159.092 75.675-.012-.024a.046.046 0 0 1 .012.024ZM155.588 98.272c.446.19-.155.089 1.725-2.29 2.171-2.748 5.776-6.376 5.924-7.578.411-3.634-5.002 8.226-9.487 2.355-1.445-1.927-3.271-4.627-4.205-7.286-3.801-4.45-3.938-6.834-1.618 2.784 2.391 9.897 1.267 9.267 7.661 12.015Z" fill="#FFBD99"/><path d="M160.317 113.213c.969-3.176.928-.981-.916-4.336-1.565-1.529-3.063-3.129-1.017-1.564-.155-.268-.31-.661-.262-.964-2.57.256-2.534.88-2.587.922.214.071-.875 1.083.594-.351.904-.72-1.16.541-2.087 7.007-.256 2.106 1.736 4.842 2.385 5.532 1.522 1.623.719 4.086 3.89-6.246Z" fill="#CE1111"/><path d="M148.902 93.34c-.196.387-.285 1.149.238 1.547 1.136.803.887.63.577-.071-.945-2.183-.547-1.999-.815-1.475Z" fill="#FFBD99"/><path d="M147.772 58.241c-.208-.827-1.665-2.54-.059-5.323 1.618-2.796 7.298-4.455 10.938-2.118-.969-6.144-4.032-7.607-4.098-6.215 1.231 1.362.191.291-1.112-.298-1.779-.737-6.698 1.463-7.542 3.58-.5 1.125 2.135-3.395 7.393-2.016 1.362.357-2.415-1.278-9.172 5.122-1.968 3.146 1.029-2.058 5.419-2.058.393 0-.482-.018-2.665 1.41-.095.416-.244-.007 1.565-.643-2.177 1.66-3.189 4.14-3.2 4.2-.102.25.101-.215 1.165-1.458-2.504 6.133-1.945 4.568-1.302 9.309.148 1.154-.066.946.832.79 1.113-.19-.368-.124 1.838-4.282Z" fill="#C67E59"/><path d="M159.918 145.814c-.107.327-.874 2.564-.975 2.719 4.735 3.414 5.764 6.174 5.692 6.174.078 0-1.534-1.517-1.582-1.565-7.536-7.352-1.808-5.085-6.507 3.147 6.168-2.433 5.228 1.029 2.837-4.437 3.64 4.526.607 2.932 4.949 3.235 2.433.161 2.54.887.85-1.951-5.656-9.469-4.359-10.094-5.264-7.322Z" fill="#FF8DD9"/><path d="M165.866 157.039c.054.368.096.701.125 1.225 3.272-.077 2.052.452.744-2.385-3.391.345-1.071-.333-.869 1.16Z" fill="#934842"/><path d="M164.361 162.344c-7.096 1.796-2.29-3.236-5.21 11.486-.714 3.563-1.285 1.011 1.933 6.221 1.642 2.659 1.166 2.029 1.981 2.707 1.243 1.035 1.183 1.915-.25-1.898-1.089-2.896-1.951-5.252-1.422-7.441 2.189-9.219 2.897-8.749 1.779-8.523-.006 0-.012-.012-.006-.012.737-.268.511.137 1.195-2.54Z" fill="#336977"/><path d="M163.404 160.471c-3.736.017-3.04-.381-3.111 1.552 1.897-.143 3.039-.387 4.318-.619.345-1.38.607-.939-1.207-.933Z" fill="#336977"/><path d="M161.334 87.589c-.666.047-1.089.06-1.333.06.53.023.994.011 1.333-.06Z" fill="#FFBD99"/><path d="M163.832 157.175c-3.783-.053-3.129-.232-3.331 2.225 1.582-.077 3.379-.155 4.027-.292.149-2.272 0-1.927-.696-1.933Z" fill="#9AC2CC"/><path d="M144.507 105.302c1.665.351 1.083.922 1.897-.832.209-.447-.202-.738-.279-2.142-.292-5.466 1.659-7.482-1.095-4.116-1.148 1.398-.951.69-1.808 4.116-.934 3.688-.928 2.516 1.285 2.974Z" fill="#467D89"/><path d="M143.888 64.07c-.921.018-1.255.03-1.445 1.702 1.451-1.957 3.057 3.057 3.105 2.628.018-.166-.042-2.248-.303-3.211-.435-1.588-.518-1.136-1.357-1.119Z" fill="#FFBD99"/><path d="M126.425 181.884c1.029-.09 2.135.107 3.271.69 3.843 1.98 2.171 3.051 3.635 1.385.154-.178-.31-2.694.737-4.8.464-.934 3.313-4.282 2.79-3.86.797-1.606-.256-.303 2.189-7.048 2.052-5.687 4.092-7.412 6.899-16.655-5.805-11.111-10.587-14.739-15.25-26.897.458.791 20.009 31.554 13.888 22.829 2.481 4.669.31 5.668 4.033-3.409-2.421 14.157-2.01 12.033-1.82 11.712 1.112-1.85 2.825-4.401 5.21-7.453-5.412 10.296-5.555 9.142-6.114 10.528-2.962 7.263-4.318 7.197-6.037 10.903-2.606 5.651-1.083 4.063-2.124 6.186-.845 1.749-2.415 2.617-2.778 5.014-.19 1.541-.273 1.368.333.654 20.396-24.143 19.332-23.768 22.68-33.796.482-1.446 1.333-5.104 1.333-5.104.458-.928.803 1.541-2.272-6.007-2.005-4.913-1.945-5.544-.833-10.576.91-4.413 1.368-3.836.862-3.973-.684-.191-3.253-4.878-3.295-4.931-9.428-12.015-5.163-14.359-8.077-8.803-2.939 5.561-2.552.398 9.172 16.363-2.225-1.927-13.152-11.42-12.123-14.168 1.487-3.956 4.848-4.122.452-4.337-2.569-.142-2.248-.785-.713-4.181 1.362-4.289-.601 2.48-8.589 6.852-1.339 4.372-2.933 8.274-2.962 10.457 0 0-.006.012-.012.012l-.012-.006c-1.582-6.751 6.614-13.33.154-8.5-3.116 2.498-3.67 8.422-3.253 12.36-.006-.155.089 1.874 2.391 6.412 1.654 3.277 4.877 6.87.642 2.248-1.386-1.505-1.124-1.832-1.076-.743.137 3.093.065 3.771 4.847 6.4-2.641-.512-1.159-.922-1.843.226-.286.476-.536.636-1.006 1.594-.166.5 2.719 4.509 3.432 7.393.565 2.267-1.332 4.42.03 6.079 1.594.631 1.82.548 1.987.934.69.143.612.113.154.155-.273.012.244.5-.749.874-1.463.553-1.118.292-1.321 1.654.334-.173 7.334-3.771 8.018-4.812.262-.262-.119.44-.624.975-3.985 4.194-7.334 3.361-7.405 4.069-.417 4.08-1.678 9.868-4.759 14.114 4.431-2.307 6.222-3.937 9.237-6.869.589-.5-3.015 6.102-8.755 8.933-7.06 3.48-2.177-1.796-9.083 10.261-.535.803.762-1.576 4.509-1.338Zm24.232-31.739c.107-.149.22-.292.333-.44-.113.142-.226.291-.333.44Zm4.55-17.172c-.005 0-.071.041-.172.113-.274.369-.625 1.582-4.057 2.873-.065.017 3.26-2.326 4.057-2.873.054-.072.107-.113.172-.113Zm-12.824-9.993c-.005 0 .03.03.078.077 1.291.803 16.024 7.507 7.738 4.527-4.086-1.469-7.233-4.069-7.738-4.527-.078-.047-.107-.077-.078-.077Zm-9.207 17.588c-.298.024-.547-.481-.494-.446.363.316.179.768 4.247-2.236.06-.03-1.826 2.534-3.753 2.682Z" fill="#467D89"/><path d="M185.441 294.082c3.385-.893 2.272 1.231 2.219-3.688-.072-5.585.88-3.397-1.279-3.397-1.017 0-1.202-.232-1.713-1.171-1.225-2.326.315-4.104-.744-3.522-2.391 1.321-2.557 1.452-4.08 3.819-1.118 1.731-1.094 1.273.512 2.564 2.325 1.885 2.575 2.819 2.617 6.293.012 1.13-.095-.22 2.468-.898Z" fill="#7C332F"/><path d="M204.344 158.127c-1.255.559.958.113.904.125.411-.203 1.422-1.077-.904-.125Z" fill="#FFBD99"/><path d="M170.547 124.699c-.327.88 24.245 44.765 24.292 44.747.672-1.57 2.576 1.808-13.817-27.45-11.492-20.515-9.999-18.588-10.475-17.297Z" fill="#1C3F47"/><path d="M208.276 215.543c1.017.905.333.5.309-.16-.297-.339-.095-.179-.309.16Z" fill="#FFBD99"/><path d="M210.607 158.377c.096-.208-12.348 7.048-12.657 7.048a.513.513 0 0 1-.488-.684c.09-.25-.238-.006 5.443-3.224 5.639-3.176 2.932-1.201.803-2.123-3.04-1.303 2.819-2.249 4.116-4.794.416-1.113.291-.559 2.772-3.337 3.604-3.979.499-1.481 6.126-2.659 1.993-.41 1.755-.696 1.844-.969-2.689-.143-1.921-1.69-1.945-2.362-1.755-1.57-1.172-.416-.928-5.871-.19-13.644 1.784-16.38 1.713-18.825-.226-6.4 1.856-5.157.773-5.788-1.79-1.07-2.01-2.361-2.218-2.349-3.759.19-3.064-.571-9.38-3.878-78.467 34.558 11.735-6.507-2.707-.185-35.593 15.59-28.473 12.735-32.22 13.752-.631 1.368 23.096 42.725 23.691 43.754 1.314 2.278-.107 2.231 11.438-4.288 2.694-1.499 3.283-1.505 3.824-3.218Zm-13.977 6.745c-.06-.048-23.21-41.589-23.239-41.648-.149-.274.065-.655.404-.655.44 0 23.406 41.434 23.429 41.488.488.583-.184 1.136-.594.815Z" fill="#00A3C9"/><path d="M193.555 170.297c.023-.316-25.25-44.248-24.946-45.17-.173-.446 1.326-5.43 2.98-4.33.023 0 .005.018-.012.03.321-.173 3.283-1.648 23.899-10.76-.625-9.969 2.129-7.031-1.975-10.368 21.08 8.488 17.374 15.501 31.174 7.941 2.367-1.202-2.671 2.861-7.334 3.599.065.089.125.19.178.285 2.207 2.04 1.999 2.165 2.855 1.88 1.815-.845 4.444-3.284 4.937-4.2-.19 1.422-3.253 5.354-5.329 5.33.184.446.036.85-.161 1.261-.951 2.004-.666 2.748-1.112 4.728 4.3-7.209 4.604-6.679 8.232-12.705-.024 1.755-1.909 5.348-2.861 6.799-9.047 13.746-2.801-6.198-7.483 27.587-.22 1.576 1.642-4.509 11.688-2.558 2.974.565 2.284 1.095 2.594-.933.731-5.633.773-5.895.47-14.615-.209-5.966-.316-4.282-.494-3.616-1.261 4.717-5.556 14.739-3.295 7.988 4.473-13.377 2.974-9.79 3.188-18.945.077-3.003.47-3.247-4.747-8.969-12.758-10.475-24.666-11.617-15.584-10.344.916.131 2.225.41 2.986.732-2.837-4.77.417-3.194-11.087-3.753-7.536-.37-9.071.124-3.01-1.035 1.113-.215 4.628-.56 7.251-.375-2.98-2.118-1.41-3.301-10.112-.547-3.307 1.047 2.576-1.743 2.629-1.767 2.665-1.059 2.528-.636 2.136-.993-1.904-1.624-4.158-3.2-8.476-3.872-2.79-.316-4.336 2.98-5.205 5.656-.719 2.225-1.189 2.7.649 7.09 1.397 3.248 4.794 10.207 3.271 7.792-6.085-9.671-7.489-11.444-2.807-19.022-4.67 2.01-5.746 2.814-7.804 3.623-7.132 2.825-12.872 1.552-11.95 2.724 1.291 1.653 7.376 5.847 6.299 6.71-.363.29-1.57.957-2.445 1.504-1.272 1.844-1.011 1.773-.588 2.1 5.168 4.05 9.409.333-13.853 32.47 8.38-22.043 17.689-26.837 15.673-29.562-2.231-2.676-5.104-3.884-7.37-3.931-.845-.024 1.445.97-3.367 15.019-7.072 20.675-11.128 14.667-2.028 29.966 12.586 21.121 5.353 12.271 11.89 20.842 4.967 6.525 3.575 2.575 12.253 13.889 3.278 4.246 2.13 4.223 5.33 1.897 3.408-2.48 5.18-3.182 10.903-7.013 6.661-4.479 3.812-3.253 5.234-5.579.482-.72-13.574 9.416-13.264 5.52Zm-3.016-83.957c-.113.03 2.189-1.51 3.979-2.16 2.29-.826 3.962-.88 3.813-.844-2.564.904-3.063 1.547-7.792 3.004Zm1.237 13.4c-.024 0-.059.043-.095.102-.184.637.47 4.241-3.831 12.027-.517.773 3.088-10.849 3.831-12.027.018-.065.048-.101.095-.101Zm-2.599 1.851c-2.272 6.245-6.656 11.515-6.638 11.468 2.76-7.007 6.769-11.73 6.638-11.468Zm-30.811 28.051c.232-.94.898-1.576.821-1.457a5.388 5.388 0 0 0-.244.44c.178-.155.904-.577 1.582-.518.904.089 1.374.321.91 1.588-1.487 4.081-3.652 2.326-3.069-.053Zm.107 2.748c-2.314-6.84 2.421 6.323 9.309 15.465-4.319-4.325-7.471-9.981-9.309-15.465Zm7.197 9.136c-7.94-10.385 1.452-.678 8.976 8.375.059.095-5.175-3.414-8.976-8.375Z" fill="#467D89"/><path d="M207.604 223.003c.036-.018.054-.036 0 0Z" fill="#FFBD99"/><path d="M232.193 152.209c-1.011-1.654-.006-1.696-5.056 1.136-.595 2.504-1.594 2.177 5.056-1.136Z" fill="#1C3F47"/><path d="M217.275 143.126c-.826.779-.803.589-.285.892.393.095.339.506.398.042.179-1.386.292-1.309-.113-.934Z" fill="#FFBD99"/><path d="M229.005 141.258c-3.533-.737-5.437-.333-7.709-.119-3.515.512-2.825 1.44-3.105 4.58-.077 1.023-.226.161 1.963-.773 2.249-.957 4.414-1.534 6.228-.184 1.148.719 1.404 1.136 1.297 1.13.678 0 .814-4.069 1.326-4.634Z" fill="#FF8DD9"/><path d="m230.849 140.277.047.018c.226-1.422-.041-.072-.047-.018Z" fill="#FFBD99"/><path d="M247.438 136.369c1.225-.666.66-.107.268-.952-1.357-1.832-17.059-37.276-17.077-37.502-4.89 2.213-4.176 1.225-2.397 2.932 5.061 4.806 5.133 4.658 5.287 9.797 0 .059-.208 23.483-.684 27.843-.464 4.122-.612 3.682-2.712 5.299-.987.815-.291 3.022-2.189 3.373-.196.684-1.047.398 19.504-10.79Z" fill="#00A3C9"/><path d="M221.195 163.611c-.119-.048-.416-.155-.589-.381-.832-1.058.167-.85-1.07-.166 1.933 3.575-.048 3.468 11.343-2.742 5.507-2.998 4.699-2.32 4.33-3.081-.078-.167-.655-1.273-.916-1.119-.054.03-9.88 5.764-10.076 5.752-.202.226-.988 2.415-3.022 1.737Z" fill="#1C3F47"/><path d="M226.638 155.682c-.31 3.206-1.202 1.434 5.359-1.32.137-.06.595-.274.72-.274 1.516 0-2.356 1.684-4.396 2.921-3.515 2.129-1.475.719-2.956 3.39 7.56-4.366 5.68-3.265 8.696-5.05-.863-1.433-.708-1.219-1.624-2.724-6.228 3.289-5.799 3.004-5.799 3.057ZM227.673 97.891c-2.284 1.035-2.082.72-1.458 1.225 6.192-2.694 2.665-1.13 4.925-2.224 1.16-.553-.523-4.33 14.865 31.078.773 1.791 3.081 7.156 2.92 7.596-.297.773 4.925-1.743-17.309 10.843-4.627 2.618-4.122 1.981-4.092 3.361.006.22 22.716-12.812 22.858-12.925.054-.042-15.827-36.111-18.07-41.149-.482.203-1.987.994-4.639 2.195Z" fill="#1C3F47"/><path d="M169.798 58.485c.613-2.998.922-4.615.595-7.726a2.02 2.02 0 0 1-.458.398c.202.203.042.494-.071.85-.012.054-.09.31-.102.602.411 2.301.018 4.966.036 5.876Z" fill="#C67E59"/><path d="M223.913 158.371c.72-.274-3.099 3.212-3.045 3.295.16.262.303.654.589.714.38.03.904.006 1.231-.179.03.072 1.344-1.617 1.856-3.634.012-.053 1.772-7.411 1.624-7.381-1.119.214.154-4.83.178-4.878-1.731-.987-2.7-1.493-4.99-.618-1.618.761-1.041.16-1.464 2.248-.148.815-.035.886-3.878 1.66-.404.083-1.969.404-2.67.321-.649-.089-.583 1.719-4.188 4.491-.315.291-.452 1.808-2.784 2.956-.029 1.189-1.391 1.284-.856 1.308 2.04.095 4.705-1.451 6.388-2.605.416-.779.369-.66.196-.137.411-.285.607-.41.809-.684.387-.547.095.292-.939 1.368-.298.304-.708 3.075-3.058 7.655-1.07 2.076-1.124 1.821-.559 1.922 1.291.095 1.249-.03 1.428-.173.487-.41 2.218-3.361 2.581-4.259.601-1.475.874-.91-.446-1.606-.91-.565 1.291.441 2.195.161.88-.28 3.289-3.521 3.378-3.682.262-.595-.279 1.386-1.505 2.974-.85 1.101-1.13 1.017-1.808 1.547-.125.089-.832 1.528-1.1 1.909-.131.155 1.374.333 1.469.309.446-.309 1.255-1.201 1.945-1.796 7.352-6.418-.107.797.446.904 1.101.208 1.987-.529 3.123-1.362-.648.351 3.271-2.296 3.854-2.748Zm-5.573-2.385-.042.024c.202-.399.197-.405.042-.024Z" fill="#FFBD99"/><path d="M213.861 172.48c-.018-.054-.131-.304-.077-.31-.006-.053-.91 3.301-1.16 5.199-.131.975-.184 1.213.458 2.849 1.612-9.588 1.261-6.573.779-7.738Z" fill="#1C3F47"/><path d="M206.557 219.404c.232-.161 2.159-1.475 1.963-1.689-.732.797-4.182 3.122-1.963 1.689Z" fill="#FFBD99"/><path d="M214.831 172.391c.535.107 27.682-14.662 27.735-14.686 1.719-.934 3.968-1.713 2.689-2.522-.69-.434-.071-.577-3.688 1.362-31.507 16.993-26.588 13.478-26.736 15.846Z" fill="#2A7E8C"/><path d="M239.575 160.185c-28.605 15.399-24.036 10.927-25.607 20.527 2.023-1.095 1.862-.78 1.921-1.701.31-4.688.28-6.799 1.404-6.252.054-.03 23.697-12.669 23.709-12.616.613-.297 1.106.113 1.124.821-.023.464-.19 1.178-.333 1.779-.94 4.026-.993 3.455-.089 3.051-.03-.28 2.088-5.585 2.123-5.669 1.499-3.741 2.665-3.652-4.252.06Z" fill="#1C3F47"/><path d="M188.433 294.314c-.303.458-1.909-.381-4.377.624-1.256.559-1.172.298-1 2.028.327 1.844 1.19 2.582 1.755 3.147 1.374 1.386 12.735 2.468 12.973 1.57-.94-1.094-3.456-2.641-4.771-3.236-1.748-.791-3.009-1.534-6.091.191.506-.547 1.505-.964 2.195-1.13.756-.179 1.22-.208 1.493-.185-.148-.119-.333-.333-.487-.719-1.565-.012-2.415.315-4.402.523-1.737.268 2.367-1.362 4.407-.625-1.064-6.495-.113-4.806-1.772-10.319-.999.803.654 7.268.077 8.131Z" fill="#7C332F"/><path d="M189.028 181.307c-3.355 1.231-1.784-2.094-7.459-8.066-.047-.053-11.646-13.585-12.544-13.585-4.913 0-2.445.446-4.11.731-.209 1.38-1.029 1.053 4.776.143.006 0 .012.012 0 .012-6.103 2.474-4.895.749-5.478 3.967 2.29-.838 9.618-4.288 3.717-1.177-4.58 2.415-3.354-.298-4.288 3.979-1.701 7.804-2.469 6.578-1.184 11.075 3.105 10.849 2.296 4.467 5.99 15.584 2.623 4.408 6.537 9.392 10.028 16.363 5.508 11.058 11.73 25.357 11.474 24.934-.089-.208.315.542-2.54-4.193-3.432-5.692.732 1.094 2.463 8.434.476 2.041.018 2.707 1.445.708.815-1.142.702-1.017.589-.678-1.802 5.437-.767-1.897-.732 8.107 0 .321-.154.185 1.487-3.949 6.133-15.394 1.898-.684.613 2.117-2.724 5.942-3.283 5.663-3.474 5.8a.707.707 0 0 1-.065.101c.018-.054.036-.084.065-.101.149-.268.333-.809.768-2.064-1.41 2.242-1.047 4.086-.869 7.048.773 12.437-2.647 11.593-.363 13.139 2.98 2.023 3.343 2.516 3.635 2.6 6.233 1.433 4.312 2.034 6.364-11.046 3.2-20.86 2.891-16.726 2.897-32.167.024-4.253-5.889-38.359-9.095-47.941-1.213-3.599.411-1.553-4.11.125Zm11.147 59.986c.018.922.255 4.122-1.666 10.593-2.611 8.821-7.209 15.037-6.656 13.449.179-.512 1.523-2.873 2.451-5.651 4.509-13.567 5.621-17.374 5.871-18.391-.006-.197 0-.292.035-.292-.012 0 .096-.238-.035.292Zm-10.463-38.811c-2.016-9.535-3.575-14.293-4.086-15.727-.06-.155-.113-.303-.173-.464-.024-.071.036.077.173.464 3.878 10.326 2.659 7.524 5.954 19.974 8.404 32.095.785 8.416-1.868-4.247Z" fill="#336977"/><path d="M164.909 85.59c.018-.053-.072.072.053-.523-.392 1.178-.707-.03.393 4.324 1.761 6.942.059 4.878 2.284 5.413 4.211 1 2.48 1.517 4.11-.88 1.386-2.052 1.535-.565-.107-2.356-7.269-8.142-5.99-8.03-6.733-5.977Z" fill="#467D89"/><path d="M209.989 170.909c-1.802 1.785-1.808 1.779-1.707 1.898.167.19 2.784-2.808 3.384-2.974.137-.048.256-.899-1.677 1.076ZM205.225 182.746c.095.428.148 1.023.38.91.458-.22-1.302-1.588.06-6.703.238-1.011-1.475 1.189-.44 5.793Zm.404.666c-.006-.012-.006-.024-.012-.029.006.005.006 0 .012.029ZM222.551 205.961c1.023-1.439 1.023-2.355.839-2.373-.958 0 1.368-.143-2.742 4.467-.292.315-.565 1.433 1.903-2.094ZM165.17 62.917c-1.231.023-2.343.136-3.551.416-.41.523.191 1.862.125 1.862.417 0-.327 3.349 5.27 2.212 1.059-.214.845-.184.839-1.017-.024-2.89-.077-2.902.446-.38-.256-2.891 1.553-3.195-3.129-3.093Zm.464 1.957c.131.065.381.154.548.196.047.018-.494.874-3.444-.41-.696.279-1.481.624-.274-.179 2.629-1.838 2.843-.339 4.33.036.054 0-.398.339-1.16.357Z" fill="#FFBD99"/><path d="M188.177 272.662c-.285-1.95.345.149-1.921 6.371-.559 2.629-.404 1.065-.874 3.218-1.219 5.573 2.522 2.938 2.575 2.92.096-.029 3.331-8.036 3.349-8.083-3.414 2.813-2.873-2.629-3.129-4.426Z" fill="#304149"/><path d="M153.197 64.826c.482.018.642.036.886.012.054-.036-.832-.012-.886-.012ZM212.695 217.227c1.178-1.577 1.047-1.208.631-1.934-1.737 1.493-1.196 1.369-.631 1.934ZM159.104 128.589a.545.545 0 0 1-.185.083 3.255 3.255 0 0 0-.256.821c-.458 5.544 4.92-2.766.441-.904ZM209.472 221.135c1.094-1.095.368-.452-.571.475-1.725 1.719-2.047 2.183.571-.475ZM212.326 219.457c.673.583.827.785.322-.029-.53-.078-.851-.435-.322.029ZM213.849 214.842c.351.571.155.559.714-.143.273-.345.268-.161.053-.518-.059.042-.701.601-.767.661ZM212.345 217.685c-.031.018-.025.018 0 0ZM211.114 215.616c.102-.156.12-.138-.054-.054l.054.054ZM215.188 213.682c.136.232.077.214.279 0 .416-.488.048-.286-.279 0Z" fill="#FFBD99"/><path d="m204.035 106.867-33.208 15.274 25.38 46.461 14.264-8.708.38-2.653-12.895 8.184-24.732-43.028 33.083-14.394-2.272-1.136Z" fill="#2A7E8C"/><path opacity=".64" d="M154.19 62.078c-.47-.125-5.073.22-5.198.345-.125.125-1.327.41-1.327.41l.411 2.962.975 1.701 2.397.726 2.177.095s2.397-.6 2.457-.696c.065-.095 1.231-2.676 1.231-2.676l.155-2.112-2.046-.535-1.232-.22ZM164.623 62.363c-1.671 0-3.717.565-3.717.565s.285 2.237.315 2.332c.03.095.38 1.326.88 1.796.506.47 1.796.85 2.302.946.506.095 2.837-.095 3.248-.315.41-.22 1.701-1.011 1.796-1.327.095-.315.88-2.177.946-2.302.065-.124-.316-1.165-.536-1.195-.22-.03-4.413-.696-4.413-.696l-.821.196Z" fill="#83E8FF"/><path d="M160.168 48.82c.125 1.046.042 1.445.071 1.344.357-1.095.322-2.832-.356-4.212-.542-1.094-1.654-1.873-1.589-1.873-.392 0 1.172.422 1.874 4.74ZM159.086 74.248c-.054.035.493.267 1.719-.304 1.463-.672 1.528-2.558 1.582-2.558-.982-.005-2.879 2.636-3.301 2.862ZM157.634 73.117c.666.096 1.374.209 1.35.16-.583-.885-1.582-1.1-2.224-.213-.054.053.303-.006.874.053ZM156.564 70.816c0-.006-.006-.006-.006-.006s-.006 0-.006.005c-.797 1.737-.208 2.784.012 0ZM153.137 79.155c0 .06.643-.524.857-.762 4.045.381 7.56-.583 8.5-.083.214.071-1.356-1.529-4.973-1.225-4.169.345-3.099 1.772-2.73-.458-.006-.113-1.535.725-1.654 2.528Z" fill="#000"/><path d="M163.214 79.154c.047.048.44-1.516-.958-2.54-.06-.053-.196 1.196.958 2.54ZM158.514 79.125c-1.165 0-2.462.868-2.409.892 1.892.66 3.111.422 4.902-.041.059-.024-1.339-.851-2.493-.851ZM156.058 64.766c.048-.047-2.082-2.117-3.86-1.546-.363.119-2.38 1.469-2.54 1.606-.113.232 4.36.493 4.592.018 1.243.065 1.398.231 1.808-.078Zm-1.975.072c-.244.023-.404 0-.886-.012.053 0 .94-.024.886.012ZM162.464 64.48c-1.207.804-.422.459.274.18 2.956 1.284 3.497.428 3.444.41a3.09 3.09 0 0 1-.548-.197c.756-.023 1.208-.357 1.16-.357-1.487-.374-1.701-1.873-4.33-.035ZM161.917 59.824c4.497-4.372-3.04 2.105-1.856 1.51.642-.458 1.285-.951 1.856-1.51ZM160.828 61.465c-.327.494 3.058-2.385 3.111-2.385-.053 0-1.612.737-3.111 2.385ZM152.935 69.352c.036-.053-3.057 2.486-4.145 5.686-.036.102-.25-.107 4.145-5.686ZM151.222 72.475c-.803.934-1.356 2.26-1.285 2.153.958-1.29 4.223-4.89 4.277-4.89-.054 0-1.701 1.244-2.992 2.737ZM165.254 77.745c.392-5.496-1.416-6.995-1.077-6.995-.172 0 1.077 7.614 1.077 6.995ZM164.403 96.44c.024.083.167-1.678.071-3.617-.404-7.934-1.457-3.503-.071 3.617ZM163.654 97.814c.029.13.196-2.023-.381-4.325-.054-.208-.167 1.79.381 4.325ZM136.935 137.891c-4.074 3.004-3.884 2.552-4.247 2.237-.053-.036.191.464.494.446 1.921-.155 3.807-2.718 3.753-2.683ZM161.435 129.689c.464-1.267-.006-1.499-.91-1.588-.993-.089-2.082.857-1.422.482 4.479-1.856-.898 6.448-.434.904.083-.5.244-.874.518-1.314.077-.113-.589.517-.821 1.457-.583 2.391 1.582 4.146 3.069.059ZM150.199 127.584c8.803 3.164-8.381-4.604-7.816-4.604-.047 0 3.319 2.992 7.816 4.604ZM150.978 135.959c4.111-1.541 3.801-2.986 4.229-2.986-.035 0-4.3 3.003-4.229 2.986ZM189.177 101.59c.131-.261-3.878 4.461-6.638 11.468-.018.054 4.366-5.222 6.638-11.468ZM187.85 111.875c4.771-8.637 3.45-12.134 3.932-12.134-.452 0-4.479 12.949-3.932 12.134ZM198.325 83.336c.148-.036-1.523.018-3.813.845-1.79.648-4.092 2.189-3.979 2.159 4.734-1.458 5.234-2.1 7.792-3.004Z" fill="#000"/><path d="M167.787 147.855c-6.893-9.137-11.628-22.306-9.308-15.465 1.832 5.484 4.984 11.14 9.308 15.465ZM165.67 141.526c3.801 4.954 9.035 8.47 8.976 8.374-7.519-9.047-16.917-18.76-8.976-8.374ZM142.806 195.082c-.054.036 6.311-1.386 19.902-8.208.006-.006 0-.012 0-.012-4.271 0-12.848 3.717-19.902 8.22ZM130.202 213.325c-.089-.048 1.701 2.159 6.305-.036 6.335-3.033 11.319-9.32 11.593-9.32-1.821 0-13.812 12.336-17.898 9.356ZM139.368 233.673c3.622-9.85 8.862-27.385-.577.262-1.826 5.353-2.13 7.25-2.052 7.096.767-2.486 1.73-4.907 2.629-7.358ZM194.304 259.69c-.928 2.772-2.272 5.133-2.451 5.651-.553 1.588 4.045-4.622 6.656-13.449 2.326-7.84 1.487-10.885 1.701-10.885-.047-.006.97-2.016-5.906 18.683ZM125.425 282.953c-8.095-10.047-2.165-.381.988 2.188 3.884 3.189 1.546.952-.988-2.188ZM129.298 285.118c-7.43-7.507-5.812-5.651-4.711-4.164 1.427 1.909 5.448 4.949 4.711 4.164ZM125.895 279.997c-.006 0-.006-.006 0 0-.006 0-.012.005-.006.011 7.227 6.728 9.434 6.644.006-.011ZM121.399 208.822c-.446 0 5.841 35.159 5.841 32.143-2.528-24.315-6.127-32.143-5.841-32.143ZM146.327 175.037c-.048 0-12.182 11.89-17.826 22.734-.113.226 1.225-2.005 2.337-3.682 2.005-3.01 15.429-19.052 15.489-19.052ZM191.58 206.728c-3.349-12.639-2.035-9.552-6.133-20.443-.125-.327 1.701 4.08 4.265 16.19 2.653 12.67 10.272 36.349 1.868 4.253ZM159.109 75.497c.232-.512.321-.524.268-.524-1.303.036-.72 1.648.101.952.048-.053-.494.036-.369-.428Zm-.024.154.012.024a.045.045 0 0 1-.012-.023ZM158.027 69.864c1.862-1.231-.298-.125-.881.523-.065.06.827-.487.881-.523ZM157.67 70.554c2.266-1.005 1.166-.833-.006-.012-.006.006 0 .012.006.012ZM158.259 70.655c1.861-.797.713-.458-.006-.012-.006.006 0 .012.006.012ZM218.34 155.985c.155-.38.161-.374-.042.024.018-.012.03-.018.042-.024ZM196.862 163.713c-.03-.055-.042-.073-.006-.006 0 0 .006 0 .006.006Z" fill="#000"/><path d="M197.225 164.307c-.024-.054-22.99-41.488-23.43-41.488-.339 0-.559.387-.404.655.029.059 23.179 41.6 23.239 41.648.41.321 1.082-.232.595-.815Z" fill="#000"/><path d="M247.325 125.175c-15.643-34.315-12.931-32.155-18.469-29.776-5.865 2.492-3.723 2.867-9.891-1.368-6.93-4.729-4.753-7.215-7.959-8.173-1.725-.517-2.558.054-4.122-1.535-1.457-1.492-1.731-2.474-3.694-2.474-3.212 0-2.171-2.034-7.078-3.98-8.155-3.24-10.754 5.675-27.932 6.794-.624.041-.339.487-.833-.096-1.623-1.897-1.421-1.498-1.284-1.986 3.295-8.393 3.354-11.022 2.658-14.728 1.398-.832 3.444-4.752.809-5.46.536-1.98-.202-1.273.732-3.378 2.552-4.925 1.142-8.952.987-9.958-.255-2.736-.785-5.87-3.378-7.595-1.612-1.077-3.135-.625-3.747-.613-3.736-3.646-8.655-3.3-6.847-1.695 1.797 1.636 2.51 4.003 2.469 3.955.196-.196-4.913-5.775-10.891.066-1.683 1.19-3.878 2.843-4.247 5.026-.309 1.713-3.819 5.157-2.326 5.573.316.084.542-.107 1.22-.612 3.503-2.606-.851-1.03.166 9.433-4.187.875-3.14 8.524-.809 12.105 1.374 2.123 2.231 1.974 2.195 2.075.054.012-.178 4.765 2.147 12.682.898 3.08 1.166 3.069-.065 4.324-1.796 1.838.66.856-2.391 3.384-5.788 4.789-10.284 10.814-12.568 11.885-3.7 1.736-4.759 2.29-5.496 7.97-1.303 10.171 2.165 9.915 1.927 13.187-.185 2.706-.393 5.502 2.837 7.048-1.196 1.594-.5 3.319.238 5.157 3.521 8.756.892 4.895 1.642 9.797.154 1.035.69 1.54 1.475 1.915-1.761.827-.869 8.678-5.758 15.929-2.064 3.033.285 1.261-2.344 2.355-1.457.601-1.558.964-3.206 5.276-.577 1.261-1.873 2.95-2.641 4.753-.523 1.159-.684 1.243.393 2.189.845.737-.446.672-.488 1.73-.029.863.875.131-2.843 1.731-3.301 1.321-3.212-.345-4.877 6.383-.179.713.267 1.284.898 1.659-.054.119.024.476.018 1.267 0 3.301-1.053 5.912.172 5.912 1.987 0-.244 4.824 5.246 2.606-3.17 5.055 4.295 24.446 3.647 46.43-.179 6.388 10.938 10.29 10.415 9.868 1.231.535.232-1.547 1.671 3.313.738 3.319 1.029 10.147.821 9.451-.72.215-2.73.268-4.164-.243-8.446-2.98-10.522-10.451-15.429-6.746-2.296 1.713.416 6.799 3.486 13.978.993 2.314 9.576 9.702 12.05 9.208 1.452-.303 3.652-1.541 4.063-1.701 1.451-.428.868-.738.595 2.022-.143 1.6-.411 1.392 4.627 3.046 1.005.327 3.42.761 5.936.63 5.419-.291 4.081-2.778 3.611-8.452.279-3.765-1.463-2.522-5.782-14.573-1.332-9.665-2.159-8.797-1.171-8.946 2.872-.363.392-.595.606-17.713.232-17.16 3.849-35.046 2.445-35.599 9.63-8.315 10.159-11.652 16.857-17.035 2.165-1.737 1.867-2.623 2.962.345.85 2.308 16.494 30.662 16.636 31.102.018.054 4.497 14.829 4.688 15.548 1.374 5.252 1.57 1.755 1.629 4.229.107 4.336.256 3.783-.374 4.699-2.415 3.527.642 12.67-1.398 19.397-.197.654-.268.856.095 1.683.024.054-2.278 8.875-3.176 10.255-2.035 2.165-3.486.154-7.471 8.577-.97 2.07-.357 1.606.958 2.486 2.539 2.177 2.551 3.022 3.235 1.148 1.119-3.045-1.933 8.619 5.264 9.987 14.478 2.789 14.383-.292 7.989-4.527-4.943-3.337-2.029.791-4.36-8.517-.661-3.837-1.208-3.504-.494-5.383 1.035-2.154 2.195-5.306 2.361-5.877 1.529-5.026 1.13-3.492 3.771-3.283 4.925.368 2.308-2.475 4.384-9.083 8.5-27.058 2.409-31.43 2.171-43.165-.238-20.616-7.042-38.924-8.387-44.491 6.401-4.676 5.764-4.943 8.946-6.87 6.501-3.92 2.588-2.879 5.77-3.379 1.291-.208 1.588-.993 2.117-1.695 2.612-3.468.328-1.701 3.432-1.541 1.148 0 1.006-.987 2.284-.821.887 1.749.857-.059-4.663 4.319-6.798 5.418-9.903 10.98-6.525 18.528 4.223 9.41 17.862 6.103 17.077 15.84-.119 1.665-.143 1.796-1.85 4.086-2.141 2.849-1.499 1.517-2.254 1.517-.434 0-.654.529-.375.832.262.286.393.173-.458.839-1.1-.815-1.356.262-.91.583.095.065.202-.024-.726.642-.761-.493-1.528-.434-2.593.268-5.199 3.349-3.396 2.403-4.818 2.052-3.051 3.105-2.659 1.915-.898 3.682-3.86 3.028-4.152 2.647-3.129 4.461.203.285.149.464 1.636-.393 3.938-2.331 2.796-2.694 3.837-1.57-2.505 2.124-2.344 2.243-3.486 3.272-.541.285-.244.464 1.332 1.326.809.41 3.325-3.396 3.801-2.944.25.232.815 1.106 1.582.69 2.07-1.13.637-2.891.845-3.123.535-.601 1.564-2.26 2.564-3.402.773-.887 1.433-1.719.719-2.838 1.232-.88.976-.862 1.255-.588.649.571 1.077.053 1-.334-.102-.547-.619-.321-.256-.63.571-.494.345.315 1.053.042.154-.06.249-.203.273-.47.03-.327-.273-.446-.321-.506 4.11-4.068 4.057-5.656 4.247-8.077.155-2.029-.048-3.141-1.558-5.128-4.551-5.971-12.545-2.968-16.447-12.55-2.04-6.251 1.428-10.516 6.513-14.781 5.181-4.342 4.711-3.176 5.181-2.421.297.47-4.937 2.659-5.05 3.188-.012.054-2.171 9.226-1.79 8.03-.244 1.166.618 3.391.999 3.617 1.404.85-2.581 2.617 22.276-10.695 7.542-4.039 5.299-2.914 6.138-3.378 2.528-1.398 1.808-1.291 2.266-2.237 1.297-2.647 5.205-10.147 2.742-11.593-1.534-.921.256-1.82-5.008 1.029-5.716 3.093-4.104 2.612-5.109 1.178-.655-.946.023-.607-.215-1.094a.411.411 0 0 0-.541-.191c-.107.054-.666-1.213-2.671-4.348 24.399-13.383 21.693-10.456 14.954-25.231Zm-77.462-73.173c.113-.351.274-.649.072-.85.196-.138.321-.227.458-.4.327 3.112.024 4.73-.595 7.727-.018-.904.375-3.575-.036-5.882a2.56 2.56 0 0 1 .101-.595Zm35.742 131.648c-.238.119-.285-.482-.38-.91-1.029-4.604.678-6.805.44-5.799-1.362 5.121.404 6.489-.06 6.709Zm9.856 30.032c-.202.22-.143.232-.279 0 .333-.286.701-.488.279 0Zm-.898 1.011c-.559.702-.363.714-.714.143.066-.054.708-.613.762-.661.214.357.226.179-.048.518Zm-1.868 2.534c-.565-.565-1.106-.446.631-1.933.416.725.547.357-.631 1.933Zm-.351.458c-.023.018-.029.018 0 0Zm-1.284-2.124c.178-.077.154-.095.053.054l-.053-.054Zm-2.481-.172c.024.66.708 1.065-.309.16.22-.345.018-.505.309-.16Zm-2.022 4.015c-2.219 1.433 1.231-.892 1.963-1.689.196.214-1.731 1.528-1.963 1.689Zm1.047 3.598c.053-.035.035-.018 0 0Zm1.867-1.867c-2.617 2.652-2.301 2.194-.571.476.94-.928 1.672-1.571.571-.476Zm2.856-1.678c-.53-.464-.209-.101.321-.029.505.808.351.612-.321.029Zm11.063-15.869c.184.018.184.934-.839 2.373-2.468 3.527-2.201 2.409-1.903 2.094 4.11-4.61 1.784-4.467 2.742-4.467Zm-11.724-33.755c-.6.166-3.218 3.164-3.384 2.974-.101-.119-.095-.113 1.707-1.898 1.933-1.974 1.814-1.124 1.677-1.076Zm-40.024-78.265c1.642 1.797 1.493.304.107 2.356-1.63 2.397.101 1.873-4.11.88-2.225-.535-.53 1.529-2.284-5.413-1.101-4.354-.785-3.14-.393-4.324-.125.595-.035.47-.053.524.743-2.053-.536-2.166 6.733 5.977Zm-3.349-25.558c-.523-2.517-.47-2.505-.446.38.006.833.226.803-.839 1.017-5.597 1.136-4.847-2.212-5.27-2.212.072 0-.535-1.339-.125-1.862 1.214-.28 2.326-.393 3.551-.416 4.688-.102 2.879.202 3.129 3.093Zm-13.365.844c1.82-1.22 1.386-.684 1.154-.262-.44.803-.845 1.047-2.255 1.267-4.907.494-5.496-1.23-5.519-4.68 2.147-1.226 6.281-1.006 8.41.017.381.196.066-.137.054.756-.024 1.54-.262 1.498-.672 1.796-.155.119-1.553 1.22-1.172 1.106Zm1.933-4.586c-.595-.22-1.213-.327-1.838-.446-4.758-4.378-6.799.416-7.506.482-.851.077-1.708.904 1.302-3.593.488-.737-.291-1.415-.565-3.069-.22-3.795 3.777-5.27 7.227-4.717 2.141.351 3.307 1.481 6.929 1.904 6.412.761 4.836-2.463 5.675 2.248.666 3.735.303 6.055.886 6.055.054 0 .125-.172-.202 1.005-.042.22-1.398-.559-4.223-.368 1.528-.667 1.832-1.422 3.973-1.095-2.278-3.95-6.329 1.356-7.946 1.963-.393-.72-2.683.012-3.712-.369Zm11.944 4.176c-.512.636.374-3.1.511-3.064 1.041.334-.131 2.534-.511 3.064Zm-3.29-24.364c3.997.09 6.174 8.007.452 8.934-.113.012.458-.684 1.029-2.736 1.107-3.979-2.046-6.215-1.481-6.197Zm-4.36 2.939c.97 2.308 1.684 3.783 1.505 3.711.316.125-.214-4.9-3.592-9.445.749.119.422-.066 1.522.327 1.238.636 5.651 5.686 3.641 10.153.023-.053 2.474-2.742.886-6.507-.547-1.29-.809-1.106-.369-1.136.952 1.118 1.79 3.432 1.523 6.05-.518 3.49-.262 2.777-2.891 3.181-.809.102-2.153.102-3.593-.148-1.748-.286-.583-.428-1.189-3.32-.702-3.342-4.313-4.8-4.134-3.366-1.172-1.398-2.891-1.314-4.663-.803 5.686-3.795 8.386-.404 11.354 1.303Zm-15.833 27.73c-.095 2.551.143 2.331-.5 1.844-3.123-2.594-2.564-8.245-2.45-7.513.226 1.451.82 1.51.689 1.564.137-.053-.434-.356-.267-1.861.178-1.41.612-.5 1.201.82.494 1.25.31.429-.22 1.452-.529 1.029-.131 1.695.797 2.308.458.309-1.225-.726-.202-2.177.125-.131.143-.333.422.755.797 3.159.661-1.088.53 2.808Zm.226-4.354c-.048.428-1.654-4.586-3.105-2.63.19-1.67.523-1.683 1.445-1.7.839-.018.922-.47 1.356 1.112.262.97.322 3.051.304 3.218Zm.386-5.871c-.898.155-.684.357-.832-.791-.637-4.74-1.196-3.17 1.302-9.309-1.064 1.243-1.267 1.707-1.166 1.457.012-.06 1.024-2.54 3.201-4.199-1.809.636-1.66 1.059-1.565.642 2.183-1.427 3.057-1.41 2.665-1.41-4.396 0-7.388 5.205-5.419 2.059 6.757-6.4 10.534-4.765 9.172-5.121-5.258-1.38-7.893 3.14-7.393 2.016.844-2.118 5.763-4.318 7.542-3.58 1.302.588 2.343 1.659 1.112.297.071-1.392 3.129.065 4.098 6.215-3.646-2.337-9.326-.672-10.938 2.118-1.612 2.778-.155 4.49.059 5.323-2.206 4.158-.725 4.093-1.838 4.283Zm.149 6.602c2.088 1.077.071-5.692 1.219-5.8.197-.035-.255 1.886.714 3.831.881 1.75 4.836 2.124 7.126 1.464 1.303-.375 1.695-1.13 2.213-2.391 1.284-3.1-.887-2.909 2.093-2.909 1.095 0 .791.036.994.196-.185.286-1.047 3.973 2.046 7.786-.012-.053-2.1-6.09-.976-4.14.738 1.255 2.623 1.416 4.093 1.446 3.366.03 2.938-3.325.011 11.884-.678 3.456-.339 3.182-.416-1.35-1.534 5.062-.386 6.412-3.361 7.798-1.13.428-3.842.88-.511.654-1.594.339-6.079-.613-7.251-1.035-.832-.398-.928-.714-1.427-1.897-1.761-4.563-3.212-8.649-1.13.017.017.066-.893-1.54-2.344-3.872-2.665-4.27-1.784-3.67-3.093-11.682Zm1.844 17.125c-2.314-9.618-2.183-7.227 1.618-2.784.934 2.665 2.754 5.36 4.205 7.286 4.491 5.871 9.898-5.99 9.487-2.355-.154 1.207-3.753 4.83-5.924 7.578-1.88 2.379-1.279 2.486-1.725 2.29-6.394-2.742-5.27-2.112-7.661-12.015Zm.975 7.09c.268-.518-.136-.702.815 1.475.31.702.559.874-.577.071-.523-.398-.434-1.16-.238-1.546Zm-1.522 4.764c.256-3.105.16-2.831.44-3.206.952-1.177-.262-.28 1.588 1.077 2.266 1.677 4.271 2.314 6.882 2.623-1.434-.761 8.541-5.734 7.233-11.385 1.392-1.421 2.064 15.4.196 13.716-.315-.279-5.419-2.635-5.835-2.67-.66-.06-1.196.226-1.588.773-6.638-1.773-5.127 11.028-6.442 8.256-1.939-3.932-2.855-4.77-2.474-9.184Zm15.399 7.756c-1.754 4.741-.957 4.408-2.379 2.255-2.106-3.206-.845.285-.922-6.609.333.078 2.237-.154 3.682.536 1.273.63.529-.417-3.266 4.556 4.069-3.831 4.081-4.58 3.873-3.884-1.119 3.801-.417 1.969-3.111 4.491a12.494 12.494 0 0 0 2.123-1.345Zm-4.508-6.12c.19 3.943-.119 6.037-.143 6.37-.684-.148-2.26-.143-3.129.387-.309-.982-3.795-6.674-.166-6.674 1.249 0 1.386.53 1.974.202.048-.03.357-.273.304-.273l.006.012c.006-.47.547-.232 1.154-.024Zm-5.032 4.865c.261-.41-.191-.208.927 2.154.649 1.344.803.041.28 1.653-1.981 6.079-.309 7.756-3.86.357.047-.048.44-.892 1.088-1.88.601-.927 1.261-1.802 1.565-2.284Zm.809 9.327c.921-6.472 2.985-7.727 2.087-7.007-1.469 1.434-.38.422-.595.351.054-.042.012-.66 2.588-.922-.054.298.101.696.262.964-2.041-1.571-.548.035 1.017 1.564 1.844 3.355 1.885 1.16.916 4.336-3.171 10.332-2.368 7.869-3.884 6.252-.655-.696-2.647-3.432-2.391-5.538Zm-10.832-11.611c.863-3.426.666-2.712 1.808-4.116 2.754-3.366.803-1.35 1.095 4.116.077 1.41.488 1.696.279 2.142-.815 1.748-.232 1.177-1.897.832-2.207-.452-2.213.72-1.285-2.974Zm-21.312 80.912c6.906-12.057 2.023-6.781 9.083-10.261 5.734-2.837 9.344-9.433 8.755-8.934-3.015 2.933-4.806 4.557-9.237 6.87 3.081-4.247 4.342-10.034 4.759-14.114.071-.708 3.42.124 7.405-4.069.511-.541.886-1.237.624-.975-.684 1.041-7.684 4.639-8.018 4.812.209-1.362-.142-1.101 1.321-1.654.999-.381.476-.862.749-.874.458-.048.542-.012-.154-.155-.167-.393-.393-.303-1.987-.934-1.356-1.659.535-3.818-.03-6.079-.713-2.885-3.598-6.894-3.432-7.393.47-.958.72-1.118 1.006-1.594.684-1.148-.803-.738 1.843-.226-4.782-2.629-4.71-3.307-4.847-6.4-.048-1.089-.31-.762 1.076.743 4.241 4.616 1.018 1.029-.642-2.248-2.302-4.539-2.391-6.561-2.391-6.412-.411-3.938.137-9.862 3.253-12.36 6.454-4.836-1.736 1.743-.154 8.5l.012.005.012-.011c.029-2.183 1.617-6.085 2.962-10.457 7.982-4.372 9.945-11.14 8.589-6.852-1.535 3.396-1.856 4.038.713 4.181 4.396.22 1.035.387-.452 4.336-1.029 2.754 9.904 12.241 12.123 14.169-11.724-15.965-12.111-10.802-9.172-16.363 2.914-5.556-1.351-3.218 8.077 8.803.042.053 2.611 4.74 3.295 4.931.506.142.048-.441-.862 3.973-1.112 5.032-1.172 5.656.833 10.575 3.075 7.549 2.73 5.08 2.272 6.008 0 0-.851 3.658-1.333 5.103-3.348 10.029-2.29 9.66-22.68 33.797-.6.714-.517.887-.333-.654.363-2.397 1.928-3.265 2.778-5.014 1.041-2.124-.482-.536 2.124-6.186 1.713-3.706 3.075-3.64 6.037-10.903.559-1.386.702-.226 6.114-10.528-2.385 3.051-4.098 5.603-5.21 7.453-.19.321-.601 2.439 1.82-11.712-3.723 9.077-1.552 8.078-4.033 3.408 6.121 8.726-13.43-22.037-13.888-22.828 4.663 12.158 9.439 15.78 15.25 26.897-2.807 9.243-4.847 10.968-6.899 16.654-2.445 6.751-1.392 5.449-2.189 7.049.523-.422-2.332 2.92-2.79 3.86-1.047 2.106-.583 4.622-.737 4.8-1.458 1.666.214.595-3.635-1.386-1.13-.583-2.242-.773-3.271-.69-3.735-.249-5.032 2.13-4.509 1.339Zm42.416-28.147c-4.336-.303-1.309 1.291-4.949-3.235 2.391 5.466 3.331 2.004-2.837 4.437 4.699-8.232-1.029-10.504 6.507-3.147.048.048 1.659 1.565 1.582 1.565.072 0-.957-2.76-5.692-6.174.101-.155.868-2.391.975-2.719.904-2.771-.386-2.147 5.258 7.323 1.702 2.843 1.589 2.111-.844 1.95Zm2.409.792c1.308 2.837 2.528 2.307-.744 2.385a12.372 12.372 0 0 0-.125-1.226c-.196-1.493-2.516-.814.869-1.159Zm-3.551 9.017c1.118-.226.41-.696-1.779 8.523-.529 2.189.333 4.551 1.422 7.441 1.433 3.813 1.487 2.933.25 1.898-.815-.678-.339-.048-1.981-2.707-3.218-5.21-2.647-2.664-1.933-6.221 2.914-14.728-1.886-9.69 5.21-11.486-.69 2.677-.464 2.272-1.189 2.54-.012 0-.006.012 0 .012Zm-2.891-2.867c.077-1.933-.625-1.535 3.111-1.553 1.814-.006 1.552-.446 1.201.934-1.273.232-2.415.47-4.312.619Zm.214-2.635c.202-2.457-.452-2.278 3.331-2.225.696.012.839-.339.696 1.933-.648.137-2.445.215-4.027.292Zm-.731-3.04c-1.131.262-.988 1.297-1.029 2.558-.006.268.428-.03-3.748.732 1.916-3.783.417-3.093 4.777-3.29Zm-8.78-6.649-.333.44c.107-.149.22-.298.333-.44Zm-27.67 34.784c1.856-2.046 1.249-1.648 2.248-1.785 3.165-.392 4.961 2.552 5.669 3.099.345.345.696-.47-1.582 3.093-.821-1.695-2.915-3.444-4.89-3.563-2.444-.16-3.283 1.19-1.445-.844Zm-1.267-.815c-.054-.042-.256-.036.815-.524.791-.291.773-.404-.333.797-.208.232-.03.143-.482-.273Zm-2.391 20.759c-1.642.356-2.909 1.195-3.111.541-.529-1.707-.862-1.374 1.606-.833 1.606.363 2.022.184 1.505.292Zm-2.927-2.201c-2.325-.429-2.034.202-2.01-1.124.012-.53.048-1.85.119-2.487.25-2.23-.357-2.242.654-1.796 3.408 1.505 2.79 1.6 3.349 2.843.506 1.243.648 1.612 1.19 1.612 2.04 0 4.55-4.259 2.319-6.715 1.713-.042 5.919-3.319 2.516-7.138-.85-.952-1.552-.113-1.064-.345.499-.018 2.147 1.892 1.273 4.158-1.529 3.194-4.128 2.379-4.128 2.325-.815-.588-.173-.006.053-1.582.143-1.053-1.737-1.689-.993-1.148.666.542.642.875.648 1.095-.381 2.331-.535.493-2.617.493-1.16 0 1.035.024 2.873 2.332 1.273 1.79 1.636 2.248.196 4.265-.041.053-1.076 1.201-1.267.975-.874-2.522-.945-1.82-.725-2.129.969-1.398 1.504-.452.493 1.088-.214.339.28 1 .863.119 1.469-2.224-.559-3.777-1.904-1.808-.321-.101.322-.047-1.968-1.427-2.469-1.505-1.88-.054-.97-4.527.446-2.349-.565-.309 6.204-4.021 2.242-1.231 2.718-1.219 4.259-.63 1.005.452.737.357.88.69 1.796 4.187 1.184 3.717.28 5.139-3.361 5.288-2.076 4.871-5.77 9.993-.672.951.5.672-4.753-.25Zm8.512 49.868c-1.005.44-.297.857-.595-3.271-.065-.708.708 3.236.595 3.271Zm7.905 8.375c-3.878-1.386-4.978-3.051-5.865-4.181-1.546-1.969-1.588-1.832-1.808-2.243 2.237-.821 3.587-1.112 6.043-.934.018.078 1.898 7.09 1.921 7.168.108.434.191.369-.291.19Zm-1.511 29.282c-2.998-.505-9.588-5.632-11.081-9.148-3.01-7.03-6.103-12.122-1.433-12.122 1.207 0 .594.648 1.79 2.397 5.764 8.399 11.26 10.397 21.044 14.287-.476.637-.345 1.202-.69 1.422-5.621 1.642-8.262 3.271-9.63 3.164Zm17.868 2.992c-.267-.053-5.103 1.077-8.208.28-4.83-1.237-2.683.214 3.033-3.73.637-.351.292-.821 3.861 1.88.303.25 1.32 1.178 1.314 1.57Zm.541-2.581c-.071 2.01.863.94-4.657-1.19 1.071.351.684-1.891.321-2.956-.416-1.16 4.336 4.068 4.336 4.146Zm-3.711-10.397c.458 1.106 1.195 2.254 1.963 3.42 1.796 2.724 1.047 2.177 1.754 6.543-.012.606-.577-1.815-3.051-3.67-.934-.696-1.523-.613-1.683-.863-.785-1.178-2.469-1.35-3.325-.119-6.305-4.015-13.33-6.471-20.111-13.698-3.17-3.367-1.909-3.212 1.113-.446-.054.047 4.705 5.436 12.943 5.436 1.302 0 .951-.72 1.992.869.417.636.547.832 1.011 1.189 1.838 1.404.661 1.773 4.247 3.254 1.588.636 2.867.053 3.147-1.915Zm-2.451-7.382c1.452 5.056 2.921 7.78 1.059 8.535-2.528.108-4.978-2.742-6.507-4.704-.357-.464-1.023-.577 1.677-1.077 1.089-.077 1.713.488 2.278.975-1.921-3.128-4.461-.481-4.615-.69-.107-.124.077.137.053-1.814 1.874-1.195 4.235-.981 5.104-.267.541.446-1.868-2.397-4.985-.28-.208.149-.113.196-.16-.41-.09-1.202-.262-.869.023-1.261.976-1.19 2.546-2.237 3.301-2.475 1.024-.172-.13-.16-.684.066-3.824 1.546-2.194 4.586-3.89-1.636-.095-.357-.107-2.129-.916-6.008-.624-2.985-.969-2.706-.642-2.783.845-.197 2.284.238 3.147.577 5.109 2.284 2.563 2.123 5.757 13.252Zm-.91-10.475c-.821-3.396-1.291-4.847.042-1.891.868 2.141.785 1.767-.042 1.891Zm1.041-59.087c-14.4 12.015 17.856-11.855 17.803-11.897-3.081 3.873-4.979 4.705-10.921 10.969-5.555 5.853-12.699 14.739-12.651 14.703-.102.119.237-.148 2.177-1.606 8.452-6.4 5.388-5.734-2.57 7.328-1.231 2.017-3.795 6.722-5.573 7.078-.191 0 .809 1.517 5.323-4.484 11.849-15.757 7.953-19.046 6.115-.821-2.475 24.482.612 31.75-1.856 24.191.262 8.285 1.981 8.892.404 7.446-1.647-1.51-3.681-3.253-6.096-3.42-1.249-.089-2.921-1.154-6.032-1.249-6.186-.154-4.258 3.516-5.073-2.706-5.615-42.975-6.876-38.561-2.076-45.699 3.563-5.312 9.856-18.278 22.311-31.126 12.622-13.05 7.375-10.356 9.523-10.719 5.74-.999 4.181-.458 5.21-.333-.279 1.862-.065 1.571-.761 1.612-3.658.161-4.021-.476-4.628-.577-.137-.035.006.256 1.172.672 4.604 1.654 4.128-1.659 3.224 5.116-.672 3.866-1.166 7.476-1.202 7.685-1.564.047 1.446 3.384 2.725 5.127 3.693 5.044-1.16-1.582-9.743-6.24 16.666 15.763 9.172 5.336 13.139 13.55 1.344 2.748.862-1.951-19.944 15.4Zm-.94 1.421Zm37.967 87.811c-.476.714.024.583-1.773-1.219-1.98-1.969-1.451.571-.398-2.956.315.142 2.052 2.337 2.432 3.176.185.541.191.321-.261.999Zm1.927 2.927c-.042-3.474-.292-4.414-2.617-6.293-1.606-1.297-1.63-.833-.512-2.564 1.523-2.373 1.689-2.504 4.081-3.819 1.064-.583-.482 1.202.743 3.522.512.939.696 1.171 1.713 1.171 2.165 0 1.214-2.189 1.279 3.397.059 4.919 1.166 2.795-2.219 3.687-2.563.673-2.456 2.023-2.468.899Zm7.155 1.51c-2.04-.737-6.144.893-4.407.625 1.981-.208 2.837-.535 4.401-.523.679 1.677 1.827.232-1.005.91-.69.172-1.689.588-2.195 1.13 3.082-1.725 4.348-.982 6.091-.191 1.315.595 3.831 2.142 4.771 3.236-.238.898-11.599-.184-12.973-1.57-.565-.565-1.428-1.309-1.755-3.147-.166-1.731-.256-1.469.999-2.028 2.469-1.005 4.075-.172 4.378-.624.577-.863-1.076-7.328-.071-8.137 1.653 5.513.702 3.824 1.766 10.319Zm-2.171-11.325c-.053.018-3.794 2.653-2.575-2.92.47-2.153.315-.589.874-3.218 2.26-6.222 1.636-8.321 1.921-6.37.262 1.796-.279 7.238 3.135 4.419-.024.054-3.254 8.054-3.355 8.089Zm14.27-56.06c0 15.441.309 11.307-2.897 32.167-2.052 13.08-.131 12.479-6.364 11.046-.298-.084-.655-.577-3.635-2.6-2.284-1.546 1.136-.702.363-13.139-.178-2.962-.541-4.806.869-7.048-.5 1.439-.667 1.933-.833 2.165.137-.446.434.868 3.539-5.901 1.285-2.801 5.52-17.511-.613-2.117-1.641 4.134-1.487 4.27-1.487 3.949-.035-10.004-1.064-2.67.732-8.107.113-.339.22-.464-.589.678-1.427 2.005-.969 1.332-1.445-.708-1.725-7.34-5.895-14.126-2.463-8.434 2.855 4.741 2.451 3.985 2.54 4.193.256.429-5.966-13.876-11.474-24.934-3.485-6.977-7.405-11.961-10.028-16.363-3.694-11.117-2.885-4.735-5.99-15.584-1.285-4.491-.517-3.271 1.184-11.075.934-4.277-.298-1.57 4.288-3.979 5.901-3.111-1.427.339-3.717 1.177.583-3.218-.625-1.493 5.478-3.967.006 0 .006-.012 0-.012-5.805.916-4.985 1.243-4.776-.143 1.665-.285-.803-.731 4.11-.731.898 0 12.497 13.537 12.544 13.585 5.675 5.972 4.11 9.297 7.459 8.066 4.521-1.678 2.897-3.724 4.104-.137 3.212 9.6 9.125 43.7 9.101 47.953Zm-14.412 1.237c.136.315.273.625.41.94-.137-.309-.274-.625-.41-.94Zm19.01-65.565c-1.422 2.331 1.427 1.106-5.235 5.579-5.722 3.831-7.494 4.533-10.902 7.013-3.201 2.331-2.053 2.349-5.33-1.898-8.678-11.313-7.286-7.363-12.253-13.888-6.537-8.571.696.279-11.89-20.842-9.101-15.305-5.038-9.291 2.028-29.967 4.812-14.049 2.516-15.042 3.367-15.018 2.272.041 5.145 1.249 7.369 3.931 2.011 2.725-7.298 7.519-15.673 29.562 23.263-32.137 19.022-28.42 13.853-32.47-.428-.327-.684-.256.589-2.1.875-.547 2.082-1.207 2.445-1.505 1.076-.862-5.002-5.056-6.299-6.71-.922-1.171 4.818.096 11.95-2.723 2.052-.81 3.128-1.612 7.803-3.623-4.681 7.578-3.283 9.345 2.808 19.022 1.517 2.415-1.874-4.544-3.272-7.792-1.838-4.39-1.368-4.865-.648-7.09.868-2.682 2.415-5.972 5.205-5.656 4.318.677 6.578 2.248 8.476 3.878.398.356.529-.066-2.136.993-.053.024-5.936 2.813-2.629 1.767 8.702-2.754 7.132-1.57 10.112.547-2.629-.185-6.139.16-7.251.374-6.055 1.16-4.526.667 3.01 1.035 11.503.56 8.25-1.017 11.087 3.754-.761-.316-2.07-.601-2.986-.732-9.077-1.273 2.825-.137 15.584 10.344 5.217 5.722 4.824 5.966 4.747 8.969-.209 9.154 1.284 5.568-3.189 18.945-2.26 6.751 2.035-3.272 3.296-7.988.178-.667.285-2.35.493 3.616.31 8.72.262 8.982-.47 14.614-.309 2.029.381 1.499-2.593.934-10.046-1.951-11.902 4.134-11.688 2.558 4.681-33.791-1.564-13.847 7.483-27.587.952-1.446 2.837-5.044 2.861-6.799-3.628 6.026-3.932 5.496-8.232 12.705.446-1.98.154-2.718 1.112-4.728.196-.411.339-.815.161-1.261 2.075.017 5.139-3.908 5.329-5.33-.494.916-3.123 3.361-4.937 4.199-.85.292-.648.167-2.855-1.879a2.367 2.367 0 0 0-.178-.286c4.663-.737 9.695-4.8 7.334-3.598-13.8 7.56-10.094.547-31.174-7.94 4.104 3.336 1.35.398 1.975 10.367-27.231 12.032-23.668 10.748-23.888 10.73-1.653-1.101-3.152 3.884-2.98 4.33-.303.916 24.97 44.848 24.946 45.17-.315 3.884 13.74-6.252 13.265-5.526Zm19.557-20.021c-1.814-1.351-3.979-.774-6.228.184-2.189.928-2.046 1.796-1.963.773.28-3.14-.404-4.068 3.105-4.58 2.272-.214 4.176-.618 7.709.119-.518.565-.648 4.634-1.327 4.634.108.006-.148-.411-1.296-1.13Zm.749 8.589c5.05-2.832 4.045-2.79 5.056-1.136-6.644 3.307-5.645 3.634-5.056 1.136Zm.803-6.192c1.898-.351 1.196-2.558 2.189-3.373 2.1-1.618 2.248-1.178 2.712-5.3.482-4.359.684-27.783.684-27.842-.154-5.139-.22-4.991-5.287-9.797-1.785-1.707-2.493-.719 2.397-2.932.018.226 15.72 35.67 17.077 37.502.392.845.957.286-.268.952-20.551 11.188-19.7 11.474-19.504 10.79Zm2.915-6.882c.006-.054.273-1.404.047.018l-.047-.018Zm-13.859 3.741c-.512-.297-.541-.113.285-.892.405-.375.292-.452.113.934-.059.464-.006.059-.398-.042Zm-13.746-37.377c-6.531 2.801-5.788 2.765-5.776 2.26.042-1.969.066-3.515.238-6.014a92.822 92.822 0 0 0 5.538 3.754Zm-32.697 18.058c.482-1.291-1.017-3.218 10.475 17.291 16.393 29.258 14.489 25.88 13.817 27.45-.053.024-24.619-43.861-24.292-44.741Zm36.248 36.908c-11.545 6.519-10.118 6.566-11.438 4.288-.595-1.029-24.322-42.392-23.691-43.754 3.753-1.017-3.373 1.838 32.22-13.752 14.436-6.322-75.76 34.737 2.707.185 6.316 3.301 5.621 4.062 9.38 3.878.208-.012.422 1.285 2.218 2.349 1.077.631-1.005-.612-.773 5.788.071 2.444-1.903 5.181-1.713 18.825-.244 5.455-.821 4.301.928 5.871.024.672-.75 2.219 1.945 2.361-.083.274.149.56-1.844.97-5.627 1.178-2.516-1.32-6.126 2.659-2.481 2.772-2.356 2.224-2.772 3.337-1.297 2.545-7.156 3.491-4.116 4.794 2.129.922 4.835-1.059-.803 2.123-5.681 3.218-5.354 2.974-5.443 3.224a.513.513 0 0 0 .488.684c.303 0 12.747-7.257 12.657-7.048-.553 1.701-1.142 1.707-3.824 3.218Zm-2.451-3.48c2.32-.952 1.315-.071.904.125.054-.012-2.159.434-.904-.125Zm12.586 4.348c-.553-.107 6.906-7.322-.446-.904-.69.601-1.499 1.487-1.945 1.796-.095.024-1.606-.154-1.469-.309.274-.381.976-1.82 1.1-1.909.679-.53.958-.441 1.809-1.547 1.225-1.588 1.766-3.569 1.505-2.974-.09.161-2.499 3.402-3.379 3.682-.898.285-3.105-.726-2.195-.161 1.321.696 1.047.131.446 1.606-.363.898-2.087 3.849-2.581 4.259-.179.143-.137.268-1.428.173-.565-.102-.511.154.559-1.922 2.344-4.58 2.754-7.351 3.058-7.655 1.041-1.076 1.332-1.915.94-1.368-.203.274-.399.399-.809.684.172-.523.22-.642-.197.137-1.683 1.154-4.348 2.7-6.388 2.605-.529-.024.827-.119.857-1.308 2.331-1.148 2.468-2.665 2.783-2.957 3.605-2.771 3.533-4.58 4.188-4.49.702.077 2.266-.244 2.67-.322 3.843-.767 3.73-.844 3.879-1.659.416-2.088-.155-1.487 1.463-2.248 2.29-.875 3.259-.369 4.99.618-.024.054-1.297 5.092-.178 4.878.148-.03-1.612 7.334-1.624 7.381-.512 2.017-1.826 3.706-1.856 3.634-.327.191-.856.209-1.231.179-.286-.06-.428-.452-.589-.714-.048-.083 3.771-3.569 3.045-3.295-.577.452-4.502 3.105-3.86 2.742-1.13.839-2.016 1.576-3.117 1.368Zm-3.848 17.737c-.642-1.63-.589-1.874-.458-2.849.25-1.897 1.154-5.252 1.16-5.199-.048.006.059.262.077.31.482 1.171.833-1.844-.779 7.738Zm30.745-20.081c-.035.084-2.147 5.389-2.123 5.669-.91.404-.851.975.089-3.051.137-.595.309-1.315.333-1.779-.012-.714-.505-1.118-1.124-.821-.012-.053-23.661 12.586-23.709 12.616-1.118-.547-1.094 1.564-1.404 6.251-.059.922.102.607-1.921 1.702 1.57-9.606-2.998-5.128 25.607-20.527 6.917-3.712 5.751-3.807 4.252-.06Zm-2.26-3.586c3.617-1.939 2.998-1.797 3.688-1.362 1.279.809-.97 1.594-2.689 2.522-.047.029-27.2 14.792-27.735 14.685.148-2.367-4.771 1.148 26.736-15.845Zm-10.688 3.771c-11.391 6.21-9.404 6.317-11.343 2.742 1.237-.684.237-.892 1.07.166.173.226.47.334.589.381 2.034.678 2.814-1.511 3.022-1.743.19.018 10.022-5.722 10.076-5.751.267-.155.838.951.916 1.118.368.767 1.183.089-4.33 3.087Zm3.182-4.967c-3.022 1.779-1.142.678-8.696 5.05 1.481-2.671-.559-1.261 2.956-3.39 2.04-1.237 5.912-2.921 4.395-2.921-.124 0-.582.214-.719.274-6.561 2.754-5.669 4.532-5.359 1.32.006-.047-.429.238 5.805-3.057.91 1.505.755 1.291 1.618 2.724Zm16.321-18.504c-.143.119-22.858 13.145-22.858 12.925-.03-1.38-.536-.738 4.092-3.361 22.234-12.586 17.006-10.07 17.309-10.843.16-.44-2.147-5.799-2.921-7.596-15.387-35.408-13.698-31.637-14.864-31.078-2.26 1.088 1.267-.47-4.925 2.224-.624-.505-.827-.19 1.458-1.225 2.652-1.202 4.157-1.993 4.639-2.195 2.236 5.038 18.118 41.107 18.07 41.149Z" fill="#000"/><path d="M222.147 206.181c-.006.012 0 0-.018.03.006-.012.012-.018.018-.03ZM205.629 183.413c-.006-.031-.006-.031-.012-.031a.105.105 0 0 1 .012.031Z" fill="#000"/></g><defs><clipPath id="a"><path fill="#fff" transform="translate(113 38)" d="M0 0h139v265.378H0z"/></clipPath></defs></svg>