<svg width="599" height="1144" fill="none" xmlns="http://www.w3.org/2000/svg"><g clip-path="url(#a)"><path d="M136.978 137.619c-1.179-4.69-1.256-3.819-1.82-3.255-4.409 6.28 2.845 10.74.871 9.382-3.998-2.615-5.716-5.511-3.435-9.946 2.282-4.383 3.102-.871.949-6.254-2.538-5.69-4.434-9.612-5.178-3.537-.666 5.869 1.282 7.484 1.205 7.92.026.051 0 .077-.077.103.051-.026.077-.077.077-.103-.154-.308-2.179-1.23-3.025-6.639-.487-3.152-2.896 21.198 10.561 32.374 2.768 2.076 1.743 3.024 2.153-7.946.179-5.152.359-6.998.41-7.485-.103.667-.769 2.974-2.691-4.614Z" fill="#FFBD99"/><path d="M201.545 510.03c-18.788.846-12.329-2.153-20.557 14.149 17.968-3.255 16.097-1.999 16.149-3.152.153-5.383-.462-9.869 4.408-10.997Z" fill="#934842"/><path d="M151.665 1091.01c-15.38-11.61-13.893-9.61-16.636-8.1-24.632 17.02-33.886 10.74-13.072 16.07 13.405 3.44 34.219-1.46 35.372-1.2.026-1.67-4.357-5.67-5.664-6.77ZM124.776 1065.12c-42.14-16.76-65.849-25.35-90.687-61.57-5.152-7.532-2.512-10.326-7.715-10.326-20.147 0-6.818 21.946 6.177 52.236 6.434 15.15 34.835 37.25 47.753 39.42 5.921.49 17.276-6.56 41.499-13.66 1.461-.92.923-3.36 2.973-6.1Zm-67.002-.1c-13.56-11.07-39.14-52.73-4.255-9.43 10.945 13.53 21.018 23.17 4.255 9.43Zm-7.844-18.07c-4.742-6.38-11.714-14.41 20.3 17.94 3.18 3.41-14.148-9.69-20.3-17.94Zm5.588-4.08c-.026-.02 0-.05.026-.05h.025c40.627 28.71 31.118 29.07-.051.05Z" fill="#AFA29C"/><path d="M178.707 28.093c-.769-6.177 14.789.102 17.814 14.508 2.614 12.457-2.41 13.072 5.126 14.303 6.203 1.076 11.996 1.076 15.482.64 11.33-1.717 10.228 1.359 12.458-13.713 1.153-11.278-2.461-21.25-6.562-26.068-1.897.128-.769-.666 1.589 4.896 6.844 16.225-3.717 27.81-3.819 28.041 8.638-19.275-10.356-41.011-15.687-43.754-4.742-1.691-3.332-.897-6.562-1.41 14.533 19.558 16.84 41.243 15.482 40.704.769.308-2.307-6.049-6.485-15.994-12.791-7.382-24.428-21.967-48.932-5.613 7.638-2.205 15.046-2.564 20.096 3.46Zm16.481-1.897c-.308 0 4.511 3.358 6.844 8.074 2.922 5.947 3.076 13.431 1.538 18.148-.154.436.23-1.282-.308-5.793-3.024-18.609-9.766-20.429-8.074-20.429Z" fill="#C67E59"/><path d="M50.186 908.509c1.282 17.789-1.769 16.02 2.563 14.098.513-.128-2.82-17.122-2.563-14.098Z" fill="#336977"/><path d="M41.086 628.964c4.768-5.152 4.845-4.691 1.436-3.435-4.614 2.102-3.717 2.076-3.512 2.256 1.948 1.768 1.18 2.153 2.076 1.179Z" fill="#FFBD99"/><path d="M50.699 634.911c8.51.512 17.532 8.074 21.07 15.353 9.817-15.353 8.304-11.842 6.818-13.328-3.05-2.359-10.791-15.072-24.428-13.355-4.306.59-1.666-1.128-9.689 7.69-7.92 8.766-4.306 2.948 6.229 3.64Z" fill="#FF8DD9"/><path d="M36.627 708.783c15.892-22.07 10.38-20.275 24.863-43.062 3.896-6.127 6.51-4.102-1.205-22.147-.615-1.409.539-.999-3.793-2.973-6.613-2.512-8.69-2.589-18.353 2.743-29.17 15.994-24.786 7.228-26.735 17.327-3.921 19.25-6.459 13.021 4.179 19.506 9.868 5.972 7.1 5.742 8.484 6.152 5.793-8.484 14.533-1.794 8.202 7.792-2.512 3.819-4.64.949-3.716-.513 4.357-6.638 2.05-10.714-2.128-4.69-.948 1.358-.64-1.666 3.127 9.176.82.974 5.255-3.973 5.46-4.204 6.203-8.689 4.64-10.663-.846-18.378-7.92-9.945-17.379-10.048-12.38-10.048 8.97 0 9.637 7.895 11.278-2.127-.026-.974.077-2.41-2.794-4.717-3.204-2.306 4.896.411 4.28 4.947-.974 6.793-3.742 4.281-.23 6.819 0 .23 11.175 3.742 17.788-10.023 3.743-9.765-3.357-17.993-5.485-17.916-2.127.999.897-2.615 4.588 1.486 14.662 16.456-3.486 30.579-10.842 30.759 9.638 10.586-1.205 28.939-9.997 28.939-2.332 0-2.947-1.59-5.126-6.947-2.41-5.357.282-5.767-14.431-12.252-4.357-1.922-1.743-1.897-2.82 7.741-.307 2.743-.46 8.433-.512 10.714-.128 5.716-1.359 2.999 8.663 4.845 22.582 3.973 17.533 5.178 20.48 1.051ZM15.3 719.548c.872 2.846 6.306-.794 13.406-2.332 2.23-.462.436.307-6.485-1.256-10.637-2.333-9.201-3.768-6.92 3.588Z" fill="#FFBD99"/><path d="M79.843 926.99c-10.587-.769-16.405.513-26.043 4.024.949 1.769 1.128 1.179 7.793 9.664 3.819 4.87 8.535 12.047 25.273 18.019 2.076.769 1.717 1.051 1.256-.846-.103-.307-8.202-30.502-8.28-30.861Z" fill="#20444C"/><path d="M205.005 106.143c6.972-2.614 24.427-25.478 34.245-8.459-9.228-1.41-10.535 1.846-17.123 4.717 12.175-.82 18.02 2.537 18.199 1.589 1.435-5.1 1.102-4.332.872-4.332-2.487 0-.949-9.996-3.82-26.094-3.614-20.275 3.179-6.408-24.453-9.688-15.61-1.82-20.608-6.69-29.861-8.203C168.197 53.29 150.972 59.672 151.92 76c1.18 7.125 4.537 10.047 2.436 13.226-12.996 19.378-9.279 15.815-5.614 15.482 3.05-.282 11.817-20.968 32.348-2.077 2.691.487 5.331.974 7.92 1.923 4.435 1.666 14.303-1.487 15.995 1.589Zm1.102-5.024c6.434-7.1 13.175-10.278 13.406-10.278-.205 0-14.816 12.38-13.406 10.278Zm4.691-7.074c-2.461 2.41-5.204 4.51-7.998 6.51-5.1 2.563 27.376-25.324 7.998-6.51Z" fill="#FFBD99"/><path d="M283.875 1076.86c-4.537 15.2-6.818 4.23 1.718 12.74 7.741 7.77 5.588 8.33 7.638 5.26 1.948-2.93 1.897-1.98 1.128-4.28-1.641-3.64-9.125-13.1-10.484-13.72ZM159.662 1086.68c.025-.33-20.455-22.89-18.661-17.87 1.564 4.59 3.23 14.25-1.384 12.74 23.761 9.18 19.737 13.82 20.045 5.13Z" fill="#7C332F"/><path d="M162.993 585.543c37.013 20.07 57.904 48.624 41.986 26.888-5.511-7.51-18.481-21.915-11.739-22.095.153-.871 2.281-16.43 5.177-33.117 3.896-29.195 5.947-14.892-13.892-22.043-4.999-1.795-5.614-3.051-5.05-2.897 2.614.436 4.178 3.178 19.942 2.486 2.999-.179 2.05 1.077 3.281-6.946-4.435-.538 2.281-2.871-22.454 1.435-9.253 1.564 13.354-10.047-41.037 46.19-53.7 55.365-80.793 111.244-96.147 134.133-20.71 30.759-15.251 11.766 8.946 196.933 3.511 26.811-4.793 10.996 21.864 11.663 13.431.384 20.608 4.972 25.991 5.382 10.407.718 19.199 8.228 26.273 14.739 6.793 6.203-.615 3.588-1.743-32.092 10.638 32.605-2.64 1.256 7.998-104.246 7.92-78.537 24.709-64.363-26.35 3.537-19.455 25.863-23.761 19.327-22.941 19.327 7.664-1.538 18.711-21.787 24.017-30.502 34.296-56.289 47.497-59.16 11.073-31.579-8.356 6.28-9.791 7.433-9.381 6.92-.231.154 30.579-38.115 54.52-63.363 25.606-26.99 33.783-30.579 47.06-47.265.18.153-92.147 68.515-92.66 65.746-.026.026-.077.052-.103.077.026-.025.077-.051.103-.077-.128-.641 4.46-4.896 15.943-14.482 89.662-74.769 91.738-54.52 85.945-66.362-17.097-35.372 15.2 9.535-56.622-58.39Zm-51.854 258.809c40.679-119.139 18.097-43.575 2.487-1.128-3.871 10.535-8.023 20.967-11.304 31.707-.333.692.974-7.485 8.817-30.579ZM36.114 736.235c0-.077.026-.103.077-.103-.026 0-.052.026-.077.103-.18 2.102 14.687 36.962 25.248 138.414 0 12.791-26.3-134.031-25.248-138.414Zm115.114-21.019c-1.179 0-22.659 27.094-49.957 40.166-19.84 9.458-27.555-.051-27.17.154 17.635 12.842 69.309-40.32 77.127-40.32Zm-74.359-42.575c-4.819 7.229-10.586 16.866-10.073 15.867 24.35-46.728 76.614-97.967 76.819-97.967-.256 0-58.108 69.13-66.746 82.1Zm51.572 4.281c30.4-19.404 67.362-35.424 85.766-35.424.025 0 .025.026 0 .051-58.544 29.401-85.971 35.527-85.766 35.373Z" fill="#336977"/><path d="M130.107 1050.1c-15.456-6.36-10.355-7.97-18.301-14.02-1.974-1.54-2.564-2.38-4.358-5.13-4.46-6.84-2.948-3.74-8.587-3.74-35.5 0-55.98-23.2-55.776-23.43-13.02-11.915-18.455-12.581-4.793 1.93 29.221 31.17 59.493 41.75 86.663 59.03 3.691-5.33 10.945-4.56 14.328.51.667 1.1 3.23.74 7.254 3.72 10.663 7.99 13.098 18.43 13.15 15.81-3.076-18.81.179-16.45-7.562-28.19-3.307-5.03-6.511-9.97-8.459-14.74-1.204 8.51-6.715 11.02-13.559 8.25Z" fill="#7C332F"/><path d="M232.688 44.292c-2.461 8.844-4.921 11.843-4.434 11.791 24.658-3.998 15.302-38.115-1.948-38.5-2.435-.076 11.15 9.562 6.382 26.71Z" fill="#C67E59"/><path d="M108.269 953.033c-3.743-1.462-9.946-3.333-13.56-2.487-1.384.333.077-.871 2.769 11.996 3.486 16.712 3.537 24.351 3.947 25.889 7.331 26.809.282 13.709 16.763 7.049 2.41-1 7.357-1.026 2.948-.282-3.255 1.025-10.022 5.532-14.226 10.662-1.23 1.69-.487.26-.102 5.43.205 2.62-.205 2.41.692 1.77 13.431-9.12 23.812 3.13 21.48 1.21-3.743-3.08-13.919-4.03-21.993 1.15.103 8.41-.692 7.28-.231 7.82.667.9 11.612-10.51 19.891 2.97-2.435-2.1-5.126-4.56-9.817-4.2-11.611 2.15-8.741 2.64-7.228 4.64 6.561 8.46 17.148 20.73 28.041 20.27 8.049-3.25 1.692-14.97-4.562-36.78-13.739-48.034-2.769-47.342-24.812-57.107Z" fill="#304149"/><path d="M129.185 964.926c3.563-.538 3.922 1.102.179-8.151-5.741-12.74-3.716-6.485-.179 8.151Z" fill="#336977"/><path d="M185.73 119.6c1.743-1.282 2.768-1.102 2.897-7.741.051-3.845 1.409-2.409-.231-3.255-9.151-4.409-26.965-5.357-36.244-.077.102 14.867 2.64 22.3 23.787 20.172 6.1-.922 7.817-1.973 9.714-5.459 1-1.82 2.871-4.127-4.972 1.128-1.641.461 4.383-4.281 5.049-4.768Zm-7.972-3.922c-.974 2.051-20.275.923-19.788-.077.692-.589 9.382-6.408 10.945-6.92 7.69-2.461 16.866 6.459 16.636 6.664-1.769 1.333-2.435.615-7.793.333Z" fill="#FFBD99"/><path d="M188.806 267.267c-2.538 1.41-3.127-.871-8.51-.871-15.61 0-.615 24.53.717 28.759 3.717-2.281 10.51-2.307 13.483-1.666.103-1.41 1.41-10.432.615-27.452-2.614-.871-4.947-1.922-4.947.077l-.025-.051c.205.025-1.128 1.076-1.333 1.204Z" fill="#CE1111"/><path d="M186.575 262.961c1.692-2.358 3.973-3.588 6.844-3.332 1.794.154 23.786 10.304 25.145 11.509 8.048 7.254 5.178-65.209-.846-59.108 5.614 24.35-37.372 45.779-31.169 49.06-11.252-1.333-19.865-4.076-29.656-11.304-7.972-5.844-2.743-9.74-6.844-4.639-1.205 1.614-.795.461-1.897 13.841-1.666 19.045 2.281 22.633 10.663 39.525 5.665 11.97-.82-43.19 27.76-35.552Zm35.244-26.709c.436 8.382-.205 15.944-.307 15.585-5.973-30.682-1.436-49.778.307-15.585Zm-5.177 2.871c2.511 9.92 1.794 19.199 1.64 18.635-2.358-10.92-1.871-19.532-1.64-18.635Z" fill="#FF8DD9"/><path d="M218.769 278.853c.872-2.973.821.231-16.686 16.738 16.353-21.429 19.557-16.917 14.072-19.634-6.229-2.974-14.406-1.974-15.867-2.307.308 29.708-5.1 14.661 3.973 28.477 6.152 9.279 2.692 10.714 10.253-9.714-2.922 2.281-5.895 4.178-9.15 5.792 11.611-10.842 8.586-2.973 13.405-19.352ZM161.968 304.972c15.302 31.887 8.1 24.659 16.635-1.538 2.256-6.92 1.589-1.333-1.205-7.125-4.793-10.176-2.87-11.022-3.998-9.279-1.307 2.076-4.153 5.844-6.742 9.843-2.793 4.254-4.485 7.894-4.69 8.099Z" fill="#FF8DD9"/><path d="M165.992 201.136c-8.945-37.346-2.717-19.737 4.87-.077 2.154 5.101 2.564 6.434 6.152 8.177 3.871 1.41 16.149 4.127 24.761 4.665-2.23-.256 5.075-1.692 8.689-3.05 12.842-5.973 7.895-11.791 14.482-33.604.334 19.532-1.127 20.711 1.795 5.818 12.585-65.541 14.456-51.11-.052-51.213-6.331-.128-14.456-.82-17.635-6.228-4.844-8.408 4.153 17.635 4.204 17.84-13.354-16.431-9.638-32.323-8.817-33.553-.872-.692.435-.846-4.281-.846-12.842 0-3.486-.82-9.022 12.534-2.23 5.409-3.948 8.69-9.536 10.304-9.868 2.846-26.888 1.256-30.707-6.305-4.204-8.382-2.23-16.661-3.076-16.507-4.947.487 3.768 29.656-5.255 24.991 5.64 34.527 1.846 31.938 13.304 50.316 6.279 10.125 10.176 17.02 10.124 16.738Zm19.763-20.07c-.231-.102 5.357-3.845 10.381-3.845 4.972 0 10.996 3.563 10.74 3.691-7.716 1.974-12.97 2.999-21.121.154Zm34.808-39.935c-.051 0-.077.179-.077.513.795 1.871 6.152 9.561 4.717 29.631 0 2.486-4.64-25.556-4.717-29.631-.153-.334-.153-.513.077-.513Zm-4.178 36.218c-4.972-5.818-4.383-11.201-4.126-10.945 6.023 4.409 4.331 11.176 4.126 10.945Zm-3.563-33.501c-.23 0-.512 8.125-6.818 11.022-5.28 2.461-7.638 1.461-7.407 1.307 1.819-.948 9.996-12.329 14.225-12.329Zm-12.534 19.583c-3.537 2.999-6.049-3.922-.435-4.101.23 0-.154.051-1.154 2.256-.538 1.999 1.794 1.614 1.589 1.845Zm-5.254-22.71c-.026 0-.052-.026-.026-.051 3.127-1.923 8.074-3.384.026.051Zm-2.538-.436c-.026 0-.051-.025-.026-.051 5.05-3.563 9.792-4.281.026.051Zm1.538-2.973c-.231.154-4.076 2.512-3.794 2.255 2.512-2.793 11.791-7.561 3.794-2.255Zm-5.46 13.79c2.794-3.819 7.075-2.896 9.587.923.102.205-2.948-.282-5.819-.692-2.46-.257-3.998 0-3.768-.231Zm-.897-9.715s.026 0 0 0c.026-.025.051 0 .051.026-.948 11.996-3.486 7.485-.051-.026Zm-7.613 25.043c-1.589 9.612-6.203 3.46 11.766 1.974 15.584-1.282 22.351 5.588 21.428 5.28-4.024-2.153-19.198 2.025-36.628.359-.923 1.025-3.691 3.537-3.691 3.281.538-7.741 7.125-11.355 7.125-10.894Zm-20.89-8.587c-.307.462 2.076-5.254 5.537-9.279 5.562-6.433 12.662-11.79 12.893-11.79-.231 0-14.303 15.507-18.43 21.069Zm-4.742 1.231c4.87-13.534 17.815-24.172 17.661-23.967-13.329 16.918-16.815 22.377-17.661 23.967a4.486 4.486 0 0 0-.205.538c-.051.128-.154.154.205-.538Z" fill="#FFBD99"/><path d="m198.623 162.354-.051-.102a.194.194 0 0 1 .051.102ZM183.525 259.731c1.922.821-.667.385 7.433-9.868 9.356-11.842 24.889-27.478 25.53-32.656 1.768-15.661-21.557 35.45-40.884 10.151-6.228-8.305-14.097-19.942-18.122-31.4-16.379-19.173-16.968-29.451-6.972 11.996 10.305 42.652 5.46 39.935 33.015 51.777Z" fill="#FFBD99"/><path d="M203.903 324.12c4.178-13.688 3.998-4.23-3.948-18.686-6.741-6.588-13.2-13.483-4.383-6.742-.666-1.153-1.333-2.845-1.128-4.152-11.073 1.102-10.919 3.794-11.15 3.973.923.308-3.767 4.665 2.564-1.512 3.896-3.102-4.999 2.332-8.997 30.195-1.102 9.073 7.484 20.864 10.278 23.837 6.562 6.998 3.102 17.61 16.764-26.913Z" fill="#CE1111"/><path d="M154.715 238.482c-.846 1.666-1.23 4.947 1.025 6.665 4.896 3.46 3.819 2.717 2.487-.308-4.076-9.407-2.359-8.612-3.512-6.357Z" fill="#FFBD99"/><path d="M149.843 87.227c-.897-3.563-7.177-10.946-.256-22.941 6.972-12.047 31.451-19.199 47.138-9.126-4.178-26.478-17.379-32.783-17.661-26.785 5.306 5.87.82 1.256-4.793-1.282-7.664-3.178-28.862 6.306-32.502 15.43-2.153 4.845 9.202-14.635 31.861-8.689 5.87 1.538-10.407-5.51-39.525 22.07-8.484 13.56 4.435-8.869 23.351-8.869 1.692 0-2.076-.077-11.483 6.075-.41 1.794-1.051-.026 6.741-2.768-9.381 7.151-13.739 17.84-13.79 18.096-.436 1.077.436-.923 5.024-6.28-10.791 26.427-8.382 19.686-5.614 40.115.641 4.972-.281 4.075 3.589 3.409 4.793-.821-1.589-.539 7.92-18.456Z" fill="#C67E59"/><path d="M202.185 464.61c-.462 1.41-3.768 11.047-4.204 11.714 20.403 14.713 24.838 26.606 24.53 26.606.333 0-6.613-6.536-6.818-6.741-32.476-31.682-7.792-21.916-28.042 13.559 26.581-10.483 22.531 4.435 12.227-19.121 15.687 19.506 2.614 12.636 21.326 13.944 10.484.692 10.945 3.819 3.665-8.408-24.376-40.806-18.788-43.498-22.684-31.553Z" fill="#FF8DD9"/><path d="M227.818 512.978c.23 1.589.41 3.025.538 5.28 14.098-.333 8.843 1.948 3.204-10.278-14.61 1.486-4.614-1.436-3.742 4.998Z" fill="#934842"/><path d="M221.332 535.842c-30.579 7.741-9.868-13.944-22.454 49.496-3.075 15.354-5.536 4.357 8.331 26.811 7.074 11.458 5.024 8.741 8.535 11.663 5.358 4.46 5.101 8.253-1.076-8.177-4.691-12.483-8.407-22.633-6.126-32.066 9.433-39.73 12.483-37.705 7.664-36.731-.026 0-.051-.051-.026-.051 3.179-1.153 2.205.589 5.152-10.945Z" fill="#336977"/><path d="M217.206 527.768c-16.097.077-13.098-1.641-13.405 6.69 8.176-.615 13.098-1.666 18.609-2.666 1.486-5.947 2.614-4.05-5.204-4.024Z" fill="#336977"/><path d="M208.286 213.696c-2.871.205-4.691.256-5.742.256 2.281.103 4.281.052 5.742-.256Z" fill="#FFBD99"/><path d="M219.051 513.568c-16.302-.231-13.482-1-14.354 9.586 6.818-.333 14.559-.666 17.353-1.256.641-9.791 0-8.305-2.999-8.33Z" fill="#9AC2CC"/><path d="M135.772 290.029c7.177 1.512 4.665 3.973 8.176-3.589.897-1.922-.871-3.178-1.205-9.227-1.256-23.556 7.152-32.246-4.716-17.738-4.947 6.024-4.101 2.973-7.792 17.738-4.024 15.892-3.999 10.842 5.537 12.816Z" fill="#467D89"/><path d="M133.106 112.346c-3.973.077-5.409.128-6.229 7.331 6.254-8.433 13.175 13.175 13.38 11.329.077-.717-.179-9.689-1.307-13.841-1.871-6.844-2.23-4.896-5.844-4.819Z" fill="#FFBD99"/><path d="M57.85 620.044c4.434-.385 9.202.461 14.098 2.973 16.558 8.536 9.356 13.15 15.661 5.973.667-.769-1.333-11.612 3.179-20.686 1.999-4.024 14.277-18.455 12.021-16.635 3.435-6.921-1.102-1.307 9.433-30.374 8.843-24.505 17.635-31.938 29.733-71.77-25.017-47.882-45.625-63.517-65.72-115.909 1.973 3.409 86.226 135.979 59.85 98.376 10.689 20.121 1.333 24.428 17.379-14.687-10.432 61.005-8.664 51.854-7.843 50.47 4.793-7.972 12.175-18.968 22.453-32.117-23.325 44.369-23.94 39.396-26.35 45.369-12.764 31.297-18.609 31.015-26.016 46.983-11.227 24.351-4.665 17.507-9.151 26.658-3.64 7.536-10.407 11.278-11.97 21.608-.82 6.639-1.18 5.895 1.435 2.82 87.893-104.042 83.305-102.427 97.736-145.643 2.076-6.228 5.742-21.992 5.742-21.992 1.973-3.999 3.46 6.638-9.792-25.889-8.638-21.172-8.382-23.889-3.588-45.574 3.921-19.019 5.895-16.533 3.716-17.122-2.948-.821-14.021-21.019-14.2-21.25-40.627-51.777-22.249-61.876-34.809-37.935-12.662 23.966-10.996 1.717 39.525 70.514-9.586-8.305-56.673-49.214-52.238-61.056 6.408-17.045 20.89-17.763 1.948-18.686-11.073-.615-9.689-3.383-3.076-18.019 5.87-18.481-2.589 10.688-37.013 29.528-5.767 18.84-12.637 35.654-12.765 45.062 0 0-.025.051-.051.051l-.051-.026c-6.819-29.092 28.503-57.442.666-36.628-13.431 10.765-15.815 36.295-14.02 53.263-.026-.666.384 8.075 10.303 27.632 7.126 14.123 21.019 29.605 2.769 9.689-5.973-6.485-4.845-7.895-4.64-3.204.59 13.329.282 16.251 20.89 27.58-11.38-2.204-4.998-3.973-7.945.974-1.23 2.051-2.307 2.743-4.332 6.87-.718 2.153 11.714 19.429 14.79 31.861 2.434 9.766-5.742 19.044.128 26.196 6.869 2.717 7.843 2.358 8.561 4.024 2.973.615 2.64.487.666.666-1.179.052 1.051 2.154-3.229 3.768-6.306 2.384-4.82 1.256-5.69 7.126 1.435-.743 31.604-16.251 34.551-20.736 1.128-1.128-.512 1.897-2.691 4.203-17.174 18.071-31.605 14.483-31.912 17.533-1.794 17.584-7.228 42.524-20.506 60.825 19.096-9.945 26.811-16.968 39.807-29.605 2.538-2.153-12.996 26.299-37.73 38.5-30.426 14.994-9.382-7.741-39.141 44.215-2.307 3.461 3.28-6.792 19.43-5.767ZM162.276 483.27c.461-.641.948-1.256 1.435-1.896a51.752 51.752 0 0 0-1.435 1.896Zm19.609-74c-.026 0-.308.179-.744.487-1.179 1.589-2.691 6.818-17.481 12.38-.282.077 14.046-10.022 17.481-12.38.231-.308.462-.487.744-.487Zm-55.264-43.062c-.025 0 .129.128.334.333 5.562 3.46 69.053 32.348 33.347 19.506-17.609-6.331-31.169-17.532-33.347-19.506-.334-.205-.462-.333-.334-.333Zm-39.678 75.794c-1.282.103-2.358-2.076-2.128-1.922 1.564 1.358.77 3.306 18.302-9.638.256-.128-7.87 10.92-16.174 11.56Z" fill="#467D89"/><path d="M312.174 1103.54c14.585-3.84 9.791 5.31 9.561-15.89-.308-24.07 3.793-14.63-5.511-14.63-4.383 0-5.178-1-7.382-5.05-5.281-10.02 1.358-17.69-3.204-15.18-10.305 5.69-11.022 6.26-17.584 16.46-4.819 7.46-4.717 5.48 2.204 11.05 10.022 8.12 11.099 12.15 11.278 27.12.052 4.87-.41-.95 10.638-3.88Z" fill="#7C332F"/><path d="M393.633 517.669c-5.409 2.409 4.126.487 3.896.538 1.768-.872 6.126-4.639-3.896-.538Z" fill="#FFBD99"/><path d="M247.99 373.615c-1.41 3.794 104.477 192.909 104.682 192.832 2.897-6.767 11.099 7.792-59.544-118.293-49.521-88.406-43.087-80.101-45.138-74.539Z" fill="#1C3F47"/><path d="M410.575 765.097c4.383 3.896 1.436 2.153 1.333-.692-1.282-1.461-.41-.769-1.333.692Z" fill="#FFBD99"/><path d="M420.623 518.745c.41-.897-53.212 30.375-54.545 30.375-1.487 0-2.64-1.461-2.102-2.948.385-1.077-1.025-.026 23.454-13.893 24.299-13.687 12.636-5.178 3.46-9.151-13.098-5.613 12.15-9.689 17.737-20.659 1.795-4.793 1.256-2.41 11.945-14.38 15.533-17.148 2.153-6.382 26.401-11.457 8.587-1.769 7.562-2.999 7.946-4.178-11.585-.616-8.279-7.28-8.381-10.176-7.562-6.767-5.05-1.795-3.999-25.3-.82-58.8 7.69-70.591 7.382-81.126-.974-27.58 7.997-22.223 3.332-24.94-7.715-4.614-8.663-10.176-9.561-10.125-16.199.821-13.2-2.46-40.422-16.712-338.14 148.924 50.573-28.041-11.662-.794-153.384 67.182-122.702 54.878-138.85 59.261-2.717 5.896 99.53 184.117 102.093 188.551 5.665 9.817-.461 9.612 49.291-18.481 11.611-6.459 14.149-6.485 16.481-13.867Zm-60.235 29.067c-.257-.205-100.017-179.22-100.146-179.477-.64-1.179.282-2.819 1.743-2.819 1.897 0 100.863 178.554 100.966 178.785 2.102 2.512-.795 4.895-2.563 3.511Z" fill="#00A3C9"/><path d="M347.135 570.112c.102-1.358-108.809-190.678-107.502-194.651-.743-1.922 5.716-23.402 12.842-18.66.103 0 .026.077-.051.128 1.384-.743 14.149-7.1 102.99-46.369-2.691-42.959 9.176-30.297-8.51-44.677 90.841 36.577 74.872 66.798 134.339 34.219 10.201-5.177-11.509 12.329-31.605 15.508.282.384.539.82.769 1.23 9.51 8.792 8.613 9.33 12.304 8.1 7.818-3.64 19.147-14.149 21.275-18.096-.821 6.126-14.021 23.069-22.967 22.966.795 1.922.154 3.665-.692 5.434-4.101 8.638-2.871 11.842-4.793 20.378 18.532-31.067 19.839-28.785 35.475-54.751-.103 7.562-8.228 23.044-12.329 29.298-38.987 59.236-12.073-26.709-32.246 118.882-.948 6.793 7.075-19.429 50.368-11.022 12.816 2.435 9.842 4.717 11.175-4.024 3.153-24.274 3.332-25.401 2.025-62.978-.897-25.709-1.358-18.456-2.127-15.585-5.434 20.327-23.941 63.517-14.201 34.424 19.276-57.647 12.817-42.19 13.739-81.638.334-12.945 2.025-13.996-20.454-38.654-54.981-45.138-106.297-50.06-67.157-44.574 3.948.564 9.587 1.768 12.868 3.153-12.227-20.558 1.794-13.765-47.779-16.174-32.476-1.59-39.089.538-12.97-4.46 4.794-.923 19.942-2.41 31.246-1.615-12.842-9.125-6.075-14.226-43.575-2.358-14.251 4.511 11.099-7.511 11.33-7.613 11.483-4.563 10.893-2.743 9.202-4.281-8.203-6.997-17.917-13.79-36.526-16.686-12.022-1.359-18.686 12.841-22.429 24.376-3.101 9.586-5.126 11.637 2.794 30.554 6.024 13.995 20.66 43.984 14.098 33.578-26.222-41.678-32.271-49.317-12.098-81.972-20.122 8.664-24.761 12.124-33.63 15.61-30.733 12.175-55.468 6.69-51.495 11.739 5.562 7.126 31.784 25.197 27.145 28.914-1.564 1.256-6.767 4.126-10.535 6.485-5.486 7.946-4.358 7.638-2.538 9.048 22.274 17.455 40.55 1.435-59.697 139.926 36.115-94.993 76.23-115.653 67.541-127.392-9.613-11.535-21.993-16.738-31.759-16.943-3.64-.103 6.229 4.178-14.508 64.721-30.476 89.098-47.958 63.21-8.74 129.136 54.238 91.02 23.069 52.879 51.239 89.815 21.403 28.119 15.405 11.099 52.802 59.851 14.123 18.302 9.176 18.199 22.967 8.177 14.687-10.689 22.325-13.713 46.983-30.22 28.709-19.301 16.431-14.021 22.557-24.043 2.076-3.102-58.493 40.575-57.16 23.786Zm-12.996-361.799c-.487.128 9.433-6.51 17.148-9.304 9.869-3.563 17.071-3.794 16.431-3.64-11.048 3.896-13.201 6.664-33.579 12.944Zm5.332 57.75c-.103 0-.256.179-.41.435-.795 2.743 2.025 18.276-16.507 51.829-2.23 3.332 13.303-46.753 16.507-51.829.077-.282.205-.435.41-.435Zm-11.201 7.971c-9.792 26.914-28.683 49.624-28.606 49.419 11.893-30.195 29.169-50.547 28.606-49.419ZM195.495 394.916c.999-4.05 3.87-6.793 3.537-6.28-.41.666-.744 1.282-1.051 1.897.769-.667 3.896-2.487 6.818-2.23 3.896.384 5.921 1.384 3.922 6.844-6.408 17.583-15.738 10.022-13.226-.231Zm.461 11.842c-9.971-29.477 10.432 27.247 40.114 66.644-18.609-18.635-32.194-43.011-40.114-66.644Zm31.015 39.371c-34.219-44.754 6.254-2.922 38.679 36.09.256.41-22.3-14.713-38.679-36.09Z" fill="#467D89"/><path d="M407.68 797.239c.153-.076.229-.153 0 0Z" fill="#FFBD99"/><path d="M513.643 492.165c-4.357-7.126-.025-7.306-21.787 4.895-2.563 10.792-6.87 9.382 21.787-4.895Z" fill="#1C3F47"/><path d="M449.357 453.024c-3.563 3.358-3.461 2.538-1.231 3.845 1.692.41 1.461 2.179 1.718.179.769-5.972 1.256-5.639-.487-4.024Z" fill="#FFBD99"/><path d="M499.905 444.976c-15.226-3.179-23.428-1.436-33.22-.513-15.148 2.204-12.175 6.203-13.38 19.737-.333 4.409-.974.692 8.459-3.332 9.689-4.127 19.019-6.613 26.837-.795 4.947 3.102 6.049 4.896 5.588 4.87 2.922 0 3.511-17.532 5.716-19.967Z" fill="#FF8DD9"/><path d="m507.851 440.746.205.077c.974-6.126-.18-.307-.205-.077Z" fill="#FFBD99"/><path d="M579.338 423.906c5.28-2.871 2.845-.461 1.153-4.101-5.844-7.895-73.513-160.637-73.59-161.612-21.07 9.536-17.994 5.281-10.33 12.637 21.813 20.711 22.121 20.07 22.787 42.216 0 .257-.897 101.197-2.947 119.985-2 17.763-2.64 15.866-11.689 22.838-4.254 3.512-1.256 13.022-9.432 14.534-.846 2.948-4.511 1.717 84.048-46.497Z" fill="#00A3C9"/><path d="M466.25 541.302c-.513-.205-1.795-.667-2.538-1.641-3.589-4.562.718-3.665-4.614-.718 8.331 15.405-.205 14.944 48.881-11.816 23.735-12.919 20.249-9.997 18.66-13.277-.333-.718-2.819-5.486-3.947-4.819-.231.128-42.575 24.837-43.421 24.786-.872.974-4.255 10.407-13.021 7.485Z" fill="#1C3F47"/><path d="M489.703 507.134c-1.333 13.816-5.178 6.177 23.094-5.69.59-.257 2.563-1.18 3.102-1.18 6.536 0-10.151 7.254-18.942 12.586-15.149 9.176-6.357 3.101-12.74 14.61 32.579-18.814 24.479-14.072 37.475-21.762-3.717-6.177-3.051-5.254-6.998-11.739-26.837 14.175-24.991 12.944-24.991 13.175ZM494.162 258.091c-9.843 4.46-8.971 3.101-6.28 5.28 26.683-11.611 11.483-4.87 21.224-9.586 4.998-2.384-2.256-18.661 64.055 133.928 3.332 7.716 13.277 30.836 12.585 32.733-1.282 3.332 21.224-7.511-74.59 46.727-19.942 11.278-17.763 8.536-17.635 14.482.026.949 97.89-55.211 98.505-55.698.231-.18-68.207-155.614-77.871-177.324-2.076.871-8.561 4.28-19.993 9.458Z" fill="#1C3F47"/><path d="M244.76 88.277c2.64-12.918 3.973-19.89 2.563-33.296-.589.718-1.127 1.128-1.973 1.718.871.871.179 2.127-.308 3.665-.051.23-.384 1.333-.436 2.589 1.769 9.92.077 21.403.154 25.324Z" fill="#C67E59"/><path d="M477.962 518.72c3.101-1.179-13.355 13.841-13.124 14.2.692 1.128 1.307 2.819 2.538 3.076 1.64.128 3.896.025 5.305-.769.129.307 5.793-6.972 7.998-15.661.051-.231 7.638-31.938 6.997-31.81-4.819.923.667-20.813.769-21.019-7.459-4.254-11.637-6.433-21.505-2.665-6.972 3.281-4.486.692-6.306 9.689-.64 3.511-.153 3.819-16.712 7.151-1.743.359-8.484 1.743-11.509 1.384-2.794-.384-2.512 7.408-18.045 19.353-1.358 1.256-1.948 7.792-11.996 12.739-.128 5.126-5.998 5.536-3.691 5.639 8.792.41 20.275-6.254 27.529-11.227 1.794-3.358 1.589-2.845.846-.59 1.769-1.23 2.615-1.768 3.486-2.947 1.666-2.358.41 1.256-4.05 5.895-1.281 1.307-3.05 13.252-13.175 32.989-4.614 8.945-4.844 7.843-2.409 8.279 5.562.41 5.383-.128 6.152-.743 2.101-1.769 9.56-14.482 11.124-18.353 2.589-6.357 3.768-3.922-1.923-6.921-3.921-2.435 5.563 1.897 9.459.692 3.793-1.204 14.174-15.174 14.559-15.866 1.128-2.563-1.205 5.972-6.485 12.816-3.665 4.742-4.87 4.383-7.792 6.665-.539.384-3.589 6.587-4.742 8.228-.564.666 5.921 1.435 6.331 1.332 1.922-1.332 5.408-5.177 8.382-7.741 31.681-27.657-.462 3.435 1.922 3.897 4.742.897 8.561-2.282 13.457-5.87-2.794 1.512 14.098-9.894 16.61-11.842Zm-24.018-10.279c-.051.026-.128.077-.179.103.871-1.718.846-1.743.179-.103Z" fill="#FFBD99"/><path d="M434.644 579.519c-.076-.23-.564-1.307-.333-1.332-.025-.231-3.922 14.225-4.998 22.402-.564 4.204-.795 5.229 1.974 12.278 6.946-41.319 5.434-28.324 3.357-33.348Z" fill="#1C3F47"/><path d="M403.168 781.732c.999-.692 9.304-6.357 8.458-7.279-3.153 3.434-18.019 13.457-8.458 7.279Z" fill="#FFBD99"/><path d="M438.822 579.135c2.307.461 119.293-63.184 119.523-63.286 7.408-4.024 17.097-7.382 11.586-10.868-2.973-1.871-.307-2.487-15.892 5.87-135.774 73.231-114.576 58.082-115.217 68.284Z" fill="#2A7E8C"/><path d="M545.452 526.537c-123.266 66.362-103.58 47.087-110.347 88.457 8.715-4.716 8.023-3.357 8.279-7.33 1.333-20.199 1.205-29.298 6.049-26.94.231-.128 102.119-54.597 102.171-54.366 2.64-1.282 4.767.487 4.844 3.537-.102 2-.82 5.076-1.435 7.664-4.05 17.353-4.281 14.893-.385 13.15-.128-1.205 8.997-24.069 9.151-24.428 6.459-16.122 11.483-15.738-18.327.256Z" fill="#1C3F47"/><path d="M325.066 1104.54c-1.307 1.98-8.228-1.64-18.865 2.7-5.408 2.41-5.05 1.28-4.306 8.74 1.41 7.94 5.126 11.12 7.561 13.56 5.921 5.97 54.879 10.63 55.904 6.76-4.05-4.71-14.892-11.38-20.557-13.94-7.536-3.41-12.97-6.61-26.247.82 2.178-2.36 6.485-4.15 9.458-4.87 3.255-.77 5.255-.9 6.434-.8-.641-.51-1.436-1.43-2.102-3.1-6.741-.05-10.407 1.36-18.968 2.26-7.485 1.15 10.202-5.87 18.994-2.69-4.589-27.99-.487-20.71-7.639-44.47-4.306 3.46 2.82 31.32.333 35.03Z" fill="#7C332F"/><path d="M327.63 617.558c-14.456 5.305-7.69-9.023-32.143-34.758-.205-.23-50.188-58.544-54.058-58.544-21.172 0-10.535 1.923-17.712 3.153-.897 5.947-4.434 4.537 20.583.615.025 0 .051.051 0 .051-26.299 10.663-21.096 3.23-23.608 17.097 9.869-3.614 41.448-18.481 16.021-5.075-19.737 10.407-14.457-1.282-18.481 17.148-7.331 33.629-10.638 28.349-5.101 47.727 13.38 46.753 9.894 19.25 25.812 67.157 11.303 18.993 28.169 40.473 43.216 70.514 23.735 47.65 50.546 109.27 49.444 107.45-.384-.897 1.359 2.333-10.945-18.07-14.79-24.53 3.153 4.716 10.612 36.346 2.051 8.792.077 11.663 6.229 3.05 3.511-4.921 3.024-4.383 2.537-2.922-7.766 23.428-3.306-8.176-3.153 34.937 0 1.384-.666.795 6.408-17.02 26.427-66.336 8.177-2.947 2.641 9.125-11.74 25.607-14.149 24.402-14.97 24.992a3.128 3.128 0 0 1-.282.435c.077-.23.154-.358.282-.435.641-1.154 1.436-3.486 3.307-8.895-6.075 9.664-4.511 17.61-3.742 30.375 3.332 53.597-11.407 49.957-1.564 56.621 12.842 8.718 14.405 10.838 15.661 11.198 26.863 6.18 18.584 8.77 27.427-47.596 13.79-89.892 12.457-72.077 12.483-138.619.102-18.327-25.376-165.302-39.192-206.596-5.229-15.507 1.769-6.69-17.712.539Zm48.035 258.501c.077 3.973 1.102 17.763-7.177 45.651-11.253 38.012-31.066 64.798-28.682 57.954.768-2.204 6.561-12.38 10.56-24.35 19.429-58.467 24.222-74.872 25.299-79.255-.026-.846 0-1.256.154-1.256-.051 0 .41-1.025-.154 1.256Zm-45.087-167.251c-8.689-41.088-15.405-61.594-17.609-67.771-.257-.667-.487-1.308-.744-2-.102-.307.154.334.744 2 16.712 44.497 11.457 32.425 25.657 86.073 36.219 138.311 3.384 36.269-8.048-18.302Z" fill="#336977"/><path d="M223.691 205.083c.077-.23-.308.308.23-2.255-1.691 5.075-3.05-.128 1.692 18.635 7.587 29.912.256 21.018 9.843 23.325 18.148 4.306 10.689 6.536 17.712-3.794 5.972-8.843 6.613-2.435-.462-10.15-31.322-35.091-25.811-34.604-29.015-25.761Z" fill="#467D89"/><path d="M417.958 572.752c-7.767 7.69-7.792 7.665-7.356 8.177.717.82 11.996-12.098 14.584-12.816.59-.205 1.103-3.87-7.228 4.639ZM397.426 623.761c.41 1.845.641 4.408 1.641 3.921 1.973-.948-5.614-6.843.256-28.887 1.025-4.358-6.357 5.126-1.897 24.966Zm1.743 2.87c-.026-.051-.025-.102-.051-.128.026.026.025 0 .051.128ZM472.092 723.803c4.409-6.203 4.409-10.15 3.614-10.227-4.127 0 5.896-.615-11.816 19.25-1.256 1.358-2.435 6.177 8.202-9.023ZM224.818 107.373c-5.305.103-10.099.59-15.302 1.795-1.769 2.255.82 8.023.538 8.023 1.794 0-1.41 14.431 22.71 9.535 4.563-.923 3.64-.795 3.615-4.383-.103-12.458-.334-12.509 1.922-1.641-1.102-12.457 6.69-13.764-13.483-13.329Zm2 8.433c.564.282 1.64.667 2.358.846.205.077-2.128 3.768-14.841-1.768-2.999 1.204-6.383 2.691-1.179-.769 11.329-7.921 12.252-1.461 18.66.154.231 0-1.717 1.461-4.998 1.537Z" fill="#FFBD99"/><path d="M323.965 1011.24c-1.231-8.4 1.486.64-8.28 27.46-2.409 11.32-1.743 4.58-3.768 13.86-5.254 24.02 10.869 12.66 11.099 12.59.41-.13 14.354-34.63 14.431-34.84-14.713 12.13-12.38-11.33-13.482-19.07Z" fill="#304149"/><path d="M173.221 115.601c2.076.077 2.768.154 3.819.052.231-.154-3.589-.052-3.819-.052ZM429.62 772.351c5.075-6.793 4.511-5.204 2.717-8.331-7.485 6.434-5.152 5.896-2.717 8.331ZM198.674 390.379c-.436.256-.692.359-.794.359a13.91 13.91 0 0 0-1.103 3.537c-1.973 23.889 21.198-11.919 1.897-3.896ZM415.727 789.191c4.716-4.716 1.589-1.948-2.461 2.051-7.433 7.407-8.817 9.407 2.461-2.051ZM428.032 781.963c2.896 2.512 3.562 3.383 1.384-.128-2.282-.334-3.666-1.872-1.384.128ZM434.593 762.072c1.512 2.461.666 2.41 3.076-.615 1.179-1.487 1.153-.692.23-2.23-.256.18-3.024 2.589-3.306 2.845ZM428.106 774.324c-.126.076-.1.076 0 0ZM422.802 765.404c.436-.666.513-.589-.23-.23l.23.23ZM440.36 757.074c.59 1 .334.923 1.205 0 1.794-2.102.205-1.23-1.205 0Z" fill="#FFBD99"/><path d="m392.3 296.77-143.105 65.824 109.373 200.213 61.466-37.525 1.641-11.432-55.571 35.27-106.579-185.424 142.567-62.03-9.792-4.896Z" fill="#2A7E8C"/><path opacity=".64" d="M177.502 103.759c-2.025-.538-21.864.949-22.402 1.487-.538.538-5.716 1.769-5.716 1.769l1.768 12.764 4.204 7.331 10.33 3.127 9.381.411s10.33-2.589 10.586-2.999c.282-.411 5.306-11.535 5.306-11.535l.667-9.099-8.818-2.307-5.306-.949ZM222.461 104.99c-7.203 0-16.021 2.435-16.021 2.435s1.231 9.637 1.359 10.047c.128.411 1.64 5.716 3.794 7.741 2.178 2.025 7.74 3.666 9.919 4.076 2.179.41 12.227-.41 13.995-1.359 1.769-.948 7.331-4.357 7.741-5.716.41-1.358 3.794-9.381 4.076-9.919.282-.539-1.359-5.024-2.307-5.152-.948-.129-19.019-2.999-19.019-2.999l-3.537.846Z" fill="#83E8FF"/><path d="M203.262 46.625c.539 4.511.18 6.229.308 5.793 1.538-4.716 1.384-12.201-1.538-18.148-2.332-4.716-7.126-8.074-6.844-8.074-1.691 0 5.05 1.82 8.074 20.429ZM198.597 156.203c-.231.154 2.127 1.153 7.408-1.307 6.305-2.897 6.587-11.022 6.818-11.022-4.23-.026-12.406 11.355-14.226 12.329ZM192.344 151.333c2.871.41 5.921.897 5.818.692-2.511-3.819-6.818-4.742-9.586-.923-.231.231 1.307-.026 3.768.231ZM187.729 141.413c0-.026-.025-.026-.025-.026s-.026 0-.026.026c-3.435 7.485-.897 11.996.051 0ZM172.966 177.349c0 .257 2.769-2.255 3.691-3.281 17.43 1.641 32.579-2.511 36.629-.358.923.307-5.844-6.588-21.429-5.281-17.968 1.487-13.354 7.639-11.765-1.973-.026-.487-6.613 3.127-7.126 10.893Z" fill="#000"/><path d="M216.386 177.349c.205.205 1.897-6.536-4.127-10.945-.256-.23-.846 5.152 4.127 10.945ZM196.137 177.221c-5.023 0-10.611 3.743-10.381 3.845 8.151 2.845 13.406 1.82 21.121-.179.257-.103-5.767-3.666-10.74-3.666ZM185.551 115.345c.205-.205-8.971-9.125-16.635-6.664-1.564.512-10.253 6.331-10.945 6.92-.487 1 18.788 2.128 19.788.077 5.357.282 6.024 1 7.792-.333Zm-8.51.308c-1.051.102-1.743 0-3.819-.052.231 0 4.05-.102 3.819.052ZM213.156 114.115c-5.203 3.46-1.82 1.973 1.179.769 12.739 5.536 15.072 1.845 14.841 1.768-.743-.179-1.794-.564-2.358-.846 3.255-.102 5.203-1.538 4.998-1.538-6.408-1.614-7.33-8.074-18.66-.153ZM210.799 94.045c19.378-18.84-13.098 9.073-7.997 6.51 2.768-1.974 5.536-4.101 7.997-6.51ZM206.109 101.119c-1.41 2.128 13.175-10.278 13.405-10.278-.23 0-6.946 3.178-13.405 10.278ZM172.094 135.107c.154-.23-13.175 10.715-17.866 24.505-.153.436-1.076-.461 17.866-24.505ZM164.712 148.564c-3.461 4.025-5.844 9.741-5.537 9.279 4.127-5.562 18.199-21.069 18.43-21.069-.231 0-7.331 5.357-12.893 11.79ZM225.178 171.275c1.692-23.685-6.1-30.144-4.639-30.144-.743 0 4.639 32.809 4.639 30.144ZM221.512 251.837c.103.359.718-7.229.308-15.585-1.743-34.193-6.28-15.097-.308 15.585ZM218.283 257.758c.128.564.846-8.715-1.641-18.635-.23-.897-.717 7.715 1.641 18.635ZM103.143 430.468c-17.558 12.944-16.737 10.996-18.301 9.638-.23-.154.82 1.999 2.127 1.922 8.28-.667 16.405-11.714 16.174-11.56ZM208.723 395.121c1.999-5.46-.026-6.459-3.922-6.844-4.281-.384-8.971 3.691-6.126 2.076 19.301-7.997-3.871 27.786-1.871 3.896.359-2.153 1.051-3.767 2.23-5.664.333-.487-2.538 2.23-3.538 6.28-2.512 10.304 6.819 17.865 13.227.256ZM160.303 386.047c37.936 13.637-36.116-19.839-33.681-19.839-.205 0 14.303 12.893 33.681 19.839ZM163.661 422.137c17.711-6.638 16.379-12.867 18.224-12.867-.154 0-18.532 12.944-18.224 12.867ZM328.271 274.034c.564-1.128-16.712 19.224-28.606 49.419-.077.231 18.814-22.505 28.606-49.419ZM322.555 318.352c20.557-37.218 14.866-52.289 16.943-52.289-1.948 0-19.301 55.801-16.943 52.289ZM367.694 195.369c.64-.154-6.562.077-16.431 3.64-7.715 2.794-17.635 9.432-17.148 9.304 20.404-6.28 22.557-9.048 33.579-12.944Z" fill="#000"/><path d="M236.098 473.402c-29.708-39.371-50.111-96.121-40.115-66.644 7.895 23.633 21.48 48.009 40.115 66.644ZM226.973 446.129c16.379 21.352 38.936 36.5 38.679 36.09-32.399-38.986-72.898-80.844-38.679-36.09ZM128.442 676.922c-.23.154 27.196-5.972 85.766-35.373.025-.025 0-.051 0-.051-18.404 0-55.366 16.02-85.766 35.424ZM74.127 755.536c-.384-.205 7.331 9.305 27.171-.154 27.298-13.072 48.778-40.166 49.957-40.166-7.844 0-59.518 53.162-77.128 40.32ZM113.627 843.224c15.61-42.447 38.192-118.011-2.486 1.128-7.869 23.069-9.177 31.245-8.844 30.579 3.307-10.714 7.459-21.147 11.33-31.707ZM350.366 955.339c-3.998 11.945-9.791 22.121-10.56 24.351-2.384 6.844 17.43-19.916 28.682-57.954 10.023-33.784 6.408-46.908 7.331-46.908-.205-.025 4.178-8.689-25.453 80.511ZM53.545 1055.59c-34.886-43.3-9.33-1.64 4.255 9.43 16.738 13.74 6.664 4.1-4.255-9.43ZM70.23 1064.92c-32.014-32.35-25.042-24.35-20.3-17.95 6.151 8.23 23.479 21.33 20.3 17.95ZM55.57 1042.85c-.026 0-.026-.03 0 0-.026 0-.052.02-.026.05 31.143 28.99 40.653 28.63.026-.05ZM36.191 736.132c-1.922 0 25.171 151.513 25.171 138.517-10.893-104.785-26.4-138.517-25.17-138.517ZM143.616 590.541c-.205 0-52.495 51.239-76.82 97.967-.487.974 5.28-8.638 10.073-15.867 8.638-12.97 66.49-82.1 66.747-82.1ZM338.627 727.11c-14.431-54.469-8.767-41.166-26.427-88.098-.538-1.41 7.331 17.583 18.378 69.771 11.432 54.596 44.267 156.638 8.049 18.327ZM198.7 161.585c1-2.204 1.385-2.255 1.154-2.255-5.614.154-3.102 7.1.436 4.101.205-.231-2.128.154-1.59-1.846Zm-.102.667.051.102a.194.194 0 0 1-.051-.102ZM194.035 137.312c8.023-5.306-1.282-.538-3.794 2.255-.282.257 3.563-2.101 3.794-2.255ZM192.497 140.285c9.766-4.332 5.024-3.588-.026-.051-.026.026 0 .051.026.051ZM195.035 140.721c8.023-3.435 3.076-1.974-.026-.051-.025.025 0 .051.026.051ZM453.946 508.441c.666-1.64.692-1.615-.179.103.076-.052.128-.077.179-.103ZM361.388 541.737c-.128-.23-.179-.307-.026-.026 0 0 .026 0 .026.026Z" fill="#000"/><path d="M362.95 544.301c-.102-.231-99.068-178.785-100.965-178.785-1.461 0-2.409 1.666-1.743 2.819.128.257 99.889 179.272 100.145 179.477 1.769 1.384 4.665-.999 2.563-3.511Z" fill="#000"/><path d="M578.852 375.666c-67.413-147.872-55.725-138.568-79.588-128.315-25.274 10.74-16.046 12.355-42.627-5.895-29.861-20.378-20.48-31.092-34.296-35.219-7.433-2.23-11.021.231-17.763-6.613-6.28-6.434-7.459-10.663-15.917-10.663-13.842 0-9.356-8.766-30.503-17.148-35.142-13.97-46.343 24.453-120.369 29.272-2.691.179-1.461 2.102-3.588-.41-6.998-8.177-6.126-6.46-5.537-8.561 14.2-36.168 14.457-47.497 11.458-63.466 6.023-3.588 14.841-20.48 3.486-23.53 2.307-8.536-.872-5.486 3.153-14.56 10.996-21.223 4.921-38.576 4.254-42.908-1.102-11.79-3.383-25.299-14.559-32.732-6.946-4.64-13.508-2.691-16.148-2.64-16.097-15.713-37.295-14.226-29.503-7.305 7.741 7.048 10.817 17.25 10.638 17.045.846-.846-21.173-24.889-46.933.282-7.254 5.126-16.712 12.252-18.301 21.66-1.333 7.381-16.456 22.222-10.023 24.017 1.359.358 2.333-.462 5.255-2.64 15.097-11.227-3.665-4.435.718 40.652-18.045 3.768-13.534 36.731-3.486 52.162 5.921 9.151 9.612 8.51 9.458 8.945.231.052-.769 20.532 9.253 54.648 3.871 13.278 5.024 13.227-.282 18.635-7.741 7.92 2.846 3.691-10.304 14.585-24.94 20.634-44.318 46.599-54.16 51.213-15.944 7.485-20.507 9.868-23.685 34.347-5.613 43.831 9.33 42.729 8.305 56.827-.795 11.663-1.692 23.71 12.227 30.374-5.153 6.87-2.154 14.303 1.025 22.223 15.174 37.731 3.845 21.096 7.074 42.217.667 4.46 2.974 6.638 6.357 8.253-7.587 3.563-3.742 37.398-24.812 68.643-8.894 13.073 1.23 5.434-10.099 10.151-6.28 2.589-6.716 4.152-13.816 22.735-2.486 5.435-8.074 12.714-11.38 20.481-2.256 4.998-2.948 5.357 1.691 9.432 3.64 3.179-1.922 2.897-2.102 7.459-.128 3.717 3.768.564-12.252 7.459C6.945 652.469 7.33 645.292.153 674.282c-.77 3.076 1.153 5.536 3.87 7.151-.23.513.103 2.051.077 5.46 0 14.226-4.537 25.478.743 25.478 8.562 0-1.05 20.788 22.608 11.227-13.662 21.788 18.507 105.349 15.713 200.085-.77 27.529 47.137 44.344 44.882 42.524 5.306 2.307 1-6.664 7.202 14.277 3.179 14.303 4.435 43.726 3.538 40.726-3.102.93-11.766 1.16-17.943-1.05-36.398-12.84-45.343-45.033-66.49-29.064-9.894 7.382 1.794 29.294 15.02 60.234 4.281 9.97 41.268 41.81 51.931 39.68 6.255-1.31 15.739-6.64 17.507-7.33 6.254-1.85 3.743-3.18 2.563 8.71-.615 6.9-1.768 6 19.942 13.13 4.332 1.41 14.739 3.28 25.581 2.72 23.351-1.26 17.584-11.97 15.559-36.43 1.205-16.22-6.305-10.87-24.914-62.8-5.742-41.649-9.305-37.907-5.05-38.548 12.38-1.563 1.692-2.563 2.614-76.333 1-73.949 16.585-151.025 10.535-153.408 41.499-35.834 43.78-50.214 72.642-73.411 9.33-7.485 8.049-11.304 12.765 1.486 3.665 9.946 71.078 132.135 71.693 134.031.077.231 19.378 63.902 20.199 67.003 5.921 22.633 6.766 7.562 7.023 18.225.461 18.685 1.102 16.302-1.615 20.249-10.407 15.2 2.768 54.597-6.024 83.587-.845 2.819-1.153 3.691.411 7.254.102.23-9.818 38.245-13.688 44.185-8.766 9.33-15.021.67-32.194 36.97-4.178 8.92-1.538 6.92 4.127 10.71 10.945 9.38 10.996 13.02 13.944 4.95 4.818-13.13-8.331 37.14 22.684 43.03 62.389 12.03 61.979-1.25 34.424-19.5-21.3-14.38-8.74 3.41-18.788-36.71-2.845-16.53-5.204-15.09-2.128-23.19 4.46-9.28 9.459-22.87 10.176-25.33 6.588-21.66 4.87-15.05 16.251-14.15 21.224 1.59 9.945-10.66 18.891-39.139 36.629-116.601 10.381-135.44 9.356-186.013-1.025-88.841-30.349-167.737-36.142-191.729 27.581-20.147 24.838-21.3 38.551-29.605 28.016-16.892 11.15-12.406 24.864-14.559 5.562-.897 6.843-4.281 9.125-7.305 11.252-14.944 1.409-7.331 14.789-6.639 4.947 0 4.332-4.255 9.843-3.537 3.819 7.535 3.691-.257-20.095 18.609-29.298 23.351-42.678 47.317-28.119 79.844 18.199 40.55 76.974 26.299 73.59 68.259-.512 7.177-.615 7.741-7.971 17.609-9.228 12.278-6.46 6.536-9.715 6.536-1.871 0-2.82 2.282-1.615 3.589 1.128 1.23 1.692.743-1.974 3.614-4.742-3.512-5.844 1.128-3.921 2.512.41.282.871-.103-3.128 2.768-3.28-2.127-6.587-1.871-11.175 1.154-22.403 14.431-14.636 10.355-20.762 8.843-13.15 13.38-11.458 8.253-3.871 15.866-16.635 13.047-17.891 11.406-13.482 19.224.871 1.231.641 2 7.049-1.691 16.968-10.048 12.047-11.612 16.532-6.767-10.791 9.15-10.099 9.663-15.02 14.097-2.333 1.231-1.051 2 5.741 5.716 3.486 1.769 14.329-14.636 16.379-12.688 1.077 1 3.512 4.768 6.819 2.974 8.92-4.87 2.742-12.457 3.639-13.457 2.307-2.589 6.742-9.74 11.048-14.662 3.332-3.819 6.177-7.408 3.101-12.226 5.306-3.794 4.204-3.717 5.409-2.538 2.794 2.461 4.639.231 4.306-1.435-.436-2.359-2.666-1.385-1.102-2.717 2.461-2.128 1.487 1.358 4.537.179.666-.256 1.076-.872 1.179-2.025.128-1.41-1.179-1.922-1.384-2.179 17.712-17.532 17.481-24.376 18.301-34.808.667-8.741-.205-13.534-6.715-22.095-19.609-25.735-54.059-12.791-70.874-54.084-8.792-26.94 6.152-45.318 28.068-63.696 22.325-18.712 20.3-13.688 22.325-10.433 1.282 2.025-21.274 11.458-21.761 13.739-.052.231-9.356 39.756-7.716 34.604-1.051 5.024 2.666 14.61 4.306 15.584 6.05 3.665-11.124 11.278 95.993-46.087 32.502-17.404 22.839-12.56 26.453-14.559 10.893-6.023 7.792-5.562 9.766-9.638 5.587-11.406 22.428-43.728 11.816-49.957-6.613-3.973 1.102-7.843-21.582 4.435-24.633 13.328-17.687 11.252-22.018 5.075-2.82-4.076.102-2.615-.923-4.717a1.775 1.775 0 0 0-2.333-.82c-.461.231-2.87-5.229-11.509-18.737 105.144-57.673 93.481-45.061 64.44-108.732ZM245.043 60.338c.487-1.512 1.179-2.794.308-3.665.846-.59 1.384-.974 1.973-1.718 1.41 13.406.103 20.378-2.563 33.297-.077-3.896 1.615-15.405-.154-25.35.052-1.23.359-2.333.436-2.564Zm154.024 567.319c-1.025.512-1.23-2.077-1.64-3.922-4.435-19.839 2.922-29.323 1.897-24.992-5.87 22.07 1.743 27.965-.257 28.914Zm42.473 129.417c-.872.948-.615.999-1.205 0 1.436-1.23 3.025-2.102 1.205 0Zm-3.871 4.357c-2.409 3.025-1.563 3.076-3.075.616.282-.231 3.05-2.641 3.281-2.846.922 1.538.974.769-.206 2.23Zm-8.048 10.92c-2.435-2.435-4.768-1.923 2.717-8.331 1.794 3.127 2.358 1.538-2.717 8.331Zm-1.512 1.973c-.103.077-.128.077 0 0Zm-5.537-9.15c.769-.334.667-.411.231.23l-.231-.23Zm-10.689-.744c.103 2.846 3.051 4.588-1.332.692.948-1.486.077-2.178 1.332-.692Zm-8.715 17.302c-9.56 6.177 5.306-3.845 8.459-7.279.846.922-7.459 6.587-8.459 7.279Zm4.512 15.508c.23-.154.154-.077 0 0Zm8.048-8.049c-11.278 11.432-9.919 9.458-2.46 2.051 4.049-3.999 7.202-6.767 2.46-2.051Zm12.304-7.228c-2.281-1.999-.897-.436 1.384-.128 2.179 3.486 1.512 2.64-1.384.128Zm47.676-68.387c.794.077.794 4.024-3.614 10.227-10.638 15.2-9.484 10.381-8.203 9.023 17.712-19.865 7.69-19.25 11.817-19.25Zm-50.521-145.463c-2.589.718-13.867 13.636-14.585 12.816-.436-.513-.41-.487 7.356-8.177 8.331-8.51 7.818-4.844 7.229-4.639Zm-172.48-337.269c7.075 7.741 6.434 1.307.462 10.15-7.024 10.33.435 8.074-17.712 3.794-9.587-2.307-2.282 6.587-9.843-23.326-4.742-18.762-3.384-13.533-1.692-18.634-.538 2.563-.154 2.025-.23 2.255 3.204-8.843-2.307-9.33 29.015 25.761Zm-14.431-110.142c-2.255-10.842-2.025-10.791-1.922 1.641.025 3.588.974 3.46-3.614 4.383-24.12 4.895-20.891-9.535-22.71-9.535.307 0-2.307-5.768-.539-8.023 5.229-1.205 10.022-1.692 15.303-1.795 20.198-.435 12.406.872 13.482 13.329Zm-57.595 3.64c7.843-5.255 5.972-2.948 4.972-1.128-1.897 3.46-3.64 4.511-9.714 5.46-21.147 2.127-23.685-5.306-23.787-20.173 9.253-5.28 27.068-4.332 36.244.077 1.64.846.282-.589.231 3.255-.103 6.639-1.128 6.46-2.897 7.741-.666.513-6.69 5.255-5.049 4.768Zm8.33-19.763c-2.563-.948-5.229-1.409-7.92-1.922-20.506-18.865-29.298 1.794-32.348 2.076-3.666.333-7.357 3.896 5.613-15.482 2.102-3.178-1.256-6.1-2.435-13.226-.948-16.353 16.277-22.71 31.143-20.326 9.228 1.512 14.252 6.382 29.862 8.202 27.632 3.281 20.839-10.612 24.453 9.69 2.871 16.096 1.307 26.093 3.819 26.093.231 0 .539-.744-.871 4.332-.18.948-6.024-2.41-18.199-1.59 6.587-2.87 7.895-6.126 17.122-4.716-9.817-17.02-27.272 5.844-34.244 8.459-1.692-3.102-11.561.051-15.995-1.59Zm51.47 17.994c-2.205 2.743 1.614-13.354 2.204-13.2 4.486 1.435-.564 10.919-2.204 13.2Zm-14.175-104.99c17.225.385 26.606 34.502 1.948 38.5-.487.052 1.974-2.947 4.434-11.79 4.768-17.149-8.817-26.786-6.382-26.71Zm-18.788 12.663c4.178 9.945 7.253 16.302 6.485 15.994 1.358.539-.923-21.12-15.482-40.704 3.229.513 1.82-.281 6.562 1.41 5.331 2.743 24.35 24.505 15.686 43.755.103-.231 10.663-11.817 3.82-28.042-2.359-5.562-3.486-4.768-1.59-4.896 4.102 4.819 7.716 14.79 6.562 26.068-2.23 15.046-1.128 11.97-12.457 13.713-3.486.436-9.279.436-15.482-.64-7.536-1.23-2.512-1.846-5.126-14.303-3.025-14.406-18.584-20.685-17.815-14.508-5.049-6.024-12.457-5.665-20.095-3.46 24.504-16.354 36.141-1.743 48.932 5.613Zm-68.233 119.497c-.411 10.997.615 10.048-2.154 7.946-13.457-11.175-11.047-35.526-10.56-32.373.974 6.254 3.537 6.511 2.973 6.741.59-.23-1.871-1.538-1.153-8.023.769-6.075 2.64-2.153 5.178 3.538 2.127 5.382 1.332 1.845-.949 6.254-2.281 4.434-.564 7.305 3.435 9.945 1.974 1.333-5.28-3.127-.872-9.381.539-.564.616-1.436 1.82 3.255 3.435 13.611 2.845-4.691 2.282 12.098Zm.974-18.762c-.205 1.845-7.126-19.763-13.38-11.33.82-7.202 2.255-7.254 6.228-7.331 3.614-.077 3.973-2.025 5.844 4.794 1.128 4.178 1.384 13.149 1.308 13.867Zm1.666-25.299c-3.871.666-2.948 1.538-3.589-3.409-2.742-20.43-5.152-13.662 5.614-40.115-4.589 5.357-5.46 7.356-5.024 6.28.051-.256 4.408-10.945 13.79-18.096-7.792 2.742-7.152 4.562-6.741 2.768 9.407-6.152 13.175-6.075 11.483-6.075-18.942 0-31.835 22.428-23.351 8.869 29.118-27.58 45.395-20.532 39.525-22.07-22.659-5.946-34.014 13.534-31.861 8.69 3.64-9.125 24.838-18.61 32.502-15.43 5.613 2.537 10.099 7.15 4.793 1.28.307-5.997 13.482.283 17.66 26.787-15.712-10.074-40.191-2.897-47.137 9.125-6.947 11.97-.667 19.352.256 22.94-9.51 17.917-3.127 17.635-7.92 18.456Zm.64 28.451c8.997 4.64.308-24.53 5.255-24.991.846-.154-1.102 8.125 3.076 16.507 3.794 7.536 20.839 9.151 30.707 6.306 5.614-1.615 7.306-4.87 9.536-10.304 5.536-13.355-3.82-12.535 9.022-12.535 4.716 0 3.409.154 4.281.846-.795 1.231-4.512 17.123 8.817 33.553-.051-.231-9.048-26.248-4.204-17.84 3.179 5.408 11.304 6.1 17.635 6.228 14.508.129 12.663-14.328.052 51.214-2.922 14.892-1.461 13.713-1.795-5.819-6.613 21.813-1.666 27.632-14.482 33.604-4.87 1.845-16.558 3.794-2.204 2.82-6.87 1.461-26.196-2.641-31.246-4.46-3.588-1.718-3.998-3.076-6.152-8.177-7.587-19.66-13.841-37.269-4.87.077.077.282-3.845-6.639-10.099-16.687-11.483-18.404-7.689-15.815-13.329-50.342Zm7.946 73.796c-9.97-41.448-9.407-31.144 6.972-11.996 4.025 11.483 11.868 23.094 18.122 31.399 19.353 25.299 42.652-25.811 40.884-10.15-.667 5.203-16.174 20.813-25.53 32.655-8.1 10.253-5.511 10.715-7.433 9.869-27.555-11.817-22.71-9.1-33.015-51.777Zm4.204 30.553c1.154-2.23-.589-3.024 3.512 6.357 1.333 3.025 2.409 3.768-2.487.308-2.255-1.718-1.871-4.999-1.025-6.665Zm-6.562 20.532c1.102-13.38.692-12.201 1.897-13.816 4.101-5.075-1.128-1.205 6.844 4.639 9.766 7.229 18.404 9.971 29.656 11.304-6.177-3.281 36.808-24.709 31.169-49.06 5.998-6.126 8.895 66.362.846 59.108-1.358-1.205-23.351-11.355-25.145-11.509-2.845-.256-5.152.974-6.844 3.332-28.606-7.638-22.095 47.523-27.76 35.578-8.356-16.943-12.303-20.557-10.663-39.576Zm66.362 33.424c-7.561 20.429-4.127 18.994-10.253 9.715-9.074-13.816-3.64 1.23-3.973-28.478 1.436.334 9.638-.666 15.867 2.307 5.485 2.717 2.281-1.794-14.072 19.635 17.532-16.508 17.583-19.737 16.686-16.738-4.819 16.379-1.794 8.484-13.406 19.352a53.882 53.882 0 0 0 9.151-5.793Zm-19.429-26.375c.82 16.994-.513 26.016-.615 27.452-2.948-.641-9.741-.615-13.483 1.666-1.333-4.23-16.353-28.76-.718-28.76 5.383 0 5.973 2.282 8.51.872.205-.128 1.538-1.179 1.308-1.179l.025.051c.026-2.025 2.358-1 4.973-.102Zm-21.685 20.967c1.128-1.769-.82-.897 3.999 9.279 2.794 5.793 3.46.179 1.204 7.125-8.535 26.197-1.332 33.425-16.635 1.538.205-.205 1.897-3.845 4.691-8.099 2.589-3.999 5.434-7.767 6.741-9.843Zm3.486 40.191c3.973-27.888 12.867-33.296 8.997-30.195-6.331 6.178-1.641 1.82-2.563 1.513.23-.18.051-2.846 11.15-3.973-.231 1.281.435 2.999 1.128 4.152-8.792-6.767-2.359.154 4.383 6.741 7.946 14.457 8.125 4.999 3.947 18.686-13.662 44.523-10.202 33.912-16.738 26.94-2.819-2.999-11.406-14.79-10.304-23.864Zm-46.676-50.034c3.716-14.764 2.871-11.688 7.792-17.738 11.868-14.507 3.46-5.818 4.716 17.738.333 6.075 2.102 7.305 1.205 9.228-3.512 7.535-1 5.075-8.177 3.588-9.509-1.948-9.535 3.102-5.536-12.816Zm-91.84 348.675c29.758-51.956 8.714-29.22 39.14-44.215 24.709-12.227 40.268-40.653 37.73-38.5-12.995 12.637-20.71 19.634-39.806 29.605 13.277-18.301 18.711-43.241 20.505-60.825.308-3.05 14.739.538 31.913-17.532 2.204-2.333 3.819-5.332 2.691-4.204-2.948 4.486-33.117 19.993-34.552 20.736.897-5.869-.616-4.742 5.69-7.125 4.306-1.641 2.051-3.717 3.23-3.768 1.973-.205 2.332-.052-.667-.667-.717-1.691-1.691-1.307-8.56-4.024-5.845-7.151 2.306-16.456-.13-26.196-3.075-12.432-15.507-29.708-14.789-31.861 2.025-4.127 3.102-4.819 4.332-6.869 2.948-4.948-3.46-3.179 7.946-.975-20.608-11.329-20.3-14.251-20.89-27.58-.205-4.69-1.333-3.281 4.64 3.204 18.275 19.891 4.382 4.435-2.77-9.689-9.919-19.557-10.303-28.272-10.303-27.631-1.769-16.969.59-42.499 14.02-53.264 27.811-20.839-7.484 7.51-.666 36.628l.051.026.052-.051c.128-9.407 6.972-26.222 12.764-45.062 34.399-18.839 42.858-48.009 37.013-29.528-6.613 14.636-7.997 17.404 3.076 18.019 18.943.949 4.46 1.666-1.948 18.686-4.434 11.868 42.678 52.751 52.239 61.056-50.521-68.797-52.187-46.548-39.525-70.514 12.56-23.941-5.819-13.867 34.808 37.936.18.23 11.253 20.429 14.201 21.249 2.178.615.205-1.897-3.717 17.122-4.793 21.685-5.05 24.376 3.589 45.574 13.251 32.528 11.765 21.89 9.791 25.889 0 0-3.665 15.764-5.742 21.992-14.431 43.216-9.868 41.627-97.735 145.643-2.59 3.076-2.23 3.819-1.436-2.82 1.564-10.33 8.305-14.072 11.971-21.608 4.485-9.151-2.077-2.307 9.15-26.657 7.382-15.969 13.252-15.687 26.017-46.984 2.409-5.973 3.025-.974 26.35-45.369-10.279 13.149-17.661 24.145-22.454 32.117-.82 1.384-2.589 10.509 7.844-50.47-16.046 39.115-6.69 34.809-17.379 14.687 26.375 37.603-57.878-94.967-59.851-98.376 20.095 52.392 40.678 68.002 65.721 115.909-12.099 39.832-20.891 47.266-29.734 71.77-10.535 29.093-5.998 23.479-9.432 30.374 2.255-1.82-10.048 12.586-12.022 16.636-4.511 9.073-2.512 19.916-3.178 20.685-6.28 7.177.922 2.563-15.662-5.973-4.87-2.511-9.663-3.332-14.097-2.973-16.097-1.076-21.685 9.176-19.43 5.767Zm182.783-121.291c-18.686-1.308-5.639 5.562-21.326-13.944 10.304 23.556 14.354 8.638-12.227 19.121 20.25-35.475-4.434-45.266 28.042-13.559.205.205 7.151 6.741 6.818 6.741.308 0-4.127-11.893-24.53-26.606.436-.667 3.742-10.304 4.204-11.714 3.896-11.945-1.666-9.253 22.659 31.553 7.331 12.252 6.844 9.1-3.64 8.408Zm10.381 3.409c5.639 12.226 10.894 9.945-3.204 10.278a55.123 55.123 0 0 0-.538-5.28c-.846-6.434-10.843-3.512 3.742-4.998Zm-15.302 38.858c4.818-.974 1.768-2.999-7.665 36.731-2.281 9.433 1.436 19.609 6.127 32.066 6.177 16.43 6.408 12.637 1.076 8.177-3.511-2.922-1.461-.205-8.535-11.663-13.867-22.454-11.407-11.483-8.331-26.811 12.56-63.466-8.125-41.755 22.454-49.496-2.973 11.534-1.999 9.791-5.126 10.945-.052 0-.026.051 0 .051Zm-12.458-12.355c.333-8.33-2.691-6.613 13.406-6.69 7.818-.025 6.69-1.922 5.178 4.025-5.486.999-10.407 2.025-18.584 2.665Zm.923-11.355c.872-10.586-1.948-9.817 14.354-9.586 2.999.051 3.614-1.461 2.999 8.33-2.794.59-10.535.923-17.353 1.256Zm-3.153-13.098c-4.87 1.128-4.255 5.588-4.434 11.022-.026 1.154 1.845-.128-16.148 3.153 8.253-16.302 1.794-13.329 20.582-14.175Zm-37.833-28.657c-.487.641-.974 1.282-1.435 1.897a52.66 52.66 0 0 1 1.435-1.897ZM44.471 631.271c7.997-8.818 5.383-7.1 9.689-7.69 13.636-1.692 21.377 10.996 24.427 13.354 1.487 1.487 3-2.024-6.818 13.329-3.537-7.305-12.56-14.841-21.07-15.353-10.534-.693-14.148 5.126-6.228-3.64Zm-5.46-3.512c-.23-.179-1.102-.154 3.512-2.255 3.409-1.256 3.332-1.744-1.436 3.434-.897 1-.128.615-2.076-1.179Zm-10.304 89.457c-7.075 1.538-12.534 5.152-13.406 2.332-2.28-7.356-3.716-5.921 6.921-3.588 6.92 1.563 8.715.794 6.485 1.256Zm-12.611-9.484c-10.022-1.846-8.766.871-8.664-4.845.052-2.281.205-7.971.513-10.714 1.076-9.612-1.538-9.663 2.82-7.741 14.687 6.485 12.021 6.895 14.43 12.252 2.18 5.357 2.794 6.947 5.127 6.947 8.792 0 19.609-18.353 9.996-28.939 7.383-.18 25.505-14.303 10.843-30.759-3.666-4.101-6.69-.487-4.588-1.487 2.153-.076 9.253 8.152 5.485 17.917-6.587 13.765-17.789 10.253-17.789 10.023-3.511-2.538-.743-.026.23-6.819.616-4.536-7.484-7.279-4.28-4.947 2.871 2.333 2.769 3.768 2.794 4.717-1.64 10.048-2.307 2.127-11.278 2.127-4.998 0 4.46.103 12.38 10.048 5.486 7.715 7.05 9.689.846 18.378-.18.231-4.64 5.178-5.46 4.204-3.767-10.868-4.075-7.843-3.127-9.176 4.178-6.024 6.485-1.948 2.128 4.69-.923 1.461 1.205 4.307 3.717.513 6.33-9.586-2.41-16.276-8.203-7.792-1.384-.436 1.385-.205-8.484-6.152-10.637-6.485-8.1-.231-4.178-19.506 1.922-10.125-2.435-1.333 26.734-17.327 9.664-5.306 11.714-5.255 18.353-2.717 4.332 1.948 3.178 1.537 3.794 2.973 7.74 18.045 5.1 16.02 1.204 22.146-14.482 22.787-8.945 20.993-24.863 43.062-2.896 4.101 2.153 2.897-20.48-1.076Zm36.68 214.901c-4.332 1.896-1.282 3.691-2.564-14.098-.282-3.05 3.05 13.944 2.564 14.098Zm34.065 36.09c-16.712-5.973-21.454-13.15-25.273-18.02-6.665-8.484-6.844-7.894-7.793-9.663 9.638-3.537 15.457-4.793 26.043-4.024.077.333 8.176 30.553 8.279 30.886.461 1.872.82 1.59-1.256.821Zm-6.51 126.187c-12.92-2.18-41.32-24.27-47.754-39.42-12.97-30.3-26.298-52.241-6.177-52.241 5.204 0 2.563 2.794 7.715 10.331 24.838 36.19 48.522 44.8 90.687 61.57-2.05 2.74-1.486 5.18-2.973 6.12-24.222 7.08-35.603 14.1-41.499 13.64Zm76.999 12.89c-1.154-.23-21.993 4.64-35.373 1.21-20.813-5.33-11.56.92 13.073-16.07 2.742-1.52 1.256-3.54 16.635 8.1 1.307 1.07 5.69 5.07 5.665 6.76Zm2.332-11.12c-.307 8.66 3.717 4.05-20.07-5.13 4.614 1.51 2.948-8.15 1.384-12.74-1.794-5 18.686 17.54 18.686 17.87Zm-15.994-44.81c1.973 4.77 5.152 9.72 8.458 14.74 7.741 11.74 4.512 9.38 7.562 28.2-.051 2.61-2.487-7.82-13.15-15.82-4.024-3-6.561-2.64-7.253-3.71-3.384-5.08-10.638-5.82-14.329-.52-27.17-17.3-57.442-27.88-86.662-59.03-13.662-14.506-8.228-13.839 4.793-1.92-.231.2 20.275 23.43 55.775 23.43 5.614 0 4.102-3.1 8.587 3.74 1.795 2.74 2.358 3.59 4.358 5.13 7.92 6.05 2.845 7.63 18.301 14.02 6.844 2.74 12.355.23 13.56-8.26Zm-10.561-31.81c6.254 21.79 12.586 33.53 4.563 36.79-10.894.46-21.454-11.82-28.042-20.28-1.538-2-4.409-2.49 7.228-4.64 4.691-.33 7.382 2.1 9.817 4.21-8.279-13.49-19.224-2.08-19.89-2.98-.462-.54.333.59.231-7.82 8.074-5.15 18.25-4.22 21.992-1.15 2.333 1.92-8.049-10.33-21.48-1.2-.897.64-.487.84-.692-1.77-.384-5.18-1.128-3.74.103-5.44 4.203-5.12 10.97-9.634 14.226-10.659 4.408-.744-.564-.693-2.948.281-16.482 6.668-9.458 19.758-16.764-7.048-.41-1.538-.461-9.177-3.947-25.889-2.691-12.867-4.178-11.663-2.768-11.996 3.64-.846 9.842 1.025 13.559 2.486 22.018 9.843 11.048 9.151 24.812 57.105Zm-3.922-45.134c-3.537-14.636-5.562-20.891.18-8.151 3.742 9.227 3.383 7.612-.18 8.151Zm4.486-254.631c-62.056 51.777 76.948-51.085 76.717-51.264-13.277 16.686-21.454 20.275-47.06 47.265-23.941 25.222-54.725 63.517-54.52 63.363-.436.513 1.025-.641 9.381-6.92 36.424-27.581 23.223-24.71-11.073 31.579-5.306 8.689-16.353 28.964-24.017 30.502-.82 0 3.486 6.536 22.941-19.327 51.059-67.9 34.27-82.074 26.349-3.537-10.663 105.502 2.641 136.825-7.997 104.246 1.128 35.706 8.536 38.32 1.743 32.092-7.1-6.511-15.866-14.021-26.273-14.739-5.383-.384-12.585-4.972-25.991-5.383-26.657-.666-18.353 15.149-21.864-11.662C27.81 721.317 22.376 740.336 43.06 709.577c15.354-22.889 42.473-78.768 96.147-134.133 54.391-56.237 31.784-44.626 41.037-46.19 24.735-4.306 18.019-1.973 22.454-1.435-1.205 8.023-.282 6.767-3.281 6.946-15.764.692-17.328-2.05-19.942-2.486-.59-.154.026 1.102 5.049 2.896 19.84 7.126 17.789-7.151 13.893 22.044-2.896 16.661-5.024 32.22-5.178 33.117-6.741.205 6.229 14.585 11.74 22.095 15.918 21.736-4.998-6.818-41.986-26.888 71.822 67.925 39.525 22.992 56.622 58.39 5.793 11.842 3.717-8.407-85.945 66.362Zm-4.05 6.126Zm163.611 378.409c-2.051 3.08.102 2.51-7.639-5.25-8.535-8.49-6.254 2.46-1.717-12.74 1.359.61 8.843 10.07 10.484 13.68.794 2.34.82 1.39-1.128 4.31Zm8.305 12.61c-.18-14.97-1.256-19.02-11.279-27.12-6.92-5.59-7.023-3.59-2.204-11.05 6.562-10.22 7.28-10.79 17.584-16.45 4.588-2.51-2.076 5.18 3.204 15.17 2.204 4.05 2.999 5.05 7.382 5.05 9.33 0 5.229-9.43 5.511 14.64.256 21.2 5.024 12.05-9.561 15.89-11.047 2.9-10.586 8.72-10.637 3.87Zm30.835 6.51c-8.792-3.18-26.478 3.85-18.993 2.69 8.535-.89 12.226-2.3 18.968-2.25 2.922 7.23 7.869 1-4.332 3.92-2.974.74-7.28 2.54-9.459 4.87 13.278-7.43 18.738-4.23 26.248-.82 5.665 2.56 16.507 9.23 20.557 13.94-1.025 3.87-49.983-.79-55.904-6.76-2.435-2.44-6.152-5.64-7.561-13.56-.718-7.46-1.103-6.33 4.306-8.74 10.637-4.34 17.558-.75 18.865-2.7 2.486-3.71-4.639-31.57-.308-35.06 7.126 23.76 3.025 16.48 7.613 44.47Zm-9.356-48.8c-.23.07-16.353 11.43-11.098-12.59 2.025-9.28 1.358-2.54 3.768-13.86 9.74-26.82 7.048-35.86 8.279-27.46 1.128 7.74-1.205 31.2 13.508 19.05-.102.23-14.021 34.7-14.457 34.86Zm61.492-241.586c0 66.541 1.333 48.727-12.483 138.619-8.843 56.367-.564 53.777-27.426 47.597-1.282-.36-2.82-2.48-15.661-11.199-9.843-6.665 4.895-3.025 1.563-56.622-.769-12.765-2.332-20.711 3.742-30.374-2.153 6.203-2.87 8.331-3.588 9.33.589-1.922 1.871 3.742 15.251-25.427 5.537-12.073 23.787-75.461-2.64-9.125-7.075 17.814-6.408 18.404-6.408 17.02-.154-43.114-4.588-11.509 3.153-34.937.487-1.461.948-1.999-2.538 2.922-6.152 8.638-4.178 5.742-6.229-3.05-7.433-31.63-25.401-60.877-10.611-36.347 12.303 20.429 10.56 17.174 10.945 18.071 1.102 1.846-25.71-59.8-49.445-107.45-15.02-30.067-31.912-51.547-43.216-70.515-15.918-47.906-12.432-20.403-25.812-67.156-5.536-19.353-2.23-14.098 5.101-47.727 4.024-18.43-1.281-6.767 18.481-17.148 25.427-13.406-6.152 1.461-16.02 5.075 2.512-13.867-2.691-6.434 23.607-17.097.026 0 .026-.051 0-.051-25.017 3.947-21.48 5.357-20.582-.615 7.177-1.231-3.461-3.153 17.711-3.153 3.871 0 53.854 58.339 54.059 58.544 24.453 25.735 17.712 40.063 32.143 34.757 19.48-7.228 12.483-16.046 17.686-.589 13.841 41.37 39.32 188.32 39.217 206.647Zm-62.107 5.331c.59 1.359 1.179 2.692 1.769 4.05-.59-1.333-1.179-2.691-1.769-4.05Zm81.921-282.544c-6.126 10.048 6.152 4.768-22.556 24.043-24.659 16.507-32.297 19.532-46.984 30.221-13.79 10.047-8.843 10.124-22.967-8.177-37.397-48.753-31.399-31.733-52.802-59.851-28.17-36.936 2.999 1.204-51.239-89.816-39.217-65.951-21.711-40.037 8.74-129.135 20.737-60.543 10.843-64.824 14.508-64.721 9.792.179 22.172 5.382 31.759 16.943 8.663 11.739-31.451 32.399-67.541 127.392 100.247-138.491 81.972-122.471 59.697-139.927-1.845-1.409-2.947-1.102 2.538-9.048 3.768-2.358 8.971-5.203 10.535-6.485 4.639-3.716-21.557-21.787-27.145-28.913-3.973-5.05 20.762.41 51.495-11.74 8.843-3.486 13.483-6.946 33.63-15.61-20.173 32.656-14.149 40.269 12.098 81.972 6.536 10.407-8.074-19.583-14.097-33.578-7.921-18.916-5.896-20.967-2.794-30.554 3.742-11.56 10.406-25.734 22.428-24.376 18.609 2.922 28.349 9.689 36.526 16.712 1.717 1.538 2.281-.282-9.202 4.281-.231.103-25.581 12.124-11.33 7.613 37.5-11.868 30.733-6.767 43.575 2.358-11.329-.795-26.452.692-31.246 1.615-26.093 4.998-19.506 2.871 12.97 4.46 49.573 2.409 35.552-4.383 47.779 16.174-3.281-1.359-8.92-2.589-12.868-3.153-39.114-5.485 12.176-.59 67.157 44.574 22.479 24.659 20.788 25.71 20.454 38.654-.897 39.448 5.537 23.992-13.738 81.639-9.741 29.092 8.766-14.098 14.2-34.425.769-2.87 1.23-10.124 2.127 15.585 1.333 37.577 1.128 38.705-2.025 62.978-1.332 8.741 1.641 6.46-11.175 4.025-43.293-8.408-51.29 17.814-50.368 11.021 20.173-145.616-6.741-59.671 32.246-118.882 4.101-6.229 12.226-21.736 12.329-29.298-15.636 25.966-16.943 23.685-35.475 54.751 1.922-8.536.666-11.714 4.793-20.378.846-1.768 1.461-3.511.692-5.434 8.946.077 22.146-16.84 22.967-22.966-2.128 3.947-13.457 14.482-21.275 18.096-3.666 1.256-2.794.718-12.304-8.1a9.874 9.874 0 0 0-.769-1.23c20.096-3.178 41.781-20.685 31.605-15.508-59.467 32.579-43.498 2.359-134.339-34.219 17.687 14.38 5.819 1.718 8.51 44.677-117.344 51.854-101.99 46.318-102.939 46.241-7.126-4.742-13.585 16.738-12.842 18.66-1.307 3.948 107.605 193.267 107.502 194.652-1.358 16.737 59.211-26.94 57.16-23.813Zm84.279-86.278c-7.818-5.818-17.148-3.332-26.837.795-9.433 3.998-8.818 7.741-8.459 3.332 1.205-13.534-1.743-17.533 13.38-19.737 9.792-.923 17.994-2.666 33.22.513-2.23 2.435-2.794 19.967-5.716 19.967.461.026-.641-1.768-5.588-4.87Zm3.229 37.013c21.762-12.201 17.43-12.022 21.788-4.896-28.631 14.252-24.325 15.662-21.788 4.896Zm3.461-26.683c8.176-1.512 5.152-11.022 9.432-14.534 9.049-6.972 9.689-5.075 11.689-22.838 2.076-18.788 2.947-119.728 2.947-119.985-.666-22.146-.948-21.505-22.787-42.216-7.689-7.356-10.74-3.101 10.33-12.637.077.975 67.746 153.717 73.59 161.612 1.692 3.64 4.127 1.23-1.153 4.101-88.559 48.214-84.894 49.445-84.048 46.497Zm12.56-29.657c.025-.23 1.179-6.049.205.077l-.205-.077Zm-59.724 16.123c-2.204-1.282-2.332-.487 1.231-3.845 1.743-1.615 1.256-1.948.487 4.024-.256 2-.026.257-1.718-.179Zm-59.236-161.073c-28.144 12.073-24.94 11.919-24.889 9.74.18-8.484.282-15.148 1.026-25.914 8.33 6.075 16.148 11.355 23.863 16.174Zm-140.9 77.819c2.076-5.562-4.383-13.867 45.138 74.513 70.643 126.085 62.44 111.526 59.544 118.293-.231.103-106.092-189.012-104.682-192.806Zm156.203 159.049c-49.752 28.092-43.601 28.298-49.291 18.48-2.563-4.434-104.81-182.681-102.093-188.55 16.174-4.383-14.534 7.92 138.85-59.262 62.209-27.247-326.478 149.692 11.662.794 27.222 14.226 24.223 17.507 40.422 16.713.897-.052 1.82 5.536 9.561 10.124 4.64 2.717-4.332-2.64-3.332 24.941.308 10.534-8.202 22.325-7.382 81.126-1.051 23.504-3.537 18.532 3.999 25.299.102 2.896-3.23 9.56 8.381 10.176-.359 1.179.641 2.409-7.946 4.178-24.248 5.075-10.842-5.691-26.401 11.457-10.689 11.945-10.15 9.587-11.945 14.38-5.587 10.971-30.835 15.046-17.737 20.66 9.176 3.973 20.839-4.563-3.46 9.15-24.479 13.867-23.069 12.816-23.454 13.893-.538 1.487.615 2.948 2.102 2.948 1.307 0 54.93-31.272 54.545-30.375-2.383 7.331-4.921 7.357-16.481 13.868Zm-10.561-14.995c9.997-4.101 5.665-.308 3.896.538.231-.051-9.304 1.871-3.896-.538Zm54.238 18.737c-2.384-.462 29.759-31.553-1.922-3.896-2.974 2.589-6.46 6.408-8.382 7.741-.41.102-6.921-.667-6.331-1.333 1.179-1.641 4.203-7.844 4.742-8.228 2.922-2.281 4.127-1.897 7.792-6.665 5.28-6.843 7.613-15.379 6.485-12.816-.385.692-10.766 14.662-14.559 15.867-3.871 1.23-13.38-3.127-9.459-.692 5.691 2.999 4.512.564 1.923 6.92-1.564 3.871-8.997 16.584-11.124 18.353-.769.615-.59 1.153-6.152.743-2.435-.435-2.205.667 2.409-8.279 10.099-19.737 11.868-31.681 13.175-32.989 4.486-4.639 5.742-8.253 4.05-5.895-.871 1.179-1.717 1.717-3.486 2.948.743-2.256.949-2.769-.846.589-7.254 4.973-18.737 11.637-27.529 11.227-2.281-.102 3.563-.512 3.691-5.639 10.048-4.947 10.638-11.483 11.996-12.739 15.533-11.945 15.226-19.737 18.045-19.352 3.025.333 9.766-1.051 11.509-1.385 16.559-3.306 16.072-3.639 16.712-7.151 1.795-8.997-.666-6.408 6.306-9.689 9.868-3.768 14.046-1.589 21.505 2.666-.102.23-5.587 21.941-.769 21.018.641-.128-6.946 31.605-6.997 31.81-2.205 8.689-7.869 15.969-7.997 15.661-1.41.82-3.692.897-5.306.769-1.231-.256-1.846-1.948-2.538-3.076-.205-.359 16.251-15.379 13.124-14.2-2.487 1.948-19.404 13.38-16.636 11.816-4.87 3.615-8.689 6.793-13.431 5.896Zm-16.584 76.435c-2.768-7.023-2.538-8.074-1.974-12.278 1.077-8.176 4.973-22.633 4.999-22.402-.205.025.256 1.128.333 1.333 2.076 5.049 3.588-7.946-3.358 33.347Zm132.493-86.534c-.154.359-9.253 23.223-9.151 24.427-3.921 1.743-3.665 4.204.385-13.149.589-2.563 1.333-5.665 1.435-7.664-.051-3.076-2.178-4.819-4.844-3.537-.051-.231-101.965 54.237-102.17 54.366-4.819-2.359-4.717 6.741-6.05 26.939-.256 3.973.436 2.615-8.279 7.331 6.767-41.396-12.918-22.095 110.347-88.457 29.81-15.994 24.786-16.405 18.327-.256Zm-9.74-15.457c15.584-8.356 12.919-7.74 15.892-5.869 5.511 3.486-4.178 6.869-11.586 10.868-.205.128-117.216 63.747-119.523 63.286.641-10.202-20.557 4.947 115.217-68.285Zm-46.061 16.251c-49.086 26.76-40.525 27.222-48.881 11.817 5.332-2.948 1.025-3.845 4.614.717.743.974 2.025 1.436 2.537 1.641 8.767 2.922 12.125-6.511 13.022-7.51.82.077 43.19-24.658 43.421-24.787 1.153-.666 3.614 4.102 3.947 4.819 1.589 3.307 5.101.385-18.66 13.303Zm13.713-21.403c-13.021 7.664-4.921 2.922-37.474 21.762 6.382-11.509-2.41-5.434 12.739-14.61 8.792-5.332 25.478-12.586 18.942-12.586-.538 0-2.512.923-3.101 1.179-28.273 11.868-24.428 19.532-23.095 5.691.026-.205-1.846 1.025 25.017-13.175 3.922 6.485 3.255 5.562 6.972 11.739Zm70.335-79.742c-.615.513-98.505 56.648-98.505 55.699-.128-5.946-2.307-3.178 17.635-14.482 95.813-54.238 73.283-43.395 74.59-46.727.692-1.897-9.253-24.992-12.585-32.733-66.311-152.589-59.032-136.338-64.055-133.928-9.741 4.69 5.459-2.025-21.224 9.586-2.691-2.179-3.563-.82 6.28-5.28 11.432-5.178 17.917-8.587 19.993-9.458 9.638 21.71 78.076 177.144 77.871 177.323Z" fill="#000"/><path d="M470.35 724.752c-.025.051 0 0-.077.127.026-.051.052-.076.077-.127ZM399.17 626.631c-.025-.128-.025-.128-.051-.128a.414.414 0 0 1 .051.128Z" fill="#000"/></g><defs><clipPath id="a"><path fill="#fff" d="M0 0h599v1143.61H0z"/></clipPath></defs></svg>