<svg width="599" height="1389" fill="none" xmlns="http://www.w3.org/2000/svg"><g clip-path="url(#a)"><path d="M329.134 253.52c1.558-6.182-3.964-26.543 3.354.051.61 2.202.83 1.321-3.354-.051Z" fill="#D2F9FF"/><path d="M207.244 251.267s0 .017.017.017c.067.542.017.355-.017-.017Z" fill="#FFBC85"/><path d="M322.664 266.089c-2.846-3.845-12.484-8.622-14.601-16.38-4.015-14.821-9.384-14.635-10.993-16.498-.136-10.112.203-8.537.931-8.317 6.657 1.999 12.044 1.355 24.951 6.623 3.98 1.796 1.711.034-.491 9.689-1.593 6.911-.644 14.567.203 24.883Z" fill="#D2F9FF"/><path d="m205.565 256.061.254.203c-.948.356-.965.542-.254-.203ZM207.262 251.25s0-.017-.017-.017c-.017-.202-.017-.169.017.017Z" fill="#FFBC85"/><path d="M564.665 195.184c26.661-59.59 26.085-56.508 23.951-57.473.203-1.237-40.771-18.26-40.94-18.345-2.914-1.202-37.638 84.219-40.551 85.523 42.329-96.38 37.027-90.113 41.211-89.639 2.981.441 22.664 8.927 27.356 10.773 23.392 9.096 18.582 7.521 4.302 38.722-15.99 34.961-12.89 30.049-15.329 30.439Zm8.249-66.501c-.034-.017-.017-.017-.051-.017.017 0 .017 0 .051.017Zm-8.52-5.472c-2.778-1.202-3.117-1.914-3.76-1.541-1.864 1.169 2.845 2.405 5.301 3.608.288.135 2.863-.288-1.541-2.067Zm5.217 1.982c-1.118 0-1.118 1.694 0 1.694s1.118-1.694 0-1.694Zm3.405 2.219c-3.185 0 4.81 4.438 5.268 2.761.186-.711-5.048-2.761-5.268-2.761Z" fill="#C0F2FF"/><path d="M520.083 180.566c28.508-63.74 25.95-61.301 29.88-59.099 2.032 1.135 36.824 16.498 37.095 16.6 2.761.914 4.625-5.319-23.477 57.506-5.505 2.575-2.151 5.471-18.971 42.296-1.999 4.336 2.134 4.827-24.019-6.759-4.37-1.947-17.142-7.656-18.243-8.028-1.169-.441 1.762-.187 1.135-.339-2.388-.356-2.456.288-1.084-2.609 15.584 1.203 21.326-21.054 14.635-24.07.017-.067.051-.118.085-.186 0-.017 0-.017-.017-.017 0 0-.017 0-.017.017-.034.051-.085.119-.119.17-3.354-1.373-15.346 25.916 3.117-15.482Zm-5.641 16.464s0-.017 0 0c0-.017 0-.017 0 0 0-.017 0 0 0 0Z" fill="#1DBAFF"/><path d="M516.154 198.148c.016 0 .016 0 .016.016 0 0 0-.016-.016-.016Z" fill="#FFBC85"/><path d="M309.502 53.035c.627-1.288.678-.813.864-.288-1.135.898-1.406 1.694-.864.288ZM255.434 93.112a11.5 11.5 0 0 0 .728-.187c-.627.373-.593.356-.728.187ZM256.264 84.134c.745 1.169 4.32 2.405 1.982 2.32-3.981-.541-3.693.238-1.982-2.32ZM268.73 91.553c-.237-3.184 1.965-1.846 2.676.22-.965.746-2.134.492-2.676-.22ZM252.42 90.012c-.83-.153-.458-.017.643-1.423 1.508 1.338 3.896 1.796-.643 1.423ZM210.259 125.752c-.084-1.744-.186-1.287.898-4.742-1.016 4.505.017 8.638-.898 4.742Z" fill="#D39F5B"/><path d="M264.377 96.38c-3.065-3.641-.288-9.028 4.235-7.452 1.88.88.102.135-.474 1.981-.22.678-.271-.237-1.406-.237-2.05 0-2.626 3.98.508 3.98.999 0 1.931-.575 2.253-1.93.813.152 1.507-.17 1.948-.88.694 2.133-.203 5.013-7.064 4.539ZM259.212 83.033c-.085.136.169-.136.271-.254a6.838 6.838 0 0 0 1.795.982c-6.589.797-5.234.83-2.998-2.659.322 1.287 1.237 1.287.932 1.931Z" fill="#D39F5B"/><path d="m187.765 555.976 10.824-24.188c.186.034 117.317 24.629 122.669 25.848 1.491.339 3.524-5.335-21.8 51.273-124.583-55.728-113.336-49.291-111.693-52.933Zm12.23-5.386c.067-.017.152-.017.22-.034.474-1.084.644-1.372-.22.034Z" fill="#EAD7AC"/><path d="M433.95 364.468c7.097-4.251 5.657-2.761 9.265-.068 44.024 33.065 28 2.118 24.985 48.868 0 .204.203-.592 2.71-9.316 7.25-25.459 26.695-39.043 29.846-72.497 5.488-58.015 8.96-45.43-.051-62.656-5.488-10.434-6.403-7.555-7.809-26.712-1.135-13.822-1.914-21.021-1.745-24.934a.3.3 0 0 0 .017.102v.051c-.017-.085-.017-.119-.017-.153.288-6.589 3.337-3.862 12.145-7.741 15.093-6.674 11.841-12.314 12.857-11.179 5.014 6.961-8.334 22.68-17.43 19.394-1.406-.626-3.845-2.151-3.489-1.914 3.269 3.642 4.251 3.202 3.082 3.202-1.067 2.591-.83 2.744-2.218 1.456-.17-.118.237.542 1.067 1.203-6.302 14.618-9.943 10.112 34.283 31.37-8.655 3.778-10.451 17.701-8.638 13.28 9.96-20.783 13.297-7.08 21.004-9.57 4.624-1.457 5.098-4.912 6.301-5.691 10.332-22.19 9.689-17.43 11.433-23.427.949-3.286-1.626-2.032 2.948-.796.728 0-4.32-.169-3.456-10.773 2.643 3.761 4.184.034 3.777.661-3.658 4.387-5.2-12.755-1.981-17.464.779-.965 2.676-2.49 2.795-1.829.033.339-.881-.627.118 11.535 2.134 25.933 2.558 22.901.085 27.695-1.779 3.455-6.606 20.157-24.273 38.857-9.791 10.434-11.027 2.608-11.264 69.99-.085 22.715 1.626 45.785-13.162 73.497-27.322 51.324.017 52.12-87.877 4.116-18.87-11.434-15.635-10.637-15.414-14.72 1.084-18.954 17.108-42.007 20.106-43.837ZM561.328 204.94c-.017.119 0 .068 0-.034.017 0 .017.017 0 .034Zm-56.236 40.28c.169 0 6.386 7.199 7.961 15.364.271 5.437-1.626 7.504-1.321 7.216 9.028-9.994-4.438-22.58-6.64-22.58Zm9.79 33.285c-.017-.017-.033-.034-.05-.034.033 0 .033.034.05.034.339.745-2.168 12.229-2.761 39.314 0 3.862 4.252-38.45 2.761-39.314Zm8.419-22.664c.034-.034.034-.034 0 0-4.286 3.201-4.404 10.214-4.302 15.634 0 .475 1.033-4.556 1.134-5.115 1.627-8.639 2.965-10.316 3.168-10.519Zm-7.995 67.941c0 .017.034.034.034 0 11.806-54.577 6.453-60.539-.034 0Zm-1.982 33.403c-.423-2.49-.864-4.133-1.304-4.133.068 0 .643 1.473 1.304 4.133 1.338 7.859 2.439 24.154 2.439 23.832.271-10.79-1.253-19.157-2.439-23.832Zm-.982 28.88c-.034-12.247-2.998-21.648-3.812-23.24-.067-.169-.135-.271-.186-.271.034 0 .102.102.186.271.983 2.456 3.693 21.123 3.812 23.24v.203c.017-.034.017-.101 0-.203Zm-4.066-5.827c2.931 24.392 1.305 1.829-1.27-8.554-.254-1.016 1.406 9.164 1.27 8.554Zm-2.117 12.755c.847-2.507-.525-9.655-1.22-12.399-.118-.678-.237-1.101-.338-1.101.051 0 .169.423.338 1.101.576 3.218 1.186 12.534 1.22 12.399Zm-2.541 3.76c0 .034.034.034.034 0 .136-9.265-.694-18.598-.034 0Zm-5.132 43.583c-17.464-5.86-18.514-8.283-19.632-8.283.22 0 5.048 5.2 8.097 6.454 4.488 1.863 11.958 1.982 11.535 1.829Zm-8.995 2.931c-.288-.17-17.192-11.078-16.295-10.18 8.385 8.706 16.651 10.417 16.295 10.18Zm-14.77-6.539c.881.78-4.641-3.98-6.454-5.454-.169-.288-.338-.44-.576-.44.034 0 .255.169.576.44.864 1.44 1.914 6.234 15.025 11.925.525.186-5.996-4.489-8.571-6.471Zm-11.247-1.541c5.318 4.709 12.67 8.147 12.145 7.809-2.778-2.169-3.947-3.049-4.777-3.693-23.206-20.174-21.089-16.278-7.368-4.116ZM224.301 397.482c.085-.204.152-.39.237-.593 1.711-3.405.627-1.067-.237.593ZM140.354 958.37c.017-.051.034-.085.051-.136 3.032-6.961.102.373-.051.136ZM172.265 311.01c.373-1.643.762-3.489 1.101-5.183-.068 1.677-2.236 10.129-1.101 5.183ZM148.433 419.62c.101-.017.186-.05.288-.084-.559 1.998-.593 2.54-.288.084Z" fill="#FFBC85"/><path d="M262.887 361.877c.118.05-.576-.255-.644-.288-.017 0 0 0 0 0 .034.017.203.101.644.288-.051-.017-.22-.102-.627-.288-7.673-3.422-7.063-3.168-7.47-3.253 13.907-15.786 28.525-24.34 8.791-12.822-7.605 4.438-5.285 7.08 1.897-9.858 5.235-12.332 5.573-18.904 5.404-18.904.169 0-2.541 6.081-5.556 10.925-30.405 48.919 8.977-8.774-3.811-34.148-6.996-13.906-1.982-2.456-.915 4.337 2.643 26.153-23.849 71.904-30.049 84.981-7.114 15.143 3.71-5.692 1.796-21.072-2.118-17.04-13.348-31.929-13.518-31.929.17 0 5.692 12.89 7.572 26.068 2.88 27.424-9.892 47.835-11.874 52.324-6.809-10.435-30.71-25.442-49.613-25.442-29.118 0 11.417-1.271 45.328 23.206 4.861 3.794 3.946 1.473.694 14.872-1.846 7.656-1.406 11.603-2.575 15.651-6.165-17.769-44.413-30.1-63.299-29.727.931-9.232 4.15-15.702 8.977-37.553 5.59-8.486 4.624-7.606 4.692-5.742 0 .288.237-.83.593-2.389 5.878-9.689 7.352-18.717 7.03-17.785-6.674 12.788-5.048 9.062-4.133 5.014 5.742-25.29 41.059-80.086 12.602-39.874 9.452-22.698-.322-42.042 29.101-39.653 17.988 3.574 41.516 21.241 47.953 41.754.135.389-.39-4.489-1.254-7.115-9.18-27.999-35.774-42.533-52.238-40.449 11.552-8.74 4.082-7.165 38.518 8.046 30.744 13.601 18.954 21.817 28.321-8.097 5.37 1.203 10.672 4.573 11.4 5.065l.017.017c.102.067.085.05-.017-.017-3.405-3.015-5.962-5.184-11.349-5.234 4.472-14.178 11.095-8.266 11.789-10.418 1.44 2.304 2.948 5.912 2.829 5.37-2.219-7.233-.965-4.573.119-1.135 2.727 15.516 2.761 19.53 30.388 40.517 17.108 13.433 29.659 27.661 25.713 17.04-3.71-35.215-10.587-37.18-10.875-49.765-2.626-1.711-.068-3.54.118-7.606 32.438 11.519 32.641 19.869 46.141 35.165 13.162 15.058 17.312 18.311 17.108 18.006-.135-.17-7.419-9.808-8.3-10.993 11.84 7.944 12.975 19.039 16.397 23.646 2.321 3.134 1.982 1.999 7.775 6.267 4.556 3.574 2.456 3.303 15.939 13.263-14.906 3.693-11.772 16.058-13.5 6.488-3.252-17.803-19.141-14.483-40.687-41.449-.118-.17-1.609-19.039-2.32-20.581.084-.135.084-.118-.085-.118.034 0 .051.051.085.118-.305.509-1.694 3.371 1.541 19.056 0 .441.542 1.542-3.625-5.014-2.185-11.179-1.863-16.074-4.438-20.173-2.506-4.015-7.317-6.64-7.486-6.64-.559 0 1.575.592 4.505 4.099 3.896 5.319 2.49 9.824 4.692 18.226.119.423.593 1.084-2.439-3.828-6.674-10.858-16.007-17.634-16.176-17.634.169 0 6.402 6.878 9.062 10.282 3.218 4.641 4.709 9.401 9.723 18.887 16.515 31.15 39.111 27.898 41.906 45.785 3.354 31.878-23.884 59.861-23.037 63.858-92.264-41.33-111.829-50.087-115.25-51.628Zm-58.642 48.309c-8.977-12.01-19.801-17.922-19.987-17.922-1.338 0 7.792 3.405 20.241 18.616-.728-1.016 5.692 7.216-.254-.694Zm.339 5.809c-15.245-16.972-24.646-21.664-27.22-22.833-.847-.525-.796-.356-.695-.356-.118 0 .119.102.695.356 1.287.796 4.709 3.235 13.483 10.451 6.758 5.556 14.11 12.755 13.737 12.382Zm-8.384-2.676c.287.373-1.508-2.219-3.202-3.896-3.218-3.167-16.634-14.11-20.055-14.008-.187 0 14.059 7.419 23.257 17.904Zm-25.662-13.534c6.877 2.964 20.817 13.178 20.173 12.535-6.369-5.658-14.99-12.264-23.172-14.55-16.176-4.506-3.337-.559 2.999 2.015Zm42.668-5.539c-1.457 14.72 6.081-16.244-9.825-41.686-1.405-2.761 11.671 22.817 9.825 41.686Zm-11.18-51.391.068.067c.22.441.915 1.576 2.71 4.218 6.047 9.028 4.726 5.928 7.945 14.737.084.169 1.185-6.894-10.655-18.955v-.017c1.016 1.017-.406-.83 0 0-.034-.017-.051-.017-.068-.05Zm5.116-47.225c-2.981-2.592-8.757-5.15-8.927-5.15-.576 0 8.368 4.54 16.803 20.462.204.576-1.66-9.926-7.876-15.312Zm2.473-7.132c.406 0 8.181 17.329 12.907 25.51.051.169-1.965-11.45-7.012-18.328-2.711-3.692-5.675-7.182-5.895-7.182Zm7.876-.203c1.66 0 16.837 32.15 12.637 42.99-.627 1.288-1.017 1.745-.847 1.627 10.502-11.942-7.674-44.617-11.79-44.617Zm35.436 18.023c.017 0 .017.068.017.152 0 .492-.136 2.118-.305 4.032-.593 5.488-2.168 15.583-5.81 25.323-13.754 37.299 3.235-3.456 4.997-16.752.034-.221.491-4.929.813-8.571.237-2.151.305-3.608.305-4.032 0-.101 0-.152-.017-.152Zm29.575-3.76c1.795-9.012 1.05-5.844-.407.152-8.384 34.843.373.017.407-.152Zm-7.352 9.079c2.253-12.128.034-32.523.373-25.95.711 14.719-.508 25.848-.932 29.066-.22 1.305-.169 1.22 0 0 .119-.66.288-1.694.559-3.116Zm-11.162-40.958c-.153-.068-.102 0-.068 0h.068c.61.271 4.37 2.49 24.815 17.599 35.452 28.677-15.99-17.396-24.815-17.599Zm85.591 128.869c1.016-1.406 20.648-23.375 16.938-39.433-1.965-8.452-12.653-15.025-12.348-14.567 7.606 9.689 12.704 15.448 5.946 31.946-4.303 9.282-11.671 23.172-10.536 22.054Zm4.878-63.232c.559 0-2.981-.372-7.622-1.575-4.049-1.05-8.063-2.829-20.174-6.2-.61-.237 14.652 7.86 27.796 7.775Zm8.08-10.18c-21.529 1.186-51.29-3.828-49.732-3.438 18.192 5.826 34.318 8.791 60.386 2.727.491-.136-4.082.355-10.654.711Z" fill="#D2F9FF"/><path d="M140.285 958.25c.017-.1.017-.134 0 0Z" fill="#FFBC85"/><path d="M195.065 531.246c1.321.22 2.303-2.914-11.163 27.152-.881 1.982-8.503-2.252 115.555 53.256 1.813.813-.287 4.082 25.358-53.205 14.516 3.405 20.919 5.217 27.084 5.895-8.757 20.089-30.066 68.923-39.196 89.859-1.439 3.303 15.601 9.672-85.912-35.791-85.456-38.247-76.868-33.522-75.919-36.062.728-1.914-1.033 2.202 24.493-56.321 6.454 2.134 12.992 4.099 19.7 5.217Zm140.438 68.042-.017-.017.017.017c1.05 2.473.203.153 0 0Z" fill="#748CC1"/><path d="M543.764 251.013c.813 1.135 13.873-33.386 14.855-30.218.712 2.371-11.789 29.033-13.195 30.235-2.253 1.593-6.504 1.338-7.131.034-79.307-38.874-25.103-14.567-3.574-2.473 4.709 2.71 5.844 3.049 9.045 2.422Z" fill="#9CD9E8"/><path d="M565.513 196.962s.016 0 .016.016c-.016 0-.016 0-.016-.016ZM500.417 219.711c1.135.389.796-.203-.271 2.456-1.186-.22-.999.186.271-2.456Z" fill="#FFBC85"/><path d="M557.975 213.156c-.17-1.186-13.721 35.333-17.447 35.333-2.727 0-44.481-20.8-44.43-21.512.61-.304 2.49-3.591 2.913-4.437.17.05 40.738 19.801 43.82 20.631 1.711.457 14.28-36.215 15.144-30.015Zm-38.282 21.088c-1.118 0-1.118 1.694 0 1.694s1.118-1.694 0-1.694Z" fill="#C0F2FF"/><path d="M582.926 176.009c.051-.169-.237 16.532-.576 18.734-1.033 6.843-1.423.085-1.372-6.877.152-9.367-1.05-5.048 1.948-11.857ZM573.931 210.7c-2.964-2.473-1.423-4.862-.881-11.027.559-2.728-.034-2.203 1.254-.424.118.186-.627-1.999-.712-2.998-.576-3.201 2.338-12.501 5.353-13.991.457-.153.373-.678.017 4.116-1.389 16.481 3.404 16.024-4.641 34.944-3.947 9.367-3.1 8.994-4.709-.203-1.254-9.486.914-6.183 2.354-11.705 1.609 1.897 1.796 1.118 1.965 1.288ZM568.477 211.225c-.424-1.322-.542-.61 1.507-5.302-.169 2.117.136 2.642-1.507 5.302Z" fill="#FFBC85"/><path d="M570.052 198.233c-3.422 7.317-2.897 7.351-2.965 4.065-.067-3.523-.169-2.626.949-5.183 29.371-66.247 26.068-61.166 27.373-56.812.982 3.065-16.668 39.704-18.48 41.245-6.047 4.997-4.675 11.976-6.877 16.685Z" fill="#9CD9E8"/><path d="M416.96 345.361c4.98-3.624 3.794-2.964 8.842.763 26.611 19.479 13.06 2.303-2.49 24.527-9.096 11.908-18.666 37.163-12.297 49.867-5.692-2.185-18.277-9.079-21.936-11.738-4.505-3.591 5.234-5.387 13.195-30.642 6.285-13.822 2.846-23.291 14.686-32.777Z" fill="#D2F9FF"/><path d="M310.942 36.91c-2.507-2.897-16.684-13.552-20.224-14.788-1.067-5.099-2.304-7.927-7.877-14.534 14.788 4.438 24.155 16.448 28.101 29.321ZM270.934 65.4c-.068.135-.153.271-.221.406-.592.051-.728.22.221-.406ZM269.731 66.162c.17.068.322.136.492.203-.966-.084-.864 0-.492-.203ZM283.263 13.856c-.017 0-.034.017-.017.034 10.045 12.433-2.117 32.437-9.468 46.123-3.049 3.608-5.387 5.184-4.726 4.743-.034.034-.068.051-.119.085-9.909 7.267 5.675-6.911 10.045-22.223 7.741-27.204-7.758-34.826-7.928-35.013 3.608-1.355 10.401.204 13.89 7.453 1.914 4.879-.576-1.202-1.677-1.202Zm-8.689-6.64c-.017 0-.017 0 0 0 .051.017.101.017 0 0ZM268.628 5.014c6.25 1.016 4.489.508 1.22 1.44-2.118-1.864-2.711-1.627-1.22-1.44ZM322.783 75.884c.016-.66-.237-.524.236-.558.153.49.22.389-.236.558Z" fill="#D39F5B"/><path d="M326.407 76.986c4.574-1.575.932-6.132.746-6.132.169 0-.559-1.93-.881-2.388-.695-.982-1.999-2.016-1.813-1.71 1.271 2.167 1.186 3.912.61 4.945.407-1.558-.559-2.88-.559-2.625.085.626.068 1.016.051 1.32-1.49 7.352 1.592-15.125-13.246-33.063-3.388-18.785-16.159-26.61-19.276-28.203.271.119.627.254 1.101.423 38.468 16.922 33.742 55.61 33.928 54.865 3.727-8.825 1.406-22.85-.457-28.525-4.912-14.872-17.396-22.732-20.394-24.392.254.119.576.271.999.458.847.39 12.501 7.554 16.583 12.433 8.3 10.942 10.4 17.362 10.129 35.486-.135 9.875-2.354 25.391 1.745 6.115-.966 12.348-2.575 11.823-4.912 17.176-1.948-2.812-3.405-4.388-4.354-6.183Zm6.657-22.223c-1.304-11.434-.101-1.847-1.135 6.91-.592 4.286-2.777 12.23-2.405 11.146 4.235-9.4 4.201-12.484 3.54-18.056Zm.119 19.564c0-.017 0-.017 0 0 0-.017 0 0 0 0ZM313.754 54.407c-.117.05-.117.05 0 0Z" fill="#D39F5B"/><path d="M323.222 301.27c-20.123-18.836-29.032-17.277-37.586-34.859-4.557-12.433 3.099-18.379-28.694-28.203-40.026-12.433-33.539-9.926-31.049-13.314 3.015-4.133 2.151-15.075 1.44-20.259-1.406-12.162-1.694-3.608 7.809-9.451 7.537-4.642 7.3-3.642 9.316-5.59 2.371-2.253 1.982-3.76 3.421-4.641 2.761-1.711.915-2.744 5.235 3.286 11.45 15.99 9.231 11.349-.017-1.457-3.337-4.624-2.931-3.455-2.287-4.353 15.6 25.306-.762-6.403-11.163-23.613 5.895-.372 1.372 17.905 27.932 21.394 32.98 27.915 24.561-5.963 24.375 33.098-.068 11.755.542 19.276 5.928 32.759-.355-2.964-.542-6.03-.677-9.147 10.044 14.788 4.455 9.842 7.588 16.82.102.238-5.471-3.099-5.657-3.099.288 0 9.197 7.927 12.484 10.349 14.008 10.892 15.481 28.559 21.8 50.579 1.49 5.234-.339-1.118-10.198-10.299Zm-48.275-65.163-.033-.034.033.034Zm-23.917-46.801c.237 0 .627 2.49 4.963 7.724 16.617 20.123-4.794-7.724-4.963-7.724Zm13.754 20.665c-3.506-4.658-9.13-10.197-11.196-12.111-.424-.44-.712-.695-.796-.695.034 0 .322.255.796.695 3.98 4.082 20.682 24.764 11.196 12.111Zm1.22 6.386c1.067 1.016 3.642 3.134 3.523 3.472-.017.017-.034.017-.034.034-.186-.017-.542-.034-.389.017.186.051.304.034.389-.017h.051s-.017-.017 0-.034c1.253-1.626-31.404-30.133-3.54-3.472Zm-8.91-4.675c.169 0 16.261 15.16 16.261 15.499-.491.034-.288.067-1.457-.17-.186-.051.407.373 1.643.525 3.388.61-15.007-15.854-16.447-15.854Zm16.024 20.817c-5.217-6.623-13.534-13.483-13.89-13.483.39 0 27.407 30.744 13.89 13.483Z" fill="#FFBC85"/><path d="M325.271 74.58c.898-.457 2.202-3.489 1.254-.49-.068.169-1.118.83-1.254.49Z" fill="#D39F5B"/><path d="M325.542 305.776c3.506 3.201 2.219 1.914 6.335 6.098-3.337-3.168-4.523-4.387-6.335-6.098Z" fill="#FFBC85"/><path d="M259.584 269.612c-2.541 11.501-1.287 9.486-6.775 6.504-10.841-8.825-30.236-14.279-33.132-15.888-18.616-10.4-11.637-6.691-8.334-22.647 3.557-17.464.22-18.09 10.468-14.584-.949 1.389-1.084 1.236-1.338 1.931-2.27 1.287-.136.051-.136.677 0 .898.373.763.204.864-1.135-.66-3.507-2.524-.525.627-1.847 4.387 46.632 16.38 54.135 21.36-6.978-1.813-13.059 14.16-14.567 21.156Zm-37.79-24.239c.017 0 .085.101.203.254.237.982-.05 4.997 8.148 12.67.152.102-6.911-10.925-8.148-12.67-.034-.17-.084-.254-.203-.254Zm7.165 2.202c.017 0 .136.186.305.474.373 1.423.644 6.03 6.996 12.45.152.152-5.607-10.163-6.996-12.45-.068-.305-.152-.474-.305-.474Zm5.217.779.034.034c.102.22.051 1.778 3.811 7.453 2.423 3.692 3.998 4.844 7.555 9.858.999 1.321-10.722-16.566-11.366-17.311-.017-.034-.017-.034-.034-.034Zm13.822 11.112c-.965-1.288-6.623-8.3-6.86-8.3.169 0 1.491 3.828 5.759 9.621 8.317 11.264 11.993 13.077 1.101-1.321Z" fill="#D2F9FF"/><path d="M242.593 2.71c.17-.017.339 0 .509-.017-.678.068-1.66.203-.509.017Z" fill="#D39F5B"/><path d="M248.658 182.869c-.559-.745-19.208-4.167-21.563-28.762-.254-2.727-.338-.372 2.71-.372.542 0 3.202 5.081 9.334 5.081.643-.05 1.795 6.505 7.673 16.888 7.148 12.619 1.287 3.913-2.643.068 5.844 7.605 5.285 6.708 4.489 7.097Z" fill="#FFBC85"/><path d="M182.175 165.524c7.673 22.935 33.132 29.727 30.286 29.965-.203-.017-.559-.051-1.101-.051.542.051.881.067 1.101.051 2.93.372-24.578 1.998-30.286-29.965Z" fill="#D39F5B"/><path d="M197.336 199.063c.237-.729-5.116-2.253-7.674-8.842-1.185-3.083-2.083-5.048-2.642-6.2 2.388 3.693 10.739 13.958 26.78 13.958 6.301 0 13.754-1.474 1.22 1.626-18.735 4.641-40.636-5.285-43.905-26.577 5.979 14.211 22.613 26.035 26.221 26.035Zm-5.759-1.203c.016.017.016.017 0 0-.119-.051-.136-.051 0 0Z" fill="#D39F5B"/><path d="M275.879 250.945c-2.321-.66-5.962.204-2.287-.813.932.051 1.542.136 2.287.813Z" fill="#FFBC85"/><path d="M322.308 72.938c.034.169.135.694-.169.914-.475-.728-.526-.339.169-.914ZM233.178 144.028c0-.016.016-.016.016-.033 0 .017-.016.017-.016.033ZM248.15 7.724h-.101s-.017 0-.017-.017c.034.017.085.017.118.017Z" fill="#D39F5B"/><path d="M308.18 140.862c11.807-1.152 14.314 1.998 11.146-.221-1.982-1.372-5.014-.847-2.219-1.372 1.372-.271 3.066-.338 4.963-1.202.779-.356.474-.204 1.542-.492 5.793-1.541 4.42-2.693 4.81-.643 2.964 15.516-22.342 14.804-30.964 7.859-9.079-6.674-.067-1.287 10.722-3.929Zm1.389 8.266c-.067-.017-.169-.017-.254-.034.085 0 .187.017.254.034Z" fill="#E26969"/><path d="M237.343 147.993c.864-2.152 1.254-5.065.797-3.862-.407 1.084-2.186 3.591-2.863 4.539-3.76 4.811-7.639.915-11.434-3.845-6.843-8.52-10.857-11.908-12.551-15.719 1.169-4.895 1.609-7.775 4.387-11.196.186.948.644 2.066 1.592 1.914 1.779-.305.508-3.608 2.084-4.049 5.488.085-7.691 8.792-1.643 14.212 5.894 5.217 15.786 5.166 12.585 8.012-2.219 1.304 5.336-.17-.44-3.845-16.448-10.367-10.13-4.641-8.148-17.549 1.66 1.068.644.78.237 2.338-2.524 9.198 8.622 10.485 5.387 6.166-1.305-1.728-3.862-3.49-3.862-4.472.626-1.389 1.05-5.692 5.301.559 3.422 5.047-3.15-13.365-13.279-6.979-1.66 1.033-3.015 3.54-1.305.779 3.998-4.98 6.166-5.623 11.705-3.777 8.435 3.896 5.319 12.247 19.513 16.532.288.102-.83-.525-2.303-1.558-12.484-10.045-14.466-18.938-14.466-18.667.728 7.131 2.287 4.54-2.05 2.101-8.147-4.625-11.094 1.541-2.557-7.555 9.909-10.57 28.88-41.364 28.626-66.755-1.084 15.075-3.811 20.631-8.74 32.675 3.32-9.825 5.386-20.716 6.589-29.524-.034.237-.051.474-.085.711.034-.237.051-.474.085-.711 1.406-10.214 1.694-17.65 1.49-17.515-8.046 34.097-16.972 64.977-38.975 90.588-3.371 3.93-6.335 14.821-.559 23.985-3.473 16.735 9.146 27.813 8.723 27.152-2.744-4.183-7.927-16.227-8.283-26.492 6.216 9.791 5.132 6.59 5.708 9.181 3.456 15.906 5.438 31.201 26.933 38.298-12.941 1.305-30.168-14.211-34.877-24.171 1.711 12.196 15.347 27.271 29.355 27.271 5.606 0 8.079-2.49 5.454.119-2.88 2.862-7.419 3.015-11.196 3.015-21.275 0-30.202-10.062-34.301-12.552 8.91 12.094 19.073 19.005 35.147 16.024-20.292 6.555-38.501-15.228-40.449-16.972 6.335 11.772 8.351 11.654 5.725 10.129-11.975-6.996-20.885-22.19-18.209-42.889 1.593-11.01-2.608 11.671 10.96 34.725-7.42-23.816-5.692-45.125.863-68.331.797-2.845 11.163-49.206 8.639-49.206.237 0-.931 9.892-4.133 21.529 2.05-29.677 9.299-55.813 1.169-24.307-4.963 19.225-2.846 20.648-9.774 44.328-10.586 36.401-5.759 19.852-3.387-22.596 1.541-27.509 2.879-31.523 8.503-44.955 5.877-13.23 12.026-15.567 14.347-18.04-28.406 18.243-28.576 58.472-28 91.994.678 34.758-13.686 37.959-1.253 67.415 3.811 9.029 14.194 22.326 4.861 10.265-4.184-5.589-8.52-12.941-10.044-19.767-6.691-30.371 4.15-88.86-4.235-42.516-1.525 8.402-2.88 17.074-2.998 26.17-4.082-27.339 6.911-43.397 11.095-68.28.88-5.267 1.524-13.16 1.355-13.16.169 0-1.694 9.925-2.473 13.28-9.842 42.329-4.371 15.227-1.593-3.965 2.101-14.685.915-29.236 5.116-38.298-4.015 5.116-6.403 20.259-7.385 26.12 4.438-40.687 13.618-39.535 38.518-52.544 10.773-5.607 8.723-5.488 7.131-3.15-.694 1.033-20.716 4.048-29.913 71.074 0 2.1 11.721-39.687 18.395-55.898 4.167-9.722 9.553-13.449 8.859-12.924 5.556-4.675-1.559-.372-9.774 32.116-1.152 3.438 15.109-32.048 16.007-33.42 5.048-6.149 11.722-5.082 19.073-1.83.441.102-3.997-2.862-8.08-4.03 6.844-.102 7.928.338 12.264.423 4.692.101 13.11-1.355 20.377 1.524 3.083 1.474 2.355 1.423 1.948 1.863-.085.085 0 .051.559-.44 11.095 7.063 6.2 28.982 1.406 41.28 1.287-6.166 2.236-11.824 1.999-18.515 1.016-9.62-.475-11.941 0-.304v.305c-1.118 10.518-5.234 29.76-18.209 49.121-11.603 17.21-28.373 27.424-26.458 26.476 13.534-6.979-5.167 2.1 11.772 15.82 1.491 1.491-6.945-6.453-6.454-18.683 9.604-5.353 1.864-2.913 2.101 6.199.152 5.81 2.574 9.622 2.574 9.384-5.081-19.547 5.963-20.444 13.839-29.744 1.406 2.795 5.15 1.745 2.084 2.422-2.016.22-4.167-.237-3.93-.084 2.473.915 3.066 1.169 5.454.627.254.559-2.964.931-3.862.982-.322 0 2.27.796 4.404-.152 1.542 1.71 2.947 1.66 1.83 1.66-2.999 0-3.676 1.863-3.49 1.609 1.288-1.288 3.794-1.559 5.387-.83-.695.186-2.473 1.236-1.034.982a7.517 7.517 0 0 1 1.745.017c4.302.695-.186-.593-1.558 2.592-.136.44.559-1.118 2.236-1.457 6.758-.593 3.862-.508 1.71 1.965-.338.339 1.305-1.304 2.711-1.948.609-.22 1.118.457 4.793.152 3.964-.355 4.591-2.896 11.027-6.3-2.541-.34-6.233 1.981-7.927 2.726-6.386 2.541 1.016-.237-.593-4.658-1.033-2.913-5.132-4.218-6.487-3.997-2.998.49-4.963 4.167-4.591 6.877.458 3.184 2.914 3.133.271 2.812-1.507-.56-6.03-2.1-5.234-2.66 5.336-3.726.322-6.792 12.772-8.757 6.149-.644 7.707 3.184 10.976 3.54.034 0 .068.017.085.017.356.119-.339.068-.779 1-.508 1.117.186 1.863.254 1.93.305.458-.203-.525-.288-.897.254-3.845 5.708.61.271-3.354-3.015-2.405-7.894-8.181-16.786-4.404-5.709-1.643 1.423-3.845 5.589-4.387-.169.034 1.423-1.084 8.3 3.303.17.118-4.2-6.064-10.281-4.777-7.081 1.541-5.793 5.065-7.674 4.32-.897-.407-.813-.068.61-2.304 6.064-9.486 3.456-9.401 6.657-9.283 2.456.424 2.084.508 1.88.864-.051.153.22-.203.322-.338 2.914.846 12.23 3.269 10.367 1.084 1.202.745 2.235 1.473 2.185 1.304-1.576-3.794-4.642-6.538-9.046-6.59 3.659-4.539 12.637-14.871 16.465-24.476 7.199-18.14-4.523-25.865 11.467-10.044 8.215 8.164 5.421 4.2 12.416 16.04 4.489 7.623 2.236 2.525-1.694 5.116.068-.931-.457-1.338-.914-1.338-5.184 0-3.998 12.568-3.981 14.889 0 .136.186-.288.762-1.406.068.22.221.78.221.593 1.253-4.81 5.589-10.13 6.673-10.671 1.152-.271 1.982.034 2.982.593.88 1.964 6.318 13.923 4.437 14.906.458-2.982-2.506-4.235-2.422-4.066.746 3.862.627 2.253-1.202 1.135-4.049-2.507-8.639 1.592-8.47 1.558 4.455-1.355 5.488-1.897 8.69.288.643.508 1.44 1.05-.729 1.643.712-1.49-1.27-2.727-1.27-2.388.373 1.423.644 2.05-1.169 2.05-11.467 0-9.672 17.379-8.943 15.21 2.422-7.503.779-10.247 9.248-11.755 10.079-.813 8.198 9.486 2.422 11.755-5.86 2.287.153.526-.067-3.523-.305-5.573-9.486-5.268-10.231-1.1-.813 4.319 2.303 5.758 1.27 4.657-1.829-2.54-.169-7.334 5.624-5.81.813.356-1.321-.406-1.779 1.457-1.135-.593-2.117.186-2.591 1.152-1.203 2.44 3.133 4.37 4.437.745 1.576 0 2.016-2.32 2.118-.017-1 5.895-11.637 2.83-6.098 4.472 4.133 1.22 8.147 1.66 10.587-2.236 3.032-.101 2.913 1.406 2.744 1.237.067.762.694-1.305-1.44-1.762-.813-.17.898-1.914 3.066-.508.186.119-.627-.965-1.965-.965-.525 0-.136.338.372-1.17.339-1.032 3.846.966 4.642 2.541 10.976 16.38 11.907 25.205 9.468 50.664-4.15 41.483 10.265 49.02-35.622 45.446-7.774-.61-31.573-1.524-36.773-3.387-20.903-10.485-10.722-5.184-27.526-29.287Zm-10.129-5.505c-2.219 5.318 6.793 7.368 7.741 2.862.966-4.268-5.979-7.012-7.741-2.862Zm-3.997 41.957c6.064 3.777 11.196 4.929 10.468 4.692-6.776-3.049-19.395-10.553-22.613-16.77-.238-.355 2.49 6.098 12.145 12.078Zm26.39-119.333c-1.253 2.338 6.386-8.046 6.555-25.662.034-2.981-.796-7.436-1.304-9.689-.034-.898-.169-1.406-.407-1.406.051 0 .204.542.407 1.406.288 6.166-3.523 30.676-5.251 35.351Zm-32.742 95.602c-7.504-14.11-7.487-21.97-7.589-21.58-1.27 11.315 9.028 23.765 7.589 21.58Zm-4.692-4.269c11.382 19.801-4.218-6.843-4.913-11.908.102-.474.339-.339-.05-.339.017 0 .017.017.017.017 0 .085.016.204.033.322-.186.813.068 3.473 4.913 11.908Zm-13.5-63.384c.254-.153 4.556-12.027 5.454-21.106 3.997-39.467-5.624 21.207-5.454 21.106Zm9.316-36.69c1.186-5.623-9.316 57.253-2.964 24.934 2.761-14.008 4.437-36.892 2.964-24.933Zm-3.422 47.276c-2.015 4.252-4.234 8.029-7.521 15.008-13.991 29.863 8.961 60.556 8.876 60.352-17.023-37.722-12.568-49.24-2.371-71.955 1.287-2.88.931-3.964-1.084 11.569 0 .203 7.876-20.14 12.772-48.495 1.575-9.147 3.946-34.91 12.077-54.627.237-.424 2.456-4.726 2.303-4.726 4.269.017-9.672-11.146-25.052 92.874Zm26.391-76.071c2.862-11.027 5.826-20.038-1.643-.136-13.941 37.215-11.773 44.024-15.618 66.739 0 6.877 11.315-51.257 23.663-74.75 5.573-10.587 9.401-11.773 10.706-11.722.626.322.643.068.118 0 3.303.423-4.353-5.878-17.226 19.869Zm23.663-20.818c-23.375 8.86-29.507 70.397-45.006 101.429-.017.034.017.051.034.017-3.693 4.912-14.178 42.533-3.286 62.842a77.656 77.656 0 0 1 1.744 3.405c.915 2.524 1.271 2.659 0 0-2.608-7.199-9.655-33.606 4.201-68.771 2.761-7.047 10.621-9.062 24.205-64.384C245.474 4.743 257.365 7.08 257.179 7.08c2.32.458-1.44-.745-2.558-.322Zm3.743 16.566c.475 2.778 1.965 14.619-2.202 28.78-3.489 11.856-4.573 12.652-4.048 12.297 3.642-2.812 10.434-24.917 6.843-38.705a42.54 42.54 0 0 1-.593-2.372c-.135-.779-.186-.83 0 0Zm-11.806 64.18c27.187-32.132 20.648-63.18 15.651-75.41-.965-3.49-2.151-5.471-3.082-5.471.355 0 1.659 1.965 3.082 5.471 3.422 12.416 4.099 44.024-18.666 74.005-6.894 9.096-8.74 11.4-11.976 16.075-.034.067 13.365-12.721 14.991-14.67Zm-17.836 18.989c.017 0 .017 0 0 0 .017 0 .017 0 0 0Zm15.702 14.483c.017 0 .084.118.186.321.153.797.39 3.202 4.709 8.741 2.253 2.879 3.1 3.133 2.93 2.964-3.455-2.795-6.809-10.112-7.622-11.705-.051-.22-.085-.321-.203-.321Zm9.756 8.808c-7.978-8.91-.66.897 3.439 4.302.508.508-2.71-3.472-3.439-4.302Zm9.876 6.504c-14.059-13.856-7.809-6.098-4.896-3.608 2.626 2.236 5.268 3.862 4.896 3.608Zm13.212-69.787c-.017 0-.034.017-.017.034 13.212 12.687 2.032-.034.017-.034Zm26.085 15.94c.017.016 0 0 0 0s.017.016 0 0Zm18.294 18.479c-6.386-4.099-17.142-13.127-12.89-11.145 3.624 1.677 7.47 2.032 7.012 1.88-10.011-3.49-13.466-6.03-13.703-17.48-.102-5.76-.017-5.303-.474-.221-.559 6.623-1.203 14.923 12.992 23.562 2.337 1.422 7.436 3.641 7.063 3.404Zm-18.429 11.366c.305 2.033 2.625 3.76 2.574 3.574-2.015-7.419-1.761-6.741-1.829-6.741.169-.017-.999 1.439-.745 3.167Zm10.857 1.186c3.117-1.897 2.219-3.405.305-3.405-3.472 0-6.419 6.538-3.997 4.658 6.182-4.319 3.049-.61 3.692-1.253Zm3.219 5.674c-3.778 2.88.745 6.623.626 6.234-2.015-4.862-.372-6.488-.626-6.234Zm-7.013-15.888c-.068 3.337-3.455 4.946-2.795 4.624 4.37-2.168 2.812-4.997 2.795-4.624Zm14.076-.695c.999 0-6.708 14.093-5.454 13.263 9.536-7.521 5.623-13.263 5.454-13.263Zm-32.505 38.146c5.64 9.587 12.551 11.772 22.782 11.078-1.812.644 21.614-2.168 11.637-2.168-5.776 0-1.186.965 2.355-3.388 2.947-3.591.508-11.518.508-10.078-.203-1.728-.305-.221 1.999-3.27.067.17.694 1.559.779 1.389.931-3.709-2.135-4.81-2.033-4.59.864 3.066 1.643 1.999-.559 3.184-.034-.152-3.218-3.675-6.013-3.675-2.134 0-4.082 1.948-5.505 3.286-.559.373 2.27-1.169 3.1-1.558 2.845-1.169 5.081.016 8.384 1.964-.694.373-1.677.983-3.049 1.999-1.897 1.423-7.08 2.812-6.386 2.727-3.472.475-1.592 1.101.356-4.319.102-.44-1.507 3.354-5.59 5.336-.965.203-22.206 2.473-21.173-.39 16.193 3.71 16.583-8.622 24.764-5.217.271.102-1.812-1.643-4.251-1.643-4.98 0-6.877 5.64-20.343 6.267.287-1.558-.424-3.32-.593-3.32.576 0-4.828 6.979-4.811 6.979 3.015-.169 3.185-1.355 3.642-.593Zm-3.456-49.46c0-.17-.728.677-.542.575 4.354-2.473-4.471-8.164-5.471-8.164-.423-.017 8.046 4.218 6.013 7.588Zm-1.49.524c.999-2.574-2.795 6.64 0 0Zm-1.999.864s-.017 0-.017.017c-2.219 3.202.356-.017.017-.017Zm-11.569 8.791c2.693-1.219 4.116-3.269 4.201-3.574.017-.034.017-.067 0-.067.017 0 0 .033 0 .067-.187.34-2.151 2.135-11.485 4.252-.186.051 4.523.593 7.284-.678Z" fill="#FFBC85"/><path d="M313.788 54.407c-.017 0-.017 0 0 0 .186-.102.237-.102 0 0ZM315.836 69.753l-.033.033.033-.033ZM312.568 81.881l-.119-.17c-.813.543 1.406-4.064 3.235-.253.119.288-1.812 1.88-3.116.423Z" fill="#D39F5B"/><path d="M324.9 81.424c-2.033-.627-1.423.305-1.033-1.321a4.96 4.96 0 0 0 .084-1.965c.339.711.966 1.795 2.016 3.354 1.27 1.863.61.44-1.067-.068Z" fill="#FFBC85"/><path d="M230.518 146.079c-.322 0-2.711-1.66-1.474-3.422 1.033-1.101 3.388-.356 4.065 1.084.356 1.067-2.422 1.389-2.591 2.338ZM326.899 72.48c-.016.1-.016.1 0 0ZM326.511 74.123c.017-.017.017-.017 0 0 .304-.389.152-.186 0 0Z" fill="#D39F5B"/><path d="M233.176 144.029c.017.117.017.134 0 0ZM233.161 144.045l.016-.016-.016.016ZM274.456 6.521c-3.964 0-2.778 1.576-4.489.034 4.624-.711 7.707-.034 4.489-.034Z" fill="#D39F5B"/><path d="M295.561 1360.48c12.518-6.37 10.587-4.14 18.972.11 10.705 5.49 19.902 26.62-21.36 20.77-.169-.02-.254-.03-.068 0-7.199-.93-7.046.22-6.741-5.13.457-9.1 4.387-13.26 9.197-15.75Z" fill="#4E8896"/><path d="M218.05 1321.86c.254-.36 3.134-6.17 2.575-16.43-.356-7.51 3.557 10.87 11.095 17.82 3.523 4.74 32.877 28.71 41.33 32.92 9.113 4.58 7.436-2.55 24.29-4.77.355-.05.711-.31.982-.61 7.47 6.16 9.655 4.01 4.015 5.69-12.145 3.47-16.228 10.11-17.075 19.75-.423 5.13 1.915 4.3-4.912 3.45-34.216-5.04-39.365-49.52-61.775-56.67-1.728-.95-1.101-.29-.525-1.15Z" fill="#39717A"/><path d="M206.363 1277.65c.644-.94.407-1.31 1.457 1.11.305.78.237.26-1.457-1.11Z" fill="#FFBC85"/><path d="M203.942 1322.01c2.897.49 8.012 2.06 12.551 4.27 15.245 7.52-7.69-9.23 6.166 40.55-1.948.05-6.521-.59-4.167-.32-10.451-1.6-1.49 2.2-10.536-29.83-4.471-15.89-5.538-14.84-4.014-14.67Z" fill="#4E8896"/><path d="M451.99 960.741c-2.778.187-2.117.119-.068-.304.017.101.034.203.068.304ZM273.457 540.342c-29.88-7.86-26.119-4.167-65.586-11.586-12.603-2.372-24.104-5.353-24.9-5.573h-.017c-.051-.017-.051-.017.017 0 42.668 17.904-31.489-11.315-33.877-13.077-15.804-11.806-8.114 6.081.965-81.339 2.168-20.97 2.084-15.126 1.762-17.057 11.806 1.626 9.045-.339 20.699 4.37 7.233 3.117 25.594 12.738 28.542 15.584 6.301 6.03 2.066 2.337.169 16.159-4.607 32.878 2.219 23.409-17.464 23.409-4.082 0-6.691-.084-8.08-.152-1.507-.136-1.626-.085 0 0 5.607.525 30.456 3.794 56.694 18.819 40.382 23.172 77.748 33.301 108.712 34.673.576 0-3.896-.745-7.3-1.812 1.812.559 9.722-1.525 9.892-1.559-.221.237-.492.559-.356.441.61-.475 5.641-2.118 4.743-1.897-3.354.711-1.152 1.744 9.502-9.435 6.2-6.505 8.724-7.284 14.195-8.622 6.454-1.541 8.368-3.506 14.144-5.065 9.451-2.591 11.636 1.609 25.34 6.064-1.745 1.61-.254 3.845 2.337 4.896 4.828 1.931 8.961-1.508 8.3-1.084-3.777 1.388-11.078.677-10.739-3.1.712-1.288-.389-.339 7.199 1.219 5.675 1.135 6.792.373 3.506 3.185-8.045 5.979-17.125 3.896-21.8 3.896-.66 0-1.863-9.486-11.619-9.486-4.523 0-7.606 2.456-7.233 2.27 13.855-5.014 17.633 8.503 19.564 8.791 5.437 3.625 14.296-.915 15.278 4.404.068.949.034 2.541-.559 3.286-1.727 1.237-18.717 5.149-17.158 5.149 15.007-.694 11.67-1.524 10.79 1.864-.39 1.456-1.051 3.76-2.745 5.759-9.062 5.149-17.057 8.351-9.959 6.182-1.491 3.473 5.979-.457 9.468-.66.61.152 1.152 2.405 1.321 3.388.255 4.082-19.987 10.315-17.175 10.315 3.099-.677 2.032.525 14.736 2.541.407 0-3.777-1.677-6.453-2.287-8.605-1.965-9.384 1.254 4.573-3.845.576 1.271 1.592 1.643 2.422 3.32 4.98 14.313-29.066 6.064-40.178 6.217-17.362.22-29.422-2.118-91.672-18.565Zm-72.226-92.57c-.068.525-.051.356-.068.424.034-.136.051-.271.068-.424Zm-47.903 33.708c.119 0 .204.271.305.762.136 2.44-.948 10.536 8.419 18.989.017.017.051 0 .034-.034-6.894-9.012-7.928-16.617-8.453-18.971-.017-.458-.084-.746-.305-.746Zm6.352 6.268s.017-.001.017.016c.085.238.17.458.271.695.085 1.948-.389 7.741 8.775 14.991.338.169-5.438-6.268-8.775-14.991-.017-.457-.067-.711-.288-.711Zm12.129 11.484c-11.299-16.99-2.88-1.101-.966 1.88 3.066 4.726 7.572 7.707 7.25 7.385-4.353-5.454-3.778-5.505-6.284-9.265Zm15.871 10.773c.169.085-5.302-6.538-6.115-7.453-15.431-17.176-1.897 2.219 6.115 7.453Zm-5.929-13.331c0-.017 0-.017 0 0-.016 0-.033.017-.033.034 12.771 16.193 36.519 27.678.033-.034Zm231.704 9.672c0 .017.017.017 0 0 .017.017 0 .017 0 0Zm-11.112 20.597c-4.692 3.219-25.797-1.134-23.917-.203 6.843 2.609 18.768 5.353 23.917.203Zm-11.671 4.574c-5.013-2.27-10.502-3.354-11.145-3.354-1.22 0 12.416 4.201 11.145 3.354Zm-4.776 1.203c-1.847-.797-8.791-3.642-10.824-3.642-1.677 0 12.67 4.268 10.824 3.642Zm-4.641 1.05c.033 0 .033-.034.016-.034-6.894-3.744-18.852-6.267-.016.034Z" fill="#FFBC85"/><path d="M415.656 520.879s0-.017 0 0c.27-.22.254-.203 0 0Z" fill="#FFBC85"/><path d="M320.852 654.339c-3.964.22-5.235 5.81 13.33-36.757 26.17-60.03 18.819-53.052 35.504-52.086-41.991 96.296-34.606 88.081-48.834 88.843Zm32.725-77.901s-.017-.034-.034-.034c-.186.22.779 2.524.034.034Z" fill="#A3BBE8"/><path d="M415.656 520.879c-.152.102-.118.085 0 0Z" fill="#FFBC85"/><path d="M216.864 1321.2c-.339 1.28.948 1.08-3.608-.82-13.924-5.77-10.875.93-12.569-6.64-2.625-11.6-4.59-21.61 2.812-31.89 3.286-4.59 2.304-5.42 5.133-1.05 8.757 21.75 15.278 18.04 8.232 40.4ZM78.154 1352.8c9.215-10.65 4.777-14.99 6.708-11.97 7.589 12.45 14.466 7.64 9.892 20.53-6.115 1.11-15.888-1.39-21.749-3.41 1.592-1.18 3.845-3.66 5.15-5.15Z" fill="#4E8896"/><path d="M389.418 493.642c-3.845.474 25.967-55.88 23.122-59.234 3.997 1.795 7.995 3.574 11.992 5.369-31.963 73.328-19.361 51.917-35.114 53.865Z" fill="#A3BBE8"/><path d="M37.383 1261.39c4.896-7.46 7.894-21.67 3.727-32.54-1.254-3.21 10.061 13.02 4.777 44.73-1.237 7.47 1.304 9.79 8.69 33.79 3.133 10.07 7.57 20.91 15.888 23.94 2.15 1.15 7.08 3.49 9.976 2.71 2.694 3.91 6.827 8.15-4.438 19.7-4.54 4.69-4.54 3.74-6.978 2.74-4.608-1.98-20.31-9.7-24.104-15.51 2.88 2.33 1.677 1.74-.186-1.55-9.062-16.02-4.828-38.09-8.097-56.57-4.37-24.9-6.996-9.05.745-21.44Z" fill="#39717A"/><path d="M12.229 1242.28c5.234-14.92 17.666-20.65 18.09-20.97 2.524-1.86 1.948-1.68 3.557-.31 13.991 11.89 8.52 35.03-2.151 44.87-6.81-13.56-22.478-14.95-19.497-23.59ZM11.077 1251.17c3.557 3.22 5.725 5.44 10.366 10.27-9.485 33.48-8.012 35.11-13.093 45.97-4.93-2.49-3.777.23-1.711-9.62 1.338-6.51 6.098-26.14 4.438-46.62ZM93.67 1362.58a5.53 5.53 0 0 1-1.457.32c1.66-.41 2.203-.7 1.457-.32Z" fill="#4E8896"/><path d="M250.606 1010.78c48.224 7.69 41.178 11.57 38.586 20.44-18.074 61.95-31.862 208.57-27.153 230 2.372 10.77 20.157 64.67 20.208 64.84 12.06 31.35 20.53 16.26-.61 25.61-4.742 2.13-1.998 3.91-17.04-6.42-11.061-11.11-25.222-20.92-25.052-20.79-9.757-7.53-6.962-9.5-18.904-27.69-2.879-4.37-9.231-13.91-10.654-21.73-.898-8.12 25.408-11.62 19.361-79.31 6.115 45.23-5.488 65.67 2.388 76.04.237.3.373.52.474.69.17.39.221.38 0 0-.474-1.1-1.88-5.5-.626-15.07 10.586-79.77-29.186-158.85-17.972-252.17 6.538 1.73 29.727 4.85 36.994 5.56Z" fill="#FFBC85"/><path d="M210.022 1275.16V1275.05c.051.39.067.55 0 .11Z" fill="#FFBC85"/><path d="M169.944 880.639c2.473-46.886-9.045-183.513-.914-255.096 1.355-9.147-2.287-8.418 19.987-5.708 57.998 9.807 39.552 4.929 122.449 42.042 1.948.88 3.49-.17 3.778-1.728.372.034.813.034 1.118-.085 2.371-.915 6.182-.542 10.705-.982 6.674-.61 8.605-3.134 8.605-2.965 10.027-20.072 7.368-28.795 10.248-1.744 9.197 86.573 15.515 97.685 15.515 97.515-3.862-18.818-4.573-30.184-7.131-55.88-8.079-81.255-13.754-51.036 3.998-91.757 4.201 29.897 4.861 57.253 11.01 102.885 10.62 80.781 47.445 112.219 79.256 236.887 4.573 24.375 11.315 11.654-36.384 21.749-7.318 1.525-15.787 6.827-9.486 10.824 10.129 6.335 13.534 5.217-7.114 9.553-31.93 6.725-18.531 9.266-22.817-1.812-5.335-13.517-10.163-5.285-26.576-54.221-9.554-28.541-15.499-87.945-18.48-97.735 3.98 16.786 3.946 70.786 16.295 111.591 13.669 44.091 27.474 39.095 20.377 51.748-3.913 7.03-20.97 11.82-28.982 12.96-8.08.96-17.447-2.07-34.301-3.32.136-.83-38.4-.9-61.826-3.78-49.156-6.724-38.772-8.689-43.312-14.939-8.198-11.383-30.777-9.249-53.729-26.628-5.742-4.522 25.357-33.301 27.711-79.374Zm153.092-171.216c.017.051.05.102.067.153.153.389.085.22-.067-.153Zm45.293 69.601c-7.944-19.158-27.254-94.433-28.592-94.433.881 0 6.471 49.275 25.374 88.776 5.302 11.094 3.218 5.166 3.218 5.657Zm-3.743 6.538c-14.889-38.129-23.358-61.148-22.918-59.403 8.622 27.593 16.922 55.931 30.71 78.764 13.246 22.037 3.726 5.691-7.792-19.361Zm37.011 92.858c.83 1.236-28.457-54.915-50.782-108.882-2.609-6.284-4.015-10.027-3.879-9.451 5.319 17.277 32.183 84.998 54.661 118.333Zm-89.91-195.844c.017.05.051.118.067.169 1.322 3.997 18.091 60.437 23.105 83.711 11.23 52.001 10.4 83.321 28.965 134.577 13.178 36.553 6.572 18.378.542-11.501-19.073-94.23-1.982-88.708-52.595-206.804-.084-.203-.118-.288-.084-.152Zm-79.392 255.908c0 1.813 3.049-28.169 3.185-33.911 1.219-50.782-18.158-121.077-18.328-121.077.17 0 11.468 74.597 12.45 86.471 3.151 38.739 1.728 29.304 2.693 68.517Zm-8.926 18.395s-.017 0-.017.017c-.491 2.711.101-.017.017-.017Zm-6.539 11.976c8.402-47.614.475-88.436.305-88.436.17 0-.152 38.213-1.067 61.487-1.406 36.096-5.149 60.384.762 26.949ZM205.6 818.322c-4.59-69.991-5.149-59.438-15.617-129.97-5.793-39.061-3.168-38.705-3.947-38.705.254 0-2.117 9.892 5.844 68.008 13.652 98.16 13.72 101.022 13.72 100.667Zm-21.969 75.817c10.519-53.526-.288-114.166-.898-116.656-.017-.068-.017-.119-.034-.119 0 0 .017.068.034.119.322 1.812 1.88 25.865 2.456 41.94 1.745 48.41-1.558 74.885-1.558 74.716Zm.101-180.481c4.371 31.54 10.553 123.415 12.908 139.235.05.17-1.406-46.361-2.27-60.911-2.016-33.064-7.436-63.045-10.638-78.324-.914-6.657-1.761-10.638-2.456-10.638.051 0 1.034 3.896 2.456 10.638Z" fill="#66A3B5"/><path d="M78.663 1331.12c-2.456-.15-4.472-1.27-6.708-2.61-9.774-5.89-5.98-5.03-16.668-39.57-3.066-9.84-3.387-10.79-2.439-14.63 3.032-12.64-1.389-32.84-5.928-41.65-7.182-13.93-12.806-13.81-9.79-15.08 17.09-7.04 17.717-6.06 23.408-14.62 1.084-1.61 22.02-53.88 22.36-54.83 10.196-28.27 22.206-127.92 56.117-169.179 18.836-6.42 52.002 33.689 53.543 53.219.457 5.27-59.488 88.54-76.495 131.38-7.216 18.19-10.739 31.89-13.788 37.52-5.996 10.92-6.826 13.36-9.18 20.51 2.184-19.4-3.456 14.6-3.49 14.8-2.27 11.76-2.71 21.58-4.421 34.41-.915 5.33-10.908 51.18-6.521 60.33Zm-24.375-114.27c.813-.01-6.64 18.79 9.638 22.45 3.879.86 4.93-.22 4.692-.16-2.676.55-6.318-1.91-8.503-3.54-8.097-6.62-4.506-18.75-5.827-18.75Zm29.22-62.13c.016 0 0 .19-.018.46-.593 2.74-5.81 16.89-5.742 16.74-9.723 22.74-17.48 27.76-19.056 38.12-1.084 7.32-1.355 23.31-.203 12.66 3.015-20.06 8.046-22.02 13.398-32.64 8.86-17.6 11.332-32.27 11.603-34.9.068-.27.068-.44.017-.44ZM210.005 1275.02c.016.07.016.1.016.1s0-.03-.016-.1Z" fill="#FFBC85"/><path d="M382.1 495.505c-1.541.475-4.048 1.288-5.979 2.084-15.482 3.862-9.706-.288-22.173 11.738-3.1 2.998-5.929 5.912-10.536 7.572 27.881-62.283 26.357-58.506 26.17-59.184-.22-.83-116.012-52.882-116.961-52.272-.508.288 1.83-4.625-33.2 73.632-6.081-2.033-6.47-2.388-14.042-5.116-4.099-1.422-3.337 1.643-1.067-12.788 3.761-24.493 2.626-15.33 6.996-20.632 7.233-8.672 12.28-32.369 38.417-74.021.101-.17 30.252 13.585 157.681 70.634-21.715 49.681-25.425 57.591-25.306 58.353Z" fill="#748CC1"/><path d="M221.811 479.905c10.705-23.9 21.394-47.801 32.099-71.701 21.969 9.841-15.194-6.81 112.794 50.494-.271.61-.457 1.016-.576 1.287-1.711 3.828-7.741 17.294-25.899 57.862-31.438 6.827-110.762-35.266-118.418-37.942Z" fill="#EAD7AC"/><path d="M382.575 495.37c.119-.068.237-.136.356-.17.949-.237.61-.135-.356.17Z" fill="#FFBC85"/><path d="m266.342 6.149 7.656 5.42 3.828 13.703-4.777 20.733-8.604 19.768-7.978 12.11-8.605 14.026-7.335 7.012-3.828 5.743-.948 7.334 2.236 9.57-6.064-6.064s-4.608-6.03-5.336-5.877c-.729.135-5.183-1.135-6.149-1.135-.965 0-5.098 3.184-5.098 3.184l-5.421 7.657-.643 5.098 2.557 8.605 7.335 7.012 2.862 7.657 6.064 17.209 4.777 9.571 7.978 6.69 6.064 2.863-1.406 2.829-2.744 2.287-7.605 4.2s-4.828 4.726-7.385 4.404c-2.558-.321-10.519-2.557-14.669-4.776-4.15-2.236-15.313-6.691-17.854-8.605-2.557-1.914-15.939-18.497-15.939-18.497s10.841 27.745 9.892 26.78c-.948-.949-15.312-10.519-16.583-21.038-1.27-10.519-12.433-23.917-9.57-32.522 2.863-8.605 7.335-30.608 6.691-41.127-.644-10.519 3.828-30.286 2.862-39.535-.948-9.248 7.979-24.866 7.979-24.866L199.4 16.668l10.841-3.185 12.111-6.369 20.259-4.404 13.856.898 9.875 2.54Z" fill="#D39F5B"/><path d="M313.754 71.854c1.863-.34 6.928 2.032 6.928 2.032l1.863 4.049-1.016 3.879-2.541 3.709-4.557 1.863-4.573.017-4.878-1.372s1.185-6.758 1.185-7.436c0-.677 2.71-4.556 2.71-4.556l4.879-2.185ZM263.766 84.354l7.605-1.863 7.436 4.235 1.779 1.558-.779 1 .254 1.93.254 1.254-7.589 3.879-4.234.847-4.726.17-4.387-1.525-2.541-1.525-1.338-1.846 4.726-5.912 3.54-2.202Z" fill="#D2FCFF"/><path d="M311.569 86.878c-2.704 0-4.896-2.002-4.896-4.472 0-2.47 2.192-4.471 4.896-4.471 2.703 0 4.895 2.002 4.895 4.471 0 2.47-2.192 4.472-4.895 4.472ZM262.581 92.637c0 2.71 2.118 4.895 4.726 4.895 2.609 0 4.726-2.185 4.726-4.895 0-2.71-2.117-4.895-4.726-4.895-2.608-.017-4.726 2.185-4.726 4.895Z" fill="#19ADDB"/><path d="m329.338 132.866-.322-.203-4.099-2.71h-2.71l-4.387 2.524-4.065-.491-6.064 3.37-6.759 3.219-3.557-.678-4.895.17v1.677l2.371.508 12.501-.339 6.911-.661 2.033-.677 6.927-1.525 5.573-2.71 1.355-.999-.813-.475Z" fill="#D34646"/><path d="M311.4 86.387c-1.862 0-3.371-.758-3.371-1.694 0-.936 1.509-1.694 3.371-1.694 1.861 0 3.371.758 3.371 1.694 0 .936-1.51 1.694-3.371 1.694ZM263.089 94.653c0 1.033 1.694 1.863 3.794 1.863 2.101 0 3.795-.83 3.795-1.863s-1.694-1.863-3.795-1.863c-2.083 0-3.794.847-3.794 1.863Z" fill="#27D6FF"/><path d="M312.196 81.305c0 .78.678 1.203 1.931 1.203 1.254 0 1.847-.678 1.847-1.457s-.593-1.372-1.847-1.372c-1.27-.017-1.931.847-1.931 1.626ZM268.222 91.045c0 .78.88 1.423 1.981 1.423 1.085 0 1.898-1.101 1.898-1.897 0-.78-.797-.949-1.898-.949-1.101.017-1.981.644-1.981 1.423Z" fill="#D7F9FF"/><path opacity=".63" d="m533.754 139.439 15.668 96.922-6.132 12.942-12.941-2.728-29.05-16.108-5.894-2.727 4.539-9.079 6.809-.221 8.165-7.029 3.862-9.299-2.05-5.217-3.184 3.184-3.405 4.54s-5.894 3.404-4.997 1.592c.915-1.863 28.61-66.772 28.61-66.772Z" fill="#E1FBFF"/><path d="M274.575 7.216c.102.017.051.017 0 0-.017 0-.017 0 0 0ZM243.543 86.099c29.169-38.434 19.869-79.476 15.584-79.476 1.575 0 22.41 39.535-12.569 80.882-1.643 1.948-15.041 14.736-15.007 14.686 3.252-4.675 5.098-6.996 11.992-16.092Z" fill="#000"/><path d="M257.178 7.097c.187 0-11.704-2.337-20.665 34.216-13.585 55.322-21.444 57.337-24.205 64.384-20.259 51.476 4.218 84.202-5.929 65.366-10.908-20.309-.406-57.947 3.287-62.842-.017.034-.051 0-.034-.017 15.515-31.032 21.647-92.57 45.006-101.429 1.101-.44 4.861.763 2.54.322Z" fill="#000"/><path d="m253.3 7.995-.016.016.016-.016ZM248.033 7.707c2.101 1.101-2.337-4.116-10.671 11.738-12.348 23.477-23.663 81.628-23.663 74.75 3.862-22.714 1.694-29.523 15.617-66.737 7.47-19.903 4.523-10.909 1.643.135 13.06-26.136 20.767-19.26 17.074-19.886Z" fill="#000"/><path d="M227.334 15.448c-8.147 19.733-10.519 45.53-12.094 54.678-4.878 28.355-12.772 48.681-12.772 48.495 2.016-15.533 2.372-14.449 1.084-11.569-10.197 22.732-14.635 34.233 2.372 71.955.101.187-22.868-30.506-8.876-60.352 3.269-6.979 5.488-10.756 7.521-15.008 15.397-104.037 29.32-92.874 25.052-92.874.152.017-2.71 5.522-2.287 4.675ZM252.098 64.4c-.525.34.576-.457 4.048-12.297 6.031-20.513.204-36.198 2.778-26.407 3.608 13.788-3.167 35.91-6.826 38.705Z" fill="#000"/><path d="M254.453 28.355c.169 0 1.762 6.979 1.711 11.095-.186 17.616-7.809 28-6.555 25.662 1.981-5.353 6.69-36.757 4.844-36.757ZM333.064 54.762c.66 5.573.677 8.656-3.54 18.057-.373 1.101 1.829-6.843 2.405-11.146 1.033-8.757-.169-18.344 1.135-6.91ZM255.993 197.03c-4.353-5.217-4.742-7.724-4.963-7.724.17 0 21.58 27.847 4.963 7.724ZM252.792 197.166c.169 0 7.69 7.08 11.993 12.805 10.501 13.991-11.061-12.805-11.993-12.805ZM269.105 219.863c-.17-.051.271-.017.423-.017.237-.271-2.439-2.456-3.523-3.506-29.185-27.915 8.063 4.709 3.1 3.523ZM273.541 227.536c-1.236-.152-1.829-.575-1.643-.525 1.169.254.966.204 1.457.17 0-.339-16.092-15.499-16.261-15.499 1.44 0 19.835 16.464 16.447 15.854ZM274.947 236.106l-.033-.032c.017 0 .017.016.033.032Z" fill="#000"/><path d="M259.228 219.016c.373 0 8.673 6.86 13.89 13.483 13.517 17.261-13.5-13.483-13.89-13.483ZM277.235 66.535c-.017-.017 0-.034.017-.034 2.032 0 13.212 12.72-.017.034ZM310.283 52.509c0-.017-.016-.033-.016-.033.016.016.016.016.016.033ZM314.567 97.516c-14.195-8.64-13.551-16.94-12.992-23.562.457-5.082.373-5.539.474.22.237 11.45 3.693 13.991 13.704 17.48.457.153-3.388-.203-7.013-1.88-4.269-1.981 6.487 7.047 12.89 11.146.39.237-4.709-1.982-7.063-3.404Z" fill="#000"/><path d="M303.354 82.44c.014.015 0 0 0 0 .014.015 0 .015 0 0ZM318.903 115.826c-1.253.83 6.454-13.263 5.454-13.263.17 0 4.082 5.742-5.454 13.263ZM310.402 114.725c-2.423 1.88.525-4.658 3.997-4.658 1.897 0 2.812 1.508-.305 3.405-.66.643 2.473-3.066-3.692 1.253ZM307.486 107.882c-.661.339 2.727-1.287 2.795-4.624.017-.373 1.575 2.456-2.795 4.624ZM305.793 115.86c.068.186-2.269-1.541-2.574-3.574-.254-1.728.915-3.167.745-3.167.068-.017-.186-.678 1.829 6.741ZM317.921 125.38c.135.389-4.404-3.337-.627-6.234.254-.254-1.389 1.372.627 6.234ZM315.889 69.55v-.034c.016.017.016.017 0 .033ZM284.855 85.336l-.015-.016c.015 0 .015 0 .015.016Z" fill="#000"/><path d="M287.855 91.824c-.17.119.542-.745.542-.576 2.015-3.37-6.454-7.605-6.03-7.605 1.016 0 9.841 5.708 5.488 8.181Z" fill="#000"/><path d="M286.907 91.773c.999-2.574-2.795 6.64 0 0ZM284.907 92.637c.339 0-2.236 3.219-.017.017 0-.017.017-.017.017-.017ZM273.338 101.428c-2.761 1.271-7.453.729-7.283.661 10.383-2.355 11.653-4.32 11.484-4.32.169.018-1.27 2.338-4.201 3.659ZM259.635 99.159l-.016.016c0-.016.016-.016.016-.016ZM320.937 130.919c-.83.389-3.675 1.948-3.1 1.558 1.423-1.338 3.371-3.286 5.506-3.286 2.896 0 6.25 3.811 6.047 3.709-3.371-1.948-5.59-3.15-8.453-1.981ZM309.57 149.128c-.067-.017-.169-.017-.254-.034.102 0 .187.017.254.034ZM297.463 144.789c0-.012.013 0 0 0 .013 0 0 0 0 0Z" fill="#000"/><path d="M291.853 140.709c-.458-.762-.61.424-3.625.559-.017 0 5.386-6.979 4.81-6.979.17 0 .898 1.762.593 3.32 13.466-.643 15.363-6.267 20.343-6.267 2.439 0 4.523 1.745 4.252 1.643-8.181-3.405-8.571 8.944-24.764 5.217-1.034 2.863 20.207.593 21.173.39 4.082-1.965 5.691-5.759 5.59-5.336-1.948 5.42-3.828 4.794-.356 4.319-.678.102 4.489-1.304 6.386-2.727 5.759-4.319 4.76-1.168 3.625-5.2-.119-.22 2.947.881 2.032 4.591-.084.169-.694-1.22-.779-1.389-2.303 3.049-2.219 1.541-1.999 3.269 0-1.423 2.44 6.487-.508 10.078-3.54 4.353-8.147 3.388-2.354 3.388 9.96 0-13.449 2.812-11.637 2.168-10.231.728-17.142-1.457-22.782-11.044Zm36.57-3.777c-.39-2.067.982-.915-4.811.643-1.067.271-.762.136-1.541.492-1.897.864-3.591.931-4.963 1.202-2.795.525.237-.017 2.219 1.372 3.167 2.236.661-.931-11.146.221-10.79 2.642-19.784-2.745-10.705 3.929 8.605 6.945 33.911 7.657 30.947-7.859ZM205.024 81.305c-6.335 32.319 4.15-30.557 2.964-24.933 1.474-11.959-.203 10.925-2.964 24.933ZM204.127 71.955c-.897 9.062-5.2 20.936-5.454 21.106-.169.101 9.452-60.573 5.454-21.106ZM209.294 139.151c.101-.39.068 7.47 7.588 21.579 1.423 2.169-8.876-10.281-7.588-21.579Z" fill="#000"/><path d="M207.21 144.198c.017 0 .017.017.017.017 0 4.15 16.583 32.472 4.946 12.23-7.622-13.263-3.862-12.247-4.963-12.247ZM211.073 172.367c3.218 6.217 15.837 13.738 22.613 16.77.728.237-4.404-.915-10.468-4.692-9.655-5.98-12.382-12.433-12.145-12.078ZM252.249 133.002c.17.169-.66-.068-2.93-2.964-5.505-7.081-4.37-9.062-4.895-9.062.169 0 3.929 8.875 7.825 12.026ZM257.619 134.086c-4.099-3.405-11.417-13.212-3.439-4.302.729.83 3.947 4.81 3.439 4.302ZM259.161 132.68c-2.913-2.49-9.164-10.248 4.896 3.608.372.254-2.27-1.372-4.896-3.608ZM187.442 20.31c-.237.101-.237.101-.288.118a2.11 2.11 0 0 1 .288-.119ZM191.575 197.86c-.135-.051-.118-.051 0 0 .017.017.017.017 0 0ZM246.915 260.804c-4.285-5.793-5.589-9.621-5.759-9.621.237 0 5.878 7.012 6.86 8.3 10.875 14.381 7.199 12.568-1.101 1.321ZM245.576 265.699c-3.557-4.997-5.133-6.149-7.555-9.858-4.099-6.217-3.675-7.504-3.845-7.504.17.017 12.416 18.717 11.4 17.362ZM236.276 260.499c-7.69-7.775-6.47-12.924-7.317-12.924.169 0 7.487 13.093 7.317 12.924ZM230.145 258.297c-9.57-8.944-7.589-12.924-8.351-12.924.17 0 8.52 13.043 8.351 12.924ZM251.826 319.073c-1.745 13.296-18.735 54.051-4.997 16.752 5.369-14.381 6.267-29.524 6.098-29.524.169.017-1.051 12.433-1.101 12.772ZM229.281 332.912c-.169.118.221-.339.847-1.626 4.201-10.841-10.993-42.991-12.636-42.991 4.116 0 22.291 32.675 11.789 44.617ZM222.523 314.008c-4.708-8.181-12.5-25.509-12.907-25.509.22 0 3.185 3.489 5.878 7.181 5.065 6.878 7.08 18.497 7.029 18.328ZM215.036 310.959c-8.435-15.905-17.379-20.462-16.803-20.462.17 0 5.946 2.541 8.927 5.15 6.199 5.369 8.063 15.871 7.876 15.312ZM183.548 296.561l-.017.016.017-.016ZM205.601 357.606c0-.016-.016-.032-.016-.032.016.048.016.032.016.032Z" fill="#000"/><path d="M203.381 352.56c15.906 25.442 8.368 56.423 9.825 41.686 1.846-18.869-11.231-44.447-9.825-41.686ZM202.027 342.855c11.907 12.094 10.789 19.174 10.705 19.005-3.219-8.808-1.897-5.709-7.944-14.737-5.37-7.893-1.034-2.507-2.761-4.268ZM275.524 285.704c-.339-6.573 1.88 13.822-.373 25.95-2.151 11.501 1.491-2.778.373-25.95ZM282.095 302.71c1.457-6.013 2.202-9.164.406-.152-.034.169-8.791 34.995-.406.152ZM312.806 322.698c-1.541-.39 28.22 4.641 49.732 3.438 6.572-.356 11.146-.847 10.654-.728-26.085 6.081-42.211 3.116-60.386-2.71ZM326.662 328.541c12.111 3.371 16.125 5.15 20.174 6.2 4.658 1.203 8.198 1.575 7.622 1.575-13.144.085-28.406-8.012-27.796-7.775ZM515.305 323.782c6.488-60.556 11.84-54.593.034 0 .017.034-.034.034-.034 0ZM512.122 317.819c.61-28.016 3.27-39.348 2.711-39.348 1.643 0-2.711 43.261-2.711 39.348ZM486.951 438.507c-3.049-1.254-7.876-6.454-8.096-6.454 1.118 0 2.168 2.423 19.632 8.283.423.153-7.047.034-11.536-1.829ZM489.493 443.267c.356.237-7.911-1.474-16.295-10.18-.881-.898 16.024 10.01 16.295 10.18ZM474.722 436.728c2.574 1.982 9.079 6.657 8.554 6.471-15.702-6.826-14.11-12.365-15.601-12.365.187 0 8.097 6.826 7.047 5.894ZM475.619 442.996c.508.338-6.827-3.1-12.145-7.809-13.721-12.162-15.838-16.075 7.368 4.116.83.644 1.999 1.508 4.777 3.693ZM162.069 501.231c-11.213-10.113-7.436-19.751-8.74-19.751.66 0 .457 8.876 8.774 19.734.017.017-.017.034-.034.017ZM168.743 503.45c-11.315-8.944-7.944-15.686-9.062-15.686 0 0 .017 0 .017.017 3.286 9.062 9.401 15.838 9.045 15.669ZM178.093 508.497c.339.339-4.183-2.659-7.249-7.385-1.931-2.981-10.333-18.87.965-1.88 2.507 3.76 1.931 3.811 6.284 9.265ZM187.68 510.005c-8.029-5.234-21.563-24.612-6.115-7.453.83.898 6.301 7.538 6.115 7.453ZM181.717 496.708c-.017-.017 0-.034.017-.034h.017c36.486 27.712 12.738 16.227-.034.034ZM413.472 506.362s-.016 0 0 0c0 0-.031-.015 0 0ZM402.344 526.943c-5.15 5.15-17.074 2.406-23.918-.203-1.88-.948 19.226 3.422 23.918.203ZM379.527 528.163c.643 0 6.148 1.084 11.145 3.354 1.271.847-12.365-3.354-11.145-3.354ZM385.896 532.72c1.863.626-12.484-3.642-10.824-3.642 2.016 0 8.978 2.862 10.824 3.642ZM381.256 533.77c-18.853-6.301-6.894-3.778.017-.034.033.017.016.051-.017.034ZM573.17 209.971l.033.033-.033-.033ZM520.134 266.36c-.102.542-1.135 5.59-1.135 5.115-.119-5.42.017-12.433 4.285-15.617.339-.22-1.203.152-3.15 10.502ZM511.732 267.783c-.288.288 1.609-1.779 1.321-7.216-1.575-8.165-7.791-15.364-7.961-15.364 2.185.017 15.669 12.603 6.64 22.58ZM515.783 381.017c0 .441-1.931-27.965-3.744-27.965.17 0 4.133 11.01 3.744 27.965ZM508.345 362.571c.373 0 3.998 10.129 3.998 23.697.135-.61-3.185-23.697-3.998-23.697ZM507.006 371.684c2.592 10.383 4.218 32.946 1.271 8.554.135.61-1.525-9.57-1.271-8.554ZM506.159 392.993c-.034.169-.932-13.517-1.558-13.517.22 0 2.625 10.383 1.558 13.517ZM503.621 396.753c-.661-18.598.169-9.265.034 0 0 .034-.034.034-.034 0ZM199.994 550.59c.864-1.406.695-1.101.221-.034a.995.995 0 0 0-.221.034ZM335.502 599.288c1.084 2.558.152-.017-.017-.017 0 0 0 .017.017.017ZM365.112 773.366c-18.904-39.5-24.494-88.775-25.374-88.775 1.338 0 20.631 75.275 28.592 94.433 0-.491 2.083 5.437-3.218-5.658ZM372.379 804.923c-13.788-22.833-22.088-51.171-30.71-78.764-.44-1.745 8.029 21.274 22.918 59.403 11.519 25.053 21.038 41.398 7.792 19.361ZM346.953 760.087c-.136-.576 1.27 3.167 3.879 9.451 22.325 53.967 51.612 110.118 50.782 108.882-22.495-33.335-49.36-101.056-54.661-118.333ZM311.688 682.575c50.714 118.266 33.589 112.71 52.662 206.973 6.047 29.88 12.636 48.055-.542 11.502-18.565-51.256-17.735-82.576-28.965-134.578-5.285-24.645-23.782-86.505-23.155-83.897Z" fill="#000"/><path d="M323.036 709.423c.152.355.22.524.068.152-.034-.033-.051-.101-.068-.152ZM191.88 717.655c-7.961-58.116-5.589-68.008-5.844-68.008.78 0-1.846-.356 3.947 38.705 10.468 70.532 11.044 59.979 15.618 129.97 0 .355-.068-2.507-13.721-100.667Z" fill="#000"/><path d="M199.199 768.606c-.034-.186-.034-.27-.017-.067 0 .017 0 .034.017.067ZM181.26 703.02c.204 0 10.214 41.28 13.094 88.962.864 14.55 2.321 61.098 2.27 60.911-2.829-19.157-11.315-149.873-15.364-149.873ZM185.19 819.423c-.592-16.702-2.252-42.059-2.473-42.059.17 0 11.671 62.131.932 116.775-.017.169 3.286-26.306 1.541-74.716ZM217.153 783.479c.17 0 19.547 70.312 18.328 121.077-.136 5.742-3.185 35.741-3.185 33.911-.965-39.213.441-29.778-2.71-68.533-.965-11.857-12.263-86.455-12.433-86.455ZM216.087 941.923c.914-23.291 1.236-61.488 1.067-61.488.169 0 8.097 40.822-.305 88.437-5.928 33.418-2.185 9.13-.762-26.949ZM223.369 956.879c.084 0-.509 2.728-.017.017 0-.017.017-.017.017-.017ZM293.105 1381.34c-.186-.03-.102-.01.084.02-.033 0-.067 0-.084-.02ZM71.886 1190.07c-5.335 10.61-10.366 12.59-13.398 32.64-1.152 10.66-.88-5.33.203-12.65 1.559-10.37 9.334-15.38 19.056-38.13-.084.17 6.318-17.19 5.76-17.19.169-.02-1.847 15.89-11.62 35.33Z" fill="#000"/><path d="M60.132 1235.6c2.185 1.63 5.827 4.09 8.503 3.54.237-.06-.813 1.02-4.692.16-16.295-3.64-8.825-22.46-9.638-22.45 1.304 0-2.286 12.13 5.827 18.75ZM353.577 576.438c.745 2.49-.204.186-.034-.034 0 .017.034.034.034.034ZM491.17 217.254c-.034-.219-.017-.169 0 .051v-.051ZM201.232 447.772c-.067.525-.05.355-.067.423a2.97 2.97 0 0 0 .067-.423ZM359.251 611.195c0-.033-.017-.05-.017-.084 0 .051 0 .017.017.084ZM56.338 1312.29c0 .01.135.3.152.35a1.805 1.805 0 0 1-.152-.35Z" fill="#000"/><path d="M.102 1305.34c.033-.17 8.79-34.84 6.673-58.13-1.592-16.08 21.512-34.46 38.01-39.22 9.554-2.74 8.606-1.3 24.68-38.72 23.172-56.83 4.946-72.12 35.724-139.06 3.93-8.57 12.534-32.407 27.881-48.16 14.228-14.55 13.652-12.433 12.145-13.669-4.895-3.659-11.518-6.877-9.757-11.468.068-.169 18.057-41.889 23.358-70.21 1.864-9.994 3.693-134.476.898-192.271-2.625-53.763-4.539-71.413 7.453-97.159-28.558-12.789-28.457.05 3.337-72.837-43.617-14.33-37.756-21.088-26.865-88.758.034-.898 1-5.285 1.034-9.824.084-11.535 2.253-5.048-2.253-12.552-3.134-5.234-3.218-3.726 3.523-36.181 1.592-7.673 9.621-20.021 11.484-33.165 2.863-21.225 6.115-16.38 12.789-44.193 8.605-35.521 14.279-30.236 28.609-41.195 9.029-7.216 1.779-2.778 4.235-11.722 4.557-16.583 4.709-13.33 5.387-20.444.847-8.842 4.573-10.214 12.636-7.623 2.422.762 2.1 3.151 1.711-13.771-.119-5.234.88-2.642-6.962-1.508-7.097 1.034-9.198 2.355-13.5 1.931 2.168 1.101 4.81 2.474 7.199 2.27-5.997 2.168-24.375-7.741-31.405-13.872-10.095-8.809-7.944-14.788-11.552-25.646-9.655-29.286-6.301-46.716 1.508-77.782 5.708-22.697-15.99-63.638 40.06-78.256C220.947 8.672 221.422 1.694 253.182 0c17.124-.88 44.616 5.64 51.29 8.757 56.066 20.97 30.608 75.462 30.523 77.122-2.253 7.791 8.283 7.148 9.299 33.809.525 14.008-2.964 14.872-5.318 50.596 2.439 18.971-20.09 20.462-39.62 17.413-3.675 3.743-.525 11.586-1.914 31.997-.017.322-1.338-.119 12.23 2.829 20.97 4.624 21.41 8.858 24.019 16.65 5.522 16.719 1.744 13.771 7.504 18.057 8.774 6.487 12.077 5.031 22.071 16.108 6.47 7.098 9.401 12.467 12.5 15.719 4.608 4.777 9.147 5.709 14.263 11.282 7.927 8.655 7.656 17.768 13.263 21.478.169.101 41.55 31.201 44.701 35.605 1.49 2.1 1.66 4.726 2.235 5.183 5.438 4.133 18.718 11.925 20.056 12.602 7.978 4.032 4.844 4.929 12.263-10.671 19.107-40.246 12.874-39.67 17.227-62.537 7.47-39.23-7.148-17.938-9.147-51.189-.017-.322-2.422-30.574-1.931-34.233 1.254-9.604 11.095-6.403 13.365-11.417 47.055-103.986 39.636-95.178 57.269-89.046 4.167 1.491 33.894 13.314 37.248 19.92 2.287 4.54 5.014 4.116-2.507 18.971-15.702 30.896-3.76 24.663-11.84 45.548-.034.085-.135 4.099-.982 6.776-21.495 69.177-37.706 61.538-44.972 82.897-6.894 20.14 4.539 71.447-3.625 103.851-6.979 27.627-7.995 17.752-18.463 41.804-13.805 31.811-8.08 43.804-87.251-8.757-7.894-5.132-3.54-3.591-8.91-1.677-7.283 2.592-33.369-14.177-33.471-14.008-1.185 1.999-1.304 2.93-2.049 3.54-1.033.847 47.038 20.174 47.733 22.715.356 1.27 1.558-2.033-24.798 58.387 4.658 1.491 1.982 2.88 10.434 5.065 9.164 2.354 10.011 1.44 10.688 2.608.441.763.051 1.796-.881 1.965-.389 3.49-4.725 5.827-7.978 7.165-3.557 1.457-.406-1.406 1.847 5.268 1.761 5.183-4.286 6.505-6.64 8.182-1.101 1.016.508 5.505-4.252 9.502-2.778 2.355-.694-.677 1.44 5.166.864 2.44.542 4.625-1.558 6.268-2.558 2.032-2.152.491-.678 2.71 2.151 3.184 1.372 6.708-.254 10.129-3.489 7.267-17.565 6.505-30.608 5.759-2.626-.152-.305-3.929-15.279 30.388 4.845 18.599 5.539 103.952 28.83 164.068.067.186 59.285 140.539 66.585 201.01.593 5.099-5.623 4.438-10.739 4.438-6.843 0-27.948 3.744-29.541 4.286-12.246 4.2-10.823 1.846-1.964 8.113 16.836 11.857-30.456 10.316-44.515 20.259-24.748 20.97-30.439 14.94-70.465 12.89-49.799 267.12-34.538 236.62-20.953 279.37 16.312 51.22 8.961 47.09 41.263 70.16 34.199 24.22-42.703 38.65-63.368 18.19-17.464-17.18-27.559-50.7-32.793-47.07-4.556 4.55-1.592 16.11-.22 22.71 3.032 11.64 6.182 15.86.169 16.76-2.761.38-13.788-.48-14.872-2.8-1.118-.95-1.05-2.32-1.626-7.76-2.405-24.36-9.503-34.77-12.721-50.9-8.198-40.94 21.546-41.28 27.441-66.99 10.027-44.18-8.605-77.58-16.177-160.19-5.725-62.21 8.487-81.02-2.727-59.74 9.503-15.91-100.022 162.86-109.237 215.9-6.098 34.84-1.71 28.86-8.012 54.46-15.6 62.41 23.596 45.56 12.128 68.16-.322 2.27-.593 3.81-2.812 5.04-4.912.56-6.047 1.07-7.47.92-3.082-.31-27.728-5.69-38.416-15.23-30.592-27.24-6.708-65.5-25.696-88.35-2.626 8.18-1.542 17.4-9.638 41.67-2.169 6.64-3.083 8.54-10.079 5.05-2.354-1.07-4.624-1.71-3.997-5.34Zm94.653 56.02c4.573-12.89-2.304-8.08-9.892-20.53-1.931-3.02 2.523 1.32-6.708 11.97-1.321 1.51-3.557 3.97-5.166 5.15 5.86 2.02 15.634 4.52 21.766 3.41Zm-25.73-4.9c2.439 1 2.439 1.95 6.978-2.74 11.265-11.55 7.132-15.79 4.439-19.7-2.897.79-7.826-1.54-9.977-2.71-8.317-3.05-12.755-13.88-15.889-23.94-7.385-24.02-9.909-26.34-8.69-33.79 5.285-31.73-6.03-47.95-4.776-44.73 4.167 10.87 1.169 25.08-3.727 32.53-7.74 12.4-5.132-3.45-.745 21.45 3.252 18.48-.965 40.55 8.097 56.57 1.846 3.27 3.049 3.87.186 1.55 3.794 5.81 19.497 13.53 24.104 15.51Zm-60.657-49.05c5.081-10.86 3.608-12.47 13.093-45.97-4.64-4.83-6.81-7.05-10.366-10.27 1.66 20.48-3.1 40.11-4.421 46.62-2.084 9.85-3.235 7.13 1.694 9.62Zm25.526-86.42c-1.609-1.38-1.033-1.56-3.557.3-.423.32-12.856 6.05-18.09 20.97-2.982 8.64 12.67 10.05 19.513 23.6 10.654-9.84 16.125-32.98 2.134-44.87Zm106.392-262.739c.017-.135.017-.101 0 0Zm.118-.017c-.017.051-.034.085-.051.136.153.237 3.083-7.097.051-.136Zm86.37-339.805c101.53 45.446 84.49 39.094 85.913 35.791 9.13-20.936 30.439-69.77 39.196-89.859-6.166-.678-12.569-2.49-27.085-5.895-25.645 57.287-23.545 54.017-25.357 53.204-124.059-55.508-116.436-51.273-115.555-53.255 13.466-30.066 12.483-26.932 11.162-27.152-6.708-1.118-13.246-3.083-19.716-5.2-25.527 58.523-23.765 54.406-24.494 56.32-.931 2.507-9.519-2.202 75.936 36.046Zm195.099-110.626c3.286-2.812 2.151-2.05-3.506-3.185-7.589-1.541-6.488-2.507-7.199-1.219-.339 3.777 6.945 4.471 10.739 3.099.661-.44-3.472 3.016-8.3 1.085-2.591-1.034-4.082-3.287-2.337-4.896-13.704-4.455-15.889-8.638-25.341-6.064-5.793 1.559-7.69 3.523-14.143 5.065-5.471 1.321-7.995 2.117-14.195 8.622-10.654 11.179-12.856 10.146-9.502 9.434.897-.22-4.133 1.423-4.743 1.898-.136.135.135-.187.355-.441-.169.034-8.079 2.117-9.892 1.559 3.405 1.067 7.894 1.812 7.301 1.812-30.981-1.372-68.33-11.501-108.712-34.673-39.264-22.478-75.496-18.65-48.614-18.65 19.7 0 12.856 9.452 17.464-23.409 1.897-13.822 6.131-10.129-.17-16.159-2.947-2.846-21.325-12.484-28.541-15.584-11.654-4.709-8.893-2.744-20.699-4.37.322 1.931.406-3.913-1.762 17.057-9.079 87.42-16.769 69.516-.965 81.339 2.405 1.762 76.562 30.998 33.877 13.077-.796-.203 11.433 3.032 24.917 5.573 39.467 7.419 35.706 3.726 65.586 11.586 62.249 16.447 74.31 18.785 91.689 18.598 11.111-.135 45.158 8.097 40.178-6.216-.813-1.677-1.846-2.05-2.422-3.32-13.958 5.098-13.178 1.88-4.574 3.845 2.677.61 6.861 2.287 6.454 2.287-12.687-2.016-11.637-3.219-14.737-2.541-2.811 0 17.43-6.25 17.176-10.316-.152-.982-.711-3.252-1.321-3.387-3.472.203-10.959 4.133-9.469.66-7.097 2.168.898-1.033 9.96-6.182 1.677-1.999 2.355-4.303 2.744-5.76.864-3.387 4.201-2.557-10.79-1.863-1.541 0 15.431-3.93 17.159-5.149.593-.745.627-2.338.559-3.286-.965-5.319-9.841-.779-15.278-4.404-1.915-.305-5.709-13.822-19.565-8.791-.355.186 2.711-2.27 7.233-2.27 9.757 0 10.959 9.485 11.62 9.485 4.641-.05 13.737 2.033 21.766-3.946Zm-20.699-158.19c-2.795-17.887-25.391-14.635-41.906-45.785-5.014-9.469-6.504-14.245-9.723-18.887-2.659-3.404-8.892-10.281-9.062-10.281.17 0 9.52 6.775 16.177 17.633 3.032 4.912 2.557 4.268 2.439 3.828-2.219-8.402-.796-12.907-4.692-18.226-2.931-3.506-5.065-4.099-4.506-4.099.169 0 4.98 2.642 7.487 6.64 2.575 4.099 2.253 8.994 4.438 20.174 4.167 6.555 3.625 5.454 3.625 5.013-4.083-19.75-.813-19.157-1.626-19.157.677 0 2.286 20.513 2.405 20.682 21.546 26.966 37.417 23.646 40.686 41.449 1.728 9.57-1.405-2.795 13.5-6.488-13.466-9.96-11.365-9.689-15.939-13.263-5.793-4.268-5.454-3.133-7.775-6.267-3.421-4.607-4.539-15.685-16.396-23.646.898 1.185 8.181 10.823 8.3 10.993.203.305-3.947-2.931-17.108-18.006-13.5-15.296-13.704-23.646-46.141-35.165-.186 4.066-2.744 5.895-.119 7.606.271 12.585 7.165 14.55 10.875 49.766 3.93 10.62-8.622-3.608-25.713-17.041-27.627-21.004-27.661-25.001-30.388-40.517-1.084-3.438-2.32-6.098-.118 1.135.135.542-1.372-3.066-2.829-5.369-.695 2.151-7.318-3.761-11.789 10.417 5.386.051 7.944 2.236 11.366 5.251.796.525-5.268-3.693-11.417-5.065-9.35 29.914 2.422 21.715-28.321 8.097-34.437-15.211-26.984-16.786-38.519-8.046 16.447-2.084 43.058 12.45 52.239 40.449.864 2.626 1.389 7.504 1.253 7.115-6.436-20.53-29.964-38.197-47.953-41.754-29.422-2.388-19.649 16.938-29.101 39.653 28.457-40.212-6.877 14.584-12.602 39.874-.898 4.031-2.524 7.758 4.133-5.014.322-.915-1.152 8.096-7.029 17.785-.356 1.559-.593 2.694-.593 2.389-.068-1.864.898-2.744-4.692 5.742-4.828 21.851-8.029 28.321-8.978 37.553 18.887-.39 57.134 11.959 63.3 29.727 1.169-4.048.728-7.995 2.575-15.651 3.235-13.399 4.167-11.078-.695-14.872-33.928-24.477-74.445-23.206-45.328-23.206 18.904 0 42.804 15.007 49.614 25.442 1.981-4.489 14.736-24.917 11.874-52.324-1.881-13.178-7.403-26.068-7.572-26.068.169 0 11.4 14.889 13.517 31.929 1.897 15.38-8.927 36.215-1.795 21.072 6.182-13.06 32.674-58.828 30.049-84.981-1.051-6.793-6.064-18.226.914-4.337 12.806 25.357-26.593 83.067 3.811 34.149 3.032-4.862 5.726-10.926 5.556-10.926.17 0-.186 6.572-5.403 18.904-7.199 16.938-9.52 14.296-1.897 9.858 19.733-11.518 5.115-2.947-8.791 12.822.423.085-.187-.169 7.47 3.253 5.352 2.388-28.932-12.958 115.877 51.883-.83-3.981 26.39-31.964 23.036-63.842Zm-109.22-136.322c.186-39.06 8.588-5.183-24.375-33.098-26.559-3.489-22.037-21.766-27.931-21.394 10.4 17.21 26.763 48.919 11.162 23.613-.644.881-1.05-.288 2.287 4.353 9.248 12.789 11.467 17.447.017 1.457-4.32-6.03-2.473-4.997-5.234-3.286-1.44.881-1.05 2.388-3.422 4.641-1.999 1.948-1.778.932-9.316 5.59-9.486 5.843-9.215-2.711-7.809 9.451.712 5.184 1.575 16.126-1.44 20.259-2.49 3.388-8.977.881 31.049 13.314 31.794 9.824 24.137 15.77 28.694 28.203 8.554 17.582 17.464 16.04 37.587 34.859 9.858 9.181 11.687 15.55 10.197 10.265-6.301-22.02-7.775-39.687-21.8-50.579-3.286-2.422-12.213-10.349-12.484-10.349.203 0 5.776 3.337 5.657 3.1-3.15-6.979 2.457-2.033-7.588-16.82.135 3.116.322 6.182.678 9.146-5.387-13.466-5.997-20.97-5.929-32.725Zm-64.858-59.184c2.355 24.595 21.004 28.017 21.563 28.762.796-.389 1.355.508-4.489-7.114 3.947 3.845 9.791 12.552 2.643-.068-5.878-10.383-7.03-16.921-7.674-16.888-6.131 0-8.791-5.081-9.333-5.081-3.049.017-2.964-2.338-2.71.389Zm-44.921 11.417c6.132 34.233 37.248 29.931 29.185 29.931 7.809.711-20.953-5.319-29.185-29.931Zm31.624 32.454c-26.678 0-32.115-28.406-24.137-7.757 2.557 6.589 7.91 8.113 7.673 8.842-3.625 0-20.259-11.841-26.238-26.035 3.286 21.292 25.171 31.201 43.905 26.577 12.551-3.1 5.098-1.627-1.203-1.627ZM148.433 419.62c-.305 2.456-.288 1.931.288-.084a1.494 1.494 0 0 1-.288.084Zm127.446-168.674c-.745-.678-1.355-.78-2.286-.814-3.659 1.017-.034.153 2.286.814Zm-16.295 18.666c1.525-6.979 7.606-22.969 14.534-21.156-7.504-4.98-55.966-16.973-54.136-21.36-2.981-3.134-.593-1.287.525-.627.169-.101-.203.034-.203-.864 0-.609-2.135.61.135-.677.254-.695.39-.542 1.338-1.931-10.248-3.506-6.911-2.88-10.468 14.584-3.303 15.973-10.282 12.247 8.334 22.647 2.897 1.609 22.291 7.063 33.132 15.888 5.522 2.982 4.252 4.997 6.809-6.504Zm-52.34-18.345c.034.373.085.559.017.017l-.017-.017Zm.017-.017c-.017-.186-.034-.22-.017-.016 0 .016 0 .016.017.016Zm-1.694 4.811c-.711.745-.694.576.254.203-.101-.067-.169-.135-.254-.203Zm119.976 49.715c1.813 1.711 2.998 2.93 6.335 6.098-4.116-4.184-2.828-2.897-6.335-6.098Zm6.945-52.188c-7.317-26.594-1.795-6.25-3.354-.051 4.184 1.355 3.964 2.236 3.354.051Zm-35.419-20.36c1.61 1.863 6.996 1.677 10.994 16.498 2.117 7.758 11.755 12.535 14.601 16.38-.847-10.316-1.813-17.972-.22-24.883 2.218-9.655 4.488-7.877.491-9.689-12.907-5.268-18.277-4.624-24.951-6.623-.711-.237-1.05-1.796-.915 8.317Zm43.143 284.602c38.654-86.353 22.342-49.901 26.475-59.132-127.988-57.304-90.808-40.653-112.794-50.494-10.705 23.9-21.394 47.8-32.099 71.701 7.673 2.676 86.997 44.769 118.418 37.925ZM224.301 397.482c.864-1.66 1.948-3.998.237-.593a6.315 6.315 0 0 0-.237.593Zm25.408-30.964c-26.136 41.652-31.184 65.349-38.417 74.021-4.387 5.302-3.235-3.861-6.995 20.632-2.27 14.431-3.032 11.366 1.067 12.788 7.571 2.727 7.961 3.083 14.042 5.116 35.029-78.257 32.691-73.361 33.2-73.632.948-.61 116.741 51.442 116.961 52.272.186.678 1.694-3.116-26.17 59.184 4.607-1.66 7.436-4.574 10.535-7.572 12.467-12.026 6.691-7.859 22.173-11.738 3.591-1.491 9.198-2.981 6.809-2.389-1.507.373-4.082 7.318 24.46-58.065-127.413-57.032-157.563-70.787-157.665-70.617Zm71.549 191.118c-5.353-1.219-122.483-25.814-122.67-25.848l-10.823 24.188c-1.627 3.642-12.874-2.795 111.693 52.933 25.323-56.625 23.29-50.934 21.8-51.273Zm94.399-36.757c.254-.203.271-.22 0 0 0-.017 0 0 0 0Zm0-.017c-.119.102-.153.119 0 0 0 .017 0 .017 0 0ZM172.266 311.01c-1.118 4.946 1.033-3.506 1.101-5.183-.356 1.71-.729 3.54-1.101 5.183Zm70.329-308.3c-1.152.186-.17.05.508-.017-.169.017-.339 0-.508.017Zm36.384 39.907c-4.387 15.38-20.072 29.61-9.926 22.14-.661.44 1.694-1.136 4.726-4.744 7.351-13.686 19.513-33.69 9.469-46.123-.017-.017 0-.034.016-.034 1.102 0 3.591 6.064 1.677 1.202-3.489-7.25-10.281-8.808-13.889-7.453.152.187 15.651 7.81 7.927 35.012Zm31.963-5.708c-3.946-12.873-13.314-24.883-28.101-29.32 5.573 6.605 6.809 9.417 7.876 14.533 3.541 1.236 17.718 11.89 20.225 14.787ZM274.456 6.521c3.219 0 .136-.677-4.488.034 1.71 1.525.525-.034 4.488-.034Zm-4.59-.067c3.269-.932 5.031-.424-1.22-1.44-1.507-.187-.914-.424 1.22 1.44Zm1.067 58.946c-.948.627-.813.457-.22.406.085-.135.152-.27.22-.406Zm-1.202.762c-.373.203-.475.119.491.203-.17-.067-.339-.135-.491-.203Zm54.051-41.737c-4.083-4.878-15.719-12.043-16.583-12.433-7.589-3.421 12.788 3.88 19.394 23.918 1.881 5.674 4.201 19.7.458 28.524-.186.729 4.539-37.942-33.928-54.864-8.097-2.998 13.601 2.422 18.175 27.78 14.838 17.938 11.738 40.415 13.246 33.064.034-.305.051-.695-.051-1.321 0-.255.966 1.067.559 2.625.559-1.05.644-2.795-.61-4.946-.186-.288 1.118.745 1.813 1.71.322.458 1.05 2.39.881 2.39.203 0 3.845 4.539-.746 6.13.932 1.796 2.406 3.372 4.32 6.217 2.337-5.335 3.963-4.827 4.912-17.175-4.099 19.276-1.88 3.743-1.745-6.115.305-18.142-1.795-24.561-10.095-35.504Zm-7.911 45.277-.034.034c0 .017.051-.034.034-.034Zm-.034.051-.033.034c.017-.017.033-.017.033-.034Zm10.689 4.336c.948-2.998-.356.034-1.254.492.136.338 1.186-.322 1.254-.492Zm-.017.034c.152-.186.305-.39 0 0 .017-.017.017-.017 0 0Zm.389-1.643c-.017.102-.017.102 0 0Zm-3.895 2.846c-.458.034-.221-.102-.238.559.475-.17.407-.068.238-.559Zm2.964 6.166c-4.337-6.42-1.288-4.845-2.101-1.406-.389 1.643-.982.711 1.034 1.32 1.677.526 2.337 1.949 1.067.086Zm-3.828-7.657c.305-.203.203-.745.169-.914-.694.592-.644.203-.169.914ZM301.728 180.65c45.886 3.574 31.455-3.963 35.622-45.446 2.439-25.459 1.507-34.284-9.469-50.663-.813-1.576-4.303-3.557-4.641-2.541-.492 1.507-.898 1.168-.373 1.168 1.338 0 2.151 1.101 1.965.966-2.168-1.406-3.879.339-3.066.508 2.134.458 1.507 2.524 1.44 1.762.169.17.288-1.338-2.744-1.237-2.439 3.896-6.471 3.456-10.587 2.236-5.539-1.643 5.082 1.423 6.098-4.472-.102-2.286-.542.017-2.117.017-1.305 3.625-5.641 1.677-4.438-.745.474-.966 1.456-1.745 2.591-1.152.458-1.863 2.592-1.1 1.779-1.457-5.81-1.524-7.47 3.27-5.624 5.81 1.034 1.101-2.083-.338-1.27-4.658.762-4.167 9.926-4.471 10.231 1.101.22 4.049-5.776 5.827.068 3.524 5.776-2.27 7.656-12.569-2.423-11.756-8.469 1.525-6.826 4.252-9.248 11.756-.729 2.168-2.524-15.211 8.943-15.211 1.83 0 1.542-.627 1.169-2.05 0-.322 1.965.898 1.271 2.389 2.168-.593 1.355-1.135.728-1.644-3.201-2.185-4.235-1.643-8.69-.288-.169.034 4.421-4.065 8.47-1.558 1.812 1.118 1.931 2.727 1.202-1.135-.084-.17 2.88 1.084 2.423 4.066 1.897-.983-3.558-12.942-4.438-14.907-1-.559-1.83-.863-2.982-.592-1.101.542-5.42 5.843-6.673 10.671 0 .186-.153-.39-.221-.593-.575 1.101-.762 1.541-.762 1.406-.017-2.32-1.202-14.889 3.981-14.889.457 0 .965.407.915 1.338 3.929-2.592 6.182 2.507 1.693-5.115-6.995-11.857-4.2-7.877-12.416-16.041-15.99-15.838-4.268-8.097-11.467 10.044-3.828 9.605-12.806 19.937-16.464 24.477 4.404.067 7.486 2.795 9.045 6.589.068.186-.983-.56-2.185-1.304 1.846 2.202-7.47-.238-10.367-1.085-.101.12-.389.492-.322.34.204-.356.593-.441-1.88-.865-3.201-.101-.593-.186-6.657 9.283-1.422 2.236-1.507 1.897-.609 2.303 1.863.746.592-2.778 7.673-4.319 6.064-1.287 10.451 4.895 10.282 4.777-6.878-4.387-8.47-3.27-8.3-3.303-4.184.542-11.298 2.744-5.59 4.387 8.91-3.778 13.771 1.999 16.786 4.404 5.437 3.963-.017-.491-.271 3.354.085.372.61 1.389.271.88.169.17-.83-.626-.237-1.914.44-.914 1.135-.88.779-.999-.034 0-.068-.017-.085-.017-3.269-.356-4.827-4.184-10.976-3.54-12.45 1.965-7.436 5.03-12.772 8.757-.796.56 3.727 2.084 5.234 2.66 2.643.305.204.355-.271-2.812-.372-2.71 1.593-6.386 4.591-6.877 1.355-.22 5.454 1.084 6.487 3.997 1.593 4.421-5.81 7.2.593 4.658 1.677-.745 5.387-3.066 7.927-2.727-6.436 3.405-7.063 5.946-11.027 6.301-3.675.322-4.183-.372-4.793-.152-1.423.627-3.066 2.287-2.71 1.948 2.151-2.473 5.047-2.558-1.711-1.965-1.677.339-2.372 1.897-2.236 1.457 1.372-3.185 5.844-1.897 1.558-2.592a6.67 6.67 0 0 0-1.744-.017c-1.44.254.338-.779 1.033-.982-1.592-.729-4.099-.458-5.387.83-.169.254.508-1.61 3.49-1.61 1.118 0-.305.051-1.83-1.66-2.134.95-4.726.153-4.404.153.898-.034 4.116-.406 3.862-.982-2.388.542-2.981.27-5.454-.627-.237-.153 1.914.305 3.93.084 3.049-.66-.678.373-2.084-2.422-7.876 9.3-18.92 10.197-13.838 29.745 0 .254-2.423-3.575-2.575-9.384-.237-9.113 7.504-11.57-2.101-6.2-.491 12.23 7.945 20.174 6.454 18.683-16.939-13.72 1.762-22.799-11.772-15.82-1.914.965 14.855-9.266 26.458-26.475 24.866-37.045 17.226-73.785 18.209-49.427.271 6.826-.695 12.551-1.999 18.819 4.794-12.298 9.706-34.216-1.406-41.28-.559.491-.643.508-.559.44.407-.44 1.135-.372-1.948-1.863-7.266-2.896-15.685-1.44-20.377-1.524-4.336-.085-5.42-.525-12.263-.424 4.065 1.186 8.503 4.15 8.079 4.032-7.351-3.236-14.025-4.32-19.073 1.829-.88 1.372-17.158 36.858-16.007 33.42 8.199-32.488 15.33-36.79 9.774-32.116.694-.525-4.709 3.219-8.859 12.924-6.674 16.21-18.395 58.015-18.395 55.898 9.096-66.992 29.1-70.007 29.795-71.04 1.592-2.338 3.642-2.457-7.131 3.15-24.9 13.009-34.098 11.857-38.519 52.544.966-5.861 3.371-21.004 7.385-26.12-4.2 9.045-3.015 23.613-5.115 38.298-2.778 19.192-8.249 46.294 1.592 3.964.779-3.354 2.66-13.28 2.473-13.28.17 0-.474 7.894-1.355 13.162-4.184 24.882-15.177 40.94-11.095 68.279.136-9.096 1.474-17.769 2.999-26.17 8.384-46.344-2.457 12.145 4.234 42.516 1.525 6.826 5.861 14.194 10.045 19.767 9.35 12.06-1.05-1.236-4.862-10.265-12.433-29.456 1.931-32.657 1.254-67.415-.576-33.522-.424-73.734 27.999-91.994-2.32 2.473-8.469 4.81-14.347 18.04-5.623 13.432-6.961 17.446-8.503 44.955-2.371 42.448-7.199 58.997 3.388 22.596 6.911-23.68 4.81-25.086 9.773-44.329 8.131-31.505.881-5.352-1.168 24.307 3.201-11.636 4.37-21.529 4.133-21.529 2.524 0-7.826 46.361-8.639 49.207-6.555 23.206-8.283 44.532-.864 68.33-13.585-23.053-9.384-45.734-10.959-34.724-2.659 20.699 6.233 35.91 18.209 42.889 2.625 1.524.61 1.643-5.725-10.129 1.948 1.744 20.174 23.527 40.449 16.972-16.092 2.981-26.255-3.93-35.148-16.024 4.083 2.49 13.026 12.552 34.301 12.552 3.777 0 8.334-.153 11.197-3.015 2.625-2.609.135-.119-5.455-.119-14.025 0-27.644-15.075-29.354-27.271 4.709 9.943 21.935 25.459 34.876 24.171-21.495-7.114-23.494-22.409-26.932-38.298-.576-2.592.525.61-5.708-9.181.372 10.265 5.555 22.292 8.283 26.492.423.644-12.196-10.434-8.724-27.152-5.793-9.164-2.829-20.056.559-23.985 22.003-25.612 30.947-56.508 38.976-90.588.356-.254-.915 25.831-8.097 47.055 4.929-12.043 7.657-17.599 8.741-32.674.254 25.39-18.718 56.185-28.627 66.755-8.537 9.113-5.589 2.947 2.558 7.555 4.336 2.439 2.778 5.03 2.05-2.101 0-.271 1.998 8.639 14.465 18.666 1.474 1.017 2.592 1.644 2.304 1.559-14.195-4.303-11.078-12.653-19.513-16.532-5.539-1.863-7.724-1.203-11.705 3.777-1.711 2.744-.356.254 1.304-.779 10.13-6.386 16.702 12.026 13.28 6.979-4.251-6.251-4.675-1.948-5.302-.559 0 .982 2.541 2.761 3.862 4.471 3.236 4.303-7.91 3.032-5.386-6.165.423-1.559 1.44-1.271-.237-2.338-1.982 12.907-8.3 7.182 8.147 17.549 5.776 3.658-1.778 5.149.441 3.845 3.201-2.846-6.691-2.795-12.586-8.012-6.03-5.421 7.131-14.127 1.643-14.212-1.575.441-.305 3.744-2.083 4.049-.949.169-1.406-.949-1.592-1.914-2.778 3.421-3.219 6.301-4.388 11.196 1.677 3.811 5.709 7.199 12.552 15.719 3.794 4.76 7.673 8.656 11.434 3.845.677-.949 2.456-3.438 2.862-4.539.458-1.203.068 1.71-.796 3.862 16.803 24.103 6.606 18.801 27.61 29.269 5.268 1.83 29.05 2.744 36.825 3.354Zm10.722-98.938.101.186.017-.017c1.288 1.457 3.236-.135 3.117-.423-1.829-3.828-4.031.779-3.235.254Zm1.321-27.305c.254-.102.203-.102 0 0Zm-.017 0c-.119.05-.119.05 0 0Zm-4.252-1.372c-.542 1.406-.271.61.864-.288-.186-.525-.237-1-.864.288Zm-57.083 36.977c4.523.372 2.135-.085.644-1.423-1.101 1.406-1.457 1.27-.644 1.423Zm3.015 3.1c.136.169.102.186.729-.187-.237.068-.475.119-.729.187Zm2.812-6.64c2.338.084-1.219-1.152-1.982-2.321-1.71 2.54-1.998 1.762 1.982 2.32Zm3.032-2.71a5.974 5.974 0 0 1-1.795-.983c-.102.118-.356.373-.271.254.305-.644-.61-.644-.932-1.931-2.253 3.49-3.591 3.472 2.998 2.66Zm7.453 7.791c.559.728 1.796.983 2.795.136-.44.83-1.169 1.168-2.05 1.016-.321 1.355-1.253 1.931-2.252 1.931-3.117 0-2.541-3.98-.509-3.98 1.135 0 1.186.914 1.406.237.576-1.83 2.355-1.102.475-1.982-4.523-1.576-7.318 3.81-4.235 7.453 13.585.965 3.879-11.281 4.37-4.81Zm-57.574 29.439c-1.084 3.473-.983 2.999-.898 4.743.915 3.913-.119-.22.898-4.743Zm40.348-92.298Zm-.61 6.538c-.153 1.322-.305 2.643-.474 3.93.169-1.287.321-2.608.474-3.93Zm265.259 162.916c.017 0 .017 0 .017.017 0-.017 0-.017-.017-.017Zm-15.736 21.563c-1.288 2.642-1.457 2.236-.271 2.456 1.084-2.66 1.422-2.067.271-2.456Zm-4.32 7.266c-.068.712 41.703 21.512 44.43 21.512 3.727 0 17.278-36.519 17.447-35.334-.864-6.199-13.432 30.473-15.143 30.016-3.1-.83-43.651-20.581-43.82-20.631-.424.846-2.304 4.149-2.914 4.437Zm42.194 24.104c.627 1.304 4.879 1.541 7.132-.034 1.405-1.202 13.906-27.864 13.195-30.235-.983-3.168-14.042 31.353-14.855 30.218-3.202.61-4.337.271-9.046-2.422-21.529-12.111-75.732-36.401 3.574 2.473Zm-35.91-30.964c-1.372 2.897-1.304 2.236 1.085 2.609.626.152-2.304-.102-1.135.339 1.101.372 13.889 6.097 18.243 8.028 26.153 11.586 22.037 11.095 24.019 6.759 16.82-36.808 13.449-39.704 18.971-42.296 28.118-62.825 26.255-56.575 23.494-57.506-.271-.085-35.063-15.465-37.096-16.6-3.947-2.185-1.372-4.641-29.88 59.099-18.463 41.415-6.487 14.11-3.133 15.448.034-.051.084-.119.118-.17l.017-.017c.017 0 .017.017.017.017-.017.068-.051.119-.085.187 6.708 3.049.966 25.306-14.635 24.103Zm45.972-104.867c-4.184-.457 1.118-6.741-41.212 89.639 2.914-1.304 37.621-86.725 40.551-85.523.17.085 41.127 17.108 40.924 18.345 2.134.948 2.693-2.117-23.951 57.473 2.439-.407-.678 4.522 15.346-30.439 14.296-31.218 19.09-29.626-4.302-38.722-4.692-1.846-24.358-10.349-27.356-10.773Zm17.159 81.712.017.017c-.017 0-.017 0-.017-.017Zm8.808 24.375c8.046-18.921 3.269-18.463 4.641-34.945.356-4.793.44-4.285-.017-4.116-3.032 1.491-5.928 10.79-5.353 13.992.085.982.847 3.184.712 2.998-1.287-1.796-.695-2.304-1.254.423-.542 6.166-2.083 8.554.881 11.027-.169-.169-.356.61-1.948-1.27-1.44 5.522-3.625 2.219-2.354 11.705 1.592 9.18.762 9.553 4.692.186Zm-5.844-10.113c1.643-2.659 1.338-3.201 1.507-5.301-2.049 4.709-1.931 3.98-1.507 5.301Zm26.932-70.922c-1.304-4.353 1.999-9.434-27.372 56.813-1.118 2.557-1.017 1.643-.949 5.183.068 3.286-.457 3.252 2.964-4.065 2.202-4.692.813-11.671 6.877-16.685 1.83-1.541 19.48-38.18 18.48-41.246Zm-13.059 54.441c.338-2.202.626-18.903.576-18.734-2.999 6.826-1.796 2.507-1.948 11.857-.068 6.945.338 13.72 1.372 6.877Zm-52.053 150.72c.237-67.399 1.457-59.556 11.264-69.99 17.667-18.701 22.495-35.402 24.274-38.858 2.473-4.793 2.032-1.761-.085-27.694-.983-12.162-.068-11.197-.119-11.535-.118-.661-2.015.863-2.795 1.829-3.218 4.709-1.677 21.851 1.982 17.464.424-.627-1.118 3.099-3.777-.661-.864 10.604 4.184 10.773 3.455 10.773-4.573-1.253-1.998-2.49-2.947.796-1.745 5.996-1.101 1.237-11.434 23.426-1.202.763-1.676 4.235-6.301 5.692-7.707 2.49-11.044-11.214-21.004 9.57-1.829 4.438-.016-9.503 8.639-13.28-44.21-21.258-40.585-16.752-34.284-31.37-.83-.661-1.236-1.321-1.067-1.203 1.406 1.288 1.152 1.135 2.219-1.457 1.169 0 .187.441-3.083-3.201-.355-.237 2.084 1.287 3.49 1.914 9.096 3.286 22.443-12.433 17.43-19.395-1.017-1.151 2.219 4.489-12.857 11.18-14.042 6.182-13.415-4.421-10.4 32.674 1.406 19.158 2.32 16.278 7.809 26.713 9.011 17.226 5.538 4.641.05 62.656-3.15 33.453-22.596 47.055-29.845 72.497-2.507 8.723-2.711 9.519-2.711 9.316 3.015-46.75 19.039-15.804-24.984-48.868-3.608-2.693-2.168-4.184-9.266.068-2.998 1.812-19.022 24.883-20.106 43.871-.22 4.082-3.455 3.286 15.414 14.72 87.895 48.004 60.539 47.225 87.878-4.116 14.787-27.729 13.077-50.816 13.161-73.531Zm-141.2 63.317c3.659 2.659 16.244 9.57 21.936 11.738-6.369-12.704 3.201-37.959 12.297-49.867 15.55-22.207 29.1-5.048 2.49-24.527-5.048-3.727-3.879-4.387-8.842-.763-11.823 9.486-8.402 18.955-14.669 32.777-7.978 25.255-17.718 27.051-13.212 30.642Zm23.443 25.628c2.846 3.354-26.966 59.708-23.121 59.234 15.753-1.965 3.15 19.463 35.114-53.865-3.998-1.795-7.995-3.574-11.993-5.369Zm-42.855 131.105c-16.684-.966-9.333-7.945-35.503 52.086-18.565 42.55-17.294 36.96-13.331 36.757 14.229-.78 6.843 7.436 48.834-88.843Zm82.237 394.923c-2.066.424-2.71.492.068.305-.034-.101-.051-.203-.068-.305Zm-241.9 314.724c.051.44.051.28-.017-.11.017.04.017.07.017.11Zm-.017-.14c.017.17.017.15 0 0Zm104.511 85.57c-8.384-4.25-6.436-6.48-18.971-.11-4.811 2.49-8.723 6.64-9.198 15.73-.288 5.34-.44 4.2 6.742 5.13 41.347 5.9 32.149-15.24 21.427-20.75Zm-97.651-39.39c7.047-22.36.525-18.65-8.232-40.4-2.846-4.37-1.846-3.56-5.132 1.05-7.403 10.3-5.438 20.29-2.812 31.89 1.711 7.57-1.338.87 12.568 6.64 4.557 1.9 3.269 2.12 3.608.82Zm-.373 5.08c-4.539-2.22-9.655-3.78-12.551-4.27-1.525-.17-.457-1.22 4.014 14.68 9.046 32.02.085 28.24 10.536 29.83-2.354-.29 2.219.38 4.167.32-13.856-49.79 9.096-33.04-6.166-40.56Zm-8.689-47.52c-1.05-2.42-.813-2.05-1.457-1.11 1.711 1.37 1.779 1.89 1.457 1.11Zm89.537 72.64c-16.836 2.22-15.176 9.36-24.289 4.77-8.436-4.21-37.808-28.18-41.331-32.93-7.537-6.94-11.467-25.32-11.095-17.81.559 10.26-2.337 16.07-2.574 16.43-.576.86-1.203.18.525 1.13 22.41 7.15 27.559 51.63 61.775 56.68 6.826.84 4.489 1.67 4.912-3.46.847-9.64 4.929-16.28 17.074-19.75 5.641-1.68 3.456.49-4.014-5.69-.254.32-.61.58-.983.63Zm-65.721-94.01c-1.881 14.55 2.32 17.19.152 14.36-7.876-10.38 3.727-30.83-2.388-76.04 6.03 67.69-20.276 71.18-19.361 79.31 1.423 7.83 7.775 17.36 10.654 21.73 11.942 18.19 9.147 20.18 18.904 27.7-.17-.14 13.991 9.67 25.052 20.78 15.025 10.35 12.297 8.55 17.04 6.42 21.157-9.35 12.67 5.76.61-25.61-.068-.17-17.836-54.07-20.208-64.84-4.709-21.43 9.079-168.05 27.153-229.99 2.591-8.88 9.638-12.76-38.586-20.45-7.267-.69-30.456-3.81-36.977-5.55-11.231 93.33 28.524 172.41 17.955 252.18Zm-35.673-270.766c4.539 6.267-5.844 8.232 43.312 14.936 23.426 2.88 61.961 2.93 61.826 3.78 16.854 1.25 26.221 4.27 34.301 3.32 8.012-1.13 25.069-5.93 28.982-12.957 7.08-12.653-6.708-7.657-20.378-51.748-12.348-40.788-12.314-94.805-16.295-111.591 2.999 9.773 8.927 69.194 18.481 97.735 16.396 48.936 21.241 40.704 26.576 54.221 4.286 11.078-9.13 8.537 22.817 1.812 20.648-4.336 17.243-3.218 7.114-9.553-6.301-3.981 2.168-9.282 9.485-10.824 47.7-10.095 40.958 2.626 36.385-21.749-31.811-124.668-68.636-156.106-79.256-236.887-6.132-45.632-6.81-72.988-11.01-102.885-17.752 40.721-12.078 10.502-3.998 91.757 2.541 25.696 3.269 37.078 7.131 55.88 0 .17-6.318-10.942-15.515-97.515-2.88-27.051-.204-18.328-10.248 1.744 0-.169-1.948 2.355-8.605 2.965-4.54.44-8.351.084-10.705.982-.288.119-.729.119-1.118.085-.288 1.558-1.813 2.608-3.778 1.727-82.897-37.112-64.451-32.234-122.449-42.041-22.274-2.727-18.632-3.439-19.987 5.708-8.114 71.6 3.387 208.21.914 255.096-2.354 46.073-33.454 74.851-27.728 79.357 22.985 17.396 45.548 15.262 53.746 26.645Zm-93.671 214.446c3.066-5.63 6.59-19.33 13.788-37.52 17.007-42.84 76.953-126.11 76.495-131.38-1.541-19.53-34.707-59.639-53.543-53.22-33.911 41.26-45.92 140.93-56.117 169.18-.34.93-21.275 53.22-22.36 54.83-5.69 8.56-6.334 7.58-23.408 14.62-3.016 1.29 2.608 1.17 9.79 15.08 4.54 8.81 8.96 29.01 5.928 41.65-.965 3.84-.626 4.79 2.44 14.63 10.688 34.54 6.894 33.68 16.667 39.57 2.236 1.34 4.252 2.46 6.708 2.61-4.387-9.15 5.607-55 6.504-60.33 1.711-12.84 2.168-22.65 4.421-34.41.034-.18 5.675-34.18 3.49-14.8 2.371-7.15 3.201-9.57 9.197-20.51Zm-8.604 161.51c.745-.38.203-.09-1.457.32a6.463 6.463 0 0 0 1.457-.32Z" fill="#000"/><path d="M292.26 1362.51c0-.02 0-.02 0 0-.031.03 0-.02 0 0ZM42.075 1234.69v-.05c-.016.02 0 .03 0 .05ZM288.804 288.278c-25.882-19.14-25.052-17.599-24.883-17.599 8.656 0 60.403 46.344 24.883 17.599ZM204.516 410.897c-12.449-15.211-21.579-18.616-20.241-18.616.186 0 11.01 5.912 19.987 17.921 5.929 7.894-.491-.338.254.695ZM190.846 403.613c-14.466-11.941-14.415-10.823-14.178-10.823-.677.034 9.215 2.388 27.915 23.206.373.372-6.979-6.827-13.737-12.383ZM172.943 395.415c3.422-.102 16.837 10.858 20.055 14.008 1.694 1.66 3.49 4.269 3.202 3.896-9.198-10.485-23.443-17.904-23.257-17.904ZM167.523 397.77c8.199 2.286 16.803 8.892 23.172 14.55.644.644-13.297-9.554-20.174-12.535-6.318-2.574-19.157-6.521-2.998-2.015ZM234.956 145.333c-.948 4.523-9.96 2.456-7.741-2.862 1.762-4.133 8.707-1.389 7.741 2.862Zm-1.778-1.304c.017.136.017.119 0 0 0-.017.017-.017.017-.034 0 .017-.017.017-.017.034v-.034.034s-.017.017 0 0c-.017.017-.017.017 0 0-.017.017 0 0 0 0Zm-4.133-1.372c-1.22 1.762 1.168 3.422 1.473 3.422.17-.932 2.948-1.271 2.592-2.355-.678-1.423-3.049-2.168-4.065-1.067ZM569.613 125.193c1.118 0 1.118 1.694 0 1.694s-1.118-1.694 0-1.694ZM573.016 127.412c.237 0 5.455 2.05 5.268 2.761-.457 1.677-8.452-2.761-5.268-2.761Zm-.101 1.271c-.034-.017-.017-.017-.051-.017.017 0 .034.017.051.017ZM560.633 121.67c.644-.373.966.339 3.761 1.541 4.421 1.779 1.846 2.202 1.558 2.067-2.473-1.203-7.182-2.439-5.319-3.608ZM519.695 234.244c1.118 0 1.118 1.694 0 1.694s-1.118-1.694 0-1.694ZM542.391 116.859c-.016.047.016-.031 0 0ZM360.115 377.494c6.758-16.498 1.66-22.257-5.946-31.946-.305-.441 10.384 6.115 12.349 14.567 3.709 16.058-15.923 38.027-16.939 39.433-1.135 1.118 6.233-12.772 10.536-22.054Z" fill="#000"/></g><defs><clipPath id="a"><path fill="#fff" transform="matrix(-1 0 0 1 599 0)" d="M0 0h599v1388.93H0z"/></clipPath></defs></svg>