<svg width="342" height="342" fill="none" xmlns="http://www.w3.org/2000/svg"><path d="M170.965 342c94.422 0 170.965-76.559 170.965-171 0-94.44-76.543-171-170.965-171C76.544 0 0 76.56 0 171c0 94.441 76.544 171 170.965 171Z" fill="#CDC6BE"/><path d="M170.965 338.28c-44.672 0-86.668-17.394-118.261-48.994C21.11 257.686 3.719 215.682 3.719 171c0-44.681 17.391-86.685 48.985-118.285C84.297 21.115 126.293 3.72 170.965 3.72c44.673 0 86.668 17.395 118.262 48.995 31.593 31.6 48.984 73.604 48.984 118.285 0 44.682-17.391 86.686-48.984 118.286-31.594 31.6-73.589 48.994-118.262 48.994Z" fill="#1D1D1B"/><path d="M170.965 334.58c-43.692 0-84.747-17.006-115.646-47.911S7.418 214.7 7.418 171 24.421 86.236 55.319 55.33c30.9-30.904 71.954-47.91 115.646-47.91 43.692 0 84.747 17.006 115.646 47.91 30.898 30.906 47.901 71.97 47.901 115.67s-17.003 84.764-47.901 115.669c-30.899 30.885-71.975 47.911-115.646 47.911Z" fill="#CDC6BE"/><path d="M170.966 330.86c-42.69 0-82.826-16.638-113.03-46.827-30.184-30.19-46.818-70.334-46.818-113.053 0-42.699 16.634-82.843 46.818-113.033 30.183-30.19 70.319-46.828 113.03-46.828 42.71 0 82.826 16.638 113.03 46.828 30.183 30.19 46.818 70.334 46.818 113.033s-16.635 82.842-46.818 113.032c-30.204 30.231-70.34 46.848-113.03 46.848Z" fill="#1D1D1B"/><path d="M170.964 327.161c-41.709 0-80.905-16.25-110.394-45.745C31.082 251.921 14.835 212.697 14.835 171c0-41.718 16.247-80.921 45.735-110.416 29.469-29.495 68.685-45.745 110.394-45.745s80.905 16.25 110.394 45.745c29.488 29.495 45.735 68.719 45.735 110.416 0 41.718-16.247 80.921-45.735 110.416-29.489 29.495-68.705 45.745-110.394 45.745Z" fill="#CDC6BE"/><path d="M170.965 319.741c-39.727 0-77.063-15.473-105.162-43.557C37.704 248.099 22.255 210.735 22.255 171s15.47-77.079 43.548-105.184C93.882 37.732 131.238 22.26 170.965 22.26c39.727 0 77.063 15.473 105.162 43.557 28.079 28.085 43.549 65.449 43.549 105.184s-15.47 77.079-43.549 105.184c-28.099 28.084-65.455 43.557-105.162 43.557Z" fill="#1D1D1B"/><g clip-path="url(#a)"><path d="M179.62 99.612c.268-1.063-.682-4.566.576.009.105.379.143.227-.576-.009Z" fill="#D2F9FF"/><path d="M158.651 99.225s0 .003.003.003c.012.094.003.061-.003-.003Z" fill="#FFBC85"/><path d="M178.506 101.774c-.489-.661-2.147-1.483-2.511-2.817-.691-2.55-1.615-2.518-1.891-2.839-.024-1.74.035-1.468.16-1.43 1.145.343 2.072.233 4.292 1.139.685.309.294.006-.085 1.667-.273 1.189-.11 2.506.035 4.28Z" fill="#D2F9FF"/><path d="m158.363 100.049.043.035c-.163.061-.166.093-.043-.035ZM158.654 99.222s0-.003-.003-.003c-.003-.035-.003-.03.003.003Z" fill="#FFBC85"/><path d="M220.137 89.577c4.586-10.251 4.487-9.721 4.12-9.887.035-.213-7.014-3.141-7.043-3.156-.501-.207-6.474 14.488-6.976 14.712 7.282-16.58 6.37-15.501 7.09-15.42.513.076 3.899 1.536 4.706 1.853 4.024 1.565 3.196 1.294.74 6.662-2.751 6.014-2.217 5.169-2.637 5.236Zm1.419-11.44c-.006-.003-.003-.003-.009-.003l.009.003Zm-1.466-.941c-.478-.207-.536-.33-.647-.266-.32.201.49.414.912.621.05.023.493-.05-.265-.355Zm.898.34c-.193 0-.193.292 0 .292.192 0 .192-.291 0-.291Zm.585.382c-.547 0 .828.764.907.475.032-.122-.869-.475-.907-.475Z" fill="#C0F2FF"/><path d="M212.468 87.062c4.904-10.965 4.464-10.545 5.14-10.166.349.195 6.334 2.838 6.381 2.855.475.157.796-.915-4.039 9.893-.947.443-.37.94-3.263 7.276-.344.746.367.83-4.132-1.163-.752-.335-2.949-1.317-3.138-1.381-.201-.076.303-.032.195-.058-.411-.062-.423.05-.187-.45 2.681.208 3.669-3.621 2.518-4.14.003-.011.009-.02.015-.032 0-.003 0-.003-.003-.003 0 0-.003 0-.003.003l-.021.03c-.577-.237-2.64 4.458.537-2.664Zm-.971 2.832s0-.003 0 0c0-.003 0-.003 0 0 0-.003 0 0 0 0Z" fill="#1DBAFF"/><path d="M211.79 90.086c.005 0 .005 0 .005.005 0 0 0-.005-.005-.005Z" fill="#FFBC85"/><path d="M176.242 65.123c.108-.221.117-.14.149-.05-.195.155-.242.292-.149.05ZM166.941 72.018a1.76 1.76 0 0 0 .125-.032c-.107.064-.102.06-.125.032ZM167.084 70.473c.128.201.743.414.341.4-.685-.094-.635.04-.341-.4ZM169.228 71.75c-.04-.548.338-.318.461.037-.166.129-.367.085-.461-.037ZM166.422 71.484c-.142-.026-.078-.003.111-.244.259.23.67.308-.111.244ZM159.17 77.633c-.015-.3-.032-.222.154-.816-.174.775.003 1.486-.154.816Z" fill="#D39F5B"/><path d="M168.48 72.58c-.528-.627-.05-1.553.728-1.282.324.151.018.023-.081.34-.038.117-.047-.04-.242-.04-.353 0-.452.685.087.685.172 0 .333-.1.388-.333.14.027.259-.029.335-.151.119.367-.035.862-1.215.78ZM167.591 70.284c-.015.023.029-.024.047-.044.09.07.198.128.309.17-1.134.136-.901.142-.516-.458.055.221.212.221.16.332Z" fill="#D39F5B"/><path d="m155.3 151.642 1.862-4.161c.032.006 20.182 4.237 21.103 4.447.256.058.606-.918-3.751 8.82-21.431-9.586-19.496-8.479-19.214-9.106Zm2.104-.926c.012-.003.026-.003.038-.006.082-.186.111-.236-.038.006Z" fill="#EAD7AC"/><path d="M197.65 118.698c1.221-.731.974-.475 1.594-.011 7.573 5.687 4.817.364 4.298 8.406 0 .035.035-.102.466-1.603 1.248-4.379 4.593-6.716 5.135-12.471.944-9.98 1.541-7.815-.009-10.778-.944-1.795-1.102-1.3-1.343-4.596-.196-2.377-.33-3.616-.3-4.289l.002.018v.008l-.002-.026c.049-1.133.574-.664 2.089-1.331 2.596-1.149 2.037-2.119 2.211-1.924.863 1.198-1.433 3.902-2.998 3.337-.242-.108-.661-.37-.6-.33.562.627.731.551.53.551-.183.446-.143.472-.382.25-.029-.02.041.094.184.208-1.084 2.514-1.711 1.74 5.898 5.396-1.489.65-1.798 3.045-1.486 2.285 1.713-3.576 2.287-1.218 3.613-1.647.795-.25.877-.845 1.084-.979 1.777-3.817 1.666-2.998 1.967-4.03.163-.565-.28-.35.507-.137.125 0-.743-.029-.595-1.853.455.647.72.006.65.114-.629.754-.895-2.194-.341-3.004.134-.166.46-.429.481-.315.006.058-.152-.108.02 1.984.367 4.461.44 3.94.015 4.764-.306.595-1.137 3.468-4.176 6.685-1.684 1.795-1.897.449-1.938 12.04-.014 3.908.28 7.876-2.264 12.643-4.7 8.829.003 8.966-15.117.708-3.246-1.966-2.689-1.829-2.651-2.532.186-3.26 2.943-7.226 3.458-7.541Zm21.913-27.443c-.003.02 0 .012 0-.006.003 0 .003.003 0 .006Zm-9.674 6.93c.029 0 1.098 1.238 1.369 2.642.047.936-.28 1.291-.227 1.242 1.553-1.72-.764-3.885-1.142-3.885Zm1.684 5.725c-.003-.003-.006-.006-.009-.006.006 0 .006.006.009.006.058.128-.373 2.104-.475 6.763 0 .665.731-6.614.475-6.763Zm1.448-3.899c.006-.005.006-.005 0 0-.737.551-.758 1.758-.74 2.69 0 .082.178-.784.195-.88.28-1.486.51-1.775.545-1.81Zm-1.375 11.688c0 .003.006.006.006 0 2.031-9.389 1.11-10.414-.006 0Zm-.341 5.746c-.073-.428-.149-.711-.225-.711.012 0 .111.254.225.711.23 1.352.419 4.155.419 4.1.047-1.856-.215-3.296-.419-4.1Zm-.169 4.968c-.006-2.106-.516-3.724-.656-3.997-.011-.03-.023-.047-.032-.047.006 0 .018.017.032.047.169.422.635 3.633.656 3.997v.035c.003-.005.003-.017 0-.035Zm-.7-1.002c.505 4.196.225.315-.218-1.472-.044-.174.242 1.577.218 1.472Zm-.364 2.194c.146-.431-.09-1.661-.21-2.133-.02-.116-.04-.189-.058-.189.009 0 .029.073.058.189.099.554.204 2.156.21 2.133Zm-.437.647c0 .006.006.006.006 0 .023-1.594-.12-3.199-.006 0Zm-.883 7.497c-3.004-1.008-3.185-1.424-3.377-1.424.038 0 .868.894 1.393 1.11.772.32 2.057.341 1.984.314Zm-1.547.505c-.05-.03-2.958-1.906-2.803-1.752 1.442 1.498 2.864 1.792 2.803 1.752Zm-2.541-1.125c.152.134-.798-.685-1.11-.938-.029-.05-.058-.076-.099-.076.006 0 .043.029.099.076.148.247.329 1.072 2.584 2.051.091.032-1.031-.772-1.474-1.113Zm-1.935-.265c.915.81 2.18 1.401 2.089 1.343-.477-.373-.678-.525-.821-.635-3.992-3.471-3.628-2.801-1.268-.708ZM161.585 124.377l.041-.102c.295-.585.108-.183-.041.102ZM147.144 220.865l.009-.024c.522-1.197.018.064-.009.024ZM152.634 109.502c.064-.283.131-.601.189-.892-.011.289-.384 1.743-.189.892ZM148.534 128.185c.018-.002.032-.008.05-.014-.096.344-.102.437-.05.014Z" fill="#FFBC85"/><path d="M168.223 118.252c.021.009-.099-.043-.11-.049-.003 0 0 0 0 0 .005.003.035.017.11.049l-.107-.049c-1.32-.589-1.216-.545-1.285-.56 2.392-2.715 4.907-4.187 1.512-2.205-1.308.763-.909 1.218.326-1.696.901-2.122.959-3.252.93-3.252.029 0-.437 1.046-.956 1.879-5.23 8.415 1.544-1.509-.656-5.874-1.203-2.393-.341-.423-.157.746.455 4.499-4.103 12.369-5.169 14.619-1.224 2.605.638-.979.309-3.625-.365-2.932-2.296-5.493-2.326-5.493.03 0 .979 2.218 1.303 4.485.495 4.717-1.702 8.228-2.043 9.001-1.171-1.795-5.283-4.377-8.535-4.377-5.008 0 1.964-.219 7.798 3.992.836.653.679.254.119 2.558-.317 1.317-.241 1.996-.442 2.693-1.061-3.057-7.641-5.178-10.89-5.114.161-1.588.714-2.701 1.545-6.46.961-1.46.795-1.308.807-.988 0 .05.041-.143.102-.411 1.011-1.667 1.265-3.22 1.209-3.059-1.148 2.2-.868 1.559-.711.862.988-4.35 7.063-13.777 2.168-6.859 1.626-3.905-.055-7.232 5.006-6.822 3.095.615 7.142 3.654 8.249 7.183.024.067-.067-.772-.215-1.224-1.58-4.816-6.154-7.316-8.987-6.958 1.988-1.504.703-1.233 6.626 1.384 5.289 2.34 3.261 3.753 4.872-1.393.924.207 1.836.787 1.962.871l.002.003c.018.012.015.009-.002-.003-.586-.518-1.026-.891-1.953-.9.769-2.439 1.909-1.422 2.028-1.792.248.396.507 1.017.487.924-.382-1.244-.166-.787.02-.195.469 2.669.475 3.359 5.228 6.97 2.943 2.31 5.102 4.758 4.423 2.931-.638-6.058-1.821-6.396-1.871-8.561-.451-.294-.011-.609.021-1.308 5.58 1.981 5.615 3.418 7.937 6.049 2.264 2.59 2.978 3.15 2.943 3.097a740.51 740.51 0 0 1-1.428-1.891c2.037 1.367 2.232 3.275 2.821 4.068.399.539.341.344 1.338 1.078.783.615.422.568 2.742 2.282-2.565.635-2.026 2.762-2.323 1.116-.559-3.063-3.293-2.492-6.999-7.131-.02-.029-.277-3.275-.399-3.54.014-.023.014-.02-.015-.02.006 0 .009.008.015.02-.053.087-.292.58.265 3.278 0 .076.093.265-.624-.862-.376-1.924-.32-2.766-.763-3.471-.431-.69-1.259-1.142-1.288-1.142-.096 0 .271.102.775.705.67.915.428 1.69.807 3.135.021.073.102.187-.419-.658-1.148-1.868-2.754-3.033-2.783-3.033.029 0 1.101 1.183 1.559 1.768.553.799.81 1.617 1.672 3.249 2.841 5.359 6.729 4.799 7.209 7.877.577 5.483-4.108 10.297-3.963 10.985-15.871-7.11-19.237-8.617-19.826-8.882Zm-10.087 8.311c-1.545-2.066-3.407-3.083-3.439-3.083-.23 0 1.341.586 3.482 3.202-.125-.175.979 1.242-.043-.119Zm.058.999c-2.623-2.92-4.24-3.727-4.683-3.928-.146-.09-.137-.061-.119-.061-.021 0 .02.018.119.061.222.137.81.557 2.32 1.798 1.162.956 2.427 2.194 2.363 2.13Zm-1.443-.46c.05.064-.259-.382-.55-.67-.554-.545-2.862-2.428-3.45-2.41-.032 0 2.418 1.276 4 3.08Zm-4.414-2.328c1.183.51 3.581 2.267 3.47 2.156-1.095-.973-2.578-2.11-3.986-2.503-2.783-.775-.574-.096.516.347Zm7.34-.953c-.251 2.532 1.046-2.795-1.69-7.171-.242-.475 2.008 3.925 1.69 7.171Zm-1.923-8.841a.156.156 0 0 1 .011.012c.038.075.158.271.467.725 1.04 1.553.813 1.02 1.366 2.535.015.029.204-1.186-1.833-3.26v-.003c.175.175-.069-.143 0 0-.005-.003-.008-.003-.011-.009Zm.88-8.124c-.513-.446-1.507-.886-1.536-.886-.099 0 1.44.781 2.891 3.52.035.099-.286-1.707-1.355-2.634Zm.425-1.227c.07 0 1.408 2.981 2.221 4.389.008.029-.338-1.97-1.207-3.153-.466-.635-.976-1.236-1.014-1.236Zm1.355-.035c.286 0 2.897 5.531 2.174 7.396-.108.221-.175.3-.146.28 1.807-2.055-1.32-7.676-2.028-7.676Zm6.096 3.101c.003 0 .003.011.003.026 0 .085-.023.364-.053.694-.102.944-.373 2.68-.999 4.356-2.366 6.416.557-.595.86-2.882.005-.038.084-.848.139-1.474.041-.371.053-.621.053-.694 0-.017 0-.026-.003-.026Zm5.088-.647c.309-1.55.18-1.005-.07.026-1.443 5.994.064.003.07-.026Zm-1.265 1.562c.388-2.087.006-5.595.064-4.464.123 2.532-.087 4.446-.16 5-.038.224-.029.21 0 0 .02-.114.049-.291.096-.536Zm-1.92-7.046c-.026-.012-.018 0-.012 0h.012c.105.047.752.428 4.269 3.027 6.098 4.934-2.751-2.992-4.269-3.027Zm14.724 22.169c.174-.242 3.552-4.021 2.914-6.784-.338-1.454-2.177-2.584-2.125-2.506 1.309 1.667 2.186 2.658 1.023 5.496-.74 1.597-2.008 3.986-1.812 3.794Zm.839-10.878c.096 0-.513-.064-1.311-.271-.697-.18-1.387-.486-3.471-1.066-.105-.041 2.521 1.352 4.782 1.337Zm1.39-1.751c-3.704.204-8.823-.659-8.555-.591 3.129 1.002 5.903 1.512 10.388.469.084-.024-.703.061-1.833.122Z" fill="#D2F9FF"/><path d="M147.133 220.844c.002-.017.002-.023 0 0Z" fill="#FFBC85"/><path d="M156.556 147.388c.227.038.396-.501-1.92 4.671-.152.341-1.463-.387 19.878 9.161.312.14-.049.703 4.362-9.152 2.498.586 3.599.897 4.66 1.014l-6.743 15.458c-.248.568 2.684 1.664-14.779-6.157-14.701-6.579-13.224-5.767-13.06-6.204.125-.329-.178.379 4.213-9.688 1.11.367 2.235.705 3.389.897Zm24.159 11.705-.003-.003.003.003c.181.426.035.027 0 0Z" fill="#748CC1"/><path d="M216.542 99.18c.139.196 2.386-5.743 2.555-5.198.122.408-2.028 4.995-2.27 5.202-.387.274-1.119.23-1.227.005-13.642-6.687-4.318-2.505-.614-.425.81.466 1.005.525 1.556.417Z" fill="#9CD9E8"/><path d="M220.281 89.883s.005 0 .005.004c-.005 0-.005 0-.005-.004ZM209.085 93.796c.195.067.137-.035-.047.422-.204-.038-.172.032.047-.422Z" fill="#FFBC85"/><path d="M218.986 92.668c-.029-.204-2.36 6.079-3.001 6.079-.469 0-7.652-3.579-7.643-3.7.105-.053.428-.619.501-.764.029.008 7.008 3.406 7.538 3.549.294.078 2.456-6.23 2.605-5.164Zm-6.585 3.628c-.193 0-.193.291 0 .291.192 0 .192-.29 0-.29Z" fill="#C0F2FF"/><path d="M223.278 86.278c.009-.029-.041 2.844-.099 3.223-.178 1.177-.245.015-.236-1.183.026-1.611-.18-.868.335-2.04ZM221.731 92.246c-.51-.426-.245-.837-.152-1.897.097-.47-.005-.379.216-.073.02.032-.108-.344-.122-.516-.099-.55.402-2.15.92-2.407.079-.026.065-.116.003.708-.239 2.836.586 2.757-.798 6.012-.679 1.611-.533 1.547-.81-.035-.216-1.632.157-1.064.405-2.014.277.327.309.193.338.222ZM220.793 92.336c-.073-.227-.094-.105.259-.912-.029.364.023.455-.259.912Z" fill="#FFBC85"/><path d="M221.063 90.101c-.588 1.259-.498 1.265-.509.7-.012-.607-.03-.452.163-.892 5.052-11.396 4.484-10.522 4.709-9.773.169.527-2.868 6.83-3.179 7.095-1.041.86-.805 2.06-1.184 2.87Z" fill="#9CD9E8"/><path d="M194.728 115.411c.857-.623.653-.51 1.521.131 4.578 3.351 2.247.397-.428 4.22-1.565 2.048-3.212 6.393-2.116 8.578-.979-.376-3.144-1.562-3.773-2.019-.775-.618.9-.927 2.27-5.271 1.081-2.378.489-4.007 2.526-5.639Z" fill="#D2F9FF"/><path d="M176.49 62.35c-.431-.499-2.87-2.332-3.479-2.544-.184-.877-.396-1.364-1.355-2.5 2.544.763 4.155 2.829 4.834 5.043ZM169.607 67.25c-.011.024-.026.047-.038.071-.103.009-.126.038.038-.07ZM169.401 67.382c.029.011.055.023.084.035-.166-.015-.148 0-.084-.035ZM171.728 58.383c-.003 0-.005.003-.003.006 1.728 2.14-.364 5.58-1.628 7.935-.525.62-.927.892-.813.816-.006.006-.012.008-.021.014-1.704 1.25.976-1.188 1.728-3.823 1.332-4.68-1.334-5.99-1.364-6.023.621-.233 1.79.035 2.39 1.282.329.84-.099-.207-.289-.207Zm-1.494-1.142c-.003 0-.003 0 0 0 .008.003.017.003 0 0ZM169.211 56.862c1.075.175.772.088.209.248-.364-.32-.466-.28-.209-.248ZM178.526 69.055c.003-.115-.041-.091.041-.097.027.085.038.067-.041.097Z" fill="#D39F5B"/><path d="M179.15 69.244c.787-.271.161-1.055.129-1.055.029 0-.096-.332-.152-.411-.119-.17-.344-.347-.312-.294.219.373.204.673.105.85.07-.268-.096-.495-.096-.451.015.108.012.175.009.227-.257 1.265.274-2.602-2.279-5.688-.583-3.231-2.78-4.578-3.316-4.851.047.02.108.043.19.072 6.617 2.911 5.804 9.567 5.836 9.439.641-1.519.242-3.931-.079-4.907-.845-2.559-2.992-3.91-3.508-4.197l.172.08c.146.066 2.151 1.299 2.853 2.138 1.428 1.882 1.789 2.987 1.742 6.105-.023 1.698-.405 4.367.3 1.052-.166 2.124-.443 2.033-.845 2.954-.335-.484-.585-.755-.749-1.063Zm1.146-3.823c-.225-1.967-.018-.318-.196 1.188-.102.738-.477 2.104-.413 1.918.728-1.617.722-2.148.609-3.106Zm.02 3.365c0-.003 0-.003 0 0 0-.003 0 0 0 0ZM176.974 65.36c-.021.008-.021.008 0 0Z" fill="#D39F5B"/><path d="M178.603 107.826c-3.462-3.24-4.995-2.972-6.466-5.996-.784-2.14.533-3.162-4.937-4.852-6.885-2.139-5.769-1.708-5.341-2.29.519-.711.37-2.594.248-3.485-.242-2.093-.291-.621 1.343-1.626 1.297-.799 1.256-.627 1.603-.962.408-.387.341-.647.589-.798.475-.295.157-.472.9.565 1.97 2.75 1.588 1.952-.003-.25-.574-.796-.504-.595-.393-.75 2.683 4.354-.131-1.1-1.921-4.062 1.014-.064.236 3.08 4.805 3.68 5.674 4.803 4.226-1.025 4.193 5.695-.011 2.022.094 3.316 1.02 5.635a20.845 20.845 0 0 1-.116-1.573c1.728 2.543.766 1.692 1.305 2.893.018.04-.941-.533-.973-.533.05 0 1.582 1.363 2.148 1.78 2.409 1.874 2.663 4.913 3.75 8.701.256.9-.059-.192-1.754-1.772Zm-8.305-11.21-.006-.005.006.006Zm-4.114-8.05c.04 0 .107.428.853 1.328 2.859 3.462-.824-1.329-.853-1.329Zm2.366 3.555c-.604-.802-1.571-1.755-1.926-2.084-.073-.076-.123-.12-.137-.12.005 0 .055.044.137.12.684.702 3.557 4.26 1.926 2.084Zm.209 1.098c.184.175.627.54.607.597-.003.003-.006.003-.006.006-.032-.003-.094-.006-.067.003.032.009.052.006.067-.003h.008s-.002-.003 0-.006c.216-.28-5.402-5.183-.609-.597Zm-1.532-.804c.029 0 2.797 2.608 2.797 2.666-.084.006-.049.012-.251-.03-.032-.008.07.065.283.091.583.105-2.582-2.727-2.829-2.727Zm2.756 3.58c-.897-1.138-2.328-2.319-2.389-2.319.067 0 4.715 5.29 2.389 2.32Z" fill="#FFBC85"/><path d="M178.955 68.83c.154-.079.379-.6.216-.085-.012.03-.193.143-.216.085Z" fill="#D39F5B"/><path d="M179.002 108.602c.603.55.381.329 1.089 1.049-.574-.545-.778-.755-1.089-1.049Z" fill="#FFBC85"/><path d="M167.655 102.38c-.437 1.979-.222 1.632-1.166 1.119-1.864-1.518-5.201-2.456-5.699-2.733-3.203-1.79-2.002-1.151-1.434-3.896.612-3.004.038-3.112 1.801-2.509-.163.24-.187.213-.23.332-.391.222-.024.01-.024.117 0 .154.065.131.035.148-.195-.113-.603-.434-.09.108-.318.755 8.022 2.818 9.313 3.675-1.201-.312-2.247 2.436-2.506 3.639Zm-6.501-4.17c.003 0 .015.018.035.044.041.17-.009.86 1.402 2.18.026.017-1.189-1.88-1.402-2.18-.006-.029-.015-.044-.035-.044Zm1.233.38c.003 0 .023.031.052.08.064.246.111 1.038 1.204 2.143a77.06 77.06 0 0 0-1.204-2.142c-.012-.053-.026-.082-.052-.082Zm.897.133.006.006c.017.038.009.306.656 1.282.416.635.687.834 1.299 1.696.172.227-1.844-2.85-1.955-2.978-.003-.006-.003-.006-.006-.006Zm2.378 1.912c-.166-.222-1.139-1.428-1.18-1.428.029 0 .256.659.99 1.655 1.431 1.938 2.063 2.25.19-.227Z" fill="#D2F9FF"/><path d="M164.732 56.466c.029-.003.058 0 .088-.003-.117.012-.286.035-.088.003Z" fill="#D39F5B"/><path d="M165.776 87.458c-.097-.128-3.305-.717-3.71-4.948-.044-.469-.058-.064.466-.064.094 0 .551.874 1.606.874.111-.008.309 1.12 1.32 2.906 1.23 2.17.221.673-.455.011 1.006 1.309.909 1.154.773 1.221Z" fill="#FFBC85"/><path d="M154.339 84.475c1.32 3.945 5.699 5.114 5.21 5.154-.035-.003-.096-.008-.19-.008.094.008.152.011.19.008.504.064-4.228.344-5.21-5.154Z" fill="#D39F5B"/><path d="M156.947 90.244c.04-.125-.88-.388-1.32-1.521-.204-.53-.359-.868-.455-1.067.411.636 1.848 2.401 4.607 2.401 1.084 0 2.366-.253.21.28-3.223.799-6.991-.909-7.553-4.572 1.029 2.445 3.89 4.479 4.511 4.479Zm-.991-.207c.003.003.003.003 0 0-.02-.009-.023-.009 0 0Z" fill="#D39F5B"/><path d="M170.458 99.17c-.399-.115-1.025.034-.393-.14.16.008.265.023.393.14Z" fill="#FFBC85"/><path d="M178.445 68.547c.006.03.023.12-.029.158-.082-.126-.09-.059.029-.158ZM163.112 80.777c0-.003.003-.003.003-.006 0 .003-.003.003-.003.006ZM165.688 57.329h-.017s-.003 0-.003-.003c.006.003.014.003.02.003Z" fill="#D39F5B"/><path d="M176.015 80.232c2.031-.198 2.462.344 1.917-.038-.341-.236-.862-.146-.382-.236.236-.047.528-.058.854-.207.134-.061.082-.035.265-.084.997-.266.761-.464.828-.111.51 2.669-3.844 2.547-5.327 1.352-1.562-1.148-.011-.222 1.845-.676Zm.239 1.422c-.012-.003-.029-.003-.044-.006.015 0 .032.003.044.006Z" fill="#E26969"/><path d="M163.829 81.459c.149-.37.216-.871.137-.665-.07.187-.376.618-.492.781-.647.828-1.315.158-1.967-.661-1.177-1.466-1.868-2.049-2.159-2.704.201-.842.276-1.338.754-1.926.032.163.111.355.274.329.306-.052.088-.62.359-.697.944.015-1.323 1.513-.283 2.445 1.014.898 2.716.889 2.165 1.379-.382.224.918-.03-.076-.662-2.829-1.783-1.742-.798-1.401-3.019.285.184.11.134.04.402-.434 1.583 1.484 1.804.927 1.061-.224-.297-.664-.6-.664-.77.107-.238.18-.978.912.097.588.868-.542-2.3-2.285-1.2-.285.177-.519.608-.224.133.687-.856 1.06-.967 2.013-.65 1.451.67.915 2.107 3.357 2.845.05.017-.143-.09-.396-.268-2.148-1.728-2.489-3.258-2.489-3.212.126 1.227.394.781-.352.362-1.402-.796-1.909.265-.44-1.3 1.704-1.818 4.968-7.115 4.924-11.483-.186 2.593-.655 3.549-1.503 5.62.571-1.69.926-3.563 1.133-5.078-.006.04-.009.081-.014.122.005-.04.008-.082.014-.123.242-1.756.292-3.036.257-3.012-1.385 5.865-2.92 11.177-6.705 15.583-.58.676-1.09 2.55-.096 4.126-.598 2.879 1.573 4.785 1.5 4.671-.472-.72-1.363-2.791-1.425-4.557 1.07 1.684.883 1.133.982 1.58.595 2.735.936 5.366 4.633 6.587-2.226.225-5.189-2.444-5.999-4.158.294 2.098 2.64 4.692 5.049 4.692.965 0 1.39-.429.939.02-.496.492-1.277.519-1.926.519-3.66 0-5.196-1.731-5.901-2.16 1.533 2.081 3.281 3.27 6.046 2.757-3.49 1.128-6.623-2.62-6.958-2.92 1.09 2.026 1.437 2.005.985 1.743-2.06-1.204-3.593-3.817-3.133-7.378.274-1.894-.448 2.008 1.886 5.973-1.277-4.097-.979-7.762.148-11.754.137-.49 1.921-8.465 1.486-8.465.041 0-.16 1.702-.711 3.703.353-5.105 1.6-9.6.202-4.181-.854 3.307-.49 3.552-1.682 7.626-1.821 6.262-.991 3.415-.583-3.887.266-4.733.496-5.423 1.463-7.734 1.011-2.276 2.069-2.678 2.468-3.103-4.886 3.138-4.915 10.059-4.816 15.825.116 5.98-2.355 6.53-.216 11.597.656 1.553 2.442 3.84.836 1.766-.719-.961-1.465-2.226-1.728-3.4-1.151-5.225.714-15.287-.728-7.314-.262 1.445-.496 2.937-.516 4.502-.702-4.703 1.189-7.466 1.909-11.746.151-.906.262-2.264.233-2.264.029 0-.292 1.707-.426 2.284-1.693 7.282-.751 2.62-.274-.682.362-2.526.158-5.029.88-6.588-.69.88-1.101 3.485-1.27 4.493.763-6.999 2.343-6.8 6.626-9.039 1.853-.964 1.501-.944 1.227-.541-.12.177-3.564.696-5.146 12.226 0 .361 2.016-6.827 3.164-9.616.717-1.672 1.644-2.313 1.524-2.223.956-.804-.268-.064-1.681 5.525-.198.591 2.599-5.513 2.754-5.75.868-1.057 2.016-.873 3.281-.314.076.018-.688-.492-1.39-.694 1.177-.017 1.364.059 2.11.073.807.018 2.255-.233 3.505.263.53.253.405.244.335.32-.015.015 0 .009.096-.076 1.909 1.215 1.067 4.986.242 7.102.221-1.061.385-2.034.344-3.185.175-1.656-.082-2.055 0-.053v.053c-.192 1.81-.901 5.12-3.133 8.45-1.996 2.96-4.88 4.717-4.551 4.554 2.328-1.2-.889.362 2.025 2.722.257.256-1.195-1.11-1.11-3.214 1.652-.921.32-.501.361 1.066.026 1 .443 1.655.443 1.615-.874-3.363 1.026-3.517 2.381-5.117.242.48.886.3.358.416-.347.038-.717-.04-.676-.014.426.157.528.201.938.108.044.096-.509.16-.664.169-.055 0 .391.137.758-.026.265.294.507.285.314.285-.515 0-.632.32-.6.277.222-.222.653-.268.927-.143-.12.032-.426.213-.178.17.102-.013.198-.01.3.002.74.12-.032-.102-.268.446-.023.076.096-.192.385-.25 1.162-.103.664-.088.294.337-.058.059.224-.224.466-.335.105-.038.193.079.825.026.682-.06.79-.498 1.897-1.084-.437-.058-1.073.341-1.364.47-1.098.437.175-.041-.102-.802-.178-.5-.883-.725-1.116-.687-.516.084-.854.716-.79 1.183.079.547.502.539.047.483-.259-.096-1.037-.361-.9-.457.918-.641.055-1.169 2.197-1.507 1.057-.11 1.326.548 1.888.61l.014.002c.062.02-.058.012-.134.172a.294.294 0 0 0 .044.332c.053.08-.035-.09-.049-.154.043-.662.982.105.046-.577-.518-.414-1.358-1.407-2.887-.758-.982-.282.244-.661.961-.754-.029.006.245-.187 1.428.568.029.02-.723-1.043-1.769-.822-1.218.265-.996.871-1.32.743-.154-.07-.14-.011.105-.396 1.043-1.632.595-1.617 1.145-1.597.423.073.359.087.324.149-.009.026.038-.035.055-.059.501.146 2.104.563 1.783.187.207.128.385.254.376.224-.271-.652-.798-1.124-1.556-1.133.63-.781 2.174-2.559 2.833-4.21 1.238-3.121-.778-4.45 1.972-1.729 1.414 1.405.933.723 2.136 2.76.772 1.311.385.434-.291.88.011-.16-.079-.23-.158-.23-.891 0-.687 2.162-.684 2.56 0 .024.032-.049.131-.241.011.038.038.134.038.102.215-.828.961-1.742 1.148-1.836.198-.046.341.006.513.102.151.338 1.086 2.395.763 2.564.079-.512-.431-.728-.417-.699.129.665.108.388-.207.195-.696-.43-1.486.274-1.456.268.766-.233.944-.326 1.494.05.111.087.248.18-.125.283.122-.257-.219-.47-.219-.411.065.245.111.352-.201.352-1.972 0-1.663 2.99-1.538 2.617.417-1.29.134-1.763 1.591-2.022 1.734-.14 1.41 1.632.417 2.022-1.009.393.026.09-.012-.606-.053-.959-1.632-.906-1.76-.19-.14.744.396.991.218.802-.314-.437-.029-1.262.968-1 .14.062-.227-.07-.306.251-.195-.102-.364.032-.446.198-.207.42.539.752.764.128.271 0 .346-.399.364-.003-.172 1.014-2.002.487-1.049.77.711.21 1.401.285 1.821-.385.522-.017.501.242.472.213.012.13.119-.225-.248-.303-.14-.03.155-.33.528-.088.032.02-.108-.166-.338-.166-.091 0-.024.058.064-.2.058-.179.661.165.798.436 1.888 2.818 2.049 4.336 1.629 8.716-.714 7.136 1.766 8.432-6.128 7.818-1.337-.105-5.431-.263-6.326-.583-3.596-1.804-1.844-.892-4.735-5.038Zm-1.742-.947c-.382.915 1.168 1.267 1.331.492.166-.734-1.028-1.206-1.331-.492Zm-.688 7.217c1.043.65 1.926.848 1.801.808-1.166-.525-3.337-1.816-3.89-2.885-.041-.061.428 1.049 2.089 2.077Zm4.54-20.528c-.216.402 1.098-1.384 1.127-4.414.006-.513-.137-1.28-.224-1.667-.006-.155-.029-.242-.07-.242.009 0 .035.093.07.242.05 1.06-.606 5.277-.903 6.081Zm-5.633 16.446c-1.291-2.427-1.288-3.78-1.305-3.712-.219 1.946 1.553 4.088 1.305 3.712Zm-.807-.734c1.958 3.406-.726-1.177-.845-2.049.018-.081.058-.058-.009-.058.003 0 .003.003.003.003 0 .014.003.035.006.055-.032.14.012.598.845 2.049Zm-2.322-10.904c.043-.026.784-2.069.938-3.63.688-6.79-.967 3.647-.938 3.63Zm1.602-6.311c.204-.968-1.602 9.848-.51 4.289.475-2.41.764-6.347.51-4.29Zm-.588 8.132c-.347.732-.729 1.381-1.294 2.582-2.407 5.137 1.541 10.417 1.527 10.382-2.929-6.49-2.162-8.47-.408-12.378.221-.495.16-.682-.187 1.99 0 .035 1.355-3.465 2.197-8.342.271-1.574.679-6.006 2.078-9.398.041-.072.423-.813.396-.813.735.003-1.663-1.917-4.309 15.977Zm4.54-13.086c.492-1.897 1.002-3.447-.283-.023-2.398 6.401-2.025 7.573-2.687 11.48 0 1.183 1.947-8.817 4.071-12.859.959-1.82 1.617-2.025 1.842-2.016.107.055.11.012.02 0 .568.073-.749-1.011-2.963 3.418Zm4.07-3.581c-4.021 1.524-5.076 12.11-7.742 17.448-.003.006.003.009.006.003-.635.845-2.439 7.317-.565 10.81.134.248.23.44.3.586.157.434.218.458 0 0-.449-1.238-1.661-5.78.722-11.83.475-1.212 1.827-1.56 4.164-11.076 1.542-6.288 3.587-5.886 3.555-5.886.399.079-.247-.128-.44-.055Zm.644 2.85c.082.477.338 2.514-.379 4.95-.6 2.04-.786 2.177-.696 2.116.626-.484 1.795-4.287 1.177-6.658a8.272 8.272 0 0 1-.102-.408c-.023-.134-.032-.143 0 0Zm-2.031 11.04c4.677-5.527 3.552-10.869 2.693-12.972-.166-.6-.37-.942-.531-.942.062 0 .286.338.531.942.588 2.136.705 7.573-3.211 12.73-1.186 1.565-1.504 1.961-2.061 2.766-.005.011 2.299-2.189 2.579-2.524Zm-3.068 3.267c.003 0 .003 0 0 0 .003 0 .003 0 0 0Zm2.701 2.491c.003 0 .015.02.032.055.026.137.067.551.81 1.504.388.495.533.54.504.51-.594-.48-1.171-1.74-1.311-2.014-.009-.037-.015-.055-.035-.055Zm1.678 1.515c-1.372-1.532-.113.155.592.74.087.088-.466-.597-.592-.74Zm1.699 1.12c-2.418-2.384-1.343-1.05-.842-.621.452.384.906.664.842.62Zm2.273-12.006c-.003 0-.006.003-.003.006 2.273 2.182.35-.006.003-.006Zm4.487 2.742c.003.003 0 0 0 0s.003.003 0 0Zm3.147 3.179c-1.098-.705-2.948-2.258-2.217-1.917.624.288 1.285.35 1.206.323-1.722-.6-2.316-1.037-2.357-3.007-.017-.99-.003-.912-.082-.038-.096 1.14-.206 2.567 2.235 4.053.403.245 1.28.627 1.215.586Zm-3.17 1.955c.053.35.452.647.443.615-.347-1.276-.303-1.16-.315-1.16.03-.003-.172.248-.128.545Zm1.868.204c.536-.326.382-.585.052-.585-.597 0-1.104 1.124-.687.8 1.063-.742.524-.104.635-.215Zm.554.976c-.65.496.128 1.14.107 1.073-.346-.837-.064-1.116-.107-1.073Zm-1.207-2.733c-.011.574-.594.851-.481.796.752-.373.484-.86.481-.796Zm2.422-.12c.172 0-1.154 2.425-.939 2.282 1.641-1.293.968-2.281.939-2.281Zm-5.592 6.563c.97 1.649 2.159 2.025 3.919 1.905-.312.111 3.718-.373 2.002-.373-.994 0-.204.166.405-.582.507-.618.087-1.982.087-1.734-.035-.297-.052-.038.344-.563.012.03.12.269.134.24.161-.639-.367-.828-.349-.79.148.527.282.344-.097.548-.005-.027-.553-.633-1.034-.633-.367 0-.702.335-.947.566-.096.064.39-.202.533-.269.49-.2.874.003 1.443.338-.12.065-.289.17-.525.344-.326.245-1.218.484-1.098.47-.598.081-.274.189.061-.743.017-.076-.26.576-.962.917-.166.035-3.82.426-3.642-.067 2.786.638 2.853-1.483 4.26-.897.047.017-.312-.283-.731-.283-.857 0-1.183.97-3.5 1.078.05-.268-.073-.57-.102-.57.099 0-.83 1.2-.828 1.2.519-.03.548-.233.627-.102Zm-.594-8.509c0-.029-.126.117-.094.1.749-.426-.769-1.405-.941-1.405-.073-.003 1.384.725 1.035 1.305Zm-.257.09c.172-.442-.481 1.143 0 0Zm-.344.15s-.003 0-.003.002c-.381.55.062-.003.003-.003Zm-1.99 1.511c.463-.21.708-.562.723-.614.003-.006.003-.012 0-.012.003 0 0 .006 0 .012-.032.058-.37.367-1.976.731-.032.009.778.102 1.253-.117Z" fill="#FFBC85"/><path d="M176.979 65.36c-.003 0-.003 0 0 0 .033-.018.041-.018 0 0ZM177.332 68l-.006.006a.6.6 0 0 0 .006-.007ZM176.77 70.086l-.021-.03c-.14.094.242-.699.557-.043.02.05-.312.323-.536.073Z" fill="#D39F5B"/><path d="M178.891 70.007c-.349-.108-.245.053-.178-.227a.848.848 0 0 0 .015-.338c.058.122.166.309.347.577.218.32.105.076-.184-.012Z" fill="#FFBC85"/><path d="M162.655 81.13c-.056 0-.466-.286-.254-.59.178-.189.583-.06.7.187.061.184-.417.24-.446.402ZM179.235 68.469c-.003.018-.003.018 0 0ZM179.168 68.751c.003-.002.003-.002 0 0 .053-.067.026-.032 0 0Z" fill="#D39F5B"/><path d="M163.112 80.777c.003.02.003.023 0 0ZM163.108 80.781l.004-.004-.004.004ZM170.213 57.122c-.682 0-.478.27-.772.005.796-.122 1.326-.005.772-.005Z" fill="#D39F5B"/><path d="M173.844 290.037c2.153-1.095 1.821-.711 3.264.021 1.841.944 3.424 4.578-3.675 3.572-.029-.003-.043-.006-.011 0-1.239-.16-1.213.038-1.16-.883.079-1.564.755-2.281 1.582-2.71Z" fill="#4E8896"/><path d="M160.51 283.394c.044-.061.539-1.061.443-2.827-.061-1.291.612 1.871 1.909 3.066.606.816 5.655 4.939 7.109 5.664 1.568.787 1.28-.44 4.179-.821a.308.308 0 0 0 .169-.105c1.285 1.06 1.661.69.691.979-2.09.597-2.792 1.739-2.938 3.397-.072.883.33.741-.845.595-5.886-.869-6.771-8.52-10.627-9.75-.297-.163-.189-.05-.09-.198Z" fill="#39717A"/><path d="M158.5 275.788c.11-.16.07-.224.25.193.053.134.041.043-.25-.193Z" fill="#FFBC85"/><path d="M158.083 283.42c.498.085 1.378.356 2.159.734 2.623 1.294-1.323-1.588 1.061 6.976-.335.009-1.122-.102-.717-.055-1.798-.274-.256.379-1.812-5.132-.77-2.733-.953-2.552-.691-2.523Z" fill="#4E8896"/><path d="M200.754 221.273c-.478.032-.364.02-.012-.053a.337.337 0 0 0 .012.053ZM170.041 148.953c-5.14-1.352-4.493-.717-11.282-1.993a68.129 68.129 0 0 1-4.284-.959h-.002c-.009-.003-.009-.003.002 0 7.341 3.08-5.416-1.946-5.827-2.249-2.719-2.031-1.396 1.046.166-13.993.373-3.607.358-2.602.303-2.934 2.031.28 1.556-.058 3.561.752 1.244.536 4.403 2.191 4.91 2.681 1.083 1.037.355.402.029 2.779-.793 5.656.381 4.027-3.005 4.027-.702 0-1.151-.014-1.389-.026-.26-.023-.28-.014 0 0 .964.09 5.239.653 9.752 3.237 6.947 3.987 13.375 5.729 18.702 5.965.099 0-.671-.128-1.256-.312.312.097 1.672-.262 1.701-.268-.037.041-.084.096-.061.076.105-.082.971-.364.816-.326-.577.122-.198.3 1.635-1.623 1.066-1.119 1.5-1.253 2.442-1.483 1.11-.266 1.439-.604 2.433-.872 1.626-.446 2.002.277 4.359 1.043-.3.277-.044.662.402.843.83.332 1.541-.26 1.428-.187-.65.239-1.906.117-1.848-.533.123-.222-.067-.058 1.239.21.976.195 1.168.064.603.547-1.384 1.029-2.946.671-3.75.671-.114 0-.321-1.632-1.999-1.632-.778 0-1.308.422-1.244.39 2.383-.862 3.033 1.463 3.365 1.513.936.623 2.46-.158 2.629.757.011.163.005.437-.097.566-.297.212-3.219.885-2.951.885 2.581-.119 2.007-.262 1.856.321-.067.25-.181.647-.472.991-1.559.885-2.935 1.436-1.714 1.063-.256.597 1.029-.079 1.629-.113.105.026.198.413.227.582.044.703-3.438 1.775-2.954 1.775.533-.117.349.09 2.535.437.07 0-.65-.289-1.11-.393-1.481-.338-1.615.215.786-.662.1.219.274.283.417.571.857 2.462-5 1.043-6.912 1.07-2.986.037-5.061-.365-15.77-3.194Zm-12.424-15.924c-.012.09-.009.061-.012.072a.515.515 0 0 0 .012-.072Zm-8.241 5.798c.021 0 .035.047.053.131.023.42-.164 1.813 1.448 3.267.003.003.009 0 .006-.006-1.186-1.55-1.364-2.859-1.454-3.264-.003-.078-.015-.128-.053-.128Zm1.093 1.078s.003 0 .003.003c.014.041.029.079.046.12.015.335-.067 1.331 1.51 2.579.058.029-.936-1.079-1.51-2.579-.002-.079-.011-.123-.049-.123Zm2.086 1.976c-1.943-2.923-.495-.189-.166.323.528.813 1.303 1.326 1.247 1.271-.749-.938-.65-.947-1.081-1.594Zm2.731 1.853c.029.015-.912-1.125-1.052-1.282-2.655-2.955-.327.382 1.052 1.282Zm-1.02-2.293c0-.003 0-.003 0 0a.006.006 0 0 0-.006.006c2.197 2.786 6.282 4.761.006-.006Zm39.859 1.664c0 .003.003.003 0 0 .003.003 0 .003 0 0Zm-1.912 3.543c-.807.554-4.438-.195-4.114-.035 1.177.449 3.228.921 4.114.035Zm-2.007.787c-.863-.391-1.807-.577-1.918-.577-.21 0 2.136.723 1.918.577Zm-.822.207c-.318-.137-1.512-.627-1.862-.627-.289 0 2.179.735 1.862.627Zm-.799.18c.006 0 .006-.005.003-.005-1.186-.644-3.243-1.079-.003.005Z" fill="#FFBC85"/><path d="M194.503 145.605s0-.003 0 0c.047-.038.044-.035 0 0Z" fill="#FFBC85"/><path d="M178.195 168.564c-.682.037-.901.999 2.293-6.324 4.502-10.326 3.237-9.126 6.107-8.96-7.223 16.566-5.953 15.152-8.4 15.284Zm5.629-13.401s-.003-.006-.005-.006c-.033.038.134.434.005.006Z" fill="#A3BBE8"/><path d="M194.504 145.605c-.027.017-.021.014 0 0Z" fill="#FFBC85"/><path d="M160.306 283.28c-.058.222.163.187-.621-.14-2.395-.993-1.87.16-2.162-1.142-.451-1.996-.789-3.718.484-5.487.565-.79.396-.932.883-.181 1.506 3.742 2.628 3.104 1.416 6.95ZM136.444 288.717c1.586-1.833.822-2.578 1.154-2.06 1.306 2.142 2.489 1.314 1.702 3.532-1.052.192-2.733-.239-3.741-.586.274-.204.661-.629.885-.886Z" fill="#4E8896"/><path d="M189.99 140.919c-.661.082 4.467-9.613 3.977-10.19l2.064.924c-5.499 12.614-3.331 8.931-6.041 9.266Z" fill="#A3BBE8"/><path d="M129.431 272.991c.842-1.282 1.358-3.727.641-5.597-.216-.551 1.731 2.24.822 7.695-.213 1.285.224 1.684 1.494 5.813.539 1.731 1.303 3.596 2.734 4.118.37.198 1.218.6 1.716.466.463.673 1.174 1.402-.764 3.389-.78.807-.78.644-1.2.472-.793-.341-3.494-1.67-4.146-2.669.495.402.288.3-.033-.265-1.558-2.757-.83-6.554-1.392-9.733-.752-4.283-1.204-1.556.128-3.689Z" fill="#39717A"/><path d="M125.104 269.704c.9-2.567 3.039-3.552 3.112-3.607.434-.32.335-.288.612-.052 2.406 2.045 1.465 6.026-.37 7.718-1.172-2.334-3.867-2.572-3.354-4.059ZM124.905 271.234c.612.554.985.935 1.784 1.766-1.632 5.761-1.379 6.04-2.253 7.908-.848-.428-.65.041-.294-1.655.23-1.119 1.049-4.496.763-8.019ZM139.114 290.399a.964.964 0 0 1-.251.055c.285-.07.379-.119.251-.055Z" fill="#4E8896"/><path d="M166.111 229.88c8.295 1.323 7.083 1.99 6.637 3.517-3.109 10.656-5.481 35.879-4.671 39.565.408 1.853 3.468 11.125 3.477 11.154 2.074 5.394 3.531 2.798-.105 4.406-.816.367-.344.673-2.932-1.104-1.902-1.912-4.338-3.599-4.309-3.575-1.679-1.297-1.198-1.635-3.252-4.765-.495-.751-1.588-2.392-1.833-3.738-.154-1.396 4.371-1.999 3.331-13.643 1.052 7.78-.944 11.297.411 13.08.04.053.064.091.081.12.029.067.038.064 0 0-.081-.189-.323-.947-.108-2.593 1.821-13.722-5.02-27.327-3.091-43.379 1.124.297 5.114.833 6.364.955Z" fill="#FFBC85"/><path d="M159.129 275.36v-.017c.009.067.012.094 0 .017Z" fill="#FFBC85"/><path d="M152.235 207.493c.425-8.066-1.556-31.569-.158-43.883.233-1.574-.393-1.448 3.439-.982 9.977 1.687 6.804.848 21.064 7.232.335.152.6-.029.65-.297.064.006.14.006.192-.015.408-.157 1.064-.093 1.842-.169 1.148-.105 1.48-.539 1.48-.51 1.725-3.453 1.268-4.953 1.763-.3 1.582 14.893 2.669 16.805 2.669 16.775-.664-3.237-.787-5.192-1.227-9.612-1.39-13.978-2.366-8.78.688-15.785.723 5.143.836 9.849 1.894 17.699 1.827 13.896 8.162 19.304 13.634 40.751.787 4.193 1.947 2.004-6.259 3.741-1.259.262-2.716 1.174-1.632 1.862 1.743 1.09 2.328.898-1.224 1.643-5.492 1.157-3.187 1.594-3.925-.311-.917-2.326-1.748-.909-4.571-9.328-1.644-4.91-2.667-15.129-3.179-16.813.684 2.888.678 12.177 2.803 19.197 2.351 7.585 4.726 6.725 3.505 8.902-.673 1.209-3.607 2.034-4.986 2.229-1.389.166-3.001-.356-5.9-.571.023-.143-6.606-.155-10.636-.65-8.456-1.157-6.67-1.495-7.451-2.57-1.41-1.958-5.294-1.591-9.243-4.581-.987-.778 4.363-5.728 4.768-13.654Zm26.335-29.454.012.027c.026.067.015.037-.012-.027Zm7.792 11.973c-1.367-3.295-4.688-16.244-4.919-16.244.152 0 1.113 8.476 4.365 15.271.912 1.909.554.889.554.973Zm-.644 1.125c-2.561-6.559-4.018-10.519-3.942-10.219 1.483 4.747 2.911 9.622 5.282 13.55 2.279 3.791.641.979-1.34-3.331Zm6.367 15.974c.143.213-4.895-9.447-8.736-18.73-.449-1.081-.691-1.725-.667-1.626.915 2.972 5.536 14.622 9.403 20.356Zm-15.467-33.69.012.029c.227.688 3.112 10.397 3.974 14.4 1.932 8.946 1.789 14.334 4.983 23.151 2.267 6.288 1.131 3.162.093-1.978-3.281-16.21-.341-15.26-9.047-35.576-.015-.035-.021-.049-.015-.026Zm-13.657 44.023c0 .312.524-4.846.547-5.834.21-8.736-3.123-20.828-3.152-20.828.029 0 1.972 12.832 2.141 14.875.542 6.664.298 5.041.464 11.787Zm-1.536 3.164s-.003 0-.003.003c-.084.466.018-.003.003-.003Zm-1.125 2.06c1.446-8.191.082-15.213.053-15.213.029 0-.027 6.574-.184 10.577-.242 6.21-.886 10.388.131 4.636Zm-1.932-25.895c-.789-12.04-.885-10.225-2.686-22.359-.997-6.719-.545-6.658-.679-6.658.043 0-.364 1.702 1.005 11.699 2.349 16.886 2.36 17.379 2.36 17.318Zm-3.779 13.042c1.81-9.208-.05-19.639-.154-20.068-.003-.011-.003-.02-.006-.02l.006.02c.055.312.323 4.45.422 7.215.3 8.328-.268 12.882-.268 12.853Zm.017-31.047c.752 5.425 1.816 21.23 2.221 23.952.009.029-.242-7.975-.391-10.478-.346-5.688-1.279-10.846-1.83-13.474-.157-1.145-.303-1.83-.422-1.83.009 0 .178.67.422 1.83Z" fill="#66A3B5"/><path d="M136.532 284.988c-.423-.027-.769-.219-1.154-.449-1.681-1.014-1.029-.866-2.867-6.807-.528-1.693-.583-1.856-.42-2.518.522-2.173-.239-5.65-1.02-7.165-1.235-2.395-2.203-2.375-1.684-2.593 2.94-1.212 3.048-1.043 4.027-2.515.186-.277 3.788-9.269 3.846-9.432 1.754-4.863 3.82-22.006 9.654-29.104 3.24-1.104 8.946 5.796 9.211 9.155.078.907-10.234 15.231-13.159 22.601-1.242 3.129-1.848 5.486-2.372 6.454-1.032 1.879-1.175 2.299-1.58 3.528.376-3.336-.594 2.512-.6 2.547-.39 2.022-.466 3.713-.76 5.918-.158.918-1.877 8.806-1.122 10.38Zm-4.193-19.657c.14-.003-1.142 3.231 1.658 3.86.667.149.848-.037.807-.026-.46.093-1.087-.329-1.463-.609-1.393-1.139-.775-3.225-1.002-3.225Zm5.026-10.689c.003 0 0 .032-.003.079-.102.472-.999 2.905-.988 2.879-1.672 3.913-3.007 4.776-3.278 6.559-.186 1.259-.233 4.01-.035 2.177.519-3.45 1.384-3.788 2.305-5.615 1.524-3.028 1.95-5.551 1.996-6.003.012-.046.012-.076.003-.076ZM159.126 275.337l.003.018-.003-.018Z" fill="#FFBC85"/><path d="M188.731 141.24c-.265.082-.696.221-1.028.358-2.664.665-1.67-.049-3.815 2.02-.533.516-1.02 1.017-1.812 1.302 4.796-10.714 4.534-10.064 4.502-10.181-.038-.143-19.957-9.097-20.121-8.992-.087.049.315-.796-5.711 12.667-1.046-.35-1.113-.411-2.415-.88-.706-.245-.574.282-.184-2.2.647-4.214.452-2.637 1.203-3.55 1.245-1.491 2.113-5.568 6.609-12.733.018-.029 5.204 2.337 27.125 12.151-3.735 8.546-4.373 9.907-4.353 10.038Z" fill="#748CC1"/><path d="M161.157 138.556c1.842-4.111 3.68-8.223 5.522-12.334 3.779 1.693-2.614-1.172 19.404 8.686l-.1.221-4.455 9.954c-5.408 1.175-19.054-6.066-20.371-6.527Z" fill="#EAD7AC"/><path d="M188.813 141.217c.02-.012.04-.024.061-.029.163-.041.105-.024-.061.029Z" fill="#FFBC85"/><path d="m168.818 57.058 1.317.932.658 2.358-.822 3.566-1.48 3.4-1.372 2.084-1.48 2.413-1.262 1.206-.659.988-.163 1.262.385 1.646-1.043-1.043s-.793-1.038-.918-1.011c-.126.023-.892-.195-1.058-.195-.166 0-.877.547-.877.547l-.933 1.317-.11.877.44 1.48 1.261 1.207.493 1.317 1.043 2.96.822 1.647 1.372 1.151 1.043.492-.241.487-.473.393-1.308.723s-.83.813-1.27.758c-.44-.056-1.81-.44-2.524-.822-.714-.385-2.634-1.151-3.071-1.48-.44-.33-2.742-3.182-2.742-3.182s1.865 4.773 1.702 4.607c-.163-.164-2.634-1.81-2.853-3.62-.218-1.809-2.139-4.114-1.646-5.594.492-1.48 1.261-5.266 1.151-7.075-.111-1.81.658-5.21.492-6.801-.163-1.591 1.373-4.278 1.373-4.278l3.237-2.908 1.865-.547 2.083-1.096 3.485-.758 2.384.155 1.699.437Z" fill="#D39F5B"/><path d="M176.974 68.36c.32-.058 1.192.35 1.192.35l.32.697-.175.667-.437.638-.784.32-.786.004-.84-.236s.204-1.163.204-1.28c0-.116.467-.783.467-.783l.839-.376ZM168.375 70.511l1.308-.32 1.279.728.306.268-.134.172.044.332.043.216-1.305.667-.728.146-.813.029-.755-.262-.437-.263-.23-.317.813-1.017.609-.379Z" fill="#D2FCFF"/><path d="M176.598 70.945c-.465 0-.842-.344-.842-.769 0-.425.377-.77.842-.77.465 0 .842.345.842.77 0 .425-.377.77-.842.77ZM168.171 71.936c0 .466.364.842.813.842.449 0 .813-.376.813-.842 0-.466-.364-.842-.813-.842-.449-.003-.813.376-.813.842Z" fill="#19ADDB"/><path d="m179.655 78.856-.056-.035-.705-.466h-.466l-.755.434-.699-.084-1.043.58-1.163.553-.612-.116-.842.029v.288l.408.088 2.151-.058 1.188-.114.35-.117 1.192-.262.959-.466.233-.172-.14-.082Z" fill="#D34646"/><path d="M176.569 70.86c-.32 0-.58-.13-.58-.29 0-.162.26-.292.58-.292.32 0 .58.13.58.291 0 .161-.26.292-.58.292ZM168.258 72.283c0 .178.292.32.653.32.361 0 .653-.142.653-.32 0-.178-.292-.32-.653-.32-.358 0-.653.145-.653.32Z" fill="#27D6FF"/><path d="M176.706 69.987c0 .134.116.207.332.207.216 0 .318-.117.318-.25 0-.135-.102-.237-.318-.237-.218-.003-.332.146-.332.28ZM169.141 71.662c0 .134.152.245.341.245.186 0 .326-.19.326-.327 0-.134-.137-.163-.326-.163-.189.003-.341.111-.341.245Z" fill="#D7F9FF"/><path opacity=".63" d="m214.82 79.987 2.695 16.673-1.055 2.227-2.226-.47-4.997-2.77-1.014-.47.78-1.562 1.172-.038 1.404-1.209.665-1.6-.353-.897-.548.548-.585.78s-1.014.586-.86.275c.157-.32 4.922-11.487 4.922-11.487Z" fill="#E1FBFF"/><path d="M170.233 57.242c.019.003.01.003 0 0-.003 0-.003 0 0 0ZM164.896 70.811c5.017-6.611 3.418-13.672 2.68-13.672.271 0 3.856 6.801-2.162 13.914-.282.335-2.587 2.535-2.581 2.526.559-.804.877-1.203 2.063-2.768Z" fill="#000"/><path d="M167.241 57.22c.032 0-2.013-.401-3.555 5.887-2.336 9.517-3.689 9.863-4.163 11.076-3.485 8.855.725 14.484-1.02 11.244-1.877-3.494-.07-9.968.565-10.81-.003.005-.009 0-.006-.003 2.669-5.339 3.724-15.925 7.742-17.449.19-.075.837.132.437.056Z" fill="#000"/><path d="m166.574 57.376-.004.004.004-.005ZM165.668 57.326c.361.19-.402-.708-1.836 2.02-2.124 4.038-4.07 14.041-4.07 12.858.664-3.907.291-5.079 2.686-11.48 1.285-3.424.778-1.877.283.023 2.247-4.496 3.572-3.313 2.937-3.421Z" fill="#000"/><path d="M162.107 58.657c-1.401 3.395-1.809 7.833-2.08 9.406-.839 4.878-2.197 8.375-2.197 8.343.347-2.672.408-2.486.186-1.99-1.754 3.91-2.517 5.889.408 12.378.018.032-3.934-5.248-1.527-10.382.563-1.2.944-1.85 1.294-2.582 2.649-17.897 5.044-15.977 4.31-15.977.026.003-.466.95-.394.804ZM166.368 67.079c-.091.058.099-.079.696-2.116 1.037-3.529.035-6.227.478-4.543.621 2.372-.545 6.178-1.174 6.659Z" fill="#000"/><path d="M166.773 60.878c.029 0 .303 1.2.294 1.908-.032 3.031-1.343 4.817-1.128 4.415.341-.92 1.151-6.323.834-6.323ZM180.296 65.42c.113.96.116 1.49-.609 3.107-.064.19.314-1.177.413-1.917.178-1.507-.029-3.156.196-1.19ZM167.038 89.894c-.749-.897-.816-1.328-.854-1.328.029 0 3.712 4.79.854 1.328ZM166.487 89.918c.029 0 1.323 1.218 2.063 2.203 1.806 2.407-1.903-2.203-2.063-2.203ZM169.293 93.822c-.029-.009.047-.003.073-.003.041-.046-.42-.422-.606-.603-5.021-4.802 1.387.81.533.606ZM170.056 95.142c-.213-.026-.315-.099-.282-.09.201.044.166.035.25.029 0-.058-2.768-2.666-2.797-2.666.247 0 3.412 2.832 2.829 2.727ZM170.298 96.617l-.006-.006c.003 0 .003.003.006.006Z" fill="#000"/><path d="M167.594 93.677c.064 0 1.492 1.18 2.389 2.319 2.326 2.97-2.322-2.32-2.389-2.32ZM170.692 67.446c-.003-.003 0-.006.002-.006.35 0 2.273 2.188-.002.006ZM176.377 65.033c0-.003-.003-.006-.003-.006.003.003.003.003.003.006ZM177.114 72.775c-2.442-1.486-2.331-2.914-2.235-4.053.079-.874.064-.953.081.038.041 1.97.636 2.407 2.358 3.007.078.026-.583-.035-1.207-.323-.734-.341 1.116 1.212 2.218 1.917.067.04-.81-.341-1.215-.586Z" fill="#000"/><path d="M175.184 70.182c.004.004 0 0 0 0 .004.004 0 .004 0 0ZM177.86 75.925c-.216.143 1.11-2.281.938-2.281.029 0 .702.987-.938 2.281ZM176.397 75.736c-.417.323.09-.802.688-.802.326 0 .483.26-.053.586-.113.11.426-.527-.635.216ZM175.895 74.558c-.113.059.47-.22.481-.795.003-.064.271.423-.481.795ZM175.604 75.931c.012.032-.39-.265-.442-.615-.044-.297.157-.545.128-.545.011-.003-.032-.116.314 1.16ZM177.691 77.569c.023.067-.758-.574-.108-1.073.044-.043-.239.236.108 1.073ZM177.341 67.965v-.006c.003.003.003.003 0 .006ZM172.003 70.682l-.005-.005c.005 0 .005 0 .005.005Z" fill="#000"/><path d="M172.519 71.796c-.03.02.093-.128.093-.099.347-.58-1.11-1.308-1.037-1.308.174 0 1.692.982.944 1.407Z" fill="#000"/><path d="M172.355 71.787c.172-.443-.48 1.143 0 0ZM172.011 71.936c.059 0-.384.554-.002.003 0-.003.002-.003.002-.003ZM170.021 73.448c-.475.219-1.282.126-1.253.114 1.787-.405 2.005-.743 1.976-.743.029.003-.219.402-.723.63ZM167.664 73.058l-.004.004c0-.004.004-.004.004-.004ZM178.209 78.521c-.142.067-.632.335-.533.268.245-.23.58-.565.947-.565.499 0 1.075.656 1.041.638-.58-.335-.962-.542-1.455-.34ZM176.254 81.654c-.011-.003-.029-.003-.044-.006.018 0 .033.003.044.006ZM174.171 80.908c0-.004.003 0 0 0 .003 0 0 0 0 0Z" fill="#000"/><path d="M173.206 80.206c-.078-.131-.105.073-.623.096-.003 0 .926-1.2.827-1.2.029 0 .155.302.102.57 2.317-.11 2.643-1.078 3.5-1.078.419 0 .778.3.731.283-1.407-.586-1.474 1.538-4.26.898-.178.492 3.476.101 3.642.066.703-.337.979-.99.962-.917-.335.932-.659.824-.061.743-.117.017.772-.225 1.098-.47.991-.743.819-.2.624-.894-.02-.038.507.151.35.79-.015.029-.12-.21-.134-.24-.397.525-.382.266-.344.563 0-.245.419 1.116-.088 1.734-.609.749-1.401.583-.405.583 1.714 0-2.313.483-2.002.373-1.76.125-2.948-.251-3.919-1.9Zm6.291-.65c-.067-.356.169-.157-.827.11-.184.047-.131.024-.265.085-.327.149-.618.16-.854.207-.481.09.041-.003.382.236.544.385.113-.16-1.918.038-1.856.454-3.403-.472-1.841.676 1.48 1.195 5.833 1.317 5.323-1.352ZM158.27 69.987c-1.09 5.56.714-5.257.51-4.29.253-2.057-.035 1.88-.51 4.29ZM158.115 68.378c-.154 1.56-.895 3.602-.938 3.63-.029.018 1.626-10.42.938-3.63ZM159.004 79.938c.018-.067.012 1.285 1.305 3.712.245.373-1.526-1.769-1.305-3.712Z" fill="#000"/><path d="M158.646 80.806c.003 0 .003.003.003.003 0 .714 2.852 5.586.851 2.104-1.312-2.282-.665-2.107-.854-2.107ZM159.31 85.652c.554 1.07 2.724 2.363 3.89 2.885.125.04-.758-.158-1.801-.808-1.661-1.028-2.13-2.138-2.089-2.077ZM166.393 78.88c.029.029-.113-.012-.504-.51-.947-1.218-.752-1.559-.842-1.559.029 0 .676 1.527 1.346 2.069ZM167.317 79.066c-.705-.585-1.964-2.272-.591-.74.125.143.679.828.591.74ZM167.582 78.825c-.501-.429-1.576-1.763.843.62.064.044-.391-.236-.843-.62ZM155.245 59.494l-.05.02a.3.3 0 0 1 .05-.02ZM155.956 90.037c-.023-.009-.02-.009 0 0 .003.003.003.003 0 0ZM165.476 100.865c-.737-.996-.962-1.655-.991-1.655.041 0 1.011 1.207 1.18 1.428 1.871 2.474 1.239 2.162-.189.227ZM165.246 101.707c-.612-.859-.883-1.058-1.3-1.696-.705-1.07-.632-1.29-.661-1.29.029.002 2.135 3.219 1.961 2.986ZM163.646 100.813c-1.323-1.338-1.113-2.224-1.259-2.224.029 0 1.288 2.253 1.259 2.224ZM162.591 100.434c-1.646-1.538-1.306-2.223-1.437-2.223.029 0 1.466 2.243 1.437 2.223ZM166.321 110.889c-.301 2.287-3.223 9.298-.86 2.882.924-2.474 1.078-5.079 1.049-5.079.029.003-.181 2.139-.189 2.197ZM162.442 113.269c-.029.021.038-.058.146-.279.723-1.865-1.891-7.396-2.174-7.396.708 0 3.835 5.621 2.028 7.675ZM161.28 110.018c-.81-1.408-2.151-4.389-2.221-4.389.038 0 .548.601 1.012 1.236.871 1.183 1.218 3.182 1.209 3.153ZM159.992 109.493c-1.451-2.736-2.99-3.52-2.891-3.52.029 0 1.023.437 1.536.886 1.066.924 1.387 2.73 1.355 2.634ZM154.575 107.016l-.004.004.004-.004ZM158.369 117.518c0-.003-.003-.006-.003-.006.003.009.003.006.003.006Z" fill="#000"/><path d="M157.987 116.649c2.736 4.377 1.439 9.707 1.69 7.172.318-3.247-1.932-7.647-1.69-7.172ZM157.754 114.98c2.048 2.08 1.856 3.298 1.841 3.269-.553-1.515-.326-.982-1.366-2.535-.924-1.358-.178-.431-.475-.734ZM170.398 105.149c-.059-1.131.323 2.377-.065 4.464-.37 1.978.257-.478.065-4.464ZM171.528 108.074c.25-1.035.378-1.577.07-.026-.006.029-1.513 6.02-.07.026ZM176.811 111.513c-.265-.068 4.854.798 8.555.591 1.131-.061 1.917-.146 1.833-.125-4.488 1.046-7.262.536-10.388-.466ZM179.194 112.518c2.084.58 2.774.886 3.471 1.066.801.207 1.41.271 1.311.271-2.261.015-4.887-1.378-4.782-1.337ZM211.646 111.699c1.116-10.417 2.037-9.391.006 0 .003.006-.006.006-.006 0ZM211.098 110.673c.105-4.819.563-6.769.466-6.769.283 0-.466 7.442-.466 6.769ZM206.769 131.435c-.525-.216-1.355-1.111-1.393-1.111.192 0 .373.417 3.377 1.425.073.027-1.212.006-1.984-.314ZM207.205 132.253c.062.041-1.36-.253-2.803-1.751-.151-.154 2.757 1.722 2.803 1.751ZM204.665 131.129c.443.341 1.562 1.145 1.471 1.113-2.701-1.174-2.427-2.127-2.683-2.127.032 0 1.392 1.174 1.212 1.014ZM204.819 132.207c.087.058-1.174-.533-2.089-1.343-2.361-2.092-2.725-2.766 1.267.708.143.11.344.259.822.635ZM150.88 142.225c-1.929-1.74-1.279-3.398-1.503-3.398.113 0 .078 1.527 1.509 3.395.003.003-.003.006-.006.003ZM152.028 142.606c-1.946-1.538-1.366-2.698-1.559-2.698 0 0 .003 0 .003.003.565 1.559 1.617 2.725 1.556 2.695ZM153.637 143.475c.058.058-.72-.458-1.248-1.271-.332-.512-1.777-3.246.167-.323.431.647.332.656 1.081 1.594ZM155.286 143.734c-1.381-.9-3.71-4.233-1.052-1.282.143.155 1.084 1.297 1.052 1.282ZM154.26 141.447c-.003-.003 0-.006.003-.006h.003c6.276 4.767 2.191 2.791-.006.006ZM194.128 143.108s-.004 0 0 0c0 0-.009-.004 0 0ZM192.214 146.648c-.886.886-2.938.414-4.115-.035-.323-.163 3.307.589 4.115.035ZM188.288 146.858c.111 0 1.058.186 1.918.577.218.146-2.127-.577-1.918-.577ZM189.384 147.642c.321.107-2.147-.627-1.862-.627.347 0 1.545.493 1.862.627ZM188.586 147.822c-3.243-1.084-1.186-.649.003-.005.006.003.003.008-.003.005ZM221.6 92.12l.006.006-.006-.006ZM212.477 101.821c-.018.093-.196.961-.196.88-.02-.933.003-2.139.738-2.687.058-.038-.207.026-.542 1.807ZM211.031 102.066c-.049.049.277-.306.228-1.242-.271-1.404-1.341-2.643-1.37-2.643.376.003 2.695 2.168 1.142 3.885ZM211.728 121.545c0 .076-.332-4.811-.644-4.811.029 0 .711 1.894.644 4.811ZM210.449 118.372c.064 0 .687 1.742.687 4.076.024-.105-.548-4.076-.687-4.076ZM210.218 119.939c.446 1.786.726 5.668.219 1.472.023.105-.262-1.647-.219-1.472ZM210.073 123.605c-.006.029-.161-2.325-.268-2.325.037 0 .451 1.786.268 2.325ZM209.636 124.252c-.114-3.2.029-1.594.006 0 0 .006-.006.006-.006 0ZM157.404 150.716c.149-.242.12-.189.038-.006a.167.167 0 0 0-.038.006ZM180.715 159.093c.187.44.026-.003-.003-.003 0 0 0 .003.003.003ZM185.809 189.039c-3.252-6.795-4.214-15.271-4.365-15.271.23 0 3.549 12.949 4.918 16.244 0-.084.359.936-.553-.973ZM187.059 194.468c-2.372-3.928-3.8-8.803-5.283-13.55-.076-.3 1.381 3.66 3.942 10.219 1.982 4.31 3.619 7.122 1.341 3.331ZM182.685 186.755c-.023-.099.219.545.667 1.626 3.841 9.283 8.879 18.943 8.736 18.73-3.87-5.734-8.491-17.384-9.403-20.356ZM176.618 173.421c8.725 20.344 5.779 19.389 9.06 35.605 1.04 5.14 2.173 8.266-.094 1.978-3.193-8.817-3.05-14.205-4.982-23.151-.909-4.239-4.091-14.881-3.984-14.432Z" fill="#000"/><path d="M178.57 178.039c.027.062.038.092.012.027-.006-.006-.009-.018-.012-.027ZM156.008 179.456c-1.369-9.998-.961-11.7-1.005-11.7.134 0-.317-.061.679 6.659 1.801 12.133 1.9 10.318 2.687 22.358 0 .061-.012-.431-2.361-17.317Z" fill="#000"/><path d="M157.268 188.221c-.006-.032-.006-.047-.003-.012 0 .003 0 .006.003.012ZM154.182 176.938c.035 0 1.757 7.101 2.252 15.303.149 2.503.399 10.511.39 10.479-.486-3.296-1.946-25.782-2.642-25.782ZM154.858 196.962c-.102-2.873-.388-7.235-.426-7.235.029 0 2.008 10.688.16 20.088-.002.029.566-4.525.266-12.853ZM160.356 190.779c.029 0 3.363 12.095 3.153 20.828-.024.988-.548 6.149-.548 5.834-.166-6.746.076-5.123-.466-11.79-.166-2.039-2.11-14.872-2.139-14.872ZM160.173 218.035c.157-4.006.212-10.577.183-10.577.029 0 1.393 7.022-.052 15.213-1.02 5.749-.376 1.571-.131-4.636ZM161.425 220.608c.015 0-.087.47-.003.003 0-.003.003-.003.003-.003ZM173.422 293.627a.193.193 0 0 0 .014.003c-.006 0-.011 0-.014-.003ZM135.366 260.724c-.918 1.824-1.783 2.165-2.305 5.615-.198 1.833-.151-.918.035-2.177.268-1.783 1.606-2.646 3.278-6.559-.014.029 1.087-2.958.991-2.958.029-.003-.317 2.734-1.999 6.079Z" fill="#000"/><path d="M133.344 268.556c.376.28 1.003.702 1.463.609.041-.011-.14.175-.807.026-2.803-.626-1.518-3.863-1.658-3.86.224 0-.393 2.086 1.002 3.225ZM183.824 155.162c.128.429-.035.032-.006-.006 0 .003.006.006.006.006ZM207.494 93.374c-.006-.038-.003-.03 0 .009v-.01ZM157.617 133.029c-.012.091-.009.061-.012.073a.53.53 0 0 0 .012-.073ZM184.801 161.142c0-.006-.003-.009-.003-.015 0 .009 0 .003.003.015ZM132.692 281.747c0 .003.023.053.026.062a.221.221 0 0 1-.026-.062Z" fill="#000"/><path d="M123.018 280.553c.005-.029 1.512-5.994 1.148-10.001-.274-2.765 3.7-5.927 6.538-6.745 1.644-.472 1.481-.225 4.246-6.661 3.986-9.777.851-12.408 6.145-23.923.676-1.475 2.157-5.575 4.797-8.285 2.447-2.503 2.348-2.138 2.089-2.351-.842-.63-1.982-1.183-1.679-1.973.012-.029 3.107-7.206 4.019-12.078.32-1.719.635-23.133.154-33.075-.452-9.249-.781-12.285 1.282-16.714-4.913-2.2-4.895.008.574-12.53-7.503-2.465-6.495-3.628-4.621-15.269.006-.154.172-.909.178-1.69.014-1.984.387-.868-.388-2.159-.539-.901-.554-.641.606-6.224.274-1.32 1.655-3.444 1.976-5.706.492-3.651 1.052-2.817 2.2-7.602 1.48-6.11 2.456-5.201 4.921-7.087 1.553-1.24.306-.477.729-2.016.784-2.853.81-2.293.926-3.517.146-1.521.787-1.757 2.174-1.311.417.13.361.542.294-2.37-.02-.9.152-.454-1.197-.259-1.221.178-1.582.405-2.323.333.373.189.828.425 1.239.39-1.032.373-4.193-1.332-5.403-2.386-1.736-1.516-1.366-2.544-1.987-4.412-1.661-5.038-1.084-8.037.26-13.38.981-3.905-2.751-10.948 6.891-13.463 2.203-.597 2.284-1.798 7.748-2.089 2.946-.151 7.675.97 8.823 1.507 9.645 3.607 5.266 12.98 5.251 13.266-.388 1.34 1.425 1.23 1.6 5.817.09 2.41-.51 2.558-.915 8.703.419 3.264-3.456 3.52-6.816 2.996-.632.644-.09 1.993-.329 5.504-.003.055-.23-.02 2.104.487 3.607.795 3.683 1.524 4.132 2.864.949 2.876.3 2.37 1.29 3.106 1.51 1.116 2.078.866 3.797 2.771 1.113 1.221 1.617 2.145 2.151 2.704.792.822 1.573.982 2.453 1.941 1.364 1.489 1.317 3.057 2.282 3.695.029.017 7.147 5.367 7.689 6.125.257.361.286.813.385.892.935.711 3.22 2.051 3.45 2.167 1.373.694.834.848 2.11-1.835 3.287-6.924 2.214-6.825 2.963-10.758 1.285-6.749-1.229-3.086-1.573-8.806-.003-.055-.417-5.26-.332-5.889.215-1.652 1.908-1.102 2.299-1.964 8.094-17.888 6.818-16.373 9.851-15.318.717.256 5.831 2.29 6.408 3.426.393.781.863.709-.431 3.264-2.701 5.315-.647 4.243-2.037 7.835-.006.015-.023.706-.169 1.166-3.698 11.9-6.486 10.586-7.736 14.261-1.186 3.464.781 12.29-.624 17.865-1.2 4.752-1.375 3.053-3.176 7.191-2.375 5.472-1.39 7.535-15.01-1.506-1.357-.883-.609-.618-1.532-.289-1.253.446-5.741-2.439-5.758-2.41-.204.344-.224.504-.353.609-.177.146 8.092 3.471 8.212 3.908.061.218.268-.35-4.266 10.044.801.256.341.495 1.795.871 1.576.405 1.722.248 1.838.449.076.131.009.309-.151.338-.067.6-.813 1.002-1.373 1.233-.611.25-.07-.242.318.906.303.891-.737 1.119-1.142 1.407-.19.175.087.947-.732 1.635-.477.405-.119-.117.248.889.149.419.093.795-.268 1.078-.44.349-.37.084-.117.466.371.548.236 1.154-.043 1.742-.601 1.251-3.022 1.119-5.266.991-.451-.026-.052-.676-2.628 5.228.833 3.199.953 17.882 4.959 28.224.012.032 10.199 24.176 11.455 34.579.102.877-.967.763-1.847.763-1.178 0-4.808.644-5.082.737-2.107.723-1.862.318-.338 1.396 2.896 2.04-5.239 1.775-7.658 3.485-4.257 3.607-5.236 2.57-12.122 2.218-8.567 45.952-5.941 40.704-3.604 48.058 2.806 8.812 1.541 8.101 7.098 12.07 5.883 4.166-7.346 6.649-10.901 3.129-3.004-2.955-4.741-8.721-5.641-8.098-.784.784-.274 2.771-.038 3.908.522 2.002 1.064 2.727.029 2.882-.475.067-2.372-.082-2.558-.481-.193-.163-.181-.399-.28-1.335-.414-4.19-1.635-5.982-2.188-8.756-1.411-7.043 3.706-7.101 4.72-11.524 1.725-7.6-1.48-13.346-2.783-27.557-.984-10.703 1.46-13.937-.469-10.277 1.635-2.736-17.206 28.017-18.791 37.14-1.049 5.994-.295 4.966-1.379 9.368-2.683 10.738 4.059 7.839 2.087 11.726-.056.39-.102.655-.484.868-.845.096-1.04.184-1.285.158-.53-.053-4.77-.98-6.609-2.62-5.262-4.686-1.154-11.268-4.42-15.199-.452 1.408-.265 2.993-1.658 7.168-.373 1.143-.53 1.469-1.734.869-.405-.184-.795-.295-.687-.918Zm16.282 9.636c.787-2.217-.396-1.39-1.701-3.532-.333-.518.434.228-1.154 2.06-.228.26-.612.682-.889.886 1.008.347 2.689.778 3.744.586Zm-4.426-.842c.42.172.42.335 1.201-.472 1.937-1.987 1.226-2.716.763-3.389-.498.137-1.346-.265-1.716-.466-1.431-.525-2.194-2.387-2.733-4.118-1.271-4.131-1.705-4.531-1.495-5.813.909-5.457-1.038-8.249-.822-7.695.717 1.87.201 4.315-.641 5.597-1.332 2.133-.883-.594-.128 3.689.559 3.179-.166 6.976 1.393 9.733.317.562.524.664.032.265.652.999 3.354 2.328 4.146 2.669Zm-10.435-8.439c.875-1.868.621-2.144 2.253-7.908-.798-.83-1.171-1.212-1.783-1.766.285 3.523-.534 6.9-.761 8.019-.358 1.696-.556 1.227.291 1.655Zm4.392-14.866c-.277-.236-.178-.268-.612.052-.073.055-2.212 1.04-3.112 3.607-.513 1.487 2.179 1.728 3.357 4.059 1.832-1.692 2.774-5.673.367-7.718Zm18.302-45.198c.003-.023.003-.017 0 0Zm.02-.003-.009.024c.027.041.531-1.221.009-.024Zm14.858-58.455c17.466 7.818 14.535 6.725 14.779 6.157 1.571-3.602 5.237-12.002 6.743-15.458-1.061-.117-2.162-.428-4.659-1.014-4.412 9.855-4.051 9.292-4.362 9.152-21.342-9.548-20.03-8.82-19.879-9.161 2.317-5.172 2.148-4.633 1.92-4.671-1.153-.192-2.278-.53-3.391-.894-4.392 10.067-4.089 9.359-4.214 9.688-.16.431-1.637-.379 13.063 6.201Zm33.562-19.031c.566-.483.37-.352-.603-.547-1.305-.266-1.116-.432-1.238-.21-.059.65 1.194.769 1.847.533.114-.076-.597.519-1.428.187-.446-.178-.702-.566-.402-.843-2.357-.766-2.733-1.486-4.359-1.043-.997.268-1.323.606-2.433.871-.941.228-1.375.365-2.442 1.484-1.833 1.923-2.212 1.745-1.635 1.623.155-.038-.711.244-.816.326-.023.023.024-.032.062-.076-.029.006-1.39.365-1.702.268.586.184 1.358.312 1.256.312-5.33-.236-11.755-1.978-18.701-5.965-6.755-3.866-12.988-3.208-8.363-3.208 3.389 0 2.211 1.626 3.004-4.027.326-2.377 1.055-1.742-.029-2.78-.507-.489-3.669-2.147-4.91-2.68-2.005-.81-1.53-.472-3.561-.752.055.332.07-.673-.303 2.934-1.562 15.039-2.885 11.959-.166 13.993.414.303 13.171 5.332 5.828 2.249-.137-.035 1.967.522 4.286.959 6.789 1.276 6.143.641 11.283 1.993 10.708 2.829 12.783 3.231 15.772 3.199 1.912-.023 7.769 1.393 6.912-1.069-.14-.289-.317-.353-.416-.571-2.402.877-2.267.323-.787.661.46.105 1.18.394 1.11.394-2.183-.347-2.002-.554-2.535-.437-.484 0 2.998-1.076 2.955-1.775-.027-.169-.123-.559-.228-.583-.597.035-1.885.711-1.629.114-1.22.373.155-.178 1.714-1.064.288-.344.405-.74.472-.99.148-.583.722-.44-1.856-.321-.265 0 2.654-.676 2.951-.886.102-.128.108-.402.097-.565-.166-.915-1.693-.134-2.629-.758-.329-.052-.982-2.377-3.365-1.512-.061.032.466-.39 1.244-.39 1.678 0 1.885 1.631 1.999 1.631.798-.008 2.363.35 3.744-.679Zm-3.561-27.212c-.48-3.077-4.367-2.518-7.208-7.877-.863-1.628-1.119-2.45-1.673-3.249-.458-.585-1.53-1.768-1.559-1.768.029 0 1.638 1.165 2.783 3.033.521.845.44.734.419.659-.381-1.446-.137-2.221-.807-3.136-.504-.603-.871-.705-.775-.705.029 0 .857.455 1.288 1.142.443.705.388 1.548.764 3.471.716 1.127.623.938.623.862-.702-3.397-.14-3.295-.28-3.295.117 0 .394 3.528.414 3.558 3.707 4.638 6.437 4.067 6.999 7.13.298 1.646-.242-.481 2.323-1.116-2.317-1.714-1.956-1.667-2.742-2.282-.997-.734-.939-.539-1.338-1.078-.588-.793-.781-2.698-2.82-4.068.154.204 1.407 1.862 1.427 1.891.035.053-.679-.504-2.943-3.097-2.322-2.631-2.357-4.068-7.937-6.049-.032.699-.472 1.014-.02 1.308.046 2.165 1.232 2.503 1.87 8.561.676 1.827-1.483-.621-4.423-2.931-4.753-3.614-4.758-4.301-5.228-6.97-.186-.592-.399-1.05-.02.195.023.093-.236-.527-.487-.924-.119.37-1.258-.647-2.028 1.792.927.009 1.367.385 1.956.904.137.09-.907-.636-1.964-.872-1.609 5.146.416 3.736-4.872 1.393-5.924-2.617-4.642-2.888-6.627-1.384 2.83-.358 7.408 2.142 8.987 6.958.148.452.239 1.291.215 1.224-1.107-3.531-5.154-6.571-8.249-7.183-5.061-.41-3.38 2.914-5.006 6.822 4.896-6.918-1.183 2.509-2.168 6.859-.154.694-.434 1.335.711-.862.056-.158-.198 1.392-1.209 3.059-.061.268-.102.464-.102.411-.012-.32.154-.472-.807.988-.831 3.759-1.381 4.872-1.544 6.46 3.249-.067 9.828 2.057 10.889 5.114.201-.697.125-1.376.443-2.693.556-2.304.716-1.905-.12-2.558-5.836-4.211-12.806-3.992-7.797-3.992 3.252 0 7.363 2.582 8.534 4.377.341-.773 2.535-4.287 2.043-9.001-.323-2.267-1.273-4.485-1.302-4.485.029 0 1.961 2.562 2.325 5.493.326 2.646-1.536 6.23-.309 3.625 1.063-2.247 5.621-10.12 5.169-14.619-.181-1.169-1.043-3.136.157-.746 2.203 4.362-4.574 14.29.656 5.874.522-.836.985-1.879.956-1.879.029 0-.032 1.13-.93 3.252-1.238 2.914-1.637 2.459-.326 1.696 3.395-1.982.88-.507-1.512 2.205.073.015-.032-.029 1.285.56l19.934 8.925c-.143-.685 4.539-5.498 3.962-10.982Zm-18.788-23.451c.032-6.72 1.477-.892-4.193-5.694-4.569-.6-3.791-3.744-4.805-3.68 1.789 2.96 4.604 8.415 1.92 4.062-.111.151-.181-.05.393.749 1.591 2.2 1.973 3 .003.25-.743-1.037-.425-.86-.9-.565-.248.151-.181.41-.589.798-.344.335-.306.16-1.602.962-1.632 1.005-1.586-.466-1.344 1.626.123.891.271 2.774-.247 3.485-.429.582-1.545.151 5.341 2.29 5.469 1.69 4.152 2.713 4.936 4.852 1.471 3.024 3.004 2.759 6.466 5.996 1.696 1.58 2.01 2.675 1.754 1.766-1.084-3.788-1.338-6.827-3.75-8.701-.566-.416-2.101-1.78-2.148-1.78.035 0 .994.574.973.533-.542-1.2.423-.35-1.305-2.893.023.536.055 1.063.117 1.573-.927-2.316-1.032-3.607-1.02-5.63ZM162.066 82.51c.406 4.23 3.614 4.82 3.71 4.947.137-.067.233.088-.772-1.224.679.662 1.684 2.16.454-.011-1.011-1.786-1.209-2.911-1.32-2.905-1.055 0-1.512-.874-1.605-.874-.525.002-.51-.403-.467.067Zm-7.727 1.964c1.055 5.889 6.407 5.148 5.02 5.148 1.344.123-3.604-.915-5.02-5.148Zm5.44 5.583c-4.589 0-5.525-4.887-4.152-1.335.44 1.133 1.361 1.396 1.32 1.521-.624 0-3.485-2.037-4.514-4.479.565 3.663 4.33 5.368 7.553 4.572 2.159-.533.877-.28-.207-.28Zm-11.245 38.128c-.052.422-.049.332.05-.015a.244.244 0 0 1-.05.015Zm21.924-29.017c-.128-.116-.233-.134-.393-.14-.629.175-.006.027.393.14Zm-2.803 3.211c.263-1.2 1.309-3.95 2.5-3.64-1.29-.856-9.627-2.919-9.312-3.673-.513-.54-.102-.222.09-.108.029-.018-.035.005-.035-.149 0-.105-.367.105.023-.117.044-.119.067-.093.231-.332-1.763-.603-1.189-.495-1.801 2.51-.568 2.747-1.769 2.106 1.433 3.895.499.277 3.835 1.215 5.7 2.733.95.513.731.86 1.171-1.119Zm-9.004-3.155c.006.064.015.096.003.003l-.003-.003Zm.003-.003c-.003-.032-.006-.038-.003-.003 0 .003 0 .003.003.003Zm-.291.827c-.122.128-.12.099.044.035-.018-.011-.029-.023-.044-.035Zm20.639 8.552c.312.295.516.505 1.09 1.049-.708-.719-.487-.498-1.09-1.049Zm1.195-8.977c-1.259-4.575-.309-1.075-.577-.009.719.233.682.385.577.009Zm-6.093-3.503c.277.32 1.203.289 1.891 2.838.364 1.335 2.022 2.157 2.512 2.818-.146-1.774-.312-3.091-.038-4.28.381-1.661.772-1.355.084-1.667-2.22-.906-3.144-.796-4.292-1.14-.122-.04-.181-.308-.157 1.431Zm7.421 48.959c6.65-14.855 3.844-8.584 4.555-10.172-22.018-9.858-15.622-6.993-19.404-8.686-1.841 4.111-3.68 8.223-5.522 12.334 1.32.461 14.966 7.702 20.371 6.524Zm-19.939-20.703c.148-.285.335-.687.04-.102a1.03 1.03 0 0 0-.04.102Zm4.371-5.326c-4.497 7.165-5.365 11.241-6.609 12.733-.755.912-.557-.664-1.204 3.549-.39 2.483-.521 1.956.184 2.2 1.302.47 1.369.531 2.416.88 6.025-13.462 5.623-12.62 5.711-12.666.163-.105 20.082 8.849 20.12 8.992.032.117.292-.536-4.502 10.181.793-.285 1.279-.787 1.813-1.302 2.144-2.069 1.151-1.352 3.814-2.02.618-.256 1.582-.513 1.171-.411-.259.065-.702 1.259 4.208-9.988-21.918-9.811-27.105-12.177-27.122-12.148Zm12.308 32.877c-.921-.21-21.071-4.441-21.103-4.447l-1.862 4.161c-.279.627-2.214-.48 19.215 9.106 4.356-9.741 4.006-8.762 3.75-8.82Zm16.239-6.323c.044-.035.046-.038 0 0 0-.003 0 0 0 0Zm0-.003c-.021.017-.026.02 0 0 0 .003 0 .003 0 0Zm-41.87-36.1c-.192.851.178-.603.19-.892-.062.295-.126.609-.19.892Zm12.099-53.036c-.198.032-.029.009.087-.003-.029.003-.058 0-.087.003Zm6.259 6.865c-.755 2.646-3.453 5.094-1.708 3.809-.113.076.292-.195.813-.816 1.265-2.355 3.357-5.796 1.629-7.935-.003-.003 0-.005.003-.005.189 0 .618 1.043.288.206-.6-1.247-1.768-1.515-2.389-1.282.026.032 2.692 1.344 1.364 6.023Zm5.498-.982c-.679-2.214-2.29-4.28-4.834-5.044.959 1.137 1.171 1.62 1.355 2.5.609.213 3.048 2.046 3.479 2.544Zm-6.276-5.227c.553 0 .023-.117-.772.006.294.262.09-.006.772-.006Zm-.79-.012c.562-.16.865-.073-.21-.248-.259-.032-.157-.072.21.248Zm.184 10.14c-.164.108-.14.08-.038.07.014-.023.026-.046.038-.07Zm-.207.132c-.064.035-.082.02.084.035a2.395 2.395 0 0 1-.084-.035Zm9.298-7.18c-.702-.84-2.704-2.072-2.853-2.139-1.305-.589 2.2.667 3.337 4.114.323.977.722 3.39.078 4.907-.032.126.781-6.527-5.836-9.438-1.393-.515 2.34.417 3.126 4.78 2.553 3.085 2.02 6.952 2.279 5.687a.768.768 0 0 0-.009-.227c0-.044.166.183.096.451.097-.18.111-.48-.104-.85-.032-.05.192.128.311.294.056.078.181.41.152.41.035 0 .661.782-.128 1.055.16.31.413.58.743 1.07.402-.918.682-.83.845-2.955-.705 3.316-.324.644-.3-1.052.052-3.12-.309-4.225-1.737-6.107Zm-1.361 7.789-.006.005c0 .003.009-.005.006-.005Zm-.006.008-.006.006c.003-.003.006-.003.006-.006Zm1.839.746c.163-.515-.061.006-.216.085.024.058.204-.055.216-.085Zm-.003.006c.026-.032.053-.067 0 0 .003-.003.003-.003 0 0Zm.067-.282c-.003.017-.003.017 0 0Zm-.67.49c-.079.005-.038-.018-.041.095.082-.029.07-.011.041-.096Zm.51 1.06c-.746-1.105-.222-.834-.361-.242-.068.282-.169.122.177.227.289.09.402.335.184.015Zm-.659-1.317c.053-.035.035-.129.029-.158-.119.102-.11.035-.029.158Zm-3.511 18.375c7.894.614 5.411-.682 6.128-7.818.42-4.38.259-5.898-1.629-8.716-.14-.27-.74-.612-.798-.437-.085.26-.155.201-.064.201.23 0 .37.19.338.166-.373-.242-.668.059-.528.088.367.078.26.434.248.303.029.029.049-.23-.472-.213-.42.67-1.113.595-1.821.385-.953-.283.874.244 1.049-.77-.018-.393-.094.003-.365.003-.224.624-.97.289-.763-.128.082-.166.251-.3.446-.198.078-.32.446-.19.306-.25-1-.263-1.285.562-.968.999.178.19-.358-.058-.218-.801.131-.717 1.707-.77 1.76.189.038.696-.994 1.002.011.606.994-.39 1.318-2.162-.416-2.022-1.457.262-1.175.731-1.591 2.022-.126.373-.434-2.617 1.538-2.617.315 0 .265-.108.201-.352 0-.056.338.154.219.41.373-.101.233-.195.125-.282-.551-.376-.728-.283-1.495-.05-.029.006.761-.699 1.457-.268.312.193.333.47.207-.195-.014-.029.496.187.417.7.326-.17-.612-2.227-.764-2.565-.171-.096-.314-.148-.512-.102-.19.094-.933 1.006-1.148 1.836 0 .032-.027-.067-.038-.102-.099.19-.131.265-.131.242-.003-.4-.207-2.561.684-2.561.079 0 .166.07.158.23.676-.446 1.063.431.291-.88-1.203-2.04-.723-1.355-2.136-2.76-2.751-2.724-.734-1.392-1.973 1.728-.658 1.652-2.202 3.43-2.832 4.21.758.012 1.288.482 1.556 1.134.012.032-.169-.096-.376-.224.318.379-1.285-.04-1.783-.187-.017.02-.067.085-.055.059.035-.062.102-.076-.324-.149-.551-.017-.102-.032-1.145 1.597-.245.385-.259.326-.105.396.321.128.102-.478 1.32-.743 1.043-.221 1.798.842 1.769.822-1.183-.755-1.457-.563-1.428-.568-.72.093-1.944.472-.962.754 1.533-.65 2.369.344 2.888.758.935.682-.003-.084-.047.577.015.064.105.239.047.151.029.03-.143-.107-.041-.329.076-.157.196-.151.134-.172-.005 0-.011-.003-.014-.003-.563-.06-.831-.72-1.888-.609-2.142.338-1.28.866-2.197 1.507-.137.096.641.358.9.457.454.053.035.061-.047-.483-.064-.467.274-1.099.79-1.183.233-.038.938.186 1.116.687.274.76-.999 1.239.102.802.288-.129.927-.528 1.364-.47-1.108.586-1.215 1.023-1.897 1.084-.633.056-.72-.064-.825-.026-.245.108-.527.394-.466.335.37-.425.868-.44-.294-.338-.289.058-.408.327-.385.25.236-.547 1.005-.326.268-.445a1.153 1.153 0 0 0-.3-.003c-.248.044.058-.134.178-.169-.274-.125-.706-.079-.927.143-.029.044.087-.277.6-.277.193 0-.052.009-.314-.285-.368.163-.813.026-.758.026.154-.006.708-.07.664-.17-.411.094-.513.047-.938-.107-.041-.026.329.052.676.014.525-.113-.116.065-.358-.416-1.355 1.6-3.255 1.754-2.381 5.117 0 .043-.417-.615-.443-1.615-.041-1.567 1.291-1.99-.361-1.066-.085 2.104 1.366 3.47 1.11 3.214-2.914-2.36.303-3.922-2.025-2.722-.329.166 2.555-1.594 4.551-4.554 4.278-6.373 2.964-12.693 3.133-8.503.046 1.174-.12 2.16-.344 3.238.825-2.116 1.67-5.887-.242-7.102-.096.085-.111.088-.096.076.07-.076.195-.064-.335-.32-1.25-.499-2.698-.248-3.506-.263-.746-.014-.932-.09-2.109-.073.699.204 1.463.714 1.39.694-1.265-.557-2.413-.743-3.281.315-.152.236-2.952 6.34-2.754 5.749 1.41-5.59 2.637-6.33 1.681-5.525.12-.09-.81.554-1.524 2.223-1.148 2.789-3.164 9.98-3.164 9.616 1.565-11.524 5.006-12.043 5.125-12.22.274-.403.627-.423-1.226.541-4.284 2.238-5.866 2.04-6.627 9.04.167-1.009.58-3.614 1.271-4.494-.723 1.556-.519 4.062-.88 6.588-.478 3.302-1.419 7.964.274.682.134-.577.457-2.284.425-2.284.029 0-.081 1.358-.233 2.264-.72 4.28-2.611 7.043-1.908 11.746.023-1.565.253-3.057.515-4.502 1.443-7.973-.422 2.089.729 7.314.262 1.174 1.008 2.441 1.728 3.4 1.608 2.075-.181-.213-.837-1.766-2.138-5.067.333-5.618.216-11.597-.099-5.767-.073-12.684 4.817-15.825-.399.425-1.457.827-2.468 3.103-.968 2.31-1.198 3.001-1.463 7.733-.408 7.302-1.239 10.15.583 3.888 1.189-4.074.827-4.316 1.681-7.626 1.399-5.42.152-.921-.201 4.181.551-2.002.752-3.703.711-3.703.434 0-1.346 7.975-1.486 8.465-1.128 3.992-1.425 7.66-.149 11.754-2.337-3.966-1.614-7.867-1.885-5.973-.458 3.56 1.072 6.177 3.132 7.378.452.262.105.282-.985-1.743.336.3 3.471 4.047 6.959 2.92-2.768.513-4.517-.676-6.046-2.757.702.429 2.24 2.16 5.9 2.16.65 0 1.434-.027 1.926-.52.452-.448.024-.02-.938-.02-2.413 0-4.756-2.593-5.05-4.69.81 1.71 3.774 4.379 6 4.157-3.698-1.224-4.042-3.855-4.633-6.588-.099-.446.09.105-.982-1.58.064 1.766.956 3.835 1.425 4.558.073.11-2.098-1.795-1.501-4.671-.996-1.576-.487-3.45.096-4.126 3.785-4.406 5.324-9.72 6.705-15.584.061-.043-.157 4.444-1.393 8.095.848-2.072 1.317-3.027 1.504-5.62.044 4.367-3.22 9.665-4.925 11.483-1.468 1.568-.961.507.44 1.3.746.42.478.865.353-.362 0-.046.344 1.486 2.488 3.211.254.175.446.283.397.268-2.442-.74-1.906-2.176-3.357-2.844-.953-.32-1.329-.207-2.014.65-.294.472-.061.044.225-.134 1.742-1.098 2.873 2.069 2.284 1.2-.731-1.075-.804-.334-.912-.096 0 .17.437.476.665.77.556.74-1.361.521-.927-1.06.073-.269.248-.22-.041-.403-.341 2.22-1.428 1.236 1.402 3.019.993.63-.306.886.075.661.551-.49-1.151-.48-2.165-1.378-1.037-.932 1.227-2.43.283-2.445-.271.076-.052.644-.358.697-.163.029-.242-.163-.274-.33-.478.589-.554 1.084-.755 1.927.289.655.982 1.238 2.159 2.704.653.818 1.32 1.489 1.967.661.117-.163.423-.591.493-.78.078-.208.011.293-.137.663 2.89 4.147 1.136 3.235 4.749 5.036.906.314 4.998.472 6.335.577Zm1.845-17.02.017.032.003-.003c.221.25.556-.024.536-.073-.315-.659-.693.134-.556.044Zm.227-4.698c.044-.017.035-.017 0 0Zm-.003 0c-.02.01-.02.01 0 0Zm-.731-.236c-.094.242-.047.105.148-.05-.032-.09-.041-.171-.148.05Zm-9.82 6.361c.778.065.367-.014.11-.244-.189.242-.25.218-.11.244Zm.518.534c.024.029.018.032.126-.032l-.126.032Zm.484-1.143c.402.015-.21-.198-.341-.399-.294.437-.344.303.341.4Zm.522-.466a1.024 1.024 0 0 1-.309-.169c-.018.02-.061.064-.047.044.053-.11-.105-.11-.16-.332-.388.6-.618.597.516.457Zm1.282 1.34c.096.126.309.17.481.024a.314.314 0 0 1-.353.175c-.055.233-.216.332-.388.332-.536 0-.437-.685-.087-.685.195 0 .204.157.242.04.099-.314.405-.189.082-.34-.779-.271-1.259.656-.729 1.282 2.337.166.667-1.94.752-.827Zm-9.904 5.065c-.187.597-.169.516-.155.816.157.673-.02-.038.155-.816Zm6.94-15.878Zm-.105 1.125c-.026.227-.052.455-.081.676.029-.221.055-.449.081-.676Zm45.632 28.026c.003 0 .003 0 .003.003 0-.003 0-.003-.003-.003Zm-2.707 3.709c-.222.455-.251.385-.047.422.187-.457.245-.355.047-.422Zm-.743 1.25c-.012.122 7.174 3.7 7.643 3.7.641 0 2.972-6.282 3.001-6.078-.148-1.066-2.31 5.242-2.605 5.164-.533-.143-7.509-3.54-7.538-3.55-.073.146-.396.715-.501.764Zm7.258 4.146c.108.225.84.266 1.227-.005.242-.207 2.392-4.794 2.27-5.202-.169-.544-2.416 5.394-2.555 5.199-.551.105-.746.046-1.556-.417-3.704-2.083-13.028-6.262.614.425Zm-6.177-5.326c-.236.498-.224.385.186.449.108.026-.396-.018-.195.058.19.064 2.39 1.049 3.138 1.381 4.499 1.993 3.791 1.909 4.132 1.163 2.894-6.332 2.314-6.83 3.264-7.276 4.837-10.808 4.516-9.733 4.041-9.893-.046-.014-6.031-2.66-6.381-2.855-.679-.376-.236-.799-5.14 10.166-3.176 7.125-1.116 2.427-.539 2.658l.02-.03.003-.002c.003 0 .003.002.003.002-.003.012-.009.02-.014.032 1.153.525.166 4.354-2.518 4.147Zm7.908-18.04c-.72-.079.193-1.16-7.089 15.42.501-.224 6.471-14.919 6.976-14.712.029.015 7.075 2.943 7.04 3.156.367.163.463-.364-4.121 9.887.42-.07-.116.778 2.64-5.236 2.46-5.37 3.284-5.097-.74-6.662-.807-.317-4.19-1.78-4.706-1.853Zm2.952 14.057.003.003c-.003 0-.003 0-.003-.003Zm1.515 4.193c1.384-3.255.563-3.176.799-6.012.061-.824.075-.737-.003-.708-.522.257-1.02 1.857-.921 2.407.014.17.146.548.122.516-.221-.309-.119-.396-.215.073-.094 1.06-.359 1.471.151 1.897-.029-.03-.061.105-.335-.219-.248.95-.623.382-.405 2.014.274 1.579.131 1.643.807.032Zm-1.005-1.74c.283-.457.23-.55.259-.912-.352.81-.332.685-.259.912Zm4.633-12.2c-.224-.75.344-1.623-4.709 9.773-.192.44-.175.283-.163.892.012.565-.079.559.51-.7.379-.807.14-2.007 1.183-2.87.315-.265 3.351-6.568 3.179-7.095Zm-2.247 9.365c.059-.379.108-3.252.099-3.223-.515 1.174-.308.431-.335 2.04-.011 1.195.059 2.36.236 1.183Zm-8.954 25.928c.041-11.595.251-10.246 1.938-12.04 3.039-3.217 3.869-6.09 4.175-6.685.426-.825.35-.303-.014-4.764-.169-2.092-.012-1.926-.021-1.984-.02-.114-.346.148-.48.314-.554.81-.289 3.76.341 3.004.072-.107-.193.534-.65-.113-.149 1.824.719 1.853.594 1.853-.787-.216-.344-.428-.507.137-.3 1.032-.189.213-1.967 4.03-.207.131-.288.728-1.084.979-1.326.428-1.9-1.929-3.613 1.646-.315.764-.003-1.634 1.486-2.284-7.605-3.657-6.981-2.882-5.898-5.397-.142-.113-.212-.227-.183-.207.242.222.198.196.382-.25.201 0 .032.076-.531-.55-.061-.042.359.22.601.328 1.564.566 3.86-2.138 2.998-3.336-.175-.198.382.772-2.212 1.923-2.415 1.064-2.308-.76-1.789 5.621.242 3.296.399 2.8 1.343 4.595 1.551 2.964.953.799.009 10.779-.542 5.755-3.887 8.094-5.134 12.471-.431 1.501-.466 1.638-.466 1.603.518-8.043 3.275-2.719-4.298-8.407-.621-.463-.373-.72-1.594.012-.516.312-3.272 4.28-3.459 7.547-.038.702-.594.565 2.652 2.532 15.12 8.258 10.414 8.124 15.117-.708 2.544-4.77 2.249-8.742 2.264-12.649Zm-24.29 10.892c.629.457 2.794 1.646 3.773 2.019-1.095-2.185.551-6.53 2.116-8.578 2.675-3.82 5.006-.869.428-4.22-.868-.641-.667-.754-1.521-.131-2.034 1.632-1.445 3.261-2.523 5.639-1.373 4.344-3.048 4.653-2.273 5.271Zm4.033 4.409c.489.576-4.639 10.271-3.978 10.189 2.71-.338.542 3.348 6.041-9.266-.688-.309-1.376-.615-2.063-.923Zm-7.372 22.553c-2.871-.166-1.606-1.367-6.108 8.96-3.194 7.32-2.975 6.358-2.293 6.323 2.447-.134 1.177 1.28 8.401-15.283Zm14.146 67.937c-.355.073-.466.085.012.053a.337.337 0 0 1-.012-.053Zm-41.613 54.14c.009.076.009.05-.003-.017a.034.034 0 0 1 .003.017Zm-.003-.023c.003.029.003.026 0 0Zm17.979 14.721c-1.442-.732-1.107-1.116-3.264-.021-.827.429-1.5 1.143-1.582 2.707-.049.918-.076.723 1.16.883 7.113 1.014 5.531-2.622 3.686-3.569Zm-16.799-6.778c1.213-3.846.091-3.208-1.416-6.949-.489-.752-.317-.612-.883.18-1.273 1.772-.935 3.491-.483 5.487.294 1.303-.23.149 2.162 1.142.784.327.562.365.62.14Zm-.064.874c-.781-.381-1.661-.649-2.159-.734-.262-.029-.078-.21.691 2.526 1.556 5.508.014 4.858 1.812 5.132-.405-.05.382.064.717.055-2.384-8.567 1.565-5.685-1.061-6.979Zm-1.494-8.173c-.181-.417-.14-.353-.251-.192.294.236.306.326.251.192Zm15.402 12.495c-2.896.381-2.61 1.611-4.178.821-1.451-.725-6.504-4.848-7.11-5.664-1.297-1.195-1.973-4.357-1.909-3.066.097 1.766-.402 2.766-.443 2.827-.099.148-.206.032.091.195 3.855 1.23 4.741 8.882 10.627 9.75 1.174.146.772.288.845-.595.145-1.658.848-2.8 2.937-3.397.97-.289.594.084-.691-.979a.277.277 0 0 1-.169.108Zm-11.306-16.172c-.323 2.503.4 2.957.027 2.471-1.355-1.787.641-5.304-.411-13.081 1.037 11.644-3.488 12.244-3.331 13.643.245 1.346 1.338 2.987 1.833 3.738 2.054 3.13 1.574 3.471 3.252 4.765-.029-.024 2.407 1.663 4.31 3.575 2.584 1.78 2.115 1.471 2.931 1.104 3.639-1.608 2.18.991.105-4.405-.012-.03-3.068-9.302-3.476-11.155-.81-3.686 1.561-28.908 4.671-39.565.445-1.526 1.658-2.194-6.638-3.517-1.25-.119-5.239-.655-6.361-.955-1.932 16.055 4.907 29.66 3.088 43.382Zm-6.136-46.579c.781 1.078-1.005 1.416 7.451 2.57 4.03.495 10.659.504 10.635.65 2.9.216 4.511.734 5.901.571 1.378-.195 4.312-1.02 4.986-2.229 1.218-2.177-1.154-1.317-3.506-8.902-2.124-7.017-2.118-16.309-2.803-19.197.516 1.682 1.536 11.904 3.179 16.813 2.821 8.419 3.654 7.003 4.572 9.328.737 1.905-1.571 1.468 3.925.312 3.552-.746 2.966-.554 1.224-1.644-1.084-.685.373-1.597 1.632-1.862 8.205-1.736 7.045.452 6.259-3.741-5.473-21.446-11.807-26.855-13.634-40.751-1.055-7.85-1.172-12.556-1.894-17.699-3.054 7.005-2.078 1.807-.688 15.785.437 4.42.562 6.378 1.227 9.613 0 .029-1.087-1.883-2.67-16.776-.495-4.653-.034-3.153-1.762.3 0-.029-.336.405-1.481.51-.781.076-1.436.015-1.841.169a.446.446 0 0 1-.193.015c-.049.268-.311.449-.649.297-14.261-6.384-11.088-5.545-21.065-7.232-3.832-.469-3.205-.592-3.438.982-1.396 12.317.583 35.817.157 43.883-.405 7.926-5.755 12.876-4.77 13.652 3.954 2.992 7.836 2.625 9.246 4.583Zm-16.114 36.89c.527-.968 1.134-3.325 2.372-6.454 2.926-7.37 13.238-21.694 13.159-22.6-.265-3.36-5.97-10.26-9.211-9.156-5.833 7.098-7.899 24.244-9.653 29.104-.059.16-3.66 9.155-3.847 9.432-.979 1.472-1.09 1.303-4.027 2.515-.518.221.449.201 1.684 2.593.781 1.515 1.542 4.992 1.02 7.166-.166.661-.107.824.42 2.517 1.839 5.942 1.186 5.793 2.867 6.807.385.23.732.422 1.154.449-.755-1.574.965-9.462 1.119-10.38.294-2.208.373-3.895.761-5.918.005-.032.976-5.88.6-2.546.408-1.23.551-1.647 1.582-3.529Zm-1.48 27.784c.128-.064.035-.015-.251.055.102-.012.178-.029.251-.055Z" fill="#000"/><path d="M173.276 290.387c0-.003 0-.003 0 0-.006.007 0-.003 0 0ZM130.238 268.4v-.01c-.003.003 0 .007 0 .01ZM172.682 105.591c-4.453-3.292-4.31-3.027-4.281-3.027 1.489 0 10.391 7.972 4.281 3.027ZM158.182 126.685c-2.141-2.617-3.712-3.202-3.482-3.202.032 0 1.894 1.017 3.439 3.083 1.02 1.357-.085-.059.043.119ZM155.831 125.432c-2.489-2.054-2.48-1.862-2.439-1.862-.117.006 1.585.411 4.802 3.992.064.064-1.201-1.174-2.363-2.13ZM152.751 124.022c.588-.018 2.896 1.868 3.45 2.41.291.285.6.734.551.67-1.583-1.804-4.033-3.08-4.001-3.08ZM151.818 124.427c1.411.393 2.891 1.529 3.986 2.503.111.11-2.287-1.644-3.47-2.157-1.087-.443-3.296-1.122-.516-.346ZM163.419 81.001c-.164.778-1.714.423-1.332-.492.303-.711 1.498-.24 1.332.492Zm-.306-.224c.003.023.003.02 0 0 0-.003.003-.003.003-.006 0 .003-.003.003-.003.006v-.006.006s-.003.003 0 0c-.003.003-.003.003 0 0-.003.003 0 0 0 0Zm-.711-.236c-.21.303.201.588.253.588.029-.16.507-.218.446-.404-.117-.245-.525-.373-.699-.184ZM220.988 77.537c.192 0 .192.291 0 .291s-.192-.291 0-.291ZM221.574 77.918c.041 0 .938.353.906.475-.079.289-1.454-.475-.906-.475Zm-.018.219c-.005-.003-.002-.003-.008-.003.003 0 .006.003.008.003ZM219.444 76.93c.11-.064.166.059.647.266.76.305.317.378.268.355-.426-.207-1.236-.42-.915-.62ZM212.401 96.296c.193 0 .193.291 0 .291-.192 0-.192-.29 0-.29ZM216.305 76.103c-.003.01.003-.006 0 0ZM184.949 120.939c1.163-2.838.286-3.829-1.023-5.496-.052-.075 1.786 1.052 2.124 2.506.639 2.763-2.739 6.542-2.913 6.784-.196.192 1.072-2.197 1.812-3.794Z" fill="#000"/></g><defs><clipPath id="a"><path fill="#fff" transform="matrix(-1 0 0 1 226.044 56)" d="M0 0h103.044v238.933H0z"/></clipPath></defs></svg>